G04 #@! TF.GenerationSoftware,KiCad,Pcbnew,(5.1.5)-3*
G04 #@! TF.CreationDate,2020-05-07T11:30:42+02:00*
G04 #@! TF.ProjectId,TPS26600_ePuse,54505332-3636-4303-905f-65507573652e,rev?*
G04 #@! TF.SameCoordinates,Original*
G04 #@! TF.FileFunction,Legend,Bot*
G04 #@! TF.FilePolarity,Positive*
%FSLAX46Y46*%
G04 Gerber Fmt 4.6, Leading zero omitted, Abs format (unit mm)*
G04 Created by KiCad (PCBNEW (5.1.5)-3) date 2020-05-07 11:30:42*
%MOMM*%
%LPD*%
G04 APERTURE LIST*
%ADD10C,0.150000*%
%ADD11C,0.120000*%
%ADD12C,0.010000*%
G04 APERTURE END LIST*
D10*
X96837142Y-143581428D02*
X96075238Y-143581428D01*
X95741904Y-142962380D02*
X95408571Y-143962380D01*
X95075238Y-142962380D01*
X94551428Y-142962380D02*
X94360952Y-142962380D01*
X94265714Y-143010000D01*
X94170476Y-143105238D01*
X94122857Y-143295714D01*
X94122857Y-143629047D01*
X94170476Y-143819523D01*
X94265714Y-143914761D01*
X94360952Y-143962380D01*
X94551428Y-143962380D01*
X94646666Y-143914761D01*
X94741904Y-143819523D01*
X94789523Y-143629047D01*
X94789523Y-143295714D01*
X94741904Y-143105238D01*
X94646666Y-143010000D01*
X94551428Y-142962380D01*
X93694285Y-142962380D02*
X93694285Y-143771904D01*
X93646666Y-143867142D01*
X93599047Y-143914761D01*
X93503809Y-143962380D01*
X93313333Y-143962380D01*
X93218095Y-143914761D01*
X93170476Y-143867142D01*
X93122857Y-143771904D01*
X93122857Y-142962380D01*
X92789523Y-142962380D02*
X92218095Y-142962380D01*
X92503809Y-143962380D02*
X92503809Y-142962380D01*
X91884761Y-143581428D02*
X91122857Y-143581428D01*
X91503809Y-143962380D02*
X91503809Y-143200476D01*
D11*
X88900000Y-137795000D02*
X88900000Y-142875000D01*
D10*
X86010476Y-143581428D02*
X85248571Y-143581428D01*
X84915238Y-142962380D02*
X84581904Y-143962380D01*
X84248571Y-142962380D01*
X83915238Y-143962380D02*
X83915238Y-142962380D01*
X83439047Y-143962380D02*
X83439047Y-142962380D01*
X82867619Y-143962380D01*
X82867619Y-142962380D01*
X82391428Y-143581428D02*
X81629523Y-143581428D01*
X82010476Y-143962380D02*
X82010476Y-143200476D01*
X100076000Y-136234714D02*
X100076000Y-135472714D01*
X99894571Y-135472714D01*
X99785714Y-135509000D01*
X99713142Y-135581571D01*
X99676857Y-135654142D01*
X99640571Y-135799285D01*
X99640571Y-135908142D01*
X99676857Y-136053285D01*
X99713142Y-136125857D01*
X99785714Y-136198428D01*
X99894571Y-136234714D01*
X100076000Y-136234714D01*
X99314000Y-135835571D02*
X99060000Y-135835571D01*
X98951142Y-136234714D02*
X99314000Y-136234714D01*
X99314000Y-135472714D01*
X98951142Y-135472714D01*
X98660857Y-136198428D02*
X98552000Y-136234714D01*
X98370571Y-136234714D01*
X98298000Y-136198428D01*
X98261714Y-136162142D01*
X98225428Y-136089571D01*
X98225428Y-136017000D01*
X98261714Y-135944428D01*
X98298000Y-135908142D01*
X98370571Y-135871857D01*
X98515714Y-135835571D01*
X98588285Y-135799285D01*
X98624571Y-135763000D01*
X98660857Y-135690428D01*
X98660857Y-135617857D01*
X98624571Y-135545285D01*
X98588285Y-135509000D01*
X98515714Y-135472714D01*
X98334285Y-135472714D01*
X98225428Y-135509000D01*
X97898857Y-136234714D02*
X97898857Y-135472714D01*
X97136857Y-135509000D02*
X97209428Y-135472714D01*
X97318285Y-135472714D01*
X97427142Y-135509000D01*
X97499714Y-135581571D01*
X97536000Y-135654142D01*
X97572285Y-135799285D01*
X97572285Y-135908142D01*
X97536000Y-136053285D01*
X97499714Y-136125857D01*
X97427142Y-136198428D01*
X97318285Y-136234714D01*
X97245714Y-136234714D01*
X97136857Y-136198428D01*
X97100571Y-136162142D01*
X97100571Y-135908142D01*
X97245714Y-135908142D01*
X96774000Y-136234714D02*
X96774000Y-135472714D01*
X96338571Y-136234714D01*
X96338571Y-135472714D01*
X95975714Y-135835571D02*
X95721714Y-135835571D01*
X95612857Y-136234714D02*
X95975714Y-136234714D01*
X95975714Y-135472714D01*
X95612857Y-135472714D01*
X95286285Y-136234714D02*
X95286285Y-135472714D01*
X95104857Y-135472714D01*
X94996000Y-135509000D01*
X94923428Y-135581571D01*
X94887142Y-135654142D01*
X94850857Y-135799285D01*
X94850857Y-135908142D01*
X94887142Y-136053285D01*
X94923428Y-136125857D01*
X94996000Y-136198428D01*
X95104857Y-136234714D01*
X95286285Y-136234714D01*
X93689714Y-135835571D02*
X93580857Y-135871857D01*
X93544571Y-135908142D01*
X93508285Y-135980714D01*
X93508285Y-136089571D01*
X93544571Y-136162142D01*
X93580857Y-136198428D01*
X93653428Y-136234714D01*
X93943714Y-136234714D01*
X93943714Y-135472714D01*
X93689714Y-135472714D01*
X93617142Y-135509000D01*
X93580857Y-135545285D01*
X93544571Y-135617857D01*
X93544571Y-135690428D01*
X93580857Y-135763000D01*
X93617142Y-135799285D01*
X93689714Y-135835571D01*
X93943714Y-135835571D01*
X93036571Y-135871857D02*
X93036571Y-136234714D01*
X93290571Y-135472714D02*
X93036571Y-135871857D01*
X92782571Y-135472714D01*
X92528571Y-136162142D02*
X92492285Y-136198428D01*
X92528571Y-136234714D01*
X92564857Y-136198428D01*
X92528571Y-136162142D01*
X92528571Y-136234714D01*
X92528571Y-135763000D02*
X92492285Y-135799285D01*
X92528571Y-135835571D01*
X92564857Y-135799285D01*
X92528571Y-135763000D01*
X92528571Y-135835571D01*
X91585142Y-136234714D02*
X91585142Y-135472714D01*
X91331142Y-136017000D01*
X91077142Y-135472714D01*
X91077142Y-136234714D01*
X90750571Y-136017000D02*
X90387714Y-136017000D01*
X90823142Y-136234714D02*
X90569142Y-135472714D01*
X90315142Y-136234714D01*
X89625714Y-136234714D02*
X89879714Y-135871857D01*
X90061142Y-136234714D02*
X90061142Y-135472714D01*
X89770857Y-135472714D01*
X89698285Y-135509000D01*
X89662000Y-135545285D01*
X89625714Y-135617857D01*
X89625714Y-135726714D01*
X89662000Y-135799285D01*
X89698285Y-135835571D01*
X89770857Y-135871857D01*
X90061142Y-135871857D01*
X89299142Y-136234714D02*
X89299142Y-135472714D01*
X88791142Y-135472714D02*
X88646000Y-135472714D01*
X88573428Y-135509000D01*
X88500857Y-135581571D01*
X88464571Y-135726714D01*
X88464571Y-135980714D01*
X88500857Y-136125857D01*
X88573428Y-136198428D01*
X88646000Y-136234714D01*
X88791142Y-136234714D01*
X88863714Y-136198428D01*
X88936285Y-136125857D01*
X88972571Y-135980714D01*
X88972571Y-135726714D01*
X88936285Y-135581571D01*
X88863714Y-135509000D01*
X88791142Y-135472714D01*
X87412285Y-135472714D02*
X87267142Y-135472714D01*
X87194571Y-135509000D01*
X87122000Y-135581571D01*
X87085714Y-135726714D01*
X87085714Y-135980714D01*
X87122000Y-136125857D01*
X87194571Y-136198428D01*
X87267142Y-136234714D01*
X87412285Y-136234714D01*
X87484857Y-136198428D01*
X87557428Y-136125857D01*
X87593714Y-135980714D01*
X87593714Y-135726714D01*
X87557428Y-135581571D01*
X87484857Y-135509000D01*
X87412285Y-135472714D01*
X86396285Y-136234714D02*
X86759142Y-136234714D01*
X86759142Y-135472714D01*
X86142285Y-135835571D02*
X85888285Y-135835571D01*
X85779428Y-136234714D02*
X86142285Y-136234714D01*
X86142285Y-135472714D01*
X85779428Y-135472714D01*
X85561714Y-135472714D02*
X85126285Y-135472714D01*
X85344000Y-136234714D02*
X85344000Y-135472714D01*
X84872285Y-136234714D02*
X84872285Y-135472714D01*
X84074000Y-136162142D02*
X84110285Y-136198428D01*
X84219142Y-136234714D01*
X84291714Y-136234714D01*
X84400571Y-136198428D01*
X84473142Y-136125857D01*
X84509428Y-136053285D01*
X84545714Y-135908142D01*
X84545714Y-135799285D01*
X84509428Y-135654142D01*
X84473142Y-135581571D01*
X84400571Y-135509000D01*
X84291714Y-135472714D01*
X84219142Y-135472714D01*
X84110285Y-135509000D01*
X84074000Y-135545285D01*
X84182857Y-135182428D02*
X84291714Y-135291285D01*
X83711142Y-136198428D02*
X83711142Y-136234714D01*
X83747428Y-136307285D01*
X83783714Y-136343571D01*
X82804000Y-136234714D02*
X82804000Y-135726714D01*
X82804000Y-135799285D02*
X82767714Y-135763000D01*
X82695142Y-135726714D01*
X82586285Y-135726714D01*
X82513714Y-135763000D01*
X82477428Y-135835571D01*
X82477428Y-136234714D01*
X82477428Y-135835571D02*
X82441142Y-135763000D01*
X82368571Y-135726714D01*
X82259714Y-135726714D01*
X82187142Y-135763000D01*
X82150857Y-135835571D01*
X82150857Y-136234714D01*
X81461428Y-136234714D02*
X81461428Y-135835571D01*
X81497714Y-135763000D01*
X81570285Y-135726714D01*
X81715428Y-135726714D01*
X81788000Y-135763000D01*
X81461428Y-136198428D02*
X81534000Y-136234714D01*
X81715428Y-136234714D01*
X81788000Y-136198428D01*
X81824285Y-136125857D01*
X81824285Y-136053285D01*
X81788000Y-135980714D01*
X81715428Y-135944428D01*
X81534000Y-135944428D01*
X81461428Y-135908142D01*
X80772000Y-135726714D02*
X80772000Y-136343571D01*
X80808285Y-136416142D01*
X80844571Y-136452428D01*
X80917142Y-136488714D01*
X81026000Y-136488714D01*
X81098571Y-136452428D01*
X80772000Y-136198428D02*
X80844571Y-136234714D01*
X80989714Y-136234714D01*
X81062285Y-136198428D01*
X81098571Y-136162142D01*
X81134857Y-136089571D01*
X81134857Y-135871857D01*
X81098571Y-135799285D01*
X81062285Y-135763000D01*
X80989714Y-135726714D01*
X80844571Y-135726714D01*
X80772000Y-135763000D01*
X80409142Y-136162142D02*
X80372857Y-136198428D01*
X80409142Y-136234714D01*
X80445428Y-136198428D01*
X80409142Y-136162142D01*
X80409142Y-136234714D01*
X79465714Y-136234714D02*
X79465714Y-135726714D01*
X79465714Y-135472714D02*
X79502000Y-135509000D01*
X79465714Y-135545285D01*
X79429428Y-135509000D01*
X79465714Y-135472714D01*
X79465714Y-135545285D01*
X79102857Y-135726714D02*
X79102857Y-136234714D01*
X79102857Y-135799285D02*
X79066571Y-135763000D01*
X78994000Y-135726714D01*
X78885142Y-135726714D01*
X78812571Y-135763000D01*
X78776285Y-135835571D01*
X78776285Y-136234714D01*
X78086857Y-135726714D02*
X78086857Y-136343571D01*
X78123142Y-136416142D01*
X78159428Y-136452428D01*
X78232000Y-136488714D01*
X78340857Y-136488714D01*
X78413428Y-136452428D01*
X78086857Y-136198428D02*
X78159428Y-136234714D01*
X78304571Y-136234714D01*
X78377142Y-136198428D01*
X78413428Y-136162142D01*
X78449714Y-136089571D01*
X78449714Y-135871857D01*
X78413428Y-135799285D01*
X78377142Y-135763000D01*
X78304571Y-135726714D01*
X78159428Y-135726714D01*
X78086857Y-135763000D01*
X77724000Y-136162142D02*
X77687714Y-136198428D01*
X77724000Y-136234714D01*
X77760285Y-136198428D01*
X77724000Y-136162142D01*
X77724000Y-136234714D01*
X98624571Y-177128714D02*
X98624571Y-176366714D01*
X98624571Y-176729571D02*
X98189142Y-176729571D01*
X98189142Y-177128714D02*
X98189142Y-176366714D01*
X97898857Y-176366714D02*
X97717428Y-177128714D01*
X97572285Y-176584428D01*
X97427142Y-177128714D01*
X97245714Y-176366714D01*
X95939428Y-177128714D02*
X96193428Y-176765857D01*
X96374857Y-177128714D02*
X96374857Y-176366714D01*
X96084571Y-176366714D01*
X96012000Y-176403000D01*
X95975714Y-176439285D01*
X95939428Y-176511857D01*
X95939428Y-176620714D01*
X95975714Y-176693285D01*
X96012000Y-176729571D01*
X96084571Y-176765857D01*
X96374857Y-176765857D01*
X95612857Y-176729571D02*
X95358857Y-176729571D01*
X95250000Y-177128714D02*
X95612857Y-177128714D01*
X95612857Y-176366714D01*
X95250000Y-176366714D01*
X95032285Y-176366714D02*
X94778285Y-177128714D01*
X94524285Y-176366714D01*
X94270285Y-177056142D02*
X94234000Y-177092428D01*
X94270285Y-177128714D01*
X94306571Y-177092428D01*
X94270285Y-177056142D01*
X94270285Y-177128714D01*
X92927714Y-177128714D02*
X93363142Y-177128714D01*
X93145428Y-177128714D02*
X93145428Y-176366714D01*
X93218000Y-176475571D01*
X93290571Y-176548142D01*
X93363142Y-176584428D01*
X92601142Y-177056142D02*
X92564857Y-177092428D01*
X92601142Y-177128714D01*
X92637428Y-177092428D01*
X92601142Y-177056142D01*
X92601142Y-177128714D01*
X92093142Y-176366714D02*
X92020571Y-176366714D01*
X91948000Y-176403000D01*
X91911714Y-176439285D01*
X91875428Y-176511857D01*
X91839142Y-176657000D01*
X91839142Y-176838428D01*
X91875428Y-176983571D01*
X91911714Y-177056142D01*
X91948000Y-177092428D01*
X92020571Y-177128714D01*
X92093142Y-177128714D01*
X92165714Y-177092428D01*
X92202000Y-177056142D01*
X92238285Y-176983571D01*
X92274571Y-176838428D01*
X92274571Y-176657000D01*
X92238285Y-176511857D01*
X92202000Y-176439285D01*
X92165714Y-176403000D01*
X92093142Y-176366714D01*
X98279857Y-158695571D02*
X98533857Y-158695571D01*
X98533857Y-159094714D02*
X98533857Y-158332714D01*
X98171000Y-158332714D01*
X97517857Y-159094714D02*
X97880714Y-159094714D01*
X97880714Y-158332714D01*
X97372714Y-158332714D02*
X96937285Y-158332714D01*
X97155000Y-159094714D02*
X97155000Y-158332714D01*
X97935142Y-171032714D02*
X98298000Y-171032714D01*
X98334285Y-171395571D01*
X98298000Y-171359285D01*
X98225428Y-171323000D01*
X98044000Y-171323000D01*
X97971428Y-171359285D01*
X97935142Y-171395571D01*
X97898857Y-171468142D01*
X97898857Y-171649571D01*
X97935142Y-171722142D01*
X97971428Y-171758428D01*
X98044000Y-171794714D01*
X98225428Y-171794714D01*
X98298000Y-171758428D01*
X98334285Y-171722142D01*
X97681142Y-171032714D02*
X97427142Y-171794714D01*
X97173142Y-171032714D01*
X97862571Y-173609000D02*
X97935142Y-173572714D01*
X98044000Y-173572714D01*
X98152857Y-173609000D01*
X98225428Y-173681571D01*
X98261714Y-173754142D01*
X98298000Y-173899285D01*
X98298000Y-174008142D01*
X98261714Y-174153285D01*
X98225428Y-174225857D01*
X98152857Y-174298428D01*
X98044000Y-174334714D01*
X97971428Y-174334714D01*
X97862571Y-174298428D01*
X97826285Y-174262142D01*
X97826285Y-174008142D01*
X97971428Y-174008142D01*
X97499714Y-174334714D02*
X97499714Y-173572714D01*
X97064285Y-174334714D01*
X97064285Y-173572714D01*
X96701428Y-174334714D02*
X96701428Y-173572714D01*
X96520000Y-173572714D01*
X96411142Y-173609000D01*
X96338571Y-173681571D01*
X96302285Y-173754142D01*
X96266000Y-173899285D01*
X96266000Y-174008142D01*
X96302285Y-174153285D01*
X96338571Y-174225857D01*
X96411142Y-174298428D01*
X96520000Y-174334714D01*
X96701428Y-174334714D01*
X81098571Y-173609000D02*
X81171142Y-173572714D01*
X81280000Y-173572714D01*
X81388857Y-173609000D01*
X81461428Y-173681571D01*
X81497714Y-173754142D01*
X81534000Y-173899285D01*
X81534000Y-174008142D01*
X81497714Y-174153285D01*
X81461428Y-174225857D01*
X81388857Y-174298428D01*
X81280000Y-174334714D01*
X81207428Y-174334714D01*
X81098571Y-174298428D01*
X81062285Y-174262142D01*
X81062285Y-174008142D01*
X81207428Y-174008142D01*
X80735714Y-174334714D02*
X80735714Y-173572714D01*
X80300285Y-174334714D01*
X80300285Y-173572714D01*
X79937428Y-174334714D02*
X79937428Y-173572714D01*
X79756000Y-173572714D01*
X79647142Y-173609000D01*
X79574571Y-173681571D01*
X79538285Y-173754142D01*
X79502000Y-173899285D01*
X79502000Y-174008142D01*
X79538285Y-174153285D01*
X79574571Y-174225857D01*
X79647142Y-174298428D01*
X79756000Y-174334714D01*
X79937428Y-174334714D01*
X81207428Y-171032714D02*
X80735714Y-171032714D01*
X80989714Y-171323000D01*
X80880857Y-171323000D01*
X80808285Y-171359285D01*
X80772000Y-171395571D01*
X80735714Y-171468142D01*
X80735714Y-171649571D01*
X80772000Y-171722142D01*
X80808285Y-171758428D01*
X80880857Y-171794714D01*
X81098571Y-171794714D01*
X81171142Y-171758428D01*
X81207428Y-171722142D01*
X80518000Y-171032714D02*
X80264000Y-171794714D01*
X80010000Y-171032714D01*
X79828571Y-171032714D02*
X79356857Y-171032714D01*
X79610857Y-171323000D01*
X79502000Y-171323000D01*
X79429428Y-171359285D01*
X79393142Y-171395571D01*
X79356857Y-171468142D01*
X79356857Y-171649571D01*
X79393142Y-171722142D01*
X79429428Y-171758428D01*
X79502000Y-171794714D01*
X79719714Y-171794714D01*
X79792285Y-171758428D01*
X79828571Y-171722142D01*
X82042000Y-161598428D02*
X81933142Y-161634714D01*
X81751714Y-161634714D01*
X81679142Y-161598428D01*
X81642857Y-161562142D01*
X81606571Y-161489571D01*
X81606571Y-161417000D01*
X81642857Y-161344428D01*
X81679142Y-161308142D01*
X81751714Y-161271857D01*
X81896857Y-161235571D01*
X81969428Y-161199285D01*
X82005714Y-161163000D01*
X82042000Y-161090428D01*
X82042000Y-161017857D01*
X82005714Y-160945285D01*
X81969428Y-160909000D01*
X81896857Y-160872714D01*
X81715428Y-160872714D01*
X81606571Y-160909000D01*
X81280000Y-161634714D02*
X81280000Y-160872714D01*
X81280000Y-161235571D02*
X80844571Y-161235571D01*
X80844571Y-161634714D02*
X80844571Y-160872714D01*
X80481714Y-161634714D02*
X80481714Y-160872714D01*
X80300285Y-160872714D01*
X80191428Y-160909000D01*
X80118857Y-160981571D01*
X80082571Y-161054142D01*
X80046285Y-161199285D01*
X80046285Y-161308142D01*
X80082571Y-161453285D01*
X80118857Y-161525857D01*
X80191428Y-161598428D01*
X80300285Y-161634714D01*
X80481714Y-161634714D01*
X79719714Y-161634714D02*
X79719714Y-160872714D01*
X79284285Y-161634714D01*
X79284285Y-160872714D01*
X98388714Y-156554714D02*
X98388714Y-155792714D01*
X97953285Y-156554714D01*
X97953285Y-155792714D01*
X97155000Y-156482142D02*
X97191285Y-156518428D01*
X97300142Y-156554714D01*
X97372714Y-156554714D01*
X97481571Y-156518428D01*
X97554142Y-156445857D01*
X97590428Y-156373285D01*
X97626714Y-156228142D01*
X97626714Y-156119285D01*
X97590428Y-155974142D01*
X97554142Y-155901571D01*
X97481571Y-155829000D01*
X97372714Y-155792714D01*
X97300142Y-155792714D01*
X97191285Y-155829000D01*
X97155000Y-155865285D01*
X98388714Y-161634714D02*
X98388714Y-160872714D01*
X97953285Y-161634714D01*
X97953285Y-160872714D01*
X97155000Y-161562142D02*
X97191285Y-161598428D01*
X97300142Y-161634714D01*
X97372714Y-161634714D01*
X97481571Y-161598428D01*
X97554142Y-161525857D01*
X97590428Y-161453285D01*
X97626714Y-161308142D01*
X97626714Y-161199285D01*
X97590428Y-161054142D01*
X97554142Y-160981571D01*
X97481571Y-160909000D01*
X97372714Y-160872714D01*
X97300142Y-160872714D01*
X97191285Y-160909000D01*
X97155000Y-160945285D01*
X98388714Y-164174714D02*
X98388714Y-163412714D01*
X97953285Y-164174714D01*
X97953285Y-163412714D01*
X97155000Y-164102142D02*
X97191285Y-164138428D01*
X97300142Y-164174714D01*
X97372714Y-164174714D01*
X97481571Y-164138428D01*
X97554142Y-164065857D01*
X97590428Y-163993285D01*
X97626714Y-163848142D01*
X97626714Y-163739285D01*
X97590428Y-163594142D01*
X97554142Y-163521571D01*
X97481571Y-163449000D01*
X97372714Y-163412714D01*
X97300142Y-163412714D01*
X97191285Y-163449000D01*
X97155000Y-163485285D01*
X98388714Y-166714714D02*
X98388714Y-165952714D01*
X97953285Y-166714714D01*
X97953285Y-165952714D01*
X97155000Y-166642142D02*
X97191285Y-166678428D01*
X97300142Y-166714714D01*
X97372714Y-166714714D01*
X97481571Y-166678428D01*
X97554142Y-166605857D01*
X97590428Y-166533285D01*
X97626714Y-166388142D01*
X97626714Y-166279285D01*
X97590428Y-166134142D01*
X97554142Y-166061571D01*
X97481571Y-165989000D01*
X97372714Y-165952714D01*
X97300142Y-165952714D01*
X97191285Y-165989000D01*
X97155000Y-166025285D01*
X98388714Y-169254714D02*
X98388714Y-168492714D01*
X97953285Y-169254714D01*
X97953285Y-168492714D01*
X97155000Y-169182142D02*
X97191285Y-169218428D01*
X97300142Y-169254714D01*
X97372714Y-169254714D01*
X97481571Y-169218428D01*
X97554142Y-169145857D01*
X97590428Y-169073285D01*
X97626714Y-168928142D01*
X97626714Y-168819285D01*
X97590428Y-168674142D01*
X97554142Y-168601571D01*
X97481571Y-168529000D01*
X97372714Y-168492714D01*
X97300142Y-168492714D01*
X97191285Y-168529000D01*
X97155000Y-168565285D01*
X80608714Y-169254714D02*
X80608714Y-168492714D01*
X80173285Y-169254714D01*
X80173285Y-168492714D01*
X79375000Y-169182142D02*
X79411285Y-169218428D01*
X79520142Y-169254714D01*
X79592714Y-169254714D01*
X79701571Y-169218428D01*
X79774142Y-169145857D01*
X79810428Y-169073285D01*
X79846714Y-168928142D01*
X79846714Y-168819285D01*
X79810428Y-168674142D01*
X79774142Y-168601571D01*
X79701571Y-168529000D01*
X79592714Y-168492714D01*
X79520142Y-168492714D01*
X79411285Y-168529000D01*
X79375000Y-168565285D01*
X80608714Y-166714714D02*
X80608714Y-165952714D01*
X80173285Y-166714714D01*
X80173285Y-165952714D01*
X79375000Y-166642142D02*
X79411285Y-166678428D01*
X79520142Y-166714714D01*
X79592714Y-166714714D01*
X79701571Y-166678428D01*
X79774142Y-166605857D01*
X79810428Y-166533285D01*
X79846714Y-166388142D01*
X79846714Y-166279285D01*
X79810428Y-166134142D01*
X79774142Y-166061571D01*
X79701571Y-165989000D01*
X79592714Y-165952714D01*
X79520142Y-165952714D01*
X79411285Y-165989000D01*
X79375000Y-166025285D01*
X80608714Y-164174714D02*
X80608714Y-163412714D01*
X80173285Y-164174714D01*
X80173285Y-163412714D01*
X79375000Y-164102142D02*
X79411285Y-164138428D01*
X79520142Y-164174714D01*
X79592714Y-164174714D01*
X79701571Y-164138428D01*
X79774142Y-164065857D01*
X79810428Y-163993285D01*
X79846714Y-163848142D01*
X79846714Y-163739285D01*
X79810428Y-163594142D01*
X79774142Y-163521571D01*
X79701571Y-163449000D01*
X79592714Y-163412714D01*
X79520142Y-163412714D01*
X79411285Y-163449000D01*
X79375000Y-163485285D01*
X80608714Y-159094714D02*
X80608714Y-158332714D01*
X80173285Y-159094714D01*
X80173285Y-158332714D01*
X79375000Y-159022142D02*
X79411285Y-159058428D01*
X79520142Y-159094714D01*
X79592714Y-159094714D01*
X79701571Y-159058428D01*
X79774142Y-158985857D01*
X79810428Y-158913285D01*
X79846714Y-158768142D01*
X79846714Y-158659285D01*
X79810428Y-158514142D01*
X79774142Y-158441571D01*
X79701571Y-158369000D01*
X79592714Y-158332714D01*
X79520142Y-158332714D01*
X79411285Y-158369000D01*
X79375000Y-158405285D01*
X81878714Y-156554714D02*
X81878714Y-155792714D01*
X81515857Y-156554714D02*
X81515857Y-155792714D01*
X81261857Y-156337000D01*
X81007857Y-155792714D01*
X81007857Y-156554714D01*
X80499857Y-155792714D02*
X80354714Y-155792714D01*
X80282142Y-155829000D01*
X80209571Y-155901571D01*
X80173285Y-156046714D01*
X80173285Y-156300714D01*
X80209571Y-156445857D01*
X80282142Y-156518428D01*
X80354714Y-156554714D01*
X80499857Y-156554714D01*
X80572428Y-156518428D01*
X80645000Y-156445857D01*
X80681285Y-156300714D01*
X80681285Y-156046714D01*
X80645000Y-155901571D01*
X80572428Y-155829000D01*
X80499857Y-155792714D01*
X79846714Y-156554714D02*
X79846714Y-155792714D01*
X79411285Y-156554714D01*
X79411285Y-155792714D01*
D12*
G36*
X78994000Y-149106466D02*
G01*
X79002467Y-149114933D01*
X79010933Y-149106466D01*
X79002467Y-149098000D01*
X78994000Y-149106466D01*
G37*
X78994000Y-149106466D02*
X79002467Y-149114933D01*
X79010933Y-149106466D01*
X79002467Y-149098000D01*
X78994000Y-149106466D01*
G36*
X79425481Y-146299479D02*
G01*
X79428143Y-146312466D01*
X79440162Y-146334747D01*
X79444545Y-146337866D01*
X79450464Y-146324039D01*
X79451200Y-146312466D01*
X79442338Y-146289928D01*
X79434798Y-146287066D01*
X79425481Y-146299479D01*
G37*
X79425481Y-146299479D02*
X79428143Y-146312466D01*
X79440162Y-146334747D01*
X79444545Y-146337866D01*
X79450464Y-146324039D01*
X79451200Y-146312466D01*
X79442338Y-146289928D01*
X79434798Y-146287066D01*
X79425481Y-146299479D01*
G36*
X81116041Y-147158387D02*
G01*
X81127600Y-147165830D01*
X81162462Y-147179395D01*
X81203800Y-147190019D01*
X81254600Y-147200075D01*
X81203800Y-147176134D01*
X81166054Y-147161106D01*
X81133752Y-147152449D01*
X81114533Y-147151199D01*
X81116041Y-147158387D01*
G37*
X81116041Y-147158387D02*
X81127600Y-147165830D01*
X81162462Y-147179395D01*
X81203800Y-147190019D01*
X81254600Y-147200075D01*
X81203800Y-147176134D01*
X81166054Y-147161106D01*
X81133752Y-147152449D01*
X81114533Y-147151199D01*
X81116041Y-147158387D01*
G36*
X79996128Y-145421467D02*
G01*
X79939804Y-145439608D01*
X79854348Y-145483553D01*
X79764944Y-145549647D01*
X79681667Y-145629209D01*
X79614592Y-145713561D01*
X79605751Y-145727386D01*
X79571948Y-145776448D01*
X79539411Y-145814205D01*
X79522259Y-145828086D01*
X79489977Y-145836878D01*
X79435260Y-145843835D01*
X79369537Y-145847540D01*
X79364846Y-145847640D01*
X79268958Y-145851068D01*
X79203198Y-145857556D01*
X79163913Y-145867789D01*
X79147449Y-145882450D01*
X79146400Y-145888531D01*
X79162089Y-145919785D01*
X79204445Y-145944980D01*
X79266405Y-145961068D01*
X79324374Y-145965333D01*
X79385055Y-145968292D01*
X79425054Y-145979788D01*
X79457242Y-146003753D01*
X79460436Y-146006897D01*
X79488718Y-146041515D01*
X79501879Y-146070111D01*
X79502000Y-146072029D01*
X79489512Y-146120526D01*
X79458835Y-146171738D01*
X79420148Y-146209880D01*
X79409016Y-146216184D01*
X79377239Y-146234378D01*
X79369985Y-146256204D01*
X79383079Y-146294630D01*
X79383466Y-146295533D01*
X79394555Y-146318232D01*
X79398409Y-146309298D01*
X79399210Y-146290881D01*
X79412283Y-146258428D01*
X79442456Y-146235711D01*
X79479547Y-146224945D01*
X79513374Y-146228347D01*
X79533758Y-146248133D01*
X79535866Y-146261135D01*
X79526886Y-146284008D01*
X79518933Y-146287066D01*
X79502955Y-146273838D01*
X79502000Y-146267311D01*
X79495346Y-146255769D01*
X79491120Y-146258435D01*
X79491108Y-146278462D01*
X79500316Y-146293504D01*
X79511816Y-146323754D01*
X79509917Y-146359857D01*
X79497686Y-146389324D01*
X79478186Y-146399663D01*
X79474511Y-146398675D01*
X79454981Y-146394944D01*
X79455436Y-146409046D01*
X79476335Y-146445110D01*
X79480362Y-146451298D01*
X79500135Y-146499256D01*
X79504527Y-146543443D01*
X79510201Y-146593379D01*
X79526165Y-146629109D01*
X79546907Y-146676143D01*
X79552800Y-146713661D01*
X79567265Y-146761478D01*
X79603600Y-146797744D01*
X79637091Y-146829319D01*
X79653929Y-146858539D01*
X79654400Y-146862598D01*
X79640111Y-146902175D01*
X79606060Y-146927445D01*
X79588215Y-146930533D01*
X79563875Y-146941851D01*
X79525075Y-146971458D01*
X79482262Y-147010967D01*
X79408279Y-147083955D01*
X79349713Y-147138349D01*
X79298782Y-147180227D01*
X79247703Y-147215667D01*
X79188692Y-147250746D01*
X79142971Y-147275920D01*
X79060091Y-147324096D01*
X79003083Y-147365750D01*
X78965854Y-147405556D01*
X78957348Y-147418299D01*
X78922103Y-147469013D01*
X78876917Y-147525387D01*
X78856317Y-147548600D01*
X78801747Y-147609618D01*
X78753176Y-147667798D01*
X78715376Y-147717048D01*
X78693114Y-147751278D01*
X78689200Y-147762006D01*
X78678837Y-147781878D01*
X78652466Y-147816729D01*
X78634167Y-147838209D01*
X78591567Y-147894423D01*
X78539804Y-147975510D01*
X78482463Y-148074969D01*
X78423129Y-148186299D01*
X78365389Y-148302998D01*
X78312827Y-148418564D01*
X78308282Y-148429133D01*
X78285830Y-148473605D01*
X78250201Y-148535442D01*
X78207533Y-148604191D01*
X78187254Y-148635226D01*
X78136114Y-148717228D01*
X78103137Y-148784321D01*
X78083683Y-148846637D01*
X78078682Y-148872293D01*
X78069542Y-148993924D01*
X78081117Y-149112446D01*
X78112085Y-149215902D01*
X78118127Y-149228984D01*
X78147943Y-149272915D01*
X78198021Y-149329425D01*
X78260960Y-149391553D01*
X78329360Y-149452338D01*
X78395820Y-149504820D01*
X78448050Y-149539309D01*
X78535697Y-149590860D01*
X78592749Y-149628235D01*
X78619329Y-149651517D01*
X78621467Y-149656637D01*
X78633213Y-149670435D01*
X78669976Y-149680705D01*
X78734045Y-149687718D01*
X78827706Y-149691742D01*
X78929280Y-149693006D01*
X79028464Y-149694334D01*
X79097624Y-149698580D01*
X79140578Y-149707321D01*
X79161141Y-149722131D01*
X79163131Y-149744586D01*
X79150365Y-149776260D01*
X79146921Y-149782825D01*
X79134575Y-149823048D01*
X79146101Y-149859441D01*
X79162148Y-149895605D01*
X79183030Y-149950629D01*
X79199452Y-149998295D01*
X79232711Y-150099608D01*
X79173579Y-150165060D01*
X79120503Y-150240691D01*
X79100984Y-150313257D01*
X79114908Y-150383353D01*
X79127699Y-150407474D01*
X79156259Y-150483787D01*
X79161924Y-150580198D01*
X79147241Y-150679418D01*
X79140517Y-150734136D01*
X79152708Y-150782059D01*
X79164579Y-150806167D01*
X79189625Y-150879795D01*
X79197200Y-150956726D01*
X79202238Y-151022247D01*
X79214989Y-151084857D01*
X79222600Y-151107212D01*
X79238782Y-151163991D01*
X79247523Y-151229796D01*
X79248023Y-151246368D01*
X79251092Y-151300928D01*
X79259199Y-151374545D01*
X79270729Y-151453073D01*
X79273400Y-151468667D01*
X79285417Y-151546036D01*
X79294360Y-151621033D01*
X79298623Y-151679725D01*
X79298773Y-151688800D01*
X79304560Y-151747584D01*
X79320975Y-151832233D01*
X79346632Y-151936947D01*
X79380147Y-152055927D01*
X79407990Y-152146000D01*
X79424569Y-152206818D01*
X79440849Y-152280884D01*
X79449095Y-152326612D01*
X79462373Y-152391629D01*
X79479202Y-152450368D01*
X79491377Y-152480496D01*
X79505725Y-152524141D01*
X79516604Y-152586355D01*
X79520868Y-152638551D01*
X79528426Y-152718104D01*
X79543523Y-152803584D01*
X79554910Y-152848733D01*
X79573588Y-152920072D01*
X79592384Y-153005256D01*
X79605757Y-153077333D01*
X79620534Y-153150852D01*
X79642795Y-153241551D01*
X79668787Y-153334660D01*
X79681806Y-153376862D01*
X79706228Y-153455875D01*
X79727504Y-153529941D01*
X79742764Y-153588793D01*
X79748081Y-153613929D01*
X79761474Y-153673123D01*
X79780714Y-153737627D01*
X79785114Y-153750182D01*
X79803267Y-153844260D01*
X79800163Y-153890974D01*
X79796978Y-153946245D01*
X79811687Y-153989828D01*
X79825123Y-154010619D01*
X79840165Y-154035344D01*
X79850651Y-154064434D01*
X79857577Y-154104621D01*
X79861936Y-154162636D01*
X79864722Y-154245211D01*
X79865580Y-154284693D01*
X79867923Y-154370089D01*
X79871162Y-154444493D01*
X79874897Y-154500685D01*
X79878730Y-154531442D01*
X79879354Y-154533600D01*
X79887117Y-154565923D01*
X79894966Y-154615137D01*
X79896849Y-154630381D01*
X79911189Y-154688493D01*
X79936122Y-154740604D01*
X79941752Y-154748459D01*
X79967930Y-154795569D01*
X79968772Y-154846755D01*
X79968075Y-154850645D01*
X79957665Y-154906133D01*
X80742083Y-154906133D01*
X80730365Y-154868033D01*
X80719535Y-154827517D01*
X80706747Y-154772690D01*
X80702951Y-154755024D01*
X80686898Y-154701391D01*
X80665741Y-154657902D01*
X80658724Y-154648587D01*
X80645269Y-154625509D01*
X80635023Y-154586567D01*
X80627066Y-154526254D01*
X80620473Y-154439065D01*
X80618809Y-154410230D01*
X80612561Y-154324071D01*
X80604118Y-154245081D01*
X80594617Y-154182347D01*
X80585781Y-154146426D01*
X80575627Y-154105893D01*
X80571692Y-154049930D01*
X80573746Y-153971669D01*
X80577895Y-153909360D01*
X80586303Y-153756346D01*
X80590482Y-153576369D01*
X80590344Y-153376080D01*
X80587254Y-153212800D01*
X80586161Y-153151910D01*
X80585325Y-153066198D01*
X80584800Y-152964707D01*
X80584638Y-152856482D01*
X80584742Y-152791115D01*
X80584213Y-152693811D01*
X80582219Y-152607873D01*
X80579019Y-152539201D01*
X80574872Y-152493696D01*
X80570981Y-152477848D01*
X80560548Y-152451231D01*
X80550110Y-152403904D01*
X80545366Y-152372597D01*
X80541049Y-152314677D01*
X80547826Y-152276370D01*
X80565875Y-152247007D01*
X80597469Y-152220552D01*
X80629128Y-152222621D01*
X80663914Y-152254644D01*
X80700158Y-152309796D01*
X80739447Y-152369995D01*
X80788315Y-152434979D01*
X80815177Y-152466913D01*
X80857640Y-152516389D01*
X80894625Y-152562524D01*
X80911905Y-152586266D01*
X80935938Y-152621374D01*
X80971989Y-152672877D01*
X81012293Y-152729685D01*
X81012661Y-152730200D01*
X81046834Y-152779123D01*
X81068204Y-152816609D01*
X81079863Y-152853383D01*
X81084900Y-152900171D01*
X81086406Y-152967698D01*
X81086573Y-152986743D01*
X81087880Y-153141687D01*
X81157268Y-153220516D01*
X81204952Y-153281263D01*
X81238988Y-153343012D01*
X81261409Y-153413104D01*
X81274248Y-153498883D01*
X81279539Y-153607691D01*
X81280000Y-153663723D01*
X81282927Y-153784808D01*
X81291290Y-153887868D01*
X81304460Y-153965353D01*
X81305465Y-153969314D01*
X81315910Y-154026298D01*
X81324860Y-154111992D01*
X81332414Y-154227806D01*
X81338672Y-154375153D01*
X81342041Y-154486607D01*
X81353153Y-154906133D01*
X82012279Y-154906133D01*
X82006932Y-154402367D01*
X82006005Y-154272983D01*
X82005994Y-154152869D01*
X82006831Y-154046688D01*
X82008451Y-153959100D01*
X82010788Y-153894769D01*
X82013776Y-153858356D01*
X82014703Y-153853857D01*
X82015686Y-153796419D01*
X81999453Y-153754254D01*
X81979538Y-153688772D01*
X81983217Y-153638130D01*
X81989383Y-153592311D01*
X81994185Y-153528859D01*
X81997485Y-153455739D01*
X81999147Y-153380916D01*
X81999036Y-153312354D01*
X81997013Y-153258021D01*
X81992944Y-153225879D01*
X81990370Y-153220753D01*
X81984850Y-153200998D01*
X81983840Y-153158234D01*
X81986143Y-153119276D01*
X81988945Y-153060468D01*
X81982042Y-153020137D01*
X81961946Y-152983467D01*
X81950506Y-152967911D01*
X81922371Y-152919853D01*
X81907322Y-152872385D01*
X81906533Y-152862312D01*
X81898424Y-152816136D01*
X81878358Y-152762477D01*
X81872666Y-152751177D01*
X81850459Y-152695362D01*
X81839161Y-152638832D01*
X81838800Y-152629661D01*
X81834317Y-152587461D01*
X81823374Y-152562029D01*
X81821866Y-152560866D01*
X81814625Y-152540300D01*
X81808987Y-152493052D01*
X81805607Y-152426295D01*
X81804933Y-152375912D01*
X81803268Y-152290920D01*
X81798802Y-152208037D01*
X81792330Y-152139873D01*
X81788452Y-152114520D01*
X81780325Y-152055361D01*
X81773710Y-151977320D01*
X81769820Y-151895381D01*
X81769467Y-151879375D01*
X81766393Y-151806522D01*
X81760401Y-151742245D01*
X81752609Y-151697413D01*
X81749858Y-151688800D01*
X81739692Y-151648113D01*
X81732052Y-151589370D01*
X81729537Y-151549179D01*
X81722487Y-151478849D01*
X81705141Y-151431686D01*
X81691747Y-151413713D01*
X81666459Y-151369980D01*
X81645519Y-151306143D01*
X81631543Y-151235152D01*
X81627148Y-151169957D01*
X81633716Y-151126489D01*
X81640912Y-151072276D01*
X81632475Y-151004402D01*
X81624748Y-150959491D01*
X81625750Y-150922885D01*
X81637812Y-150882643D01*
X81663266Y-150826823D01*
X81669731Y-150813630D01*
X81697628Y-150754430D01*
X81711189Y-150715803D01*
X81712338Y-150688619D01*
X81703001Y-150663743D01*
X81701806Y-150661480D01*
X81688986Y-150625552D01*
X81698076Y-150608199D01*
X81708080Y-150584879D01*
X81706105Y-150533270D01*
X81702212Y-150505577D01*
X81696498Y-150428720D01*
X81699356Y-150336630D01*
X81704562Y-150285443D01*
X81710727Y-150211151D01*
X81713465Y-150117875D01*
X81712509Y-150020351D01*
X81710276Y-149969623D01*
X81705707Y-149880761D01*
X81706313Y-149819741D01*
X81714916Y-149780619D01*
X81734334Y-149757453D01*
X81767387Y-149744300D01*
X81816897Y-149735217D01*
X81821866Y-149734456D01*
X81907760Y-149709932D01*
X81971219Y-149664190D01*
X82015096Y-149594054D01*
X82042243Y-149496348D01*
X82043742Y-149487466D01*
X82056487Y-149421440D01*
X82072243Y-149355241D01*
X82075471Y-149343533D01*
X82110199Y-149208066D01*
X79092299Y-149208066D01*
X79090468Y-149236986D01*
X79085167Y-149239532D01*
X79084493Y-149238022D01*
X79081143Y-149204406D01*
X79083865Y-149187222D01*
X79089255Y-149180317D01*
X79092187Y-149202808D01*
X79092299Y-149208066D01*
X82110199Y-149208066D01*
X82110518Y-149206823D01*
X82130016Y-149094056D01*
X82132931Y-149034556D01*
X79086594Y-149034556D01*
X79085276Y-149082490D01*
X79079558Y-149107486D01*
X79068901Y-149114925D01*
X79068396Y-149114933D01*
X79047752Y-149129396D01*
X79034467Y-149158675D01*
X79027571Y-149178819D01*
X79018726Y-149180041D01*
X79004343Y-149158597D01*
X78980834Y-149110747D01*
X78973554Y-149095175D01*
X78958988Y-149064133D01*
X78909333Y-149064133D01*
X78905918Y-149091048D01*
X78893150Y-149088343D01*
X78889013Y-149084453D01*
X78877412Y-149061410D01*
X78889013Y-149043813D01*
X78904178Y-149035478D01*
X78909210Y-149055983D01*
X78909333Y-149064133D01*
X78958988Y-149064133D01*
X78944452Y-149033159D01*
X78917722Y-148977018D01*
X78900548Y-148941745D01*
X78887874Y-148903246D01*
X78893944Y-148885379D01*
X78910366Y-148865039D01*
X78933435Y-148824902D01*
X78945604Y-148800334D01*
X78972781Y-148751891D01*
X78999035Y-148729438D01*
X79020942Y-148725466D01*
X79041943Y-148727884D01*
X79056901Y-148738610D01*
X79067227Y-148762852D01*
X79074334Y-148805816D01*
X79079632Y-148872712D01*
X79084050Y-148958300D01*
X79086594Y-149034556D01*
X82132931Y-149034556D01*
X82134652Y-148999456D01*
X82125746Y-148920313D01*
X82114851Y-148855404D01*
X82103926Y-148771714D01*
X82094865Y-148684273D01*
X82092652Y-148657733D01*
X82082341Y-148565719D01*
X82066200Y-148466365D01*
X82047330Y-148378145D01*
X82042937Y-148361400D01*
X82021675Y-148282674D01*
X82011238Y-148242867D01*
X79978958Y-148242867D01*
X79948494Y-148297900D01*
X79924202Y-148339018D01*
X79911774Y-148351983D01*
X79908776Y-148340233D01*
X79918840Y-148319541D01*
X79942683Y-148286874D01*
X79944055Y-148285200D01*
X79978958Y-148242867D01*
X82011238Y-148242867D01*
X82000633Y-148202426D01*
X81984103Y-148137041D01*
X81983069Y-148132800D01*
X81960084Y-148046537D01*
X81938428Y-147981036D01*
X81919747Y-147940734D01*
X81907646Y-147929600D01*
X81898928Y-147923130D01*
X81884583Y-147901393D01*
X81862779Y-147860896D01*
X81831684Y-147798147D01*
X81789469Y-147709655D01*
X81764704Y-147656979D01*
X81740641Y-147599375D01*
X81724260Y-147548226D01*
X81719666Y-147521512D01*
X81710077Y-147471720D01*
X81679934Y-147421476D01*
X81624884Y-147363987D01*
X81610200Y-147350755D01*
X81606793Y-147348187D01*
X81548988Y-147348187D01*
X81542450Y-147348715D01*
X81519850Y-147337539D01*
X81494187Y-147319363D01*
X81490619Y-147306936D01*
X81508378Y-147309651D01*
X81530170Y-147327219D01*
X81548988Y-147348187D01*
X81606793Y-147348187D01*
X81555997Y-147309900D01*
X81491126Y-147271175D01*
X81426095Y-147239910D01*
X81371413Y-147221437D01*
X81349814Y-147218659D01*
X81331780Y-147221438D01*
X81344904Y-147233181D01*
X81347243Y-147234672D01*
X81366492Y-147252559D01*
X81358973Y-147261623D01*
X81330886Y-147260801D01*
X81288428Y-147249032D01*
X81280741Y-147246072D01*
X81223242Y-147228241D01*
X81152634Y-147213185D01*
X81114938Y-147207734D01*
X81050812Y-147197003D01*
X80992493Y-147181449D01*
X80966733Y-147171205D01*
X80911453Y-147139308D01*
X80860923Y-147103233D01*
X80824595Y-147070709D01*
X80784494Y-147070709D01*
X80781378Y-147081458D01*
X80764629Y-147098837D01*
X80756175Y-147083396D01*
X80755067Y-147062613D01*
X80759215Y-147038047D01*
X80773518Y-147043814D01*
X80773911Y-147044204D01*
X80784494Y-147070709D01*
X80824595Y-147070709D01*
X80823149Y-147069415D01*
X80806136Y-147044291D01*
X80805867Y-147041912D01*
X80792327Y-147013400D01*
X80756557Y-146974627D01*
X80744398Y-146964400D01*
X79696733Y-146964400D01*
X79695391Y-146980004D01*
X79689266Y-146981333D01*
X79672022Y-146969041D01*
X79671333Y-146964400D01*
X79677111Y-146947907D01*
X79678800Y-146947467D01*
X79693258Y-146959332D01*
X79696733Y-146964400D01*
X80744398Y-146964400D01*
X80705829Y-146931962D01*
X80647416Y-146891772D01*
X80610595Y-146870924D01*
X80567120Y-146846947D01*
X80553924Y-146834925D01*
X80569975Y-146833902D01*
X80570708Y-146834004D01*
X80592102Y-146835886D01*
X80605676Y-146829875D01*
X80613888Y-146809607D01*
X80619198Y-146768717D01*
X80624065Y-146700843D01*
X80624453Y-146694907D01*
X80631066Y-146621459D01*
X80640198Y-146555368D01*
X80650153Y-146508276D01*
X80652808Y-146500209D01*
X80662551Y-146454778D01*
X80655309Y-146434536D01*
X80647342Y-146422997D01*
X80647941Y-146406363D01*
X80659416Y-146377168D01*
X80684076Y-146327948D01*
X80694459Y-146308031D01*
X80711169Y-146262592D01*
X80712345Y-146246640D01*
X80698446Y-146246640D01*
X80695800Y-146253200D01*
X80680583Y-146269354D01*
X80677867Y-146270133D01*
X80670594Y-146257032D01*
X80670400Y-146253200D01*
X80683417Y-146236917D01*
X80688333Y-146236266D01*
X80698446Y-146246640D01*
X80712345Y-146246640D01*
X80714005Y-146224137D01*
X80713091Y-146220460D01*
X80717756Y-146181392D01*
X80739817Y-146153666D01*
X80762371Y-146126819D01*
X80770267Y-146094935D01*
X80766571Y-146044621D01*
X80765907Y-146039694D01*
X80747708Y-145968017D01*
X80713455Y-145882021D01*
X80668746Y-145793429D01*
X80619174Y-145713966D01*
X80595625Y-145682909D01*
X80556993Y-145644431D01*
X80500388Y-145598066D01*
X80437103Y-145552967D01*
X80427868Y-145546964D01*
X80368593Y-145507067D01*
X80336280Y-145480002D01*
X80327907Y-145462858D01*
X80333310Y-145456000D01*
X80346402Y-145445882D01*
X80340680Y-145439733D01*
X80310293Y-145434838D01*
X80280933Y-145431696D01*
X80241109Y-145427529D01*
X80182418Y-145421290D01*
X80135298Y-145416237D01*
X80059911Y-145412393D01*
X79996128Y-145421467D01*
G37*
X79996128Y-145421467D02*
X79939804Y-145439608D01*
X79854348Y-145483553D01*
X79764944Y-145549647D01*
X79681667Y-145629209D01*
X79614592Y-145713561D01*
X79605751Y-145727386D01*
X79571948Y-145776448D01*
X79539411Y-145814205D01*
X79522259Y-145828086D01*
X79489977Y-145836878D01*
X79435260Y-145843835D01*
X79369537Y-145847540D01*
X79364846Y-145847640D01*
X79268958Y-145851068D01*
X79203198Y-145857556D01*
X79163913Y-145867789D01*
X79147449Y-145882450D01*
X79146400Y-145888531D01*
X79162089Y-145919785D01*
X79204445Y-145944980D01*
X79266405Y-145961068D01*
X79324374Y-145965333D01*
X79385055Y-145968292D01*
X79425054Y-145979788D01*
X79457242Y-146003753D01*
X79460436Y-146006897D01*
X79488718Y-146041515D01*
X79501879Y-146070111D01*
X79502000Y-146072029D01*
X79489512Y-146120526D01*
X79458835Y-146171738D01*
X79420148Y-146209880D01*
X79409016Y-146216184D01*
X79377239Y-146234378D01*
X79369985Y-146256204D01*
X79383079Y-146294630D01*
X79383466Y-146295533D01*
X79394555Y-146318232D01*
X79398409Y-146309298D01*
X79399210Y-146290881D01*
X79412283Y-146258428D01*
X79442456Y-146235711D01*
X79479547Y-146224945D01*
X79513374Y-146228347D01*
X79533758Y-146248133D01*
X79535866Y-146261135D01*
X79526886Y-146284008D01*
X79518933Y-146287066D01*
X79502955Y-146273838D01*
X79502000Y-146267311D01*
X79495346Y-146255769D01*
X79491120Y-146258435D01*
X79491108Y-146278462D01*
X79500316Y-146293504D01*
X79511816Y-146323754D01*
X79509917Y-146359857D01*
X79497686Y-146389324D01*
X79478186Y-146399663D01*
X79474511Y-146398675D01*
X79454981Y-146394944D01*
X79455436Y-146409046D01*
X79476335Y-146445110D01*
X79480362Y-146451298D01*
X79500135Y-146499256D01*
X79504527Y-146543443D01*
X79510201Y-146593379D01*
X79526165Y-146629109D01*
X79546907Y-146676143D01*
X79552800Y-146713661D01*
X79567265Y-146761478D01*
X79603600Y-146797744D01*
X79637091Y-146829319D01*
X79653929Y-146858539D01*
X79654400Y-146862598D01*
X79640111Y-146902175D01*
X79606060Y-146927445D01*
X79588215Y-146930533D01*
X79563875Y-146941851D01*
X79525075Y-146971458D01*
X79482262Y-147010967D01*
X79408279Y-147083955D01*
X79349713Y-147138349D01*
X79298782Y-147180227D01*
X79247703Y-147215667D01*
X79188692Y-147250746D01*
X79142971Y-147275920D01*
X79060091Y-147324096D01*
X79003083Y-147365750D01*
X78965854Y-147405556D01*
X78957348Y-147418299D01*
X78922103Y-147469013D01*
X78876917Y-147525387D01*
X78856317Y-147548600D01*
X78801747Y-147609618D01*
X78753176Y-147667798D01*
X78715376Y-147717048D01*
X78693114Y-147751278D01*
X78689200Y-147762006D01*
X78678837Y-147781878D01*
X78652466Y-147816729D01*
X78634167Y-147838209D01*
X78591567Y-147894423D01*
X78539804Y-147975510D01*
X78482463Y-148074969D01*
X78423129Y-148186299D01*
X78365389Y-148302998D01*
X78312827Y-148418564D01*
X78308282Y-148429133D01*
X78285830Y-148473605D01*
X78250201Y-148535442D01*
X78207533Y-148604191D01*
X78187254Y-148635226D01*
X78136114Y-148717228D01*
X78103137Y-148784321D01*
X78083683Y-148846637D01*
X78078682Y-148872293D01*
X78069542Y-148993924D01*
X78081117Y-149112446D01*
X78112085Y-149215902D01*
X78118127Y-149228984D01*
X78147943Y-149272915D01*
X78198021Y-149329425D01*
X78260960Y-149391553D01*
X78329360Y-149452338D01*
X78395820Y-149504820D01*
X78448050Y-149539309D01*
X78535697Y-149590860D01*
X78592749Y-149628235D01*
X78619329Y-149651517D01*
X78621467Y-149656637D01*
X78633213Y-149670435D01*
X78669976Y-149680705D01*
X78734045Y-149687718D01*
X78827706Y-149691742D01*
X78929280Y-149693006D01*
X79028464Y-149694334D01*
X79097624Y-149698580D01*
X79140578Y-149707321D01*
X79161141Y-149722131D01*
X79163131Y-149744586D01*
X79150365Y-149776260D01*
X79146921Y-149782825D01*
X79134575Y-149823048D01*
X79146101Y-149859441D01*
X79162148Y-149895605D01*
X79183030Y-149950629D01*
X79199452Y-149998295D01*
X79232711Y-150099608D01*
X79173579Y-150165060D01*
X79120503Y-150240691D01*
X79100984Y-150313257D01*
X79114908Y-150383353D01*
X79127699Y-150407474D01*
X79156259Y-150483787D01*
X79161924Y-150580198D01*
X79147241Y-150679418D01*
X79140517Y-150734136D01*
X79152708Y-150782059D01*
X79164579Y-150806167D01*
X79189625Y-150879795D01*
X79197200Y-150956726D01*
X79202238Y-151022247D01*
X79214989Y-151084857D01*
X79222600Y-151107212D01*
X79238782Y-151163991D01*
X79247523Y-151229796D01*
X79248023Y-151246368D01*
X79251092Y-151300928D01*
X79259199Y-151374545D01*
X79270729Y-151453073D01*
X79273400Y-151468667D01*
X79285417Y-151546036D01*
X79294360Y-151621033D01*
X79298623Y-151679725D01*
X79298773Y-151688800D01*
X79304560Y-151747584D01*
X79320975Y-151832233D01*
X79346632Y-151936947D01*
X79380147Y-152055927D01*
X79407990Y-152146000D01*
X79424569Y-152206818D01*
X79440849Y-152280884D01*
X79449095Y-152326612D01*
X79462373Y-152391629D01*
X79479202Y-152450368D01*
X79491377Y-152480496D01*
X79505725Y-152524141D01*
X79516604Y-152586355D01*
X79520868Y-152638551D01*
X79528426Y-152718104D01*
X79543523Y-152803584D01*
X79554910Y-152848733D01*
X79573588Y-152920072D01*
X79592384Y-153005256D01*
X79605757Y-153077333D01*
X79620534Y-153150852D01*
X79642795Y-153241551D01*
X79668787Y-153334660D01*
X79681806Y-153376862D01*
X79706228Y-153455875D01*
X79727504Y-153529941D01*
X79742764Y-153588793D01*
X79748081Y-153613929D01*
X79761474Y-153673123D01*
X79780714Y-153737627D01*
X79785114Y-153750182D01*
X79803267Y-153844260D01*
X79800163Y-153890974D01*
X79796978Y-153946245D01*
X79811687Y-153989828D01*
X79825123Y-154010619D01*
X79840165Y-154035344D01*
X79850651Y-154064434D01*
X79857577Y-154104621D01*
X79861936Y-154162636D01*
X79864722Y-154245211D01*
X79865580Y-154284693D01*
X79867923Y-154370089D01*
X79871162Y-154444493D01*
X79874897Y-154500685D01*
X79878730Y-154531442D01*
X79879354Y-154533600D01*
X79887117Y-154565923D01*
X79894966Y-154615137D01*
X79896849Y-154630381D01*
X79911189Y-154688493D01*
X79936122Y-154740604D01*
X79941752Y-154748459D01*
X79967930Y-154795569D01*
X79968772Y-154846755D01*
X79968075Y-154850645D01*
X79957665Y-154906133D01*
X80742083Y-154906133D01*
X80730365Y-154868033D01*
X80719535Y-154827517D01*
X80706747Y-154772690D01*
X80702951Y-154755024D01*
X80686898Y-154701391D01*
X80665741Y-154657902D01*
X80658724Y-154648587D01*
X80645269Y-154625509D01*
X80635023Y-154586567D01*
X80627066Y-154526254D01*
X80620473Y-154439065D01*
X80618809Y-154410230D01*
X80612561Y-154324071D01*
X80604118Y-154245081D01*
X80594617Y-154182347D01*
X80585781Y-154146426D01*
X80575627Y-154105893D01*
X80571692Y-154049930D01*
X80573746Y-153971669D01*
X80577895Y-153909360D01*
X80586303Y-153756346D01*
X80590482Y-153576369D01*
X80590344Y-153376080D01*
X80587254Y-153212800D01*
X80586161Y-153151910D01*
X80585325Y-153066198D01*
X80584800Y-152964707D01*
X80584638Y-152856482D01*
X80584742Y-152791115D01*
X80584213Y-152693811D01*
X80582219Y-152607873D01*
X80579019Y-152539201D01*
X80574872Y-152493696D01*
X80570981Y-152477848D01*
X80560548Y-152451231D01*
X80550110Y-152403904D01*
X80545366Y-152372597D01*
X80541049Y-152314677D01*
X80547826Y-152276370D01*
X80565875Y-152247007D01*
X80597469Y-152220552D01*
X80629128Y-152222621D01*
X80663914Y-152254644D01*
X80700158Y-152309796D01*
X80739447Y-152369995D01*
X80788315Y-152434979D01*
X80815177Y-152466913D01*
X80857640Y-152516389D01*
X80894625Y-152562524D01*
X80911905Y-152586266D01*
X80935938Y-152621374D01*
X80971989Y-152672877D01*
X81012293Y-152729685D01*
X81012661Y-152730200D01*
X81046834Y-152779123D01*
X81068204Y-152816609D01*
X81079863Y-152853383D01*
X81084900Y-152900171D01*
X81086406Y-152967698D01*
X81086573Y-152986743D01*
X81087880Y-153141687D01*
X81157268Y-153220516D01*
X81204952Y-153281263D01*
X81238988Y-153343012D01*
X81261409Y-153413104D01*
X81274248Y-153498883D01*
X81279539Y-153607691D01*
X81280000Y-153663723D01*
X81282927Y-153784808D01*
X81291290Y-153887868D01*
X81304460Y-153965353D01*
X81305465Y-153969314D01*
X81315910Y-154026298D01*
X81324860Y-154111992D01*
X81332414Y-154227806D01*
X81338672Y-154375153D01*
X81342041Y-154486607D01*
X81353153Y-154906133D01*
X82012279Y-154906133D01*
X82006932Y-154402367D01*
X82006005Y-154272983D01*
X82005994Y-154152869D01*
X82006831Y-154046688D01*
X82008451Y-153959100D01*
X82010788Y-153894769D01*
X82013776Y-153858356D01*
X82014703Y-153853857D01*
X82015686Y-153796419D01*
X81999453Y-153754254D01*
X81979538Y-153688772D01*
X81983217Y-153638130D01*
X81989383Y-153592311D01*
X81994185Y-153528859D01*
X81997485Y-153455739D01*
X81999147Y-153380916D01*
X81999036Y-153312354D01*
X81997013Y-153258021D01*
X81992944Y-153225879D01*
X81990370Y-153220753D01*
X81984850Y-153200998D01*
X81983840Y-153158234D01*
X81986143Y-153119276D01*
X81988945Y-153060468D01*
X81982042Y-153020137D01*
X81961946Y-152983467D01*
X81950506Y-152967911D01*
X81922371Y-152919853D01*
X81907322Y-152872385D01*
X81906533Y-152862312D01*
X81898424Y-152816136D01*
X81878358Y-152762477D01*
X81872666Y-152751177D01*
X81850459Y-152695362D01*
X81839161Y-152638832D01*
X81838800Y-152629661D01*
X81834317Y-152587461D01*
X81823374Y-152562029D01*
X81821866Y-152560866D01*
X81814625Y-152540300D01*
X81808987Y-152493052D01*
X81805607Y-152426295D01*
X81804933Y-152375912D01*
X81803268Y-152290920D01*
X81798802Y-152208037D01*
X81792330Y-152139873D01*
X81788452Y-152114520D01*
X81780325Y-152055361D01*
X81773710Y-151977320D01*
X81769820Y-151895381D01*
X81769467Y-151879375D01*
X81766393Y-151806522D01*
X81760401Y-151742245D01*
X81752609Y-151697413D01*
X81749858Y-151688800D01*
X81739692Y-151648113D01*
X81732052Y-151589370D01*
X81729537Y-151549179D01*
X81722487Y-151478849D01*
X81705141Y-151431686D01*
X81691747Y-151413713D01*
X81666459Y-151369980D01*
X81645519Y-151306143D01*
X81631543Y-151235152D01*
X81627148Y-151169957D01*
X81633716Y-151126489D01*
X81640912Y-151072276D01*
X81632475Y-151004402D01*
X81624748Y-150959491D01*
X81625750Y-150922885D01*
X81637812Y-150882643D01*
X81663266Y-150826823D01*
X81669731Y-150813630D01*
X81697628Y-150754430D01*
X81711189Y-150715803D01*
X81712338Y-150688619D01*
X81703001Y-150663743D01*
X81701806Y-150661480D01*
X81688986Y-150625552D01*
X81698076Y-150608199D01*
X81708080Y-150584879D01*
X81706105Y-150533270D01*
X81702212Y-150505577D01*
X81696498Y-150428720D01*
X81699356Y-150336630D01*
X81704562Y-150285443D01*
X81710727Y-150211151D01*
X81713465Y-150117875D01*
X81712509Y-150020351D01*
X81710276Y-149969623D01*
X81705707Y-149880761D01*
X81706313Y-149819741D01*
X81714916Y-149780619D01*
X81734334Y-149757453D01*
X81767387Y-149744300D01*
X81816897Y-149735217D01*
X81821866Y-149734456D01*
X81907760Y-149709932D01*
X81971219Y-149664190D01*
X82015096Y-149594054D01*
X82042243Y-149496348D01*
X82043742Y-149487466D01*
X82056487Y-149421440D01*
X82072243Y-149355241D01*
X82075471Y-149343533D01*
X82110199Y-149208066D01*
X79092299Y-149208066D01*
X79090468Y-149236986D01*
X79085167Y-149239532D01*
X79084493Y-149238022D01*
X79081143Y-149204406D01*
X79083865Y-149187222D01*
X79089255Y-149180317D01*
X79092187Y-149202808D01*
X79092299Y-149208066D01*
X82110199Y-149208066D01*
X82110518Y-149206823D01*
X82130016Y-149094056D01*
X82132931Y-149034556D01*
X79086594Y-149034556D01*
X79085276Y-149082490D01*
X79079558Y-149107486D01*
X79068901Y-149114925D01*
X79068396Y-149114933D01*
X79047752Y-149129396D01*
X79034467Y-149158675D01*
X79027571Y-149178819D01*
X79018726Y-149180041D01*
X79004343Y-149158597D01*
X78980834Y-149110747D01*
X78973554Y-149095175D01*
X78958988Y-149064133D01*
X78909333Y-149064133D01*
X78905918Y-149091048D01*
X78893150Y-149088343D01*
X78889013Y-149084453D01*
X78877412Y-149061410D01*
X78889013Y-149043813D01*
X78904178Y-149035478D01*
X78909210Y-149055983D01*
X78909333Y-149064133D01*
X78958988Y-149064133D01*
X78944452Y-149033159D01*
X78917722Y-148977018D01*
X78900548Y-148941745D01*
X78887874Y-148903246D01*
X78893944Y-148885379D01*
X78910366Y-148865039D01*
X78933435Y-148824902D01*
X78945604Y-148800334D01*
X78972781Y-148751891D01*
X78999035Y-148729438D01*
X79020942Y-148725466D01*
X79041943Y-148727884D01*
X79056901Y-148738610D01*
X79067227Y-148762852D01*
X79074334Y-148805816D01*
X79079632Y-148872712D01*
X79084050Y-148958300D01*
X79086594Y-149034556D01*
X82132931Y-149034556D01*
X82134652Y-148999456D01*
X82125746Y-148920313D01*
X82114851Y-148855404D01*
X82103926Y-148771714D01*
X82094865Y-148684273D01*
X82092652Y-148657733D01*
X82082341Y-148565719D01*
X82066200Y-148466365D01*
X82047330Y-148378145D01*
X82042937Y-148361400D01*
X82021675Y-148282674D01*
X82011238Y-148242867D01*
X79978958Y-148242867D01*
X79948494Y-148297900D01*
X79924202Y-148339018D01*
X79911774Y-148351983D01*
X79908776Y-148340233D01*
X79918840Y-148319541D01*
X79942683Y-148286874D01*
X79944055Y-148285200D01*
X79978958Y-148242867D01*
X82011238Y-148242867D01*
X82000633Y-148202426D01*
X81984103Y-148137041D01*
X81983069Y-148132800D01*
X81960084Y-148046537D01*
X81938428Y-147981036D01*
X81919747Y-147940734D01*
X81907646Y-147929600D01*
X81898928Y-147923130D01*
X81884583Y-147901393D01*
X81862779Y-147860896D01*
X81831684Y-147798147D01*
X81789469Y-147709655D01*
X81764704Y-147656979D01*
X81740641Y-147599375D01*
X81724260Y-147548226D01*
X81719666Y-147521512D01*
X81710077Y-147471720D01*
X81679934Y-147421476D01*
X81624884Y-147363987D01*
X81610200Y-147350755D01*
X81606793Y-147348187D01*
X81548988Y-147348187D01*
X81542450Y-147348715D01*
X81519850Y-147337539D01*
X81494187Y-147319363D01*
X81490619Y-147306936D01*
X81508378Y-147309651D01*
X81530170Y-147327219D01*
X81548988Y-147348187D01*
X81606793Y-147348187D01*
X81555997Y-147309900D01*
X81491126Y-147271175D01*
X81426095Y-147239910D01*
X81371413Y-147221437D01*
X81349814Y-147218659D01*
X81331780Y-147221438D01*
X81344904Y-147233181D01*
X81347243Y-147234672D01*
X81366492Y-147252559D01*
X81358973Y-147261623D01*
X81330886Y-147260801D01*
X81288428Y-147249032D01*
X81280741Y-147246072D01*
X81223242Y-147228241D01*
X81152634Y-147213185D01*
X81114938Y-147207734D01*
X81050812Y-147197003D01*
X80992493Y-147181449D01*
X80966733Y-147171205D01*
X80911453Y-147139308D01*
X80860923Y-147103233D01*
X80824595Y-147070709D01*
X80784494Y-147070709D01*
X80781378Y-147081458D01*
X80764629Y-147098837D01*
X80756175Y-147083396D01*
X80755067Y-147062613D01*
X80759215Y-147038047D01*
X80773518Y-147043814D01*
X80773911Y-147044204D01*
X80784494Y-147070709D01*
X80824595Y-147070709D01*
X80823149Y-147069415D01*
X80806136Y-147044291D01*
X80805867Y-147041912D01*
X80792327Y-147013400D01*
X80756557Y-146974627D01*
X80744398Y-146964400D01*
X79696733Y-146964400D01*
X79695391Y-146980004D01*
X79689266Y-146981333D01*
X79672022Y-146969041D01*
X79671333Y-146964400D01*
X79677111Y-146947907D01*
X79678800Y-146947467D01*
X79693258Y-146959332D01*
X79696733Y-146964400D01*
X80744398Y-146964400D01*
X80705829Y-146931962D01*
X80647416Y-146891772D01*
X80610595Y-146870924D01*
X80567120Y-146846947D01*
X80553924Y-146834925D01*
X80569975Y-146833902D01*
X80570708Y-146834004D01*
X80592102Y-146835886D01*
X80605676Y-146829875D01*
X80613888Y-146809607D01*
X80619198Y-146768717D01*
X80624065Y-146700843D01*
X80624453Y-146694907D01*
X80631066Y-146621459D01*
X80640198Y-146555368D01*
X80650153Y-146508276D01*
X80652808Y-146500209D01*
X80662551Y-146454778D01*
X80655309Y-146434536D01*
X80647342Y-146422997D01*
X80647941Y-146406363D01*
X80659416Y-146377168D01*
X80684076Y-146327948D01*
X80694459Y-146308031D01*
X80711169Y-146262592D01*
X80712345Y-146246640D01*
X80698446Y-146246640D01*
X80695800Y-146253200D01*
X80680583Y-146269354D01*
X80677867Y-146270133D01*
X80670594Y-146257032D01*
X80670400Y-146253200D01*
X80683417Y-146236917D01*
X80688333Y-146236266D01*
X80698446Y-146246640D01*
X80712345Y-146246640D01*
X80714005Y-146224137D01*
X80713091Y-146220460D01*
X80717756Y-146181392D01*
X80739817Y-146153666D01*
X80762371Y-146126819D01*
X80770267Y-146094935D01*
X80766571Y-146044621D01*
X80765907Y-146039694D01*
X80747708Y-145968017D01*
X80713455Y-145882021D01*
X80668746Y-145793429D01*
X80619174Y-145713966D01*
X80595625Y-145682909D01*
X80556993Y-145644431D01*
X80500388Y-145598066D01*
X80437103Y-145552967D01*
X80427868Y-145546964D01*
X80368593Y-145507067D01*
X80336280Y-145480002D01*
X80327907Y-145462858D01*
X80333310Y-145456000D01*
X80346402Y-145445882D01*
X80340680Y-145439733D01*
X80310293Y-145434838D01*
X80280933Y-145431696D01*
X80241109Y-145427529D01*
X80182418Y-145421290D01*
X80135298Y-145416237D01*
X80059911Y-145412393D01*
X79996128Y-145421467D01*
G36*
X96717593Y-146378083D02*
G01*
X96716474Y-146395417D01*
X96717593Y-146399249D01*
X96720683Y-146400313D01*
X96721863Y-146388666D01*
X96720532Y-146376647D01*
X96717593Y-146378083D01*
G37*
X96717593Y-146378083D02*
X96716474Y-146395417D01*
X96717593Y-146399249D01*
X96720683Y-146400313D01*
X96721863Y-146388666D01*
X96720532Y-146376647D01*
X96717593Y-146378083D01*
G36*
X97234662Y-145429366D02*
G01*
X97192750Y-145431469D01*
X97182160Y-145432102D01*
X97133806Y-145435636D01*
X97099767Y-145439689D01*
X97077428Y-145444708D01*
X97064173Y-145451140D01*
X97062512Y-145452515D01*
X97043716Y-145464362D01*
X97018762Y-145474360D01*
X97016301Y-145475070D01*
X96996495Y-145482386D01*
X96986116Y-145489826D01*
X96985667Y-145491271D01*
X96978288Y-145497962D01*
X96959707Y-145505712D01*
X96950048Y-145508605D01*
X96914510Y-145525264D01*
X96882070Y-145554958D01*
X96858114Y-145579393D01*
X96832708Y-145601157D01*
X96820321Y-145609884D01*
X96801802Y-145623652D01*
X96791614Y-145635736D01*
X96790933Y-145638363D01*
X96785458Y-145653231D01*
X96781613Y-145658000D01*
X96773058Y-145671073D01*
X96760587Y-145695432D01*
X96746106Y-145726667D01*
X96731525Y-145760367D01*
X96718752Y-145792121D01*
X96709697Y-145817518D01*
X96706266Y-145832128D01*
X96702297Y-145852534D01*
X96697107Y-145865028D01*
X96692236Y-145885990D01*
X96692818Y-145916663D01*
X96693668Y-145923738D01*
X96698550Y-145949476D01*
X96705291Y-145962076D01*
X96715528Y-145965333D01*
X96728891Y-145967127D01*
X96729192Y-145974204D01*
X96716351Y-145989106D01*
X96714733Y-145990733D01*
X96705516Y-146003170D01*
X96700299Y-146020466D01*
X96698091Y-146047244D01*
X96697800Y-146069755D01*
X96698612Y-146100852D01*
X96700752Y-146125098D01*
X96703779Y-146137717D01*
X96704150Y-146138194D01*
X96709536Y-146150730D01*
X96712265Y-146167122D01*
X96716773Y-146218717D01*
X96721225Y-146255371D01*
X96726019Y-146279067D01*
X96731556Y-146291793D01*
X96738140Y-146295533D01*
X96744721Y-146298109D01*
X96747905Y-146308047D01*
X96748136Y-146328661D01*
X96746351Y-146356916D01*
X96743260Y-146394730D01*
X96740166Y-146420167D01*
X96735897Y-146437745D01*
X96729282Y-146451980D01*
X96719149Y-146467388D01*
X96716850Y-146470651D01*
X96702233Y-146494604D01*
X96699673Y-146512470D01*
X96709515Y-146530391D01*
X96720934Y-146543120D01*
X96735026Y-146559994D01*
X96737031Y-146569985D01*
X96732697Y-146574296D01*
X96715568Y-146578129D01*
X96704092Y-146576817D01*
X96691849Y-146575997D01*
X96689961Y-146585741D01*
X96691240Y-146592672D01*
X96697192Y-146614804D01*
X96701557Y-146627085D01*
X96701140Y-146640653D01*
X96692062Y-146646122D01*
X96677862Y-146655962D01*
X96661038Y-146674531D01*
X96655843Y-146681700D01*
X96636405Y-146704349D01*
X96609860Y-146728223D01*
X96594474Y-146739621D01*
X96576295Y-146753707D01*
X96548570Y-146777534D01*
X96513744Y-146808885D01*
X96474265Y-146845545D01*
X96432580Y-146885302D01*
X96419261Y-146898230D01*
X96375182Y-146941402D01*
X96341872Y-146974672D01*
X96317842Y-146999821D01*
X96301604Y-147018630D01*
X96291668Y-147032881D01*
X96286546Y-147044354D01*
X96284748Y-147054830D01*
X96284626Y-147059284D01*
X96278329Y-147092485D01*
X96261699Y-147123705D01*
X96238135Y-147149181D01*
X96211031Y-147165148D01*
X96186301Y-147168261D01*
X96167137Y-147161956D01*
X96144332Y-147149604D01*
X96123069Y-147134701D01*
X96108533Y-147120744D01*
X96105133Y-147113497D01*
X96111102Y-147098755D01*
X96117833Y-147091399D01*
X96127351Y-147077610D01*
X96130290Y-147061751D01*
X96126083Y-147050674D01*
X96121334Y-147049066D01*
X96109751Y-147044444D01*
X96089883Y-147032573D01*
X96074767Y-147022231D01*
X96052621Y-147004854D01*
X96041457Y-146990312D01*
X96037664Y-146972851D01*
X96037400Y-146962692D01*
X96040946Y-146931485D01*
X96049523Y-146900994D01*
X96049956Y-146899937D01*
X96060301Y-146867743D01*
X96070483Y-146822639D01*
X96079806Y-146768640D01*
X96087574Y-146709761D01*
X96092989Y-146651470D01*
X96096961Y-146607459D01*
X96102288Y-146575881D01*
X96110243Y-146552234D01*
X96122097Y-146532018D01*
X96129504Y-146522264D01*
X96134095Y-146513069D01*
X96136890Y-146497552D01*
X96137997Y-146473125D01*
X96137525Y-146437201D01*
X96135582Y-146387189D01*
X96135369Y-146382564D01*
X96132806Y-146337910D01*
X96129656Y-146299172D01*
X96126252Y-146269553D01*
X96122924Y-146252258D01*
X96121582Y-146249390D01*
X96115878Y-146235769D01*
X96113600Y-146215295D01*
X96106332Y-146187252D01*
X96088037Y-146156539D01*
X96027724Y-146156539D01*
X96025531Y-146166784D01*
X96020467Y-146168533D01*
X96012484Y-146161915D01*
X96012000Y-146158616D01*
X96006766Y-146144991D01*
X95998568Y-146133858D01*
X95989831Y-146122953D01*
X95993441Y-146120443D01*
X96000084Y-146121210D01*
X96012628Y-146128246D01*
X96022632Y-146141857D01*
X96027724Y-146156539D01*
X96088037Y-146156539D01*
X96084585Y-146150744D01*
X96078853Y-146142905D01*
X96057562Y-146116557D01*
X96040013Y-146101143D01*
X96021375Y-146092992D01*
X96009761Y-146090426D01*
X95979549Y-146081195D01*
X95949503Y-146066399D01*
X95945024Y-146063498D01*
X95916611Y-146048348D01*
X95885788Y-146037815D01*
X95880767Y-146036785D01*
X95856070Y-146030702D01*
X95837582Y-146023105D01*
X95835021Y-146021379D01*
X95819356Y-146015969D01*
X95790884Y-146012353D01*
X95753631Y-146010495D01*
X95711623Y-146010359D01*
X95668886Y-146011909D01*
X95629449Y-146015107D01*
X95597336Y-146019919D01*
X95583005Y-146023650D01*
X95518108Y-146054057D01*
X95460453Y-146097746D01*
X95429362Y-146131367D01*
X95408501Y-146156472D01*
X95388874Y-146178304D01*
X95378028Y-146189076D01*
X95366414Y-146203450D01*
X95369093Y-146211212D01*
X95373671Y-146220047D01*
X95373368Y-146239717D01*
X95368503Y-146271102D01*
X95362720Y-146304924D01*
X95358081Y-146336714D01*
X95356044Y-146354799D01*
X95351729Y-146393398D01*
X95345790Y-146428682D01*
X95339210Y-146455383D01*
X95335485Y-146464866D01*
X95332272Y-146482402D01*
X95333093Y-146510338D01*
X95337139Y-146542850D01*
X95343596Y-146574114D01*
X95351654Y-146598306D01*
X95354921Y-146604363D01*
X95364847Y-146622593D01*
X95368533Y-146634843D01*
X95373681Y-146645825D01*
X95386861Y-146665039D01*
X95404680Y-146688222D01*
X95423745Y-146711111D01*
X95440661Y-146729441D01*
X95450858Y-146738279D01*
X95465831Y-146755752D01*
X95478399Y-146784562D01*
X95487178Y-146819140D01*
X95490781Y-146853922D01*
X95487823Y-146883339D01*
X95487362Y-146884960D01*
X95482202Y-146898709D01*
X95479408Y-146899542D01*
X95479328Y-146898783D01*
X95472681Y-146888670D01*
X95457505Y-146888349D01*
X95437740Y-146896152D01*
X95417321Y-146910411D01*
X95400186Y-146929457D01*
X95397691Y-146933371D01*
X95389228Y-146951726D01*
X95384551Y-146974455D01*
X95382945Y-147006374D01*
X95383143Y-147031233D01*
X95381240Y-147086563D01*
X95371824Y-147128768D01*
X95353117Y-147160654D01*
X95323344Y-147185028D01*
X95280725Y-147204698D01*
X95271167Y-147208088D01*
X95241698Y-147218981D01*
X95202666Y-147234508D01*
X95159926Y-147252300D01*
X95131467Y-147264602D01*
X95086726Y-147284468D01*
X95051210Y-147300815D01*
X95018543Y-147316713D01*
X94982354Y-147335235D01*
X94953013Y-147350616D01*
X94931139Y-147366116D01*
X94901576Y-147392710D01*
X94866628Y-147427826D01*
X94828601Y-147468889D01*
X94789800Y-147513325D01*
X94752533Y-147558560D01*
X94719102Y-147602022D01*
X94691815Y-147641135D01*
X94689372Y-147644930D01*
X94681276Y-147660277D01*
X94670775Y-147683380D01*
X94660272Y-147708492D01*
X94652169Y-147729868D01*
X94648867Y-147741761D01*
X94648866Y-147741832D01*
X94643047Y-147753221D01*
X94635802Y-147760569D01*
X94623081Y-147776912D01*
X94607753Y-147805188D01*
X94591818Y-147841033D01*
X94577273Y-147880083D01*
X94569389Y-147905556D01*
X94561185Y-147933030D01*
X94549269Y-147970698D01*
X94535498Y-148012763D01*
X94526447Y-148039666D01*
X94509792Y-148088821D01*
X94497632Y-148125595D01*
X94488907Y-148153602D01*
X94482558Y-148176457D01*
X94477525Y-148197775D01*
X94472746Y-148221170D01*
X94471822Y-148225933D01*
X94465027Y-148268710D01*
X94458582Y-148322900D01*
X94452965Y-148382982D01*
X94448656Y-148443437D01*
X94446132Y-148498744D01*
X94445674Y-148527540D01*
X94440627Y-148591180D01*
X94424417Y-148645768D01*
X94395417Y-148696243D01*
X94386009Y-148708759D01*
X94370108Y-148734465D01*
X94355194Y-148767393D01*
X94348626Y-148786592D01*
X94340496Y-148844189D01*
X94347536Y-148907477D01*
X94369560Y-148975012D01*
X94374439Y-148986067D01*
X94386788Y-149018670D01*
X94393105Y-149052303D01*
X94394866Y-149094438D01*
X94397145Y-149140722D01*
X94405370Y-149175057D01*
X94421629Y-149201978D01*
X94448010Y-149226025D01*
X94459017Y-149233914D01*
X94490364Y-149259967D01*
X94514475Y-149288697D01*
X94528251Y-149315992D01*
X94530302Y-149328429D01*
X94526802Y-149345383D01*
X94518146Y-149368377D01*
X94516204Y-149372587D01*
X94508843Y-149389956D01*
X94506453Y-149404936D01*
X94509157Y-149423534D01*
X94517076Y-149451755D01*
X94517864Y-149454363D01*
X94530866Y-149491664D01*
X94543888Y-149514868D01*
X94559060Y-149526675D01*
X94577307Y-149529800D01*
X94592886Y-149534102D01*
X94606260Y-149549334D01*
X94614802Y-149565256D01*
X94625363Y-149591615D01*
X94631392Y-149615382D01*
X94631933Y-149621737D01*
X94636832Y-149646219D01*
X94649612Y-149678371D01*
X94667400Y-149712783D01*
X94687321Y-149744047D01*
X94706501Y-149766754D01*
X94711038Y-149770608D01*
X94736811Y-149785056D01*
X94764317Y-149793374D01*
X94767178Y-149793721D01*
X94788036Y-149798120D01*
X94799471Y-149809756D01*
X94805683Y-149826133D01*
X94823816Y-149874255D01*
X94847599Y-149914123D01*
X94870463Y-149942049D01*
X94889010Y-149965382D01*
X94902267Y-149986976D01*
X94906125Y-149997082D01*
X94907349Y-150010125D01*
X94909018Y-150037892D01*
X94911031Y-150078185D01*
X94913286Y-150128804D01*
X94915684Y-150187551D01*
X94918125Y-150252224D01*
X94919381Y-150287566D01*
X94922055Y-150360310D01*
X94925004Y-150433482D01*
X94928079Y-150503783D01*
X94931125Y-150567912D01*
X94933992Y-150622569D01*
X94936528Y-150664454D01*
X94937111Y-150672800D01*
X94940706Y-150724258D01*
X94944783Y-150785784D01*
X94948900Y-150850537D01*
X94952617Y-150911677D01*
X94953501Y-150926800D01*
X94957067Y-150986328D01*
X94961189Y-151051865D01*
X94965415Y-151116369D01*
X94969288Y-151172799D01*
X94970164Y-151185033D01*
X94975411Y-151258522D01*
X94981179Y-151340975D01*
X94987221Y-151428744D01*
X94993291Y-151518183D01*
X94999145Y-151605645D01*
X95004536Y-151687482D01*
X95009219Y-151760050D01*
X95012949Y-151819700D01*
X95013226Y-151824266D01*
X95016503Y-151870806D01*
X95020347Y-151913681D01*
X95024341Y-151948885D01*
X95028069Y-151972410D01*
X95029095Y-151976666D01*
X95032818Y-151996911D01*
X95036545Y-152029412D01*
X95039817Y-152069498D01*
X95041980Y-152107899D01*
X95045441Y-152158741D01*
X95050913Y-152206525D01*
X95057691Y-152245699D01*
X95061342Y-152260299D01*
X95072328Y-152318276D01*
X95075636Y-152390924D01*
X95075632Y-152391533D01*
X95075047Y-152432639D01*
X95073877Y-152485234D01*
X95072210Y-152546929D01*
X95070135Y-152615331D01*
X95067741Y-152688049D01*
X95065117Y-152762692D01*
X95062351Y-152836868D01*
X95059533Y-152908187D01*
X95056751Y-152974257D01*
X95054094Y-153032687D01*
X95051652Y-153081086D01*
X95049512Y-153117062D01*
X95047944Y-153136600D01*
X95045450Y-153189704D01*
X95047935Y-153244428D01*
X95049933Y-153261443D01*
X95054386Y-153315136D01*
X95050713Y-153360658D01*
X95049443Y-153367276D01*
X95044675Y-153398335D01*
X95046135Y-153419855D01*
X95051166Y-153433025D01*
X95064568Y-153450841D01*
X95087967Y-153474406D01*
X95117280Y-153500065D01*
X95148425Y-153524164D01*
X95167383Y-153537048D01*
X95183461Y-153550847D01*
X95189249Y-153568951D01*
X95189391Y-153583368D01*
X95190658Y-153619890D01*
X95198336Y-153641941D01*
X95213162Y-153651005D01*
X95223124Y-153651170D01*
X95238584Y-153651574D01*
X95245723Y-153660221D01*
X95248563Y-153678277D01*
X95249807Y-153697333D01*
X95246871Y-153702105D01*
X95237462Y-153695134D01*
X95235197Y-153693094D01*
X95220949Y-153682024D01*
X95213243Y-153678466D01*
X95205703Y-153685924D01*
X95195447Y-153705422D01*
X95184149Y-153732642D01*
X95173481Y-153763268D01*
X95165114Y-153792985D01*
X95161289Y-153812560D01*
X95159033Y-153840166D01*
X95162099Y-153863584D01*
X95171915Y-153890538D01*
X95178341Y-153904655D01*
X95197929Y-153938899D01*
X95223157Y-153973450D01*
X95238725Y-153990811D01*
X95276125Y-154027989D01*
X95341379Y-154023070D01*
X95375928Y-154019760D01*
X95397747Y-154015346D01*
X95411041Y-154008534D01*
X95419333Y-153999069D01*
X95433605Y-153981084D01*
X95444286Y-153971043D01*
X95455561Y-153961184D01*
X95475126Y-153942553D01*
X95499470Y-153918523D01*
X95509560Y-153908358D01*
X95545849Y-153868595D01*
X95578002Y-153826160D01*
X95589988Y-153807035D01*
X95318908Y-153807035D01*
X95318076Y-153820083D01*
X95301830Y-153838426D01*
X95298579Y-153841222D01*
X95268854Y-153860070D01*
X95242304Y-153863049D01*
X95219868Y-153852638D01*
X95208784Y-153843136D01*
X95211352Y-153837785D01*
X95218201Y-153834817D01*
X95228810Y-153826918D01*
X95224959Y-153819319D01*
X95208980Y-153814517D01*
X95198700Y-153813933D01*
X95179453Y-153809345D01*
X95173948Y-153795418D01*
X95182162Y-153771905D01*
X95193187Y-153753802D01*
X95212295Y-153731812D01*
X95228713Y-153726264D01*
X95242116Y-153737216D01*
X95245658Y-153744083D01*
X95255959Y-153758730D01*
X95264708Y-153763133D01*
X95273967Y-153767062D01*
X95274397Y-153769483D01*
X95274025Y-153782599D01*
X95274397Y-153791686D01*
X95277309Y-153802377D01*
X95286479Y-153798318D01*
X95288100Y-153797000D01*
X95298846Y-153782849D01*
X95300800Y-153775296D01*
X95307151Y-153760895D01*
X95310494Y-153758141D01*
X95316853Y-153758973D01*
X95316006Y-153774027D01*
X95315342Y-153794751D01*
X95318908Y-153807035D01*
X95589988Y-153807035D01*
X95609043Y-153776631D01*
X95641995Y-153715586D01*
X95643700Y-153712245D01*
X95671844Y-153668372D01*
X95707617Y-153635028D01*
X95710125Y-153633223D01*
X95735917Y-153612306D01*
X95757947Y-153589986D01*
X95767217Y-153577668D01*
X95786216Y-153555808D01*
X95810835Y-153538156D01*
X95812975Y-153537089D01*
X95833464Y-153524477D01*
X95841738Y-153509612D01*
X95842667Y-153498541D01*
X95839466Y-153474051D01*
X95833540Y-153457100D01*
X95828657Y-153440387D01*
X95824462Y-153412601D01*
X95821827Y-153379598D01*
X95821751Y-153377888D01*
X95819791Y-153346426D01*
X95817109Y-153321474D01*
X95814253Y-153307990D01*
X95813974Y-153307455D01*
X95809799Y-153294410D01*
X95805528Y-153271759D01*
X95804324Y-153263081D01*
X95793862Y-153201626D01*
X95777285Y-153141631D01*
X95763512Y-153102683D01*
X95745917Y-153051491D01*
X95735497Y-153007935D01*
X95730999Y-152964965D01*
X95731004Y-152920088D01*
X95729580Y-152871536D01*
X95722082Y-152834545D01*
X95720172Y-152829523D01*
X95712802Y-152801523D01*
X95709182Y-152765863D01*
X95709306Y-152728642D01*
X95713162Y-152695961D01*
X95720403Y-152674463D01*
X95729999Y-152652516D01*
X95735364Y-152632130D01*
X95740982Y-152608490D01*
X95749898Y-152579357D01*
X95753081Y-152570238D01*
X95761635Y-152537026D01*
X95765873Y-152501489D01*
X95765980Y-152494038D01*
X95765733Y-152421659D01*
X95767149Y-152355006D01*
X95770074Y-152296204D01*
X95774355Y-152247380D01*
X95779839Y-152210660D01*
X95786373Y-152188172D01*
X95788228Y-152184915D01*
X95795720Y-152164722D01*
X95799828Y-152132963D01*
X95800333Y-152115516D01*
X95802291Y-152082006D01*
X95807335Y-152050799D01*
X95812060Y-152034850D01*
X95818986Y-152005625D01*
X95821713Y-151961417D01*
X95821321Y-151925866D01*
X95821907Y-151864950D01*
X95827906Y-151819754D01*
X95831208Y-151807837D01*
X95837967Y-151779892D01*
X95843715Y-151743087D01*
X95847145Y-151706237D01*
X95849818Y-151666893D01*
X95853718Y-151619483D01*
X95858112Y-151572761D01*
X95859245Y-151561799D01*
X95863842Y-151515253D01*
X95868352Y-151464374D01*
X95871941Y-151418689D01*
X95872525Y-151410252D01*
X95875743Y-151375316D01*
X95880072Y-151345460D01*
X95884715Y-151325873D01*
X95885972Y-151322916D01*
X95888825Y-151309608D01*
X95891554Y-151282302D01*
X95893975Y-151243933D01*
X95895904Y-151197435D01*
X95897158Y-151145745D01*
X95897181Y-151144263D01*
X95899559Y-151061046D01*
X95903926Y-150993881D01*
X95910403Y-150941991D01*
X95919107Y-150904600D01*
X95930159Y-150880929D01*
X95938967Y-150872339D01*
X95952777Y-150868488D01*
X95965252Y-150878550D01*
X95966554Y-150880233D01*
X95973114Y-150892743D01*
X95975734Y-150910408D01*
X95974738Y-150937636D01*
X95972514Y-150960666D01*
X95968186Y-151021806D01*
X95968342Y-151079623D01*
X95972839Y-151129199D01*
X95978165Y-151155196D01*
X95981799Y-151175442D01*
X95985461Y-151207946D01*
X95988701Y-151248041D01*
X95990874Y-151286539D01*
X95993091Y-151333109D01*
X95995902Y-151387135D01*
X95999117Y-151445462D01*
X96002548Y-151504935D01*
X96006005Y-151562399D01*
X96009301Y-151614697D01*
X96012247Y-151658675D01*
X96014653Y-151691176D01*
X96015948Y-151705733D01*
X96023830Y-151771406D01*
X96032572Y-151827124D01*
X96041750Y-151870517D01*
X96050426Y-151898026D01*
X96058458Y-151924330D01*
X96065079Y-151958763D01*
X96068018Y-151984339D01*
X96071343Y-152015105D01*
X96075893Y-152040502D01*
X96079931Y-152053235D01*
X96083297Y-152067709D01*
X96085924Y-152094610D01*
X96087455Y-152129435D01*
X96087701Y-152151395D01*
X96088850Y-152197700D01*
X96091972Y-152247362D01*
X96096466Y-152291583D01*
X96098017Y-152302633D01*
X96101769Y-152337353D01*
X96104544Y-152383604D01*
X96106118Y-152435998D01*
X96106264Y-152489149D01*
X96106140Y-152497366D01*
X96105785Y-152547350D01*
X96106804Y-152594144D01*
X96109506Y-152641056D01*
X96114199Y-152691393D01*
X96121190Y-152748460D01*
X96130787Y-152815566D01*
X96143184Y-152895300D01*
X96151306Y-152953847D01*
X96154989Y-152999216D01*
X96154205Y-153030421D01*
X96148927Y-153046476D01*
X96147467Y-153047700D01*
X96141399Y-153059129D01*
X96139000Y-153078170D01*
X96135071Y-153102093D01*
X96125330Y-153129787D01*
X96122317Y-153136108D01*
X96117304Y-153147237D01*
X96112851Y-153160720D01*
X96108759Y-153178224D01*
X96104827Y-153201416D01*
X96100857Y-153231961D01*
X96096646Y-153271527D01*
X96091997Y-153321781D01*
X96086708Y-153384389D01*
X96080579Y-153461017D01*
X96075515Y-153526066D01*
X96070747Y-153581640D01*
X96065181Y-153636764D01*
X96059318Y-153687060D01*
X96053658Y-153728148D01*
X96049820Y-153750433D01*
X96042507Y-153791704D01*
X96036650Y-153836385D01*
X96032137Y-153886620D01*
X96028858Y-153944550D01*
X96026698Y-154012317D01*
X96025548Y-154092064D01*
X96025293Y-154185934D01*
X96025376Y-154217630D01*
X96025749Y-154287617D01*
X96026373Y-154342674D01*
X96027367Y-154384805D01*
X96028850Y-154416012D01*
X96030939Y-154438299D01*
X96033751Y-154453669D01*
X96037406Y-154464125D01*
X96040181Y-154469071D01*
X96048232Y-154486717D01*
X96045772Y-154495558D01*
X96038961Y-154508254D01*
X96037958Y-154529167D01*
X96042508Y-154550700D01*
X96047983Y-154561004D01*
X96062586Y-154571730D01*
X96085978Y-154581625D01*
X96093564Y-154583850D01*
X96125916Y-154596211D01*
X96142943Y-154613113D01*
X96145959Y-154635969D01*
X96145379Y-154639511D01*
X96144298Y-154651093D01*
X96148108Y-154659021D01*
X96159514Y-154664251D01*
X96181222Y-154667738D01*
X96215938Y-154670437D01*
X96236366Y-154671641D01*
X96283688Y-154671512D01*
X96315476Y-154664904D01*
X96318916Y-154663346D01*
X96337604Y-154656396D01*
X96354276Y-154658706D01*
X96368342Y-154665217D01*
X96385661Y-154679435D01*
X96402495Y-154701488D01*
X96416016Y-154726255D01*
X96423399Y-154748618D01*
X96422233Y-154762846D01*
X96419876Y-154776740D01*
X96421693Y-154798225D01*
X96421926Y-154799509D01*
X96435549Y-154826794D01*
X96465601Y-154852421D01*
X96511639Y-154876187D01*
X96573220Y-154897887D01*
X96649903Y-154917317D01*
X96697800Y-154926860D01*
X96798856Y-154944799D01*
X96896717Y-154961078D01*
X96987197Y-154975030D01*
X97066111Y-154985987D01*
X97078800Y-154987594D01*
X97125175Y-154993922D01*
X97172446Y-155001305D01*
X97213983Y-155008665D01*
X97235433Y-155013075D01*
X97274171Y-155020671D01*
X97320233Y-155028065D01*
X97364063Y-155033731D01*
X97366667Y-155034009D01*
X97409968Y-155038802D01*
X97456141Y-155044283D01*
X97495654Y-155049319D01*
X97497900Y-155049622D01*
X97547699Y-155054381D01*
X97604091Y-155056571D01*
X97661750Y-155056263D01*
X97715349Y-155053532D01*
X97759561Y-155048449D01*
X97773066Y-155045855D01*
X97835309Y-155030416D01*
X97884259Y-155014743D01*
X97923523Y-154997501D01*
X97955234Y-154978381D01*
X97983364Y-154959599D01*
X98010492Y-154942692D01*
X98024290Y-154934819D01*
X98047765Y-154913575D01*
X98060104Y-154883190D01*
X98060850Y-154847664D01*
X98049545Y-154810995D01*
X98040270Y-154794988D01*
X98025878Y-154777705D01*
X98008142Y-154765922D01*
X97983718Y-154758665D01*
X97949264Y-154754959D01*
X97901438Y-154753832D01*
X97898984Y-154753826D01*
X97855882Y-154750832D01*
X97819072Y-154742739D01*
X97792098Y-154730659D01*
X97778647Y-154716091D01*
X97768337Y-154707297D01*
X97761544Y-154707886D01*
X97745728Y-154706769D01*
X97720529Y-154697246D01*
X97689898Y-154681353D01*
X97657784Y-154661122D01*
X97629934Y-154640102D01*
X97608246Y-154623353D01*
X97590849Y-154612347D01*
X97583882Y-154609798D01*
X97569156Y-154604736D01*
X97544864Y-154591133D01*
X97514387Y-154571360D01*
X97481107Y-154547791D01*
X97448406Y-154522796D01*
X97419664Y-154498749D01*
X97402650Y-154482669D01*
X97374200Y-154450262D01*
X97360124Y-154425878D01*
X97360182Y-154408985D01*
X97366667Y-154402366D01*
X97372697Y-154390163D01*
X97374901Y-154367351D01*
X97373491Y-154339768D01*
X97368679Y-154313248D01*
X97364113Y-154300797D01*
X96787950Y-154300797D01*
X96787201Y-154316970D01*
X96786501Y-154324752D01*
X96781525Y-154359816D01*
X96774892Y-154378212D01*
X96770167Y-154381200D01*
X96769936Y-154373895D01*
X96769962Y-154373732D01*
X96706266Y-154373732D01*
X96701050Y-154378323D01*
X96697800Y-154376966D01*
X96691804Y-154380275D01*
X96689337Y-154396747D01*
X96689333Y-154397633D01*
X96686734Y-154415679D01*
X96680454Y-154423522D01*
X96680194Y-154423533D01*
X96674920Y-154416159D01*
X96676956Y-154396016D01*
X96682098Y-154375200D01*
X96686498Y-154362340D01*
X96686681Y-154362011D01*
X96695109Y-154359162D01*
X96704010Y-154366206D01*
X96706266Y-154373732D01*
X96769962Y-154373732D01*
X96772872Y-154355728D01*
X96774167Y-154349450D01*
X96777183Y-154336099D01*
X96645387Y-154336099D01*
X96643257Y-154354810D01*
X96634781Y-154379699D01*
X96630570Y-154388679D01*
X96619803Y-154413387D01*
X96613672Y-154434439D01*
X96613133Y-154439629D01*
X96609320Y-154455978D01*
X96604666Y-154461633D01*
X96598534Y-154473095D01*
X96596200Y-154491431D01*
X96593885Y-154513025D01*
X96587940Y-154540243D01*
X96579861Y-154568232D01*
X96571143Y-154592141D01*
X96563285Y-154607117D01*
X96559685Y-154609800D01*
X96554989Y-154603706D01*
X96555891Y-154599216D01*
X96561176Y-154581216D01*
X96568640Y-154551554D01*
X96577144Y-154515174D01*
X96585547Y-154477019D01*
X96592708Y-154442032D01*
X96595104Y-154429286D01*
X96603646Y-154395666D01*
X96615745Y-154363555D01*
X96623395Y-154348853D01*
X96635472Y-154330590D01*
X96641780Y-154325646D01*
X96644825Y-154332567D01*
X96645387Y-154336099D01*
X96777183Y-154336099D01*
X96781537Y-154316829D01*
X96786097Y-154300680D01*
X96787950Y-154300797D01*
X97364113Y-154300797D01*
X97362832Y-154297305D01*
X97346927Y-154276937D01*
X97336625Y-154271133D01*
X96790933Y-154271133D01*
X96787835Y-154278102D01*
X96785289Y-154276777D01*
X96784275Y-154266729D01*
X96785289Y-154265488D01*
X96790322Y-154266651D01*
X96790933Y-154271133D01*
X97336625Y-154271133D01*
X97322246Y-154263033D01*
X97302390Y-154258433D01*
X96731666Y-154258433D01*
X96727433Y-154262666D01*
X96723200Y-154258433D01*
X96727433Y-154254200D01*
X96731666Y-154258433D01*
X97302390Y-154258433D01*
X97286272Y-154254699D01*
X97236483Y-154251041D01*
X97232165Y-154250931D01*
X97190164Y-154248325D01*
X97161136Y-154241480D01*
X97141277Y-154228451D01*
X97138616Y-154224566D01*
X96740133Y-154224566D01*
X96735900Y-154228800D01*
X96731666Y-154224566D01*
X96735900Y-154220333D01*
X96740133Y-154224566D01*
X97138616Y-154224566D01*
X97126784Y-154207296D01*
X97120742Y-154193989D01*
X97114891Y-154174584D01*
X97119185Y-154160542D01*
X97127946Y-154150126D01*
X97148797Y-154123444D01*
X97165051Y-154091458D01*
X97177421Y-154051577D01*
X97186617Y-154001213D01*
X97193350Y-153937777D01*
X97195859Y-153902833D01*
X97198184Y-153858661D01*
X96856530Y-153858661D01*
X96851780Y-153880771D01*
X96851663Y-153881110D01*
X96845622Y-153903904D01*
X96839518Y-153935532D01*
X96835883Y-153960068D01*
X96832180Y-153986421D01*
X96829522Y-153996999D01*
X96827471Y-153992896D01*
X96826362Y-153983947D01*
X96826697Y-153956562D01*
X96831123Y-153925352D01*
X96832623Y-153918814D01*
X96838443Y-153890282D01*
X96841565Y-153864420D01*
X96841733Y-153859290D01*
X96843429Y-153843992D01*
X96849287Y-153843684D01*
X96851252Y-153845465D01*
X96856530Y-153858661D01*
X97198184Y-153858661D01*
X97198661Y-153849615D01*
X97200484Y-153795696D01*
X97201217Y-153746292D01*
X97201166Y-153741966D01*
X96875600Y-153741966D01*
X96871366Y-153746200D01*
X96867133Y-153741966D01*
X96871366Y-153737733D01*
X96875600Y-153741966D01*
X97201166Y-153741966D01*
X97200748Y-153706614D01*
X97200246Y-153695400D01*
X97198526Y-153665061D01*
X96883398Y-153665061D01*
X96881841Y-153676042D01*
X96878951Y-153676173D01*
X96876930Y-153664841D01*
X96878283Y-153659945D01*
X96882042Y-153656738D01*
X96883398Y-153665061D01*
X97198526Y-153665061D01*
X97197511Y-153647164D01*
X97196153Y-153612552D01*
X97196521Y-153588288D01*
X97198962Y-153571092D01*
X97203827Y-153557688D01*
X97211463Y-153544798D01*
X97217150Y-153536480D01*
X97224504Y-153525563D01*
X97230180Y-153515162D01*
X97234372Y-153503051D01*
X97237273Y-153487003D01*
X97239079Y-153464794D01*
X97239982Y-153434198D01*
X97240177Y-153392988D01*
X97239858Y-153338939D01*
X97239336Y-153282041D01*
X97239437Y-153254138D01*
X97241382Y-153232777D01*
X97246696Y-153213349D01*
X97256906Y-153191241D01*
X97273537Y-153161845D01*
X97286153Y-153140601D01*
X97317472Y-153084167D01*
X97339757Y-153033179D01*
X97355534Y-152980716D01*
X97360602Y-152954566D01*
X96790933Y-152954566D01*
X96786700Y-152958800D01*
X96782466Y-152954566D01*
X96786700Y-152950333D01*
X96790933Y-152954566D01*
X97360602Y-152954566D01*
X97367332Y-152919851D01*
X97367789Y-152916937D01*
X97374213Y-152883158D01*
X97374615Y-152881563D01*
X96824800Y-152881563D01*
X96818944Y-152890601D01*
X96816333Y-152891066D01*
X96809454Y-152898157D01*
X96807866Y-152908000D01*
X96804650Y-152921763D01*
X96800192Y-152924933D01*
X96795800Y-152918204D01*
X96796874Y-152908277D01*
X96803625Y-152893340D01*
X96813225Y-152881508D01*
X96821622Y-152876661D01*
X96824800Y-152881563D01*
X97374615Y-152881563D01*
X97379689Y-152861433D01*
X96934866Y-152861433D01*
X96930633Y-152865666D01*
X96926400Y-152861433D01*
X96930633Y-152857200D01*
X96934866Y-152861433D01*
X97379689Y-152861433D01*
X97382110Y-152851829D01*
X97388062Y-152834180D01*
X97394767Y-152812114D01*
X97395633Y-152795321D01*
X97395222Y-152793944D01*
X97394987Y-152779773D01*
X97399121Y-152755416D01*
X97404886Y-152732768D01*
X97412403Y-152706548D01*
X97417526Y-152687983D01*
X97419035Y-152681705D01*
X97420929Y-152673174D01*
X97425946Y-152653266D01*
X97430580Y-152635499D01*
X97436311Y-152607433D01*
X96943333Y-152607433D01*
X96939100Y-152611666D01*
X96934866Y-152607433D01*
X96939100Y-152603199D01*
X96943333Y-152607433D01*
X97436311Y-152607433D01*
X97436507Y-152606478D01*
X97442199Y-152567431D01*
X97443352Y-152556633D01*
X97087266Y-152556633D01*
X97083033Y-152560866D01*
X97078800Y-152556633D01*
X97083033Y-152552399D01*
X97087266Y-152556633D01*
X97443352Y-152556633D01*
X97446517Y-152526999D01*
X96951800Y-152526999D01*
X96948702Y-152533969D01*
X96946155Y-152532644D01*
X96945142Y-152522596D01*
X96946155Y-152521355D01*
X96951189Y-152522517D01*
X96951800Y-152526999D01*
X97446517Y-152526999D01*
X97446704Y-152525252D01*
X97447865Y-152510427D01*
X97449061Y-152496661D01*
X97061198Y-152496661D01*
X97059641Y-152507642D01*
X97056751Y-152507773D01*
X97056280Y-152505127D01*
X96857998Y-152505127D01*
X96856441Y-152516109D01*
X96853551Y-152516240D01*
X96851530Y-152504908D01*
X96852883Y-152500012D01*
X96856642Y-152496805D01*
X96857998Y-152505127D01*
X97056280Y-152505127D01*
X97054730Y-152496441D01*
X97056083Y-152491545D01*
X97059842Y-152488338D01*
X97061198Y-152496661D01*
X97449061Y-152496661D01*
X97449892Y-152487093D01*
X96992768Y-152487093D01*
X96990708Y-152491825D01*
X96982183Y-152500914D01*
X96977282Y-152499049D01*
X96977200Y-152497866D01*
X96983214Y-152490705D01*
X96986975Y-152488091D01*
X96992768Y-152487093D01*
X97449892Y-152487093D01*
X97451053Y-152473738D01*
X97452853Y-152459266D01*
X97095733Y-152459266D01*
X97092635Y-152466235D01*
X97090089Y-152464911D01*
X97089209Y-152456189D01*
X96970370Y-152456189D01*
X96966923Y-152475293D01*
X96965629Y-152479694D01*
X96957978Y-152500436D01*
X96953633Y-152504940D01*
X96953260Y-152493698D01*
X96956416Y-152472905D01*
X96961600Y-152454222D01*
X96967268Y-152446189D01*
X96968472Y-152446405D01*
X96970370Y-152456189D01*
X97089209Y-152456189D01*
X97089075Y-152454863D01*
X97090089Y-152453622D01*
X97095122Y-152454784D01*
X97095733Y-152459266D01*
X97452853Y-152459266D01*
X97454947Y-152442442D01*
X97458912Y-152421166D01*
X96977200Y-152421166D01*
X96972966Y-152425399D01*
X96968733Y-152421166D01*
X96972966Y-152416933D01*
X96977200Y-152421166D01*
X97458912Y-152421166D01*
X97458923Y-152421109D01*
X97460820Y-152415464D01*
X97462915Y-152402990D01*
X97463094Y-152399999D01*
X97112666Y-152399999D01*
X97109569Y-152406969D01*
X97107022Y-152405644D01*
X97106453Y-152399999D01*
X96985666Y-152399999D01*
X96982569Y-152406969D01*
X96980022Y-152405644D01*
X96979825Y-152403689D01*
X96880544Y-152403689D01*
X96876506Y-152424290D01*
X96873851Y-152433564D01*
X96866590Y-152453095D01*
X96861752Y-152457160D01*
X96860399Y-152453103D01*
X96861510Y-152433477D01*
X96866986Y-152413087D01*
X96875086Y-152396006D01*
X96879838Y-152393567D01*
X96880544Y-152403689D01*
X96979825Y-152403689D01*
X96979009Y-152395596D01*
X96980022Y-152394355D01*
X96985055Y-152395517D01*
X96985666Y-152399999D01*
X97106453Y-152399999D01*
X97106009Y-152395596D01*
X97107022Y-152394355D01*
X97112055Y-152395517D01*
X97112666Y-152399999D01*
X97463094Y-152399999D01*
X97464366Y-152378833D01*
X96985666Y-152378833D01*
X96981433Y-152383066D01*
X96977200Y-152378833D01*
X96981433Y-152374599D01*
X96985666Y-152378833D01*
X97464366Y-152378833D01*
X97464515Y-152376361D01*
X97465553Y-152338350D01*
X97465569Y-152336499D01*
X96994133Y-152336499D01*
X96989900Y-152340733D01*
X96985666Y-152336499D01*
X96989900Y-152332266D01*
X96994133Y-152336499D01*
X97465569Y-152336499D01*
X97465958Y-152291728D01*
X97465664Y-152239268D01*
X97465491Y-152226746D01*
X97464722Y-152166597D01*
X97464613Y-152120761D01*
X97465323Y-152086628D01*
X97467013Y-152061585D01*
X97469840Y-152043020D01*
X97473965Y-152028322D01*
X97478240Y-152017741D01*
X97487841Y-151992672D01*
X97493237Y-151971553D01*
X97493667Y-151966718D01*
X97497688Y-151945195D01*
X97502259Y-151934098D01*
X97509044Y-151915517D01*
X97517072Y-151884784D01*
X97521977Y-151862366D01*
X97093312Y-151862366D01*
X97092774Y-151882445D01*
X97091264Y-151889784D01*
X97089773Y-151885766D01*
X97088249Y-151862538D01*
X97089658Y-151843433D01*
X97091597Y-151837557D01*
X97092931Y-151846708D01*
X97093312Y-151862366D01*
X97521977Y-151862366D01*
X97525440Y-151846545D01*
X97533247Y-151805448D01*
X97539591Y-151766136D01*
X97542290Y-151743833D01*
X96985666Y-151743833D01*
X96981433Y-151748066D01*
X96977200Y-151743833D01*
X96981433Y-151739599D01*
X96985666Y-151743833D01*
X97542290Y-151743833D01*
X97543570Y-151733256D01*
X97544467Y-151716606D01*
X97546690Y-151685774D01*
X97552360Y-151649483D01*
X97556486Y-151630755D01*
X97559815Y-151609182D01*
X97563062Y-151572092D01*
X97565757Y-151527933D01*
X97078800Y-151527933D01*
X97075702Y-151534902D01*
X97073155Y-151533577D01*
X97072142Y-151523529D01*
X97073155Y-151522288D01*
X97078189Y-151523451D01*
X97078800Y-151527933D01*
X97565757Y-151527933D01*
X97566187Y-151520900D01*
X97568805Y-151464433D01*
X97078800Y-151464433D01*
X97074566Y-151468666D01*
X97070333Y-151464433D01*
X97074566Y-151460199D01*
X97078800Y-151464433D01*
X97568805Y-151464433D01*
X97569149Y-151457024D01*
X97570586Y-151417866D01*
X97078800Y-151417866D01*
X97075702Y-151424835D01*
X97073155Y-151423511D01*
X97072142Y-151413463D01*
X97073155Y-151412222D01*
X97078189Y-151413384D01*
X97078800Y-151417866D01*
X97570586Y-151417866D01*
X97571907Y-151381877D01*
X97572344Y-151367066D01*
X97078800Y-151367066D01*
X97075702Y-151374035D01*
X97073155Y-151372711D01*
X97072142Y-151362663D01*
X97073155Y-151361422D01*
X97078189Y-151362584D01*
X97078800Y-151367066D01*
X97572344Y-151367066D01*
X97573491Y-151328261D01*
X97078131Y-151328261D01*
X97076575Y-151339242D01*
X97073685Y-151339373D01*
X97071663Y-151328041D01*
X97073016Y-151323145D01*
X97076776Y-151319938D01*
X97078131Y-151328261D01*
X97573491Y-151328261D01*
X97574420Y-151296877D01*
X97576380Y-151214666D01*
X97078800Y-151214666D01*
X97075702Y-151221635D01*
X97073155Y-151220311D01*
X97072142Y-151210263D01*
X97073155Y-151209022D01*
X97078189Y-151210184D01*
X97078800Y-151214666D01*
X97576380Y-151214666D01*
X97576648Y-151203440D01*
X97577490Y-151158927D01*
X97069665Y-151158927D01*
X97068108Y-151169909D01*
X97065218Y-151170040D01*
X97063197Y-151158708D01*
X97064549Y-151153812D01*
X97068309Y-151150605D01*
X97069665Y-151158927D01*
X97577490Y-151158927D01*
X97578549Y-151102981D01*
X97580083Y-150996917D01*
X97581208Y-150886663D01*
X97581342Y-150864253D01*
X97067423Y-150864253D01*
X97066100Y-150867533D01*
X97058492Y-150875610D01*
X97057133Y-150876000D01*
X97053497Y-150869449D01*
X97053400Y-150867533D01*
X97059909Y-150859392D01*
X97062366Y-150859066D01*
X97067423Y-150864253D01*
X97581342Y-150864253D01*
X97581525Y-150833666D01*
X97061866Y-150833666D01*
X97058769Y-150840635D01*
X97056222Y-150839311D01*
X97055209Y-150829263D01*
X97056222Y-150828022D01*
X97061255Y-150829184D01*
X97061866Y-150833666D01*
X97581525Y-150833666D01*
X97581885Y-150773635D01*
X97581910Y-150765933D01*
X96850200Y-150765933D01*
X96847102Y-150772902D01*
X96844555Y-150771577D01*
X96843542Y-150761529D01*
X96844555Y-150760288D01*
X96849589Y-150761451D01*
X96850200Y-150765933D01*
X97581910Y-150765933D01*
X97581973Y-150747186D01*
X97582200Y-150682329D01*
X97582306Y-150668566D01*
X97307400Y-150668566D01*
X97303167Y-150672800D01*
X97298933Y-150668566D01*
X97303167Y-150664333D01*
X97307400Y-150668566D01*
X97582306Y-150668566D01*
X97582589Y-150632253D01*
X97582607Y-150631325D01*
X97279601Y-150631325D01*
X97277825Y-150639808D01*
X97277222Y-150641415D01*
X97270515Y-150651782D01*
X97266702Y-150651857D01*
X97267651Y-150642900D01*
X97272483Y-150636675D01*
X97279601Y-150631325D01*
X97582607Y-150631325D01*
X97583330Y-150594806D01*
X97584609Y-150567835D01*
X97586612Y-150549188D01*
X97589528Y-150536712D01*
X97593544Y-150528256D01*
X97598846Y-150521667D01*
X97601852Y-150518586D01*
X97629422Y-150502125D01*
X97648418Y-150499233D01*
X97060216Y-150499233D01*
X97059301Y-150513692D01*
X97056650Y-150514965D01*
X97056313Y-150514211D01*
X97054638Y-150497403D01*
X97055999Y-150488811D01*
X97058694Y-150485358D01*
X97060160Y-150496604D01*
X97060216Y-150499233D01*
X97648418Y-150499233D01*
X97675700Y-150499233D01*
X97676535Y-150431500D01*
X97678579Y-150388866D01*
X97683017Y-150363766D01*
X97053400Y-150363766D01*
X97049166Y-150368000D01*
X97044933Y-150363766D01*
X97049166Y-150359533D01*
X97053400Y-150363766D01*
X97683017Y-150363766D01*
X97684196Y-150357104D01*
X97694472Y-150330335D01*
X97695585Y-150328120D01*
X97706854Y-150300393D01*
X97713250Y-150273656D01*
X97713800Y-150266180D01*
X97718286Y-150236453D01*
X97729758Y-150210454D01*
X97741957Y-150197246D01*
X97743801Y-150194433D01*
X97248133Y-150194433D01*
X97243900Y-150198666D01*
X97239667Y-150194433D01*
X96604666Y-150194433D01*
X96600433Y-150198666D01*
X96596200Y-150194433D01*
X96600433Y-150190200D01*
X96604666Y-150194433D01*
X97239667Y-150194433D01*
X97243900Y-150190200D01*
X97248133Y-150194433D01*
X97743801Y-150194433D01*
X97747904Y-150188175D01*
X97202128Y-150188175D01*
X97193805Y-150189531D01*
X97182824Y-150187974D01*
X97182734Y-150185981D01*
X96489269Y-150185981D01*
X96479653Y-150187258D01*
X96460733Y-150187662D01*
X96439831Y-150187137D01*
X96431997Y-150185771D01*
X96437450Y-150184135D01*
X96464798Y-150182718D01*
X96484016Y-150184135D01*
X96489269Y-150185981D01*
X97182734Y-150185981D01*
X97182693Y-150185084D01*
X97194025Y-150183063D01*
X97198921Y-150184416D01*
X97202128Y-150188175D01*
X97747904Y-150188175D01*
X97749913Y-150185112D01*
X97752328Y-150176088D01*
X97160644Y-150176088D01*
X97159482Y-150181122D01*
X97155000Y-150181733D01*
X97149460Y-150179270D01*
X96337966Y-150179270D01*
X96217316Y-150180501D01*
X96169323Y-150180773D01*
X96135789Y-150180280D01*
X96114248Y-150178777D01*
X96102233Y-150176020D01*
X96097277Y-150171763D01*
X96096666Y-150168514D01*
X96099596Y-150160684D01*
X96111037Y-150158453D01*
X96134790Y-150161012D01*
X96160486Y-150164222D01*
X96196853Y-150167953D01*
X96237669Y-150171589D01*
X96255440Y-150173000D01*
X96337966Y-150179270D01*
X97149460Y-150179270D01*
X97148031Y-150178635D01*
X97149355Y-150176088D01*
X97159403Y-150175075D01*
X97160644Y-150176088D01*
X97752328Y-150176088D01*
X97753464Y-150171846D01*
X97758938Y-150148422D01*
X97765249Y-150129908D01*
X97772420Y-150099579D01*
X97773433Y-150085551D01*
X96214494Y-150085551D01*
X96208627Y-150087077D01*
X96189858Y-150088171D01*
X96162220Y-150088599D01*
X96161578Y-150088600D01*
X96132821Y-150087454D01*
X96112594Y-150084435D01*
X96105133Y-150080263D01*
X96112642Y-150077468D01*
X96131594Y-150076495D01*
X96156627Y-150077085D01*
X96182379Y-150078978D01*
X96203488Y-150081916D01*
X96214494Y-150085551D01*
X97773433Y-150085551D01*
X97775435Y-150057856D01*
X97774391Y-150009733D01*
X97769382Y-149960207D01*
X97761185Y-149917008D01*
X97753129Y-149881189D01*
X97749807Y-149855907D01*
X97750902Y-149835538D01*
X97755533Y-149816330D01*
X97760217Y-149796557D01*
X97761177Y-149776809D01*
X97758086Y-149751996D01*
X97750618Y-149717025D01*
X97748608Y-149708522D01*
X97739129Y-149668498D01*
X97727591Y-149619358D01*
X97715727Y-149568493D01*
X97708720Y-149538266D01*
X97694357Y-149483402D01*
X97678919Y-149437251D01*
X97663706Y-149403644D01*
X97661909Y-149400556D01*
X97646501Y-149370560D01*
X97639241Y-149341748D01*
X97637600Y-149309501D01*
X97635285Y-149277815D01*
X97629112Y-149237064D01*
X97620236Y-149194355D01*
X97616433Y-149179239D01*
X97606466Y-149138000D01*
X97600096Y-149100359D01*
X97596619Y-149060128D01*
X97595331Y-149011120D01*
X97595267Y-148993132D01*
X97594952Y-148947034D01*
X97593446Y-148912447D01*
X97589907Y-148883953D01*
X97583494Y-148856131D01*
X97573365Y-148823564D01*
X97565215Y-148799672D01*
X97549826Y-148752297D01*
X97532911Y-148695370D01*
X97515334Y-148632307D01*
X97497964Y-148566523D01*
X97481666Y-148501436D01*
X97467306Y-148440461D01*
X97455752Y-148387015D01*
X97447869Y-148344513D01*
X97445469Y-148327533D01*
X97441433Y-148302586D01*
X97436476Y-148284649D01*
X97434572Y-148280966D01*
X97429453Y-148269273D01*
X97421566Y-148245665D01*
X97412376Y-148214624D01*
X97409648Y-148204766D01*
X97391009Y-148136618D01*
X97375177Y-148079442D01*
X97360651Y-148027837D01*
X97354372Y-148005799D01*
X97344868Y-147972414D01*
X97342339Y-147963466D01*
X96249066Y-147963466D01*
X96242624Y-147971687D01*
X96240600Y-147971933D01*
X96232379Y-147965490D01*
X96232133Y-147963466D01*
X96238576Y-147955246D01*
X96240600Y-147954999D01*
X96248820Y-147961442D01*
X96249066Y-147963466D01*
X97342339Y-147963466D01*
X97335556Y-147939471D01*
X97331598Y-147925366D01*
X97322374Y-147896048D01*
X97312167Y-147868594D01*
X97310843Y-147865467D01*
X97303954Y-147843992D01*
X97296636Y-147812428D01*
X97290443Y-147777505D01*
X97290304Y-147776567D01*
X97284548Y-147741796D01*
X97278229Y-147710314D01*
X97272684Y-147688765D01*
X97272530Y-147688299D01*
X97264484Y-147657860D01*
X97256352Y-147616340D01*
X97249007Y-147569564D01*
X97243322Y-147523358D01*
X97240172Y-147483547D01*
X97239814Y-147470168D01*
X97238432Y-147440712D01*
X97235030Y-147416634D01*
X97231922Y-147406668D01*
X97227864Y-147392438D01*
X97223004Y-147365586D01*
X97218037Y-147330355D01*
X97214743Y-147301784D01*
X97203931Y-147221235D01*
X97189776Y-147152822D01*
X97185104Y-147137966D01*
X96282933Y-147137966D01*
X96278700Y-147142200D01*
X96274466Y-147137966D01*
X96278700Y-147133733D01*
X96282933Y-147137966D01*
X97185104Y-147137966D01*
X97172727Y-147098615D01*
X97168246Y-147087930D01*
X97154750Y-147043822D01*
X97152583Y-147010966D01*
X96376066Y-147010966D01*
X96371833Y-147015200D01*
X96367600Y-147010966D01*
X96371833Y-147006733D01*
X96376066Y-147010966D01*
X97152583Y-147010966D01*
X97151821Y-146999420D01*
X97154127Y-146987775D01*
X96389328Y-146987775D01*
X96381005Y-146989131D01*
X96370024Y-146987574D01*
X96369893Y-146984684D01*
X96381225Y-146982663D01*
X96386121Y-146984016D01*
X96389328Y-146987775D01*
X97154127Y-146987775D01*
X97158757Y-146964400D01*
X97177629Y-146915320D01*
X97197553Y-146864798D01*
X97217073Y-146816407D01*
X97234733Y-146773722D01*
X97249076Y-146740316D01*
X97257463Y-146722110D01*
X97274594Y-146696642D01*
X97304060Y-146663451D01*
X97344148Y-146624274D01*
X97393145Y-146580844D01*
X97414777Y-146562735D01*
X97447118Y-146527290D01*
X97477976Y-146475915D01*
X97506941Y-146409578D01*
X97509666Y-146401366D01*
X96840083Y-146401366D01*
X96839167Y-146415826D01*
X96836517Y-146417099D01*
X96836180Y-146416344D01*
X96834505Y-146399536D01*
X96835866Y-146390944D01*
X96838561Y-146387491D01*
X96840027Y-146398737D01*
X96840083Y-146401366D01*
X97509666Y-146401366D01*
X97533603Y-146329250D01*
X97557550Y-146235899D01*
X97562117Y-146215099D01*
X97570864Y-146174223D01*
X97579658Y-146133223D01*
X97586926Y-146099427D01*
X97588456Y-146092333D01*
X97595190Y-146065912D01*
X97601956Y-146046859D01*
X97605804Y-146040756D01*
X97610569Y-146030406D01*
X97616099Y-146008040D01*
X97621210Y-145978461D01*
X97621287Y-145977916D01*
X97626410Y-145947473D01*
X97631945Y-145923395D01*
X97636663Y-145910960D01*
X97645578Y-145891843D01*
X97653171Y-145862144D01*
X97658375Y-145828210D01*
X97660122Y-145796392D01*
X97658811Y-145779331D01*
X97644065Y-145734264D01*
X97628247Y-145707100D01*
X96831131Y-145707100D01*
X96830450Y-145724525D01*
X96828531Y-145729022D01*
X96827449Y-145726248D01*
X96825872Y-145705916D01*
X96827278Y-145692382D01*
X96829509Y-145687689D01*
X96830912Y-145697866D01*
X96831131Y-145707100D01*
X97628247Y-145707100D01*
X97614216Y-145683008D01*
X97569674Y-145626161D01*
X97537091Y-145591861D01*
X96896186Y-145591861D01*
X96894877Y-145602796D01*
X96890170Y-145607096D01*
X96878247Y-145618223D01*
X96862999Y-145636990D01*
X96859782Y-145641483D01*
X96845675Y-145659007D01*
X96834406Y-145668463D01*
X96832431Y-145669000D01*
X96822444Y-145674870D01*
X96806464Y-145689743D01*
X96798014Y-145698917D01*
X96779998Y-145716870D01*
X96768840Y-145723571D01*
X96766504Y-145719314D01*
X96774959Y-145704396D01*
X96781098Y-145696378D01*
X96797139Y-145672887D01*
X96808876Y-145649950D01*
X96817961Y-145633323D01*
X96826534Y-145626666D01*
X96831540Y-145632837D01*
X96830309Y-145639095D01*
X96830074Y-145652517D01*
X96833027Y-145656151D01*
X96841024Y-145653139D01*
X96846014Y-145643450D01*
X96854881Y-145625728D01*
X96868380Y-145608226D01*
X96882547Y-145595021D01*
X96893415Y-145590191D01*
X96896186Y-145591861D01*
X97537091Y-145591861D01*
X97511924Y-145565368D01*
X97481871Y-145536657D01*
X97019578Y-145536657D01*
X97010470Y-145544215D01*
X97008950Y-145544859D01*
X96989588Y-145549555D01*
X96978306Y-145546330D01*
X96977200Y-145542987D01*
X96984430Y-145535987D01*
X96998366Y-145531461D01*
X97014667Y-145531296D01*
X97019578Y-145536657D01*
X97481871Y-145536657D01*
X97475696Y-145530758D01*
X97447738Y-145506271D01*
X97424866Y-145489559D01*
X97403898Y-145478271D01*
X97383600Y-145470674D01*
X97352517Y-145459521D01*
X97324003Y-145447254D01*
X97311633Y-145440804D01*
X97298923Y-145434492D01*
X97284214Y-145430640D01*
X97263972Y-145429010D01*
X97234662Y-145429366D01*
G37*
X97234662Y-145429366D02*
X97192750Y-145431469D01*
X97182160Y-145432102D01*
X97133806Y-145435636D01*
X97099767Y-145439689D01*
X97077428Y-145444708D01*
X97064173Y-145451140D01*
X97062512Y-145452515D01*
X97043716Y-145464362D01*
X97018762Y-145474360D01*
X97016301Y-145475070D01*
X96996495Y-145482386D01*
X96986116Y-145489826D01*
X96985667Y-145491271D01*
X96978288Y-145497962D01*
X96959707Y-145505712D01*
X96950048Y-145508605D01*
X96914510Y-145525264D01*
X96882070Y-145554958D01*
X96858114Y-145579393D01*
X96832708Y-145601157D01*
X96820321Y-145609884D01*
X96801802Y-145623652D01*
X96791614Y-145635736D01*
X96790933Y-145638363D01*
X96785458Y-145653231D01*
X96781613Y-145658000D01*
X96773058Y-145671073D01*
X96760587Y-145695432D01*
X96746106Y-145726667D01*
X96731525Y-145760367D01*
X96718752Y-145792121D01*
X96709697Y-145817518D01*
X96706266Y-145832128D01*
X96702297Y-145852534D01*
X96697107Y-145865028D01*
X96692236Y-145885990D01*
X96692818Y-145916663D01*
X96693668Y-145923738D01*
X96698550Y-145949476D01*
X96705291Y-145962076D01*
X96715528Y-145965333D01*
X96728891Y-145967127D01*
X96729192Y-145974204D01*
X96716351Y-145989106D01*
X96714733Y-145990733D01*
X96705516Y-146003170D01*
X96700299Y-146020466D01*
X96698091Y-146047244D01*
X96697800Y-146069755D01*
X96698612Y-146100852D01*
X96700752Y-146125098D01*
X96703779Y-146137717D01*
X96704150Y-146138194D01*
X96709536Y-146150730D01*
X96712265Y-146167122D01*
X96716773Y-146218717D01*
X96721225Y-146255371D01*
X96726019Y-146279067D01*
X96731556Y-146291793D01*
X96738140Y-146295533D01*
X96744721Y-146298109D01*
X96747905Y-146308047D01*
X96748136Y-146328661D01*
X96746351Y-146356916D01*
X96743260Y-146394730D01*
X96740166Y-146420167D01*
X96735897Y-146437745D01*
X96729282Y-146451980D01*
X96719149Y-146467388D01*
X96716850Y-146470651D01*
X96702233Y-146494604D01*
X96699673Y-146512470D01*
X96709515Y-146530391D01*
X96720934Y-146543120D01*
X96735026Y-146559994D01*
X96737031Y-146569985D01*
X96732697Y-146574296D01*
X96715568Y-146578129D01*
X96704092Y-146576817D01*
X96691849Y-146575997D01*
X96689961Y-146585741D01*
X96691240Y-146592672D01*
X96697192Y-146614804D01*
X96701557Y-146627085D01*
X96701140Y-146640653D01*
X96692062Y-146646122D01*
X96677862Y-146655962D01*
X96661038Y-146674531D01*
X96655843Y-146681700D01*
X96636405Y-146704349D01*
X96609860Y-146728223D01*
X96594474Y-146739621D01*
X96576295Y-146753707D01*
X96548570Y-146777534D01*
X96513744Y-146808885D01*
X96474265Y-146845545D01*
X96432580Y-146885302D01*
X96419261Y-146898230D01*
X96375182Y-146941402D01*
X96341872Y-146974672D01*
X96317842Y-146999821D01*
X96301604Y-147018630D01*
X96291668Y-147032881D01*
X96286546Y-147044354D01*
X96284748Y-147054830D01*
X96284626Y-147059284D01*
X96278329Y-147092485D01*
X96261699Y-147123705D01*
X96238135Y-147149181D01*
X96211031Y-147165148D01*
X96186301Y-147168261D01*
X96167137Y-147161956D01*
X96144332Y-147149604D01*
X96123069Y-147134701D01*
X96108533Y-147120744D01*
X96105133Y-147113497D01*
X96111102Y-147098755D01*
X96117833Y-147091399D01*
X96127351Y-147077610D01*
X96130290Y-147061751D01*
X96126083Y-147050674D01*
X96121334Y-147049066D01*
X96109751Y-147044444D01*
X96089883Y-147032573D01*
X96074767Y-147022231D01*
X96052621Y-147004854D01*
X96041457Y-146990312D01*
X96037664Y-146972851D01*
X96037400Y-146962692D01*
X96040946Y-146931485D01*
X96049523Y-146900994D01*
X96049956Y-146899937D01*
X96060301Y-146867743D01*
X96070483Y-146822639D01*
X96079806Y-146768640D01*
X96087574Y-146709761D01*
X96092989Y-146651470D01*
X96096961Y-146607459D01*
X96102288Y-146575881D01*
X96110243Y-146552234D01*
X96122097Y-146532018D01*
X96129504Y-146522264D01*
X96134095Y-146513069D01*
X96136890Y-146497552D01*
X96137997Y-146473125D01*
X96137525Y-146437201D01*
X96135582Y-146387189D01*
X96135369Y-146382564D01*
X96132806Y-146337910D01*
X96129656Y-146299172D01*
X96126252Y-146269553D01*
X96122924Y-146252258D01*
X96121582Y-146249390D01*
X96115878Y-146235769D01*
X96113600Y-146215295D01*
X96106332Y-146187252D01*
X96088037Y-146156539D01*
X96027724Y-146156539D01*
X96025531Y-146166784D01*
X96020467Y-146168533D01*
X96012484Y-146161915D01*
X96012000Y-146158616D01*
X96006766Y-146144991D01*
X95998568Y-146133858D01*
X95989831Y-146122953D01*
X95993441Y-146120443D01*
X96000084Y-146121210D01*
X96012628Y-146128246D01*
X96022632Y-146141857D01*
X96027724Y-146156539D01*
X96088037Y-146156539D01*
X96084585Y-146150744D01*
X96078853Y-146142905D01*
X96057562Y-146116557D01*
X96040013Y-146101143D01*
X96021375Y-146092992D01*
X96009761Y-146090426D01*
X95979549Y-146081195D01*
X95949503Y-146066399D01*
X95945024Y-146063498D01*
X95916611Y-146048348D01*
X95885788Y-146037815D01*
X95880767Y-146036785D01*
X95856070Y-146030702D01*
X95837582Y-146023105D01*
X95835021Y-146021379D01*
X95819356Y-146015969D01*
X95790884Y-146012353D01*
X95753631Y-146010495D01*
X95711623Y-146010359D01*
X95668886Y-146011909D01*
X95629449Y-146015107D01*
X95597336Y-146019919D01*
X95583005Y-146023650D01*
X95518108Y-146054057D01*
X95460453Y-146097746D01*
X95429362Y-146131367D01*
X95408501Y-146156472D01*
X95388874Y-146178304D01*
X95378028Y-146189076D01*
X95366414Y-146203450D01*
X95369093Y-146211212D01*
X95373671Y-146220047D01*
X95373368Y-146239717D01*
X95368503Y-146271102D01*
X95362720Y-146304924D01*
X95358081Y-146336714D01*
X95356044Y-146354799D01*
X95351729Y-146393398D01*
X95345790Y-146428682D01*
X95339210Y-146455383D01*
X95335485Y-146464866D01*
X95332272Y-146482402D01*
X95333093Y-146510338D01*
X95337139Y-146542850D01*
X95343596Y-146574114D01*
X95351654Y-146598306D01*
X95354921Y-146604363D01*
X95364847Y-146622593D01*
X95368533Y-146634843D01*
X95373681Y-146645825D01*
X95386861Y-146665039D01*
X95404680Y-146688222D01*
X95423745Y-146711111D01*
X95440661Y-146729441D01*
X95450858Y-146738279D01*
X95465831Y-146755752D01*
X95478399Y-146784562D01*
X95487178Y-146819140D01*
X95490781Y-146853922D01*
X95487823Y-146883339D01*
X95487362Y-146884960D01*
X95482202Y-146898709D01*
X95479408Y-146899542D01*
X95479328Y-146898783D01*
X95472681Y-146888670D01*
X95457505Y-146888349D01*
X95437740Y-146896152D01*
X95417321Y-146910411D01*
X95400186Y-146929457D01*
X95397691Y-146933371D01*
X95389228Y-146951726D01*
X95384551Y-146974455D01*
X95382945Y-147006374D01*
X95383143Y-147031233D01*
X95381240Y-147086563D01*
X95371824Y-147128768D01*
X95353117Y-147160654D01*
X95323344Y-147185028D01*
X95280725Y-147204698D01*
X95271167Y-147208088D01*
X95241698Y-147218981D01*
X95202666Y-147234508D01*
X95159926Y-147252300D01*
X95131467Y-147264602D01*
X95086726Y-147284468D01*
X95051210Y-147300815D01*
X95018543Y-147316713D01*
X94982354Y-147335235D01*
X94953013Y-147350616D01*
X94931139Y-147366116D01*
X94901576Y-147392710D01*
X94866628Y-147427826D01*
X94828601Y-147468889D01*
X94789800Y-147513325D01*
X94752533Y-147558560D01*
X94719102Y-147602022D01*
X94691815Y-147641135D01*
X94689372Y-147644930D01*
X94681276Y-147660277D01*
X94670775Y-147683380D01*
X94660272Y-147708492D01*
X94652169Y-147729868D01*
X94648867Y-147741761D01*
X94648866Y-147741832D01*
X94643047Y-147753221D01*
X94635802Y-147760569D01*
X94623081Y-147776912D01*
X94607753Y-147805188D01*
X94591818Y-147841033D01*
X94577273Y-147880083D01*
X94569389Y-147905556D01*
X94561185Y-147933030D01*
X94549269Y-147970698D01*
X94535498Y-148012763D01*
X94526447Y-148039666D01*
X94509792Y-148088821D01*
X94497632Y-148125595D01*
X94488907Y-148153602D01*
X94482558Y-148176457D01*
X94477525Y-148197775D01*
X94472746Y-148221170D01*
X94471822Y-148225933D01*
X94465027Y-148268710D01*
X94458582Y-148322900D01*
X94452965Y-148382982D01*
X94448656Y-148443437D01*
X94446132Y-148498744D01*
X94445674Y-148527540D01*
X94440627Y-148591180D01*
X94424417Y-148645768D01*
X94395417Y-148696243D01*
X94386009Y-148708759D01*
X94370108Y-148734465D01*
X94355194Y-148767393D01*
X94348626Y-148786592D01*
X94340496Y-148844189D01*
X94347536Y-148907477D01*
X94369560Y-148975012D01*
X94374439Y-148986067D01*
X94386788Y-149018670D01*
X94393105Y-149052303D01*
X94394866Y-149094438D01*
X94397145Y-149140722D01*
X94405370Y-149175057D01*
X94421629Y-149201978D01*
X94448010Y-149226025D01*
X94459017Y-149233914D01*
X94490364Y-149259967D01*
X94514475Y-149288697D01*
X94528251Y-149315992D01*
X94530302Y-149328429D01*
X94526802Y-149345383D01*
X94518146Y-149368377D01*
X94516204Y-149372587D01*
X94508843Y-149389956D01*
X94506453Y-149404936D01*
X94509157Y-149423534D01*
X94517076Y-149451755D01*
X94517864Y-149454363D01*
X94530866Y-149491664D01*
X94543888Y-149514868D01*
X94559060Y-149526675D01*
X94577307Y-149529800D01*
X94592886Y-149534102D01*
X94606260Y-149549334D01*
X94614802Y-149565256D01*
X94625363Y-149591615D01*
X94631392Y-149615382D01*
X94631933Y-149621737D01*
X94636832Y-149646219D01*
X94649612Y-149678371D01*
X94667400Y-149712783D01*
X94687321Y-149744047D01*
X94706501Y-149766754D01*
X94711038Y-149770608D01*
X94736811Y-149785056D01*
X94764317Y-149793374D01*
X94767178Y-149793721D01*
X94788036Y-149798120D01*
X94799471Y-149809756D01*
X94805683Y-149826133D01*
X94823816Y-149874255D01*
X94847599Y-149914123D01*
X94870463Y-149942049D01*
X94889010Y-149965382D01*
X94902267Y-149986976D01*
X94906125Y-149997082D01*
X94907349Y-150010125D01*
X94909018Y-150037892D01*
X94911031Y-150078185D01*
X94913286Y-150128804D01*
X94915684Y-150187551D01*
X94918125Y-150252224D01*
X94919381Y-150287566D01*
X94922055Y-150360310D01*
X94925004Y-150433482D01*
X94928079Y-150503783D01*
X94931125Y-150567912D01*
X94933992Y-150622569D01*
X94936528Y-150664454D01*
X94937111Y-150672800D01*
X94940706Y-150724258D01*
X94944783Y-150785784D01*
X94948900Y-150850537D01*
X94952617Y-150911677D01*
X94953501Y-150926800D01*
X94957067Y-150986328D01*
X94961189Y-151051865D01*
X94965415Y-151116369D01*
X94969288Y-151172799D01*
X94970164Y-151185033D01*
X94975411Y-151258522D01*
X94981179Y-151340975D01*
X94987221Y-151428744D01*
X94993291Y-151518183D01*
X94999145Y-151605645D01*
X95004536Y-151687482D01*
X95009219Y-151760050D01*
X95012949Y-151819700D01*
X95013226Y-151824266D01*
X95016503Y-151870806D01*
X95020347Y-151913681D01*
X95024341Y-151948885D01*
X95028069Y-151972410D01*
X95029095Y-151976666D01*
X95032818Y-151996911D01*
X95036545Y-152029412D01*
X95039817Y-152069498D01*
X95041980Y-152107899D01*
X95045441Y-152158741D01*
X95050913Y-152206525D01*
X95057691Y-152245699D01*
X95061342Y-152260299D01*
X95072328Y-152318276D01*
X95075636Y-152390924D01*
X95075632Y-152391533D01*
X95075047Y-152432639D01*
X95073877Y-152485234D01*
X95072210Y-152546929D01*
X95070135Y-152615331D01*
X95067741Y-152688049D01*
X95065117Y-152762692D01*
X95062351Y-152836868D01*
X95059533Y-152908187D01*
X95056751Y-152974257D01*
X95054094Y-153032687D01*
X95051652Y-153081086D01*
X95049512Y-153117062D01*
X95047944Y-153136600D01*
X95045450Y-153189704D01*
X95047935Y-153244428D01*
X95049933Y-153261443D01*
X95054386Y-153315136D01*
X95050713Y-153360658D01*
X95049443Y-153367276D01*
X95044675Y-153398335D01*
X95046135Y-153419855D01*
X95051166Y-153433025D01*
X95064568Y-153450841D01*
X95087967Y-153474406D01*
X95117280Y-153500065D01*
X95148425Y-153524164D01*
X95167383Y-153537048D01*
X95183461Y-153550847D01*
X95189249Y-153568951D01*
X95189391Y-153583368D01*
X95190658Y-153619890D01*
X95198336Y-153641941D01*
X95213162Y-153651005D01*
X95223124Y-153651170D01*
X95238584Y-153651574D01*
X95245723Y-153660221D01*
X95248563Y-153678277D01*
X95249807Y-153697333D01*
X95246871Y-153702105D01*
X95237462Y-153695134D01*
X95235197Y-153693094D01*
X95220949Y-153682024D01*
X95213243Y-153678466D01*
X95205703Y-153685924D01*
X95195447Y-153705422D01*
X95184149Y-153732642D01*
X95173481Y-153763268D01*
X95165114Y-153792985D01*
X95161289Y-153812560D01*
X95159033Y-153840166D01*
X95162099Y-153863584D01*
X95171915Y-153890538D01*
X95178341Y-153904655D01*
X95197929Y-153938899D01*
X95223157Y-153973450D01*
X95238725Y-153990811D01*
X95276125Y-154027989D01*
X95341379Y-154023070D01*
X95375928Y-154019760D01*
X95397747Y-154015346D01*
X95411041Y-154008534D01*
X95419333Y-153999069D01*
X95433605Y-153981084D01*
X95444286Y-153971043D01*
X95455561Y-153961184D01*
X95475126Y-153942553D01*
X95499470Y-153918523D01*
X95509560Y-153908358D01*
X95545849Y-153868595D01*
X95578002Y-153826160D01*
X95589988Y-153807035D01*
X95318908Y-153807035D01*
X95318076Y-153820083D01*
X95301830Y-153838426D01*
X95298579Y-153841222D01*
X95268854Y-153860070D01*
X95242304Y-153863049D01*
X95219868Y-153852638D01*
X95208784Y-153843136D01*
X95211352Y-153837785D01*
X95218201Y-153834817D01*
X95228810Y-153826918D01*
X95224959Y-153819319D01*
X95208980Y-153814517D01*
X95198700Y-153813933D01*
X95179453Y-153809345D01*
X95173948Y-153795418D01*
X95182162Y-153771905D01*
X95193187Y-153753802D01*
X95212295Y-153731812D01*
X95228713Y-153726264D01*
X95242116Y-153737216D01*
X95245658Y-153744083D01*
X95255959Y-153758730D01*
X95264708Y-153763133D01*
X95273967Y-153767062D01*
X95274397Y-153769483D01*
X95274025Y-153782599D01*
X95274397Y-153791686D01*
X95277309Y-153802377D01*
X95286479Y-153798318D01*
X95288100Y-153797000D01*
X95298846Y-153782849D01*
X95300800Y-153775296D01*
X95307151Y-153760895D01*
X95310494Y-153758141D01*
X95316853Y-153758973D01*
X95316006Y-153774027D01*
X95315342Y-153794751D01*
X95318908Y-153807035D01*
X95589988Y-153807035D01*
X95609043Y-153776631D01*
X95641995Y-153715586D01*
X95643700Y-153712245D01*
X95671844Y-153668372D01*
X95707617Y-153635028D01*
X95710125Y-153633223D01*
X95735917Y-153612306D01*
X95757947Y-153589986D01*
X95767217Y-153577668D01*
X95786216Y-153555808D01*
X95810835Y-153538156D01*
X95812975Y-153537089D01*
X95833464Y-153524477D01*
X95841738Y-153509612D01*
X95842667Y-153498541D01*
X95839466Y-153474051D01*
X95833540Y-153457100D01*
X95828657Y-153440387D01*
X95824462Y-153412601D01*
X95821827Y-153379598D01*
X95821751Y-153377888D01*
X95819791Y-153346426D01*
X95817109Y-153321474D01*
X95814253Y-153307990D01*
X95813974Y-153307455D01*
X95809799Y-153294410D01*
X95805528Y-153271759D01*
X95804324Y-153263081D01*
X95793862Y-153201626D01*
X95777285Y-153141631D01*
X95763512Y-153102683D01*
X95745917Y-153051491D01*
X95735497Y-153007935D01*
X95730999Y-152964965D01*
X95731004Y-152920088D01*
X95729580Y-152871536D01*
X95722082Y-152834545D01*
X95720172Y-152829523D01*
X95712802Y-152801523D01*
X95709182Y-152765863D01*
X95709306Y-152728642D01*
X95713162Y-152695961D01*
X95720403Y-152674463D01*
X95729999Y-152652516D01*
X95735364Y-152632130D01*
X95740982Y-152608490D01*
X95749898Y-152579357D01*
X95753081Y-152570238D01*
X95761635Y-152537026D01*
X95765873Y-152501489D01*
X95765980Y-152494038D01*
X95765733Y-152421659D01*
X95767149Y-152355006D01*
X95770074Y-152296204D01*
X95774355Y-152247380D01*
X95779839Y-152210660D01*
X95786373Y-152188172D01*
X95788228Y-152184915D01*
X95795720Y-152164722D01*
X95799828Y-152132963D01*
X95800333Y-152115516D01*
X95802291Y-152082006D01*
X95807335Y-152050799D01*
X95812060Y-152034850D01*
X95818986Y-152005625D01*
X95821713Y-151961417D01*
X95821321Y-151925866D01*
X95821907Y-151864950D01*
X95827906Y-151819754D01*
X95831208Y-151807837D01*
X95837967Y-151779892D01*
X95843715Y-151743087D01*
X95847145Y-151706237D01*
X95849818Y-151666893D01*
X95853718Y-151619483D01*
X95858112Y-151572761D01*
X95859245Y-151561799D01*
X95863842Y-151515253D01*
X95868352Y-151464374D01*
X95871941Y-151418689D01*
X95872525Y-151410252D01*
X95875743Y-151375316D01*
X95880072Y-151345460D01*
X95884715Y-151325873D01*
X95885972Y-151322916D01*
X95888825Y-151309608D01*
X95891554Y-151282302D01*
X95893975Y-151243933D01*
X95895904Y-151197435D01*
X95897158Y-151145745D01*
X95897181Y-151144263D01*
X95899559Y-151061046D01*
X95903926Y-150993881D01*
X95910403Y-150941991D01*
X95919107Y-150904600D01*
X95930159Y-150880929D01*
X95938967Y-150872339D01*
X95952777Y-150868488D01*
X95965252Y-150878550D01*
X95966554Y-150880233D01*
X95973114Y-150892743D01*
X95975734Y-150910408D01*
X95974738Y-150937636D01*
X95972514Y-150960666D01*
X95968186Y-151021806D01*
X95968342Y-151079623D01*
X95972839Y-151129199D01*
X95978165Y-151155196D01*
X95981799Y-151175442D01*
X95985461Y-151207946D01*
X95988701Y-151248041D01*
X95990874Y-151286539D01*
X95993091Y-151333109D01*
X95995902Y-151387135D01*
X95999117Y-151445462D01*
X96002548Y-151504935D01*
X96006005Y-151562399D01*
X96009301Y-151614697D01*
X96012247Y-151658675D01*
X96014653Y-151691176D01*
X96015948Y-151705733D01*
X96023830Y-151771406D01*
X96032572Y-151827124D01*
X96041750Y-151870517D01*
X96050426Y-151898026D01*
X96058458Y-151924330D01*
X96065079Y-151958763D01*
X96068018Y-151984339D01*
X96071343Y-152015105D01*
X96075893Y-152040502D01*
X96079931Y-152053235D01*
X96083297Y-152067709D01*
X96085924Y-152094610D01*
X96087455Y-152129435D01*
X96087701Y-152151395D01*
X96088850Y-152197700D01*
X96091972Y-152247362D01*
X96096466Y-152291583D01*
X96098017Y-152302633D01*
X96101769Y-152337353D01*
X96104544Y-152383604D01*
X96106118Y-152435998D01*
X96106264Y-152489149D01*
X96106140Y-152497366D01*
X96105785Y-152547350D01*
X96106804Y-152594144D01*
X96109506Y-152641056D01*
X96114199Y-152691393D01*
X96121190Y-152748460D01*
X96130787Y-152815566D01*
X96143184Y-152895300D01*
X96151306Y-152953847D01*
X96154989Y-152999216D01*
X96154205Y-153030421D01*
X96148927Y-153046476D01*
X96147467Y-153047700D01*
X96141399Y-153059129D01*
X96139000Y-153078170D01*
X96135071Y-153102093D01*
X96125330Y-153129787D01*
X96122317Y-153136108D01*
X96117304Y-153147237D01*
X96112851Y-153160720D01*
X96108759Y-153178224D01*
X96104827Y-153201416D01*
X96100857Y-153231961D01*
X96096646Y-153271527D01*
X96091997Y-153321781D01*
X96086708Y-153384389D01*
X96080579Y-153461017D01*
X96075515Y-153526066D01*
X96070747Y-153581640D01*
X96065181Y-153636764D01*
X96059318Y-153687060D01*
X96053658Y-153728148D01*
X96049820Y-153750433D01*
X96042507Y-153791704D01*
X96036650Y-153836385D01*
X96032137Y-153886620D01*
X96028858Y-153944550D01*
X96026698Y-154012317D01*
X96025548Y-154092064D01*
X96025293Y-154185934D01*
X96025376Y-154217630D01*
X96025749Y-154287617D01*
X96026373Y-154342674D01*
X96027367Y-154384805D01*
X96028850Y-154416012D01*
X96030939Y-154438299D01*
X96033751Y-154453669D01*
X96037406Y-154464125D01*
X96040181Y-154469071D01*
X96048232Y-154486717D01*
X96045772Y-154495558D01*
X96038961Y-154508254D01*
X96037958Y-154529167D01*
X96042508Y-154550700D01*
X96047983Y-154561004D01*
X96062586Y-154571730D01*
X96085978Y-154581625D01*
X96093564Y-154583850D01*
X96125916Y-154596211D01*
X96142943Y-154613113D01*
X96145959Y-154635969D01*
X96145379Y-154639511D01*
X96144298Y-154651093D01*
X96148108Y-154659021D01*
X96159514Y-154664251D01*
X96181222Y-154667738D01*
X96215938Y-154670437D01*
X96236366Y-154671641D01*
X96283688Y-154671512D01*
X96315476Y-154664904D01*
X96318916Y-154663346D01*
X96337604Y-154656396D01*
X96354276Y-154658706D01*
X96368342Y-154665217D01*
X96385661Y-154679435D01*
X96402495Y-154701488D01*
X96416016Y-154726255D01*
X96423399Y-154748618D01*
X96422233Y-154762846D01*
X96419876Y-154776740D01*
X96421693Y-154798225D01*
X96421926Y-154799509D01*
X96435549Y-154826794D01*
X96465601Y-154852421D01*
X96511639Y-154876187D01*
X96573220Y-154897887D01*
X96649903Y-154917317D01*
X96697800Y-154926860D01*
X96798856Y-154944799D01*
X96896717Y-154961078D01*
X96987197Y-154975030D01*
X97066111Y-154985987D01*
X97078800Y-154987594D01*
X97125175Y-154993922D01*
X97172446Y-155001305D01*
X97213983Y-155008665D01*
X97235433Y-155013075D01*
X97274171Y-155020671D01*
X97320233Y-155028065D01*
X97364063Y-155033731D01*
X97366667Y-155034009D01*
X97409968Y-155038802D01*
X97456141Y-155044283D01*
X97495654Y-155049319D01*
X97497900Y-155049622D01*
X97547699Y-155054381D01*
X97604091Y-155056571D01*
X97661750Y-155056263D01*
X97715349Y-155053532D01*
X97759561Y-155048449D01*
X97773066Y-155045855D01*
X97835309Y-155030416D01*
X97884259Y-155014743D01*
X97923523Y-154997501D01*
X97955234Y-154978381D01*
X97983364Y-154959599D01*
X98010492Y-154942692D01*
X98024290Y-154934819D01*
X98047765Y-154913575D01*
X98060104Y-154883190D01*
X98060850Y-154847664D01*
X98049545Y-154810995D01*
X98040270Y-154794988D01*
X98025878Y-154777705D01*
X98008142Y-154765922D01*
X97983718Y-154758665D01*
X97949264Y-154754959D01*
X97901438Y-154753832D01*
X97898984Y-154753826D01*
X97855882Y-154750832D01*
X97819072Y-154742739D01*
X97792098Y-154730659D01*
X97778647Y-154716091D01*
X97768337Y-154707297D01*
X97761544Y-154707886D01*
X97745728Y-154706769D01*
X97720529Y-154697246D01*
X97689898Y-154681353D01*
X97657784Y-154661122D01*
X97629934Y-154640102D01*
X97608246Y-154623353D01*
X97590849Y-154612347D01*
X97583882Y-154609798D01*
X97569156Y-154604736D01*
X97544864Y-154591133D01*
X97514387Y-154571360D01*
X97481107Y-154547791D01*
X97448406Y-154522796D01*
X97419664Y-154498749D01*
X97402650Y-154482669D01*
X97374200Y-154450262D01*
X97360124Y-154425878D01*
X97360182Y-154408985D01*
X97366667Y-154402366D01*
X97372697Y-154390163D01*
X97374901Y-154367351D01*
X97373491Y-154339768D01*
X97368679Y-154313248D01*
X97364113Y-154300797D01*
X96787950Y-154300797D01*
X96787201Y-154316970D01*
X96786501Y-154324752D01*
X96781525Y-154359816D01*
X96774892Y-154378212D01*
X96770167Y-154381200D01*
X96769936Y-154373895D01*
X96769962Y-154373732D01*
X96706266Y-154373732D01*
X96701050Y-154378323D01*
X96697800Y-154376966D01*
X96691804Y-154380275D01*
X96689337Y-154396747D01*
X96689333Y-154397633D01*
X96686734Y-154415679D01*
X96680454Y-154423522D01*
X96680194Y-154423533D01*
X96674920Y-154416159D01*
X96676956Y-154396016D01*
X96682098Y-154375200D01*
X96686498Y-154362340D01*
X96686681Y-154362011D01*
X96695109Y-154359162D01*
X96704010Y-154366206D01*
X96706266Y-154373732D01*
X96769962Y-154373732D01*
X96772872Y-154355728D01*
X96774167Y-154349450D01*
X96777183Y-154336099D01*
X96645387Y-154336099D01*
X96643257Y-154354810D01*
X96634781Y-154379699D01*
X96630570Y-154388679D01*
X96619803Y-154413387D01*
X96613672Y-154434439D01*
X96613133Y-154439629D01*
X96609320Y-154455978D01*
X96604666Y-154461633D01*
X96598534Y-154473095D01*
X96596200Y-154491431D01*
X96593885Y-154513025D01*
X96587940Y-154540243D01*
X96579861Y-154568232D01*
X96571143Y-154592141D01*
X96563285Y-154607117D01*
X96559685Y-154609800D01*
X96554989Y-154603706D01*
X96555891Y-154599216D01*
X96561176Y-154581216D01*
X96568640Y-154551554D01*
X96577144Y-154515174D01*
X96585547Y-154477019D01*
X96592708Y-154442032D01*
X96595104Y-154429286D01*
X96603646Y-154395666D01*
X96615745Y-154363555D01*
X96623395Y-154348853D01*
X96635472Y-154330590D01*
X96641780Y-154325646D01*
X96644825Y-154332567D01*
X96645387Y-154336099D01*
X96777183Y-154336099D01*
X96781537Y-154316829D01*
X96786097Y-154300680D01*
X96787950Y-154300797D01*
X97364113Y-154300797D01*
X97362832Y-154297305D01*
X97346927Y-154276937D01*
X97336625Y-154271133D01*
X96790933Y-154271133D01*
X96787835Y-154278102D01*
X96785289Y-154276777D01*
X96784275Y-154266729D01*
X96785289Y-154265488D01*
X96790322Y-154266651D01*
X96790933Y-154271133D01*
X97336625Y-154271133D01*
X97322246Y-154263033D01*
X97302390Y-154258433D01*
X96731666Y-154258433D01*
X96727433Y-154262666D01*
X96723200Y-154258433D01*
X96727433Y-154254200D01*
X96731666Y-154258433D01*
X97302390Y-154258433D01*
X97286272Y-154254699D01*
X97236483Y-154251041D01*
X97232165Y-154250931D01*
X97190164Y-154248325D01*
X97161136Y-154241480D01*
X97141277Y-154228451D01*
X97138616Y-154224566D01*
X96740133Y-154224566D01*
X96735900Y-154228800D01*
X96731666Y-154224566D01*
X96735900Y-154220333D01*
X96740133Y-154224566D01*
X97138616Y-154224566D01*
X97126784Y-154207296D01*
X97120742Y-154193989D01*
X97114891Y-154174584D01*
X97119185Y-154160542D01*
X97127946Y-154150126D01*
X97148797Y-154123444D01*
X97165051Y-154091458D01*
X97177421Y-154051577D01*
X97186617Y-154001213D01*
X97193350Y-153937777D01*
X97195859Y-153902833D01*
X97198184Y-153858661D01*
X96856530Y-153858661D01*
X96851780Y-153880771D01*
X96851663Y-153881110D01*
X96845622Y-153903904D01*
X96839518Y-153935532D01*
X96835883Y-153960068D01*
X96832180Y-153986421D01*
X96829522Y-153996999D01*
X96827471Y-153992896D01*
X96826362Y-153983947D01*
X96826697Y-153956562D01*
X96831123Y-153925352D01*
X96832623Y-153918814D01*
X96838443Y-153890282D01*
X96841565Y-153864420D01*
X96841733Y-153859290D01*
X96843429Y-153843992D01*
X96849287Y-153843684D01*
X96851252Y-153845465D01*
X96856530Y-153858661D01*
X97198184Y-153858661D01*
X97198661Y-153849615D01*
X97200484Y-153795696D01*
X97201217Y-153746292D01*
X97201166Y-153741966D01*
X96875600Y-153741966D01*
X96871366Y-153746200D01*
X96867133Y-153741966D01*
X96871366Y-153737733D01*
X96875600Y-153741966D01*
X97201166Y-153741966D01*
X97200748Y-153706614D01*
X97200246Y-153695400D01*
X97198526Y-153665061D01*
X96883398Y-153665061D01*
X96881841Y-153676042D01*
X96878951Y-153676173D01*
X96876930Y-153664841D01*
X96878283Y-153659945D01*
X96882042Y-153656738D01*
X96883398Y-153665061D01*
X97198526Y-153665061D01*
X97197511Y-153647164D01*
X97196153Y-153612552D01*
X97196521Y-153588288D01*
X97198962Y-153571092D01*
X97203827Y-153557688D01*
X97211463Y-153544798D01*
X97217150Y-153536480D01*
X97224504Y-153525563D01*
X97230180Y-153515162D01*
X97234372Y-153503051D01*
X97237273Y-153487003D01*
X97239079Y-153464794D01*
X97239982Y-153434198D01*
X97240177Y-153392988D01*
X97239858Y-153338939D01*
X97239336Y-153282041D01*
X97239437Y-153254138D01*
X97241382Y-153232777D01*
X97246696Y-153213349D01*
X97256906Y-153191241D01*
X97273537Y-153161845D01*
X97286153Y-153140601D01*
X97317472Y-153084167D01*
X97339757Y-153033179D01*
X97355534Y-152980716D01*
X97360602Y-152954566D01*
X96790933Y-152954566D01*
X96786700Y-152958800D01*
X96782466Y-152954566D01*
X96786700Y-152950333D01*
X96790933Y-152954566D01*
X97360602Y-152954566D01*
X97367332Y-152919851D01*
X97367789Y-152916937D01*
X97374213Y-152883158D01*
X97374615Y-152881563D01*
X96824800Y-152881563D01*
X96818944Y-152890601D01*
X96816333Y-152891066D01*
X96809454Y-152898157D01*
X96807866Y-152908000D01*
X96804650Y-152921763D01*
X96800192Y-152924933D01*
X96795800Y-152918204D01*
X96796874Y-152908277D01*
X96803625Y-152893340D01*
X96813225Y-152881508D01*
X96821622Y-152876661D01*
X96824800Y-152881563D01*
X97374615Y-152881563D01*
X97379689Y-152861433D01*
X96934866Y-152861433D01*
X96930633Y-152865666D01*
X96926400Y-152861433D01*
X96930633Y-152857200D01*
X96934866Y-152861433D01*
X97379689Y-152861433D01*
X97382110Y-152851829D01*
X97388062Y-152834180D01*
X97394767Y-152812114D01*
X97395633Y-152795321D01*
X97395222Y-152793944D01*
X97394987Y-152779773D01*
X97399121Y-152755416D01*
X97404886Y-152732768D01*
X97412403Y-152706548D01*
X97417526Y-152687983D01*
X97419035Y-152681705D01*
X97420929Y-152673174D01*
X97425946Y-152653266D01*
X97430580Y-152635499D01*
X97436311Y-152607433D01*
X96943333Y-152607433D01*
X96939100Y-152611666D01*
X96934866Y-152607433D01*
X96939100Y-152603199D01*
X96943333Y-152607433D01*
X97436311Y-152607433D01*
X97436507Y-152606478D01*
X97442199Y-152567431D01*
X97443352Y-152556633D01*
X97087266Y-152556633D01*
X97083033Y-152560866D01*
X97078800Y-152556633D01*
X97083033Y-152552399D01*
X97087266Y-152556633D01*
X97443352Y-152556633D01*
X97446517Y-152526999D01*
X96951800Y-152526999D01*
X96948702Y-152533969D01*
X96946155Y-152532644D01*
X96945142Y-152522596D01*
X96946155Y-152521355D01*
X96951189Y-152522517D01*
X96951800Y-152526999D01*
X97446517Y-152526999D01*
X97446704Y-152525252D01*
X97447865Y-152510427D01*
X97449061Y-152496661D01*
X97061198Y-152496661D01*
X97059641Y-152507642D01*
X97056751Y-152507773D01*
X97056280Y-152505127D01*
X96857998Y-152505127D01*
X96856441Y-152516109D01*
X96853551Y-152516240D01*
X96851530Y-152504908D01*
X96852883Y-152500012D01*
X96856642Y-152496805D01*
X96857998Y-152505127D01*
X97056280Y-152505127D01*
X97054730Y-152496441D01*
X97056083Y-152491545D01*
X97059842Y-152488338D01*
X97061198Y-152496661D01*
X97449061Y-152496661D01*
X97449892Y-152487093D01*
X96992768Y-152487093D01*
X96990708Y-152491825D01*
X96982183Y-152500914D01*
X96977282Y-152499049D01*
X96977200Y-152497866D01*
X96983214Y-152490705D01*
X96986975Y-152488091D01*
X96992768Y-152487093D01*
X97449892Y-152487093D01*
X97451053Y-152473738D01*
X97452853Y-152459266D01*
X97095733Y-152459266D01*
X97092635Y-152466235D01*
X97090089Y-152464911D01*
X97089209Y-152456189D01*
X96970370Y-152456189D01*
X96966923Y-152475293D01*
X96965629Y-152479694D01*
X96957978Y-152500436D01*
X96953633Y-152504940D01*
X96953260Y-152493698D01*
X96956416Y-152472905D01*
X96961600Y-152454222D01*
X96967268Y-152446189D01*
X96968472Y-152446405D01*
X96970370Y-152456189D01*
X97089209Y-152456189D01*
X97089075Y-152454863D01*
X97090089Y-152453622D01*
X97095122Y-152454784D01*
X97095733Y-152459266D01*
X97452853Y-152459266D01*
X97454947Y-152442442D01*
X97458912Y-152421166D01*
X96977200Y-152421166D01*
X96972966Y-152425399D01*
X96968733Y-152421166D01*
X96972966Y-152416933D01*
X96977200Y-152421166D01*
X97458912Y-152421166D01*
X97458923Y-152421109D01*
X97460820Y-152415464D01*
X97462915Y-152402990D01*
X97463094Y-152399999D01*
X97112666Y-152399999D01*
X97109569Y-152406969D01*
X97107022Y-152405644D01*
X97106453Y-152399999D01*
X96985666Y-152399999D01*
X96982569Y-152406969D01*
X96980022Y-152405644D01*
X96979825Y-152403689D01*
X96880544Y-152403689D01*
X96876506Y-152424290D01*
X96873851Y-152433564D01*
X96866590Y-152453095D01*
X96861752Y-152457160D01*
X96860399Y-152453103D01*
X96861510Y-152433477D01*
X96866986Y-152413087D01*
X96875086Y-152396006D01*
X96879838Y-152393567D01*
X96880544Y-152403689D01*
X96979825Y-152403689D01*
X96979009Y-152395596D01*
X96980022Y-152394355D01*
X96985055Y-152395517D01*
X96985666Y-152399999D01*
X97106453Y-152399999D01*
X97106009Y-152395596D01*
X97107022Y-152394355D01*
X97112055Y-152395517D01*
X97112666Y-152399999D01*
X97463094Y-152399999D01*
X97464366Y-152378833D01*
X96985666Y-152378833D01*
X96981433Y-152383066D01*
X96977200Y-152378833D01*
X96981433Y-152374599D01*
X96985666Y-152378833D01*
X97464366Y-152378833D01*
X97464515Y-152376361D01*
X97465553Y-152338350D01*
X97465569Y-152336499D01*
X96994133Y-152336499D01*
X96989900Y-152340733D01*
X96985666Y-152336499D01*
X96989900Y-152332266D01*
X96994133Y-152336499D01*
X97465569Y-152336499D01*
X97465958Y-152291728D01*
X97465664Y-152239268D01*
X97465491Y-152226746D01*
X97464722Y-152166597D01*
X97464613Y-152120761D01*
X97465323Y-152086628D01*
X97467013Y-152061585D01*
X97469840Y-152043020D01*
X97473965Y-152028322D01*
X97478240Y-152017741D01*
X97487841Y-151992672D01*
X97493237Y-151971553D01*
X97493667Y-151966718D01*
X97497688Y-151945195D01*
X97502259Y-151934098D01*
X97509044Y-151915517D01*
X97517072Y-151884784D01*
X97521977Y-151862366D01*
X97093312Y-151862366D01*
X97092774Y-151882445D01*
X97091264Y-151889784D01*
X97089773Y-151885766D01*
X97088249Y-151862538D01*
X97089658Y-151843433D01*
X97091597Y-151837557D01*
X97092931Y-151846708D01*
X97093312Y-151862366D01*
X97521977Y-151862366D01*
X97525440Y-151846545D01*
X97533247Y-151805448D01*
X97539591Y-151766136D01*
X97542290Y-151743833D01*
X96985666Y-151743833D01*
X96981433Y-151748066D01*
X96977200Y-151743833D01*
X96981433Y-151739599D01*
X96985666Y-151743833D01*
X97542290Y-151743833D01*
X97543570Y-151733256D01*
X97544467Y-151716606D01*
X97546690Y-151685774D01*
X97552360Y-151649483D01*
X97556486Y-151630755D01*
X97559815Y-151609182D01*
X97563062Y-151572092D01*
X97565757Y-151527933D01*
X97078800Y-151527933D01*
X97075702Y-151534902D01*
X97073155Y-151533577D01*
X97072142Y-151523529D01*
X97073155Y-151522288D01*
X97078189Y-151523451D01*
X97078800Y-151527933D01*
X97565757Y-151527933D01*
X97566187Y-151520900D01*
X97568805Y-151464433D01*
X97078800Y-151464433D01*
X97074566Y-151468666D01*
X97070333Y-151464433D01*
X97074566Y-151460199D01*
X97078800Y-151464433D01*
X97568805Y-151464433D01*
X97569149Y-151457024D01*
X97570586Y-151417866D01*
X97078800Y-151417866D01*
X97075702Y-151424835D01*
X97073155Y-151423511D01*
X97072142Y-151413463D01*
X97073155Y-151412222D01*
X97078189Y-151413384D01*
X97078800Y-151417866D01*
X97570586Y-151417866D01*
X97571907Y-151381877D01*
X97572344Y-151367066D01*
X97078800Y-151367066D01*
X97075702Y-151374035D01*
X97073155Y-151372711D01*
X97072142Y-151362663D01*
X97073155Y-151361422D01*
X97078189Y-151362584D01*
X97078800Y-151367066D01*
X97572344Y-151367066D01*
X97573491Y-151328261D01*
X97078131Y-151328261D01*
X97076575Y-151339242D01*
X97073685Y-151339373D01*
X97071663Y-151328041D01*
X97073016Y-151323145D01*
X97076776Y-151319938D01*
X97078131Y-151328261D01*
X97573491Y-151328261D01*
X97574420Y-151296877D01*
X97576380Y-151214666D01*
X97078800Y-151214666D01*
X97075702Y-151221635D01*
X97073155Y-151220311D01*
X97072142Y-151210263D01*
X97073155Y-151209022D01*
X97078189Y-151210184D01*
X97078800Y-151214666D01*
X97576380Y-151214666D01*
X97576648Y-151203440D01*
X97577490Y-151158927D01*
X97069665Y-151158927D01*
X97068108Y-151169909D01*
X97065218Y-151170040D01*
X97063197Y-151158708D01*
X97064549Y-151153812D01*
X97068309Y-151150605D01*
X97069665Y-151158927D01*
X97577490Y-151158927D01*
X97578549Y-151102981D01*
X97580083Y-150996917D01*
X97581208Y-150886663D01*
X97581342Y-150864253D01*
X97067423Y-150864253D01*
X97066100Y-150867533D01*
X97058492Y-150875610D01*
X97057133Y-150876000D01*
X97053497Y-150869449D01*
X97053400Y-150867533D01*
X97059909Y-150859392D01*
X97062366Y-150859066D01*
X97067423Y-150864253D01*
X97581342Y-150864253D01*
X97581525Y-150833666D01*
X97061866Y-150833666D01*
X97058769Y-150840635D01*
X97056222Y-150839311D01*
X97055209Y-150829263D01*
X97056222Y-150828022D01*
X97061255Y-150829184D01*
X97061866Y-150833666D01*
X97581525Y-150833666D01*
X97581885Y-150773635D01*
X97581910Y-150765933D01*
X96850200Y-150765933D01*
X96847102Y-150772902D01*
X96844555Y-150771577D01*
X96843542Y-150761529D01*
X96844555Y-150760288D01*
X96849589Y-150761451D01*
X96850200Y-150765933D01*
X97581910Y-150765933D01*
X97581973Y-150747186D01*
X97582200Y-150682329D01*
X97582306Y-150668566D01*
X97307400Y-150668566D01*
X97303167Y-150672800D01*
X97298933Y-150668566D01*
X97303167Y-150664333D01*
X97307400Y-150668566D01*
X97582306Y-150668566D01*
X97582589Y-150632253D01*
X97582607Y-150631325D01*
X97279601Y-150631325D01*
X97277825Y-150639808D01*
X97277222Y-150641415D01*
X97270515Y-150651782D01*
X97266702Y-150651857D01*
X97267651Y-150642900D01*
X97272483Y-150636675D01*
X97279601Y-150631325D01*
X97582607Y-150631325D01*
X97583330Y-150594806D01*
X97584609Y-150567835D01*
X97586612Y-150549188D01*
X97589528Y-150536712D01*
X97593544Y-150528256D01*
X97598846Y-150521667D01*
X97601852Y-150518586D01*
X97629422Y-150502125D01*
X97648418Y-150499233D01*
X97060216Y-150499233D01*
X97059301Y-150513692D01*
X97056650Y-150514965D01*
X97056313Y-150514211D01*
X97054638Y-150497403D01*
X97055999Y-150488811D01*
X97058694Y-150485358D01*
X97060160Y-150496604D01*
X97060216Y-150499233D01*
X97648418Y-150499233D01*
X97675700Y-150499233D01*
X97676535Y-150431500D01*
X97678579Y-150388866D01*
X97683017Y-150363766D01*
X97053400Y-150363766D01*
X97049166Y-150368000D01*
X97044933Y-150363766D01*
X97049166Y-150359533D01*
X97053400Y-150363766D01*
X97683017Y-150363766D01*
X97684196Y-150357104D01*
X97694472Y-150330335D01*
X97695585Y-150328120D01*
X97706854Y-150300393D01*
X97713250Y-150273656D01*
X97713800Y-150266180D01*
X97718286Y-150236453D01*
X97729758Y-150210454D01*
X97741957Y-150197246D01*
X97743801Y-150194433D01*
X97248133Y-150194433D01*
X97243900Y-150198666D01*
X97239667Y-150194433D01*
X96604666Y-150194433D01*
X96600433Y-150198666D01*
X96596200Y-150194433D01*
X96600433Y-150190200D01*
X96604666Y-150194433D01*
X97239667Y-150194433D01*
X97243900Y-150190200D01*
X97248133Y-150194433D01*
X97743801Y-150194433D01*
X97747904Y-150188175D01*
X97202128Y-150188175D01*
X97193805Y-150189531D01*
X97182824Y-150187974D01*
X97182734Y-150185981D01*
X96489269Y-150185981D01*
X96479653Y-150187258D01*
X96460733Y-150187662D01*
X96439831Y-150187137D01*
X96431997Y-150185771D01*
X96437450Y-150184135D01*
X96464798Y-150182718D01*
X96484016Y-150184135D01*
X96489269Y-150185981D01*
X97182734Y-150185981D01*
X97182693Y-150185084D01*
X97194025Y-150183063D01*
X97198921Y-150184416D01*
X97202128Y-150188175D01*
X97747904Y-150188175D01*
X97749913Y-150185112D01*
X97752328Y-150176088D01*
X97160644Y-150176088D01*
X97159482Y-150181122D01*
X97155000Y-150181733D01*
X97149460Y-150179270D01*
X96337966Y-150179270D01*
X96217316Y-150180501D01*
X96169323Y-150180773D01*
X96135789Y-150180280D01*
X96114248Y-150178777D01*
X96102233Y-150176020D01*
X96097277Y-150171763D01*
X96096666Y-150168514D01*
X96099596Y-150160684D01*
X96111037Y-150158453D01*
X96134790Y-150161012D01*
X96160486Y-150164222D01*
X96196853Y-150167953D01*
X96237669Y-150171589D01*
X96255440Y-150173000D01*
X96337966Y-150179270D01*
X97149460Y-150179270D01*
X97148031Y-150178635D01*
X97149355Y-150176088D01*
X97159403Y-150175075D01*
X97160644Y-150176088D01*
X97752328Y-150176088D01*
X97753464Y-150171846D01*
X97758938Y-150148422D01*
X97765249Y-150129908D01*
X97772420Y-150099579D01*
X97773433Y-150085551D01*
X96214494Y-150085551D01*
X96208627Y-150087077D01*
X96189858Y-150088171D01*
X96162220Y-150088599D01*
X96161578Y-150088600D01*
X96132821Y-150087454D01*
X96112594Y-150084435D01*
X96105133Y-150080263D01*
X96112642Y-150077468D01*
X96131594Y-150076495D01*
X96156627Y-150077085D01*
X96182379Y-150078978D01*
X96203488Y-150081916D01*
X96214494Y-150085551D01*
X97773433Y-150085551D01*
X97775435Y-150057856D01*
X97774391Y-150009733D01*
X97769382Y-149960207D01*
X97761185Y-149917008D01*
X97753129Y-149881189D01*
X97749807Y-149855907D01*
X97750902Y-149835538D01*
X97755533Y-149816330D01*
X97760217Y-149796557D01*
X97761177Y-149776809D01*
X97758086Y-149751996D01*
X97750618Y-149717025D01*
X97748608Y-149708522D01*
X97739129Y-149668498D01*
X97727591Y-149619358D01*
X97715727Y-149568493D01*
X97708720Y-149538266D01*
X97694357Y-149483402D01*
X97678919Y-149437251D01*
X97663706Y-149403644D01*
X97661909Y-149400556D01*
X97646501Y-149370560D01*
X97639241Y-149341748D01*
X97637600Y-149309501D01*
X97635285Y-149277815D01*
X97629112Y-149237064D01*
X97620236Y-149194355D01*
X97616433Y-149179239D01*
X97606466Y-149138000D01*
X97600096Y-149100359D01*
X97596619Y-149060128D01*
X97595331Y-149011120D01*
X97595267Y-148993132D01*
X97594952Y-148947034D01*
X97593446Y-148912447D01*
X97589907Y-148883953D01*
X97583494Y-148856131D01*
X97573365Y-148823564D01*
X97565215Y-148799672D01*
X97549826Y-148752297D01*
X97532911Y-148695370D01*
X97515334Y-148632307D01*
X97497964Y-148566523D01*
X97481666Y-148501436D01*
X97467306Y-148440461D01*
X97455752Y-148387015D01*
X97447869Y-148344513D01*
X97445469Y-148327533D01*
X97441433Y-148302586D01*
X97436476Y-148284649D01*
X97434572Y-148280966D01*
X97429453Y-148269273D01*
X97421566Y-148245665D01*
X97412376Y-148214624D01*
X97409648Y-148204766D01*
X97391009Y-148136618D01*
X97375177Y-148079442D01*
X97360651Y-148027837D01*
X97354372Y-148005799D01*
X97344868Y-147972414D01*
X97342339Y-147963466D01*
X96249066Y-147963466D01*
X96242624Y-147971687D01*
X96240600Y-147971933D01*
X96232379Y-147965490D01*
X96232133Y-147963466D01*
X96238576Y-147955246D01*
X96240600Y-147954999D01*
X96248820Y-147961442D01*
X96249066Y-147963466D01*
X97342339Y-147963466D01*
X97335556Y-147939471D01*
X97331598Y-147925366D01*
X97322374Y-147896048D01*
X97312167Y-147868594D01*
X97310843Y-147865467D01*
X97303954Y-147843992D01*
X97296636Y-147812428D01*
X97290443Y-147777505D01*
X97290304Y-147776567D01*
X97284548Y-147741796D01*
X97278229Y-147710314D01*
X97272684Y-147688765D01*
X97272530Y-147688299D01*
X97264484Y-147657860D01*
X97256352Y-147616340D01*
X97249007Y-147569564D01*
X97243322Y-147523358D01*
X97240172Y-147483547D01*
X97239814Y-147470168D01*
X97238432Y-147440712D01*
X97235030Y-147416634D01*
X97231922Y-147406668D01*
X97227864Y-147392438D01*
X97223004Y-147365586D01*
X97218037Y-147330355D01*
X97214743Y-147301784D01*
X97203931Y-147221235D01*
X97189776Y-147152822D01*
X97185104Y-147137966D01*
X96282933Y-147137966D01*
X96278700Y-147142200D01*
X96274466Y-147137966D01*
X96278700Y-147133733D01*
X96282933Y-147137966D01*
X97185104Y-147137966D01*
X97172727Y-147098615D01*
X97168246Y-147087930D01*
X97154750Y-147043822D01*
X97152583Y-147010966D01*
X96376066Y-147010966D01*
X96371833Y-147015200D01*
X96367600Y-147010966D01*
X96371833Y-147006733D01*
X96376066Y-147010966D01*
X97152583Y-147010966D01*
X97151821Y-146999420D01*
X97154127Y-146987775D01*
X96389328Y-146987775D01*
X96381005Y-146989131D01*
X96370024Y-146987574D01*
X96369893Y-146984684D01*
X96381225Y-146982663D01*
X96386121Y-146984016D01*
X96389328Y-146987775D01*
X97154127Y-146987775D01*
X97158757Y-146964400D01*
X97177629Y-146915320D01*
X97197553Y-146864798D01*
X97217073Y-146816407D01*
X97234733Y-146773722D01*
X97249076Y-146740316D01*
X97257463Y-146722110D01*
X97274594Y-146696642D01*
X97304060Y-146663451D01*
X97344148Y-146624274D01*
X97393145Y-146580844D01*
X97414777Y-146562735D01*
X97447118Y-146527290D01*
X97477976Y-146475915D01*
X97506941Y-146409578D01*
X97509666Y-146401366D01*
X96840083Y-146401366D01*
X96839167Y-146415826D01*
X96836517Y-146417099D01*
X96836180Y-146416344D01*
X96834505Y-146399536D01*
X96835866Y-146390944D01*
X96838561Y-146387491D01*
X96840027Y-146398737D01*
X96840083Y-146401366D01*
X97509666Y-146401366D01*
X97533603Y-146329250D01*
X97557550Y-146235899D01*
X97562117Y-146215099D01*
X97570864Y-146174223D01*
X97579658Y-146133223D01*
X97586926Y-146099427D01*
X97588456Y-146092333D01*
X97595190Y-146065912D01*
X97601956Y-146046859D01*
X97605804Y-146040756D01*
X97610569Y-146030406D01*
X97616099Y-146008040D01*
X97621210Y-145978461D01*
X97621287Y-145977916D01*
X97626410Y-145947473D01*
X97631945Y-145923395D01*
X97636663Y-145910960D01*
X97645578Y-145891843D01*
X97653171Y-145862144D01*
X97658375Y-145828210D01*
X97660122Y-145796392D01*
X97658811Y-145779331D01*
X97644065Y-145734264D01*
X97628247Y-145707100D01*
X96831131Y-145707100D01*
X96830450Y-145724525D01*
X96828531Y-145729022D01*
X96827449Y-145726248D01*
X96825872Y-145705916D01*
X96827278Y-145692382D01*
X96829509Y-145687689D01*
X96830912Y-145697866D01*
X96831131Y-145707100D01*
X97628247Y-145707100D01*
X97614216Y-145683008D01*
X97569674Y-145626161D01*
X97537091Y-145591861D01*
X96896186Y-145591861D01*
X96894877Y-145602796D01*
X96890170Y-145607096D01*
X96878247Y-145618223D01*
X96862999Y-145636990D01*
X96859782Y-145641483D01*
X96845675Y-145659007D01*
X96834406Y-145668463D01*
X96832431Y-145669000D01*
X96822444Y-145674870D01*
X96806464Y-145689743D01*
X96798014Y-145698917D01*
X96779998Y-145716870D01*
X96768840Y-145723571D01*
X96766504Y-145719314D01*
X96774959Y-145704396D01*
X96781098Y-145696378D01*
X96797139Y-145672887D01*
X96808876Y-145649950D01*
X96817961Y-145633323D01*
X96826534Y-145626666D01*
X96831540Y-145632837D01*
X96830309Y-145639095D01*
X96830074Y-145652517D01*
X96833027Y-145656151D01*
X96841024Y-145653139D01*
X96846014Y-145643450D01*
X96854881Y-145625728D01*
X96868380Y-145608226D01*
X96882547Y-145595021D01*
X96893415Y-145590191D01*
X96896186Y-145591861D01*
X97537091Y-145591861D01*
X97511924Y-145565368D01*
X97481871Y-145536657D01*
X97019578Y-145536657D01*
X97010470Y-145544215D01*
X97008950Y-145544859D01*
X96989588Y-145549555D01*
X96978306Y-145546330D01*
X96977200Y-145542987D01*
X96984430Y-145535987D01*
X96998366Y-145531461D01*
X97014667Y-145531296D01*
X97019578Y-145536657D01*
X97481871Y-145536657D01*
X97475696Y-145530758D01*
X97447738Y-145506271D01*
X97424866Y-145489559D01*
X97403898Y-145478271D01*
X97383600Y-145470674D01*
X97352517Y-145459521D01*
X97324003Y-145447254D01*
X97311633Y-145440804D01*
X97298923Y-145434492D01*
X97284214Y-145430640D01*
X97263972Y-145429010D01*
X97234662Y-145429366D01*
G36*
X90508996Y-145501454D02*
G01*
X90381667Y-145576547D01*
X90217299Y-145764315D01*
X90166079Y-145998567D01*
X90231496Y-146217737D01*
X90339333Y-146323649D01*
X90459168Y-146455996D01*
X90506049Y-146683781D01*
X90508667Y-146785808D01*
X90508667Y-147142216D01*
X90021833Y-147167608D01*
X89535000Y-147193000D01*
X89508380Y-147615121D01*
X89443270Y-147982962D01*
X89317880Y-148189919D01*
X89183753Y-148405710D01*
X89172071Y-148645060D01*
X89266453Y-148857172D01*
X89450522Y-148991253D01*
X89583381Y-149013333D01*
X89775167Y-148948320D01*
X89960260Y-148793528D01*
X90074146Y-148609327D01*
X90085333Y-148543624D01*
X90027181Y-148399741D01*
X89885964Y-148228032D01*
X89873667Y-148216415D01*
X89718962Y-148013444D01*
X89663806Y-147749989D01*
X89662000Y-147670124D01*
X89662000Y-147320000D01*
X91524667Y-147320000D01*
X91524667Y-147670124D01*
X91488638Y-147959416D01*
X91360271Y-148169620D01*
X91313000Y-148216415D01*
X91167645Y-148387128D01*
X91101689Y-148535681D01*
X91101334Y-148543624D01*
X91170809Y-148723090D01*
X91336227Y-148896294D01*
X91533072Y-149002864D01*
X91603286Y-149013333D01*
X91831519Y-148944067D01*
X91976193Y-148770102D01*
X92020899Y-148542187D01*
X91949229Y-148311072D01*
X91863333Y-148209000D01*
X91735834Y-148011761D01*
X91694096Y-147707453D01*
X91694000Y-147687878D01*
X91694000Y-147320000D01*
X93556667Y-147320000D01*
X93556667Y-147667648D01*
X93526910Y-147936858D01*
X93417368Y-148117954D01*
X93345000Y-148181793D01*
X93172740Y-148400679D01*
X93149164Y-148642384D01*
X93277831Y-148863607D01*
X93288167Y-148873211D01*
X93530219Y-148999614D01*
X93775317Y-148970153D01*
X93924545Y-148858500D01*
X94051682Y-148616302D01*
X94015101Y-148372605D01*
X93853000Y-148181793D01*
X93721340Y-148047429D01*
X93658242Y-147874975D01*
X93641365Y-147601222D01*
X93641333Y-147582981D01*
X93641333Y-147150667D01*
X92710000Y-147150667D01*
X92710000Y-146788483D01*
X92746782Y-146485487D01*
X92867204Y-146292069D01*
X92879333Y-146281312D01*
X93027238Y-146061586D01*
X93026337Y-145819863D01*
X92880015Y-145608386D01*
X92833532Y-145574275D01*
X92579677Y-145491679D01*
X92347189Y-145558002D01*
X92182215Y-145754653D01*
X92149182Y-145849964D01*
X92137687Y-146039605D01*
X92237691Y-146199400D01*
X92316180Y-146272115D01*
X92477506Y-146461956D01*
X92537321Y-146701755D01*
X92540667Y-146807939D01*
X92540667Y-147150667D01*
X90678000Y-147150667D01*
X90678000Y-146790033D01*
X90704387Y-146520217D01*
X90795864Y-146362307D01*
X90847333Y-146323649D01*
X90991095Y-146147768D01*
X91015935Y-145916451D01*
X90925340Y-145691262D01*
X90805000Y-145576547D01*
X90639291Y-145486965D01*
X90508996Y-145501454D01*
G37*
X90508996Y-145501454D02*
X90381667Y-145576547D01*
X90217299Y-145764315D01*
X90166079Y-145998567D01*
X90231496Y-146217737D01*
X90339333Y-146323649D01*
X90459168Y-146455996D01*
X90506049Y-146683781D01*
X90508667Y-146785808D01*
X90508667Y-147142216D01*
X90021833Y-147167608D01*
X89535000Y-147193000D01*
X89508380Y-147615121D01*
X89443270Y-147982962D01*
X89317880Y-148189919D01*
X89183753Y-148405710D01*
X89172071Y-148645060D01*
X89266453Y-148857172D01*
X89450522Y-148991253D01*
X89583381Y-149013333D01*
X89775167Y-148948320D01*
X89960260Y-148793528D01*
X90074146Y-148609327D01*
X90085333Y-148543624D01*
X90027181Y-148399741D01*
X89885964Y-148228032D01*
X89873667Y-148216415D01*
X89718962Y-148013444D01*
X89663806Y-147749989D01*
X89662000Y-147670124D01*
X89662000Y-147320000D01*
X91524667Y-147320000D01*
X91524667Y-147670124D01*
X91488638Y-147959416D01*
X91360271Y-148169620D01*
X91313000Y-148216415D01*
X91167645Y-148387128D01*
X91101689Y-148535681D01*
X91101334Y-148543624D01*
X91170809Y-148723090D01*
X91336227Y-148896294D01*
X91533072Y-149002864D01*
X91603286Y-149013333D01*
X91831519Y-148944067D01*
X91976193Y-148770102D01*
X92020899Y-148542187D01*
X91949229Y-148311072D01*
X91863333Y-148209000D01*
X91735834Y-148011761D01*
X91694096Y-147707453D01*
X91694000Y-147687878D01*
X91694000Y-147320000D01*
X93556667Y-147320000D01*
X93556667Y-147667648D01*
X93526910Y-147936858D01*
X93417368Y-148117954D01*
X93345000Y-148181793D01*
X93172740Y-148400679D01*
X93149164Y-148642384D01*
X93277831Y-148863607D01*
X93288167Y-148873211D01*
X93530219Y-148999614D01*
X93775317Y-148970153D01*
X93924545Y-148858500D01*
X94051682Y-148616302D01*
X94015101Y-148372605D01*
X93853000Y-148181793D01*
X93721340Y-148047429D01*
X93658242Y-147874975D01*
X93641365Y-147601222D01*
X93641333Y-147582981D01*
X93641333Y-147150667D01*
X92710000Y-147150667D01*
X92710000Y-146788483D01*
X92746782Y-146485487D01*
X92867204Y-146292069D01*
X92879333Y-146281312D01*
X93027238Y-146061586D01*
X93026337Y-145819863D01*
X92880015Y-145608386D01*
X92833532Y-145574275D01*
X92579677Y-145491679D01*
X92347189Y-145558002D01*
X92182215Y-145754653D01*
X92149182Y-145849964D01*
X92137687Y-146039605D01*
X92237691Y-146199400D01*
X92316180Y-146272115D01*
X92477506Y-146461956D01*
X92537321Y-146701755D01*
X92540667Y-146807939D01*
X92540667Y-147150667D01*
X90678000Y-147150667D01*
X90678000Y-146790033D01*
X90704387Y-146520217D01*
X90795864Y-146362307D01*
X90847333Y-146323649D01*
X90991095Y-146147768D01*
X91015935Y-145916451D01*
X90925340Y-145691262D01*
X90805000Y-145576547D01*
X90639291Y-145486965D01*
X90508996Y-145501454D01*
G36*
X87687530Y-147353862D02*
G01*
X87379313Y-147455545D01*
X87225648Y-147625196D01*
X87206667Y-147734682D01*
X87238612Y-147939558D01*
X87298711Y-148055510D01*
X87344966Y-148157710D01*
X87298711Y-148204440D01*
X87225639Y-148333628D01*
X87211363Y-148539763D01*
X87254633Y-148741461D01*
X87308267Y-148827067D01*
X87447840Y-148882479D01*
X87710217Y-148918479D01*
X87985600Y-148928667D01*
X88561333Y-148928667D01*
X88561333Y-148463000D01*
X88222667Y-148463000D01*
X88206772Y-148606971D01*
X88126363Y-148662825D01*
X87932357Y-148660803D01*
X87905167Y-148658611D01*
X87689111Y-148621296D01*
X87598987Y-148540425D01*
X87587667Y-148463000D01*
X87624103Y-148344754D01*
X87761751Y-148285296D01*
X87905167Y-148267389D01*
X88113057Y-148261292D01*
X88202501Y-148310083D01*
X88222584Y-148444005D01*
X88222667Y-148463000D01*
X88561333Y-148463000D01*
X88561333Y-147828000D01*
X88222667Y-147828000D01*
X88194267Y-147938784D01*
X88079478Y-147987746D01*
X87884000Y-147997333D01*
X87662432Y-147983133D01*
X87564508Y-147925739D01*
X87545333Y-147828000D01*
X87573734Y-147717216D01*
X87688523Y-147668254D01*
X87884000Y-147658667D01*
X88105568Y-147672867D01*
X88203493Y-147730261D01*
X88222667Y-147828000D01*
X88561333Y-147828000D01*
X88561333Y-147320000D01*
X88150634Y-147320000D01*
X87687530Y-147353862D01*
G37*
X87687530Y-147353862D02*
X87379313Y-147455545D01*
X87225648Y-147625196D01*
X87206667Y-147734682D01*
X87238612Y-147939558D01*
X87298711Y-148055510D01*
X87344966Y-148157710D01*
X87298711Y-148204440D01*
X87225639Y-148333628D01*
X87211363Y-148539763D01*
X87254633Y-148741461D01*
X87308267Y-148827067D01*
X87447840Y-148882479D01*
X87710217Y-148918479D01*
X87985600Y-148928667D01*
X88561333Y-148928667D01*
X88561333Y-148463000D01*
X88222667Y-148463000D01*
X88206772Y-148606971D01*
X88126363Y-148662825D01*
X87932357Y-148660803D01*
X87905167Y-148658611D01*
X87689111Y-148621296D01*
X87598987Y-148540425D01*
X87587667Y-148463000D01*
X87624103Y-148344754D01*
X87761751Y-148285296D01*
X87905167Y-148267389D01*
X88113057Y-148261292D01*
X88202501Y-148310083D01*
X88222584Y-148444005D01*
X88222667Y-148463000D01*
X88561333Y-148463000D01*
X88561333Y-147828000D01*
X88222667Y-147828000D01*
X88194267Y-147938784D01*
X88079478Y-147987746D01*
X87884000Y-147997333D01*
X87662432Y-147983133D01*
X87564508Y-147925739D01*
X87545333Y-147828000D01*
X87573734Y-147717216D01*
X87688523Y-147668254D01*
X87884000Y-147658667D01*
X88105568Y-147672867D01*
X88203493Y-147730261D01*
X88222667Y-147828000D01*
X88561333Y-147828000D01*
X88561333Y-147320000D01*
X88150634Y-147320000D01*
X87687530Y-147353862D01*
G36*
X86668841Y-147357557D02*
G01*
X86629233Y-147491382D01*
X86614634Y-147753200D01*
X86614000Y-147854151D01*
X86590039Y-148255938D01*
X86511158Y-148512339D01*
X86366865Y-148641370D01*
X86146665Y-148661045D01*
X86144158Y-148660763D01*
X86016745Y-148639581D01*
X85939358Y-148587167D01*
X85895613Y-148466316D01*
X85869125Y-148239823D01*
X85852000Y-147997333D01*
X85821166Y-147656632D01*
X85779794Y-147457312D01*
X85720436Y-147371449D01*
X85682667Y-147362333D01*
X85610463Y-147402600D01*
X85564495Y-147542998D01*
X85537050Y-147812921D01*
X85530434Y-147942489D01*
X85532908Y-148371402D01*
X85594949Y-148660498D01*
X85732370Y-148833545D01*
X85960985Y-148914310D01*
X86186571Y-148928667D01*
X86519940Y-148895907D01*
X86727192Y-148802991D01*
X86734953Y-148795619D01*
X86806307Y-148648465D01*
X86853623Y-148404095D01*
X86876715Y-148108215D01*
X86875394Y-147806533D01*
X86849475Y-147544754D01*
X86798768Y-147368587D01*
X86741000Y-147320000D01*
X86668841Y-147357557D01*
G37*
X86668841Y-147357557D02*
X86629233Y-147491382D01*
X86614634Y-147753200D01*
X86614000Y-147854151D01*
X86590039Y-148255938D01*
X86511158Y-148512339D01*
X86366865Y-148641370D01*
X86146665Y-148661045D01*
X86144158Y-148660763D01*
X86016745Y-148639581D01*
X85939358Y-148587167D01*
X85895613Y-148466316D01*
X85869125Y-148239823D01*
X85852000Y-147997333D01*
X85821166Y-147656632D01*
X85779794Y-147457312D01*
X85720436Y-147371449D01*
X85682667Y-147362333D01*
X85610463Y-147402600D01*
X85564495Y-147542998D01*
X85537050Y-147812921D01*
X85530434Y-147942489D01*
X85532908Y-148371402D01*
X85594949Y-148660498D01*
X85732370Y-148833545D01*
X85960985Y-148914310D01*
X86186571Y-148928667D01*
X86519940Y-148895907D01*
X86727192Y-148802991D01*
X86734953Y-148795619D01*
X86806307Y-148648465D01*
X86853623Y-148404095D01*
X86876715Y-148108215D01*
X86875394Y-147806533D01*
X86849475Y-147544754D01*
X86798768Y-147368587D01*
X86741000Y-147320000D01*
X86668841Y-147357557D01*
G36*
X84328000Y-147340421D02*
G01*
X84042724Y-147366947D01*
X83897350Y-147418314D01*
X83862333Y-147489333D01*
X83905886Y-147564883D01*
X84056053Y-147611973D01*
X84342102Y-147639023D01*
X84391500Y-147641540D01*
X84683931Y-147662117D01*
X84844471Y-147697502D01*
X84910555Y-147761172D01*
X84920667Y-147832040D01*
X84896171Y-147932914D01*
X84794818Y-147982254D01*
X84574809Y-147997032D01*
X84513516Y-147997333D01*
X84135669Y-148039145D01*
X83900418Y-148166800D01*
X83802490Y-148383622D01*
X83798833Y-148448175D01*
X83826186Y-148671507D01*
X83926597Y-148815148D01*
X84127599Y-148894791D01*
X84456724Y-148926132D01*
X84641756Y-148928667D01*
X84981696Y-148920612D01*
X85174252Y-148893932D01*
X85240722Y-148844849D01*
X85238533Y-148822833D01*
X85135111Y-148754811D01*
X84897507Y-148706562D01*
X84719150Y-148691479D01*
X84400673Y-148656766D01*
X84227213Y-148590226D01*
X84184335Y-148534767D01*
X84197038Y-148385841D01*
X84364546Y-148290734D01*
X84679933Y-148253094D01*
X84719800Y-148252630D01*
X85030078Y-148207596D01*
X85203247Y-148069348D01*
X85249088Y-147828915D01*
X85244285Y-147771582D01*
X85142899Y-147537084D01*
X84902002Y-147392833D01*
X84519377Y-147337785D01*
X84328000Y-147340421D01*
G37*
X84328000Y-147340421D02*
X84042724Y-147366947D01*
X83897350Y-147418314D01*
X83862333Y-147489333D01*
X83905886Y-147564883D01*
X84056053Y-147611973D01*
X84342102Y-147639023D01*
X84391500Y-147641540D01*
X84683931Y-147662117D01*
X84844471Y-147697502D01*
X84910555Y-147761172D01*
X84920667Y-147832040D01*
X84896171Y-147932914D01*
X84794818Y-147982254D01*
X84574809Y-147997032D01*
X84513516Y-147997333D01*
X84135669Y-148039145D01*
X83900418Y-148166800D01*
X83802490Y-148383622D01*
X83798833Y-148448175D01*
X83826186Y-148671507D01*
X83926597Y-148815148D01*
X84127599Y-148894791D01*
X84456724Y-148926132D01*
X84641756Y-148928667D01*
X84981696Y-148920612D01*
X85174252Y-148893932D01*
X85240722Y-148844849D01*
X85238533Y-148822833D01*
X85135111Y-148754811D01*
X84897507Y-148706562D01*
X84719150Y-148691479D01*
X84400673Y-148656766D01*
X84227213Y-148590226D01*
X84184335Y-148534767D01*
X84197038Y-148385841D01*
X84364546Y-148290734D01*
X84679933Y-148253094D01*
X84719800Y-148252630D01*
X85030078Y-148207596D01*
X85203247Y-148069348D01*
X85249088Y-147828915D01*
X85244285Y-147771582D01*
X85142899Y-147537084D01*
X84902002Y-147392833D01*
X84519377Y-147337785D01*
X84328000Y-147340421D01*
G36*
X87333667Y-145923000D02*
G01*
X87308076Y-146367500D01*
X87307789Y-146625991D01*
X87337212Y-146783458D01*
X87366707Y-146812000D01*
X87423687Y-146736521D01*
X87467222Y-146546767D01*
X87476965Y-146452897D01*
X87518272Y-146200456D01*
X87604043Y-146082184D01*
X87651167Y-146065689D01*
X87743168Y-146075547D01*
X87787359Y-146176213D01*
X87799302Y-146405408D01*
X87799333Y-146424792D01*
X87815443Y-146678160D01*
X87870383Y-146794926D01*
X87926333Y-146812000D01*
X88010041Y-146762138D01*
X88048170Y-146592597D01*
X88053333Y-146431000D01*
X88069954Y-146179878D01*
X88126468Y-146065492D01*
X88180333Y-146050000D01*
X88264041Y-146099862D01*
X88302170Y-146269403D01*
X88307333Y-146431000D01*
X88323954Y-146682122D01*
X88380468Y-146796508D01*
X88434333Y-146812000D01*
X88510657Y-146770463D01*
X88550111Y-146624567D01*
X88561333Y-146342624D01*
X88561333Y-145873248D01*
X87333667Y-145923000D01*
G37*
X87333667Y-145923000D02*
X87308076Y-146367500D01*
X87307789Y-146625991D01*
X87337212Y-146783458D01*
X87366707Y-146812000D01*
X87423687Y-146736521D01*
X87467222Y-146546767D01*
X87476965Y-146452897D01*
X87518272Y-146200456D01*
X87604043Y-146082184D01*
X87651167Y-146065689D01*
X87743168Y-146075547D01*
X87787359Y-146176213D01*
X87799302Y-146405408D01*
X87799333Y-146424792D01*
X87815443Y-146678160D01*
X87870383Y-146794926D01*
X87926333Y-146812000D01*
X88010041Y-146762138D01*
X88048170Y-146592597D01*
X88053333Y-146431000D01*
X88069954Y-146179878D01*
X88126468Y-146065492D01*
X88180333Y-146050000D01*
X88264041Y-146099862D01*
X88302170Y-146269403D01*
X88307333Y-146431000D01*
X88323954Y-146682122D01*
X88380468Y-146796508D01*
X88434333Y-146812000D01*
X88510657Y-146770463D01*
X88550111Y-146624567D01*
X88561333Y-146342624D01*
X88561333Y-145873248D01*
X87333667Y-145923000D01*
G36*
X86833745Y-145922473D02*
G01*
X86794314Y-146069170D01*
X86783333Y-146346333D01*
X86794735Y-146627158D01*
X86834743Y-146771738D01*
X86910333Y-146812000D01*
X86986922Y-146770193D01*
X87026353Y-146623497D01*
X87037333Y-146346333D01*
X87025932Y-146065508D01*
X86985924Y-145920928D01*
X86910333Y-145880667D01*
X86833745Y-145922473D01*
G37*
X86833745Y-145922473D02*
X86794314Y-146069170D01*
X86783333Y-146346333D01*
X86794735Y-146627158D01*
X86834743Y-146771738D01*
X86910333Y-146812000D01*
X86986922Y-146770193D01*
X87026353Y-146623497D01*
X87037333Y-146346333D01*
X87025932Y-146065508D01*
X86985924Y-145920928D01*
X86910333Y-145880667D01*
X86833745Y-145922473D01*
G36*
X86320040Y-145505469D02*
G01*
X86281535Y-145670284D01*
X86275333Y-145853092D01*
X86275333Y-146248850D01*
X86079377Y-146064758D01*
X85889147Y-145916621D01*
X85773007Y-145882010D01*
X85752684Y-145955498D01*
X85844059Y-146123514D01*
X85954515Y-146290418D01*
X85967258Y-146388662D01*
X85883295Y-146487166D01*
X85849824Y-146517636D01*
X85724728Y-146655065D01*
X85682667Y-146740455D01*
X85736125Y-146813550D01*
X85864870Y-146786546D01*
X86021462Y-146676013D01*
X86093525Y-146596963D01*
X86210637Y-146455679D01*
X86262295Y-146442174D01*
X86287483Y-146550937D01*
X86290170Y-146569164D01*
X86354378Y-146732526D01*
X86423500Y-146791257D01*
X86479001Y-146762889D01*
X86512552Y-146619001D01*
X86527633Y-146338238D01*
X86529333Y-146141722D01*
X86523452Y-145792122D01*
X86502099Y-145581593D01*
X86459714Y-145480162D01*
X86402333Y-145457333D01*
X86320040Y-145505469D01*
G37*
X86320040Y-145505469D02*
X86281535Y-145670284D01*
X86275333Y-145853092D01*
X86275333Y-146248850D01*
X86079377Y-146064758D01*
X85889147Y-145916621D01*
X85773007Y-145882010D01*
X85752684Y-145955498D01*
X85844059Y-146123514D01*
X85954515Y-146290418D01*
X85967258Y-146388662D01*
X85883295Y-146487166D01*
X85849824Y-146517636D01*
X85724728Y-146655065D01*
X85682667Y-146740455D01*
X85736125Y-146813550D01*
X85864870Y-146786546D01*
X86021462Y-146676013D01*
X86093525Y-146596963D01*
X86210637Y-146455679D01*
X86262295Y-146442174D01*
X86287483Y-146550937D01*
X86290170Y-146569164D01*
X86354378Y-146732526D01*
X86423500Y-146791257D01*
X86479001Y-146762889D01*
X86512552Y-146619001D01*
X86527633Y-146338238D01*
X86529333Y-146141722D01*
X86523452Y-145792122D01*
X86502099Y-145581593D01*
X86459714Y-145480162D01*
X86402333Y-145457333D01*
X86320040Y-145505469D01*
G36*
X85196538Y-145896722D02*
G01*
X84955231Y-145948673D01*
X84854399Y-146059079D01*
X84851663Y-146071167D01*
X84884563Y-146197202D01*
X84956792Y-146219333D01*
X85073392Y-146175480D01*
X85090000Y-146134667D01*
X85154429Y-146052460D01*
X85174667Y-146050000D01*
X85225160Y-146125674D01*
X85255449Y-146317138D01*
X85259333Y-146431000D01*
X85275954Y-146682122D01*
X85332468Y-146796508D01*
X85386333Y-146812000D01*
X85462558Y-146770564D01*
X85502020Y-146624967D01*
X85513333Y-146343277D01*
X85513333Y-145870445D01*
X85196538Y-145896722D01*
G37*
X85196538Y-145896722D02*
X84955231Y-145948673D01*
X84854399Y-146059079D01*
X84851663Y-146071167D01*
X84884563Y-146197202D01*
X84956792Y-146219333D01*
X85073392Y-146175480D01*
X85090000Y-146134667D01*
X85154429Y-146052460D01*
X85174667Y-146050000D01*
X85225160Y-146125674D01*
X85255449Y-146317138D01*
X85259333Y-146431000D01*
X85275954Y-146682122D01*
X85332468Y-146796508D01*
X85386333Y-146812000D01*
X85462558Y-146770564D01*
X85502020Y-146624967D01*
X85513333Y-146343277D01*
X85513333Y-145870445D01*
X85196538Y-145896722D01*
G36*
X83976313Y-145945681D02*
G01*
X83801884Y-146110672D01*
X83735601Y-146330565D01*
X83797339Y-146560281D01*
X83890167Y-146671878D01*
X84111683Y-146787204D01*
X84359636Y-146799721D01*
X84560328Y-146708059D01*
X84582217Y-146684739D01*
X84665745Y-146501791D01*
X84687833Y-146346333D01*
X84677741Y-146304472D01*
X84470073Y-146304472D01*
X84440025Y-146478752D01*
X84418557Y-146508570D01*
X84289727Y-146626061D01*
X84161625Y-146610917D01*
X84087759Y-146568295D01*
X84002182Y-146436083D01*
X84010257Y-146264107D01*
X84095629Y-146127210D01*
X84191773Y-146092333D01*
X84376317Y-146155467D01*
X84470073Y-146304472D01*
X84677741Y-146304472D01*
X84622289Y-146074473D01*
X84436345Y-145915668D01*
X84239014Y-145880666D01*
X83976313Y-145945681D01*
G37*
X83976313Y-145945681D02*
X83801884Y-146110672D01*
X83735601Y-146330565D01*
X83797339Y-146560281D01*
X83890167Y-146671878D01*
X84111683Y-146787204D01*
X84359636Y-146799721D01*
X84560328Y-146708059D01*
X84582217Y-146684739D01*
X84665745Y-146501791D01*
X84687833Y-146346333D01*
X84677741Y-146304472D01*
X84470073Y-146304472D01*
X84440025Y-146478752D01*
X84418557Y-146508570D01*
X84289727Y-146626061D01*
X84161625Y-146610917D01*
X84087759Y-146568295D01*
X84002182Y-146436083D01*
X84010257Y-146264107D01*
X84095629Y-146127210D01*
X84191773Y-146092333D01*
X84376317Y-146155467D01*
X84470073Y-146304472D01*
X84677741Y-146304472D01*
X84622289Y-146074473D01*
X84436345Y-145915668D01*
X84239014Y-145880666D01*
X83976313Y-145945681D01*
G36*
X86797662Y-145503051D02*
G01*
X86783333Y-145542000D01*
X86851910Y-145617114D01*
X86910333Y-145626667D01*
X87023005Y-145580949D01*
X87037333Y-145542000D01*
X86968757Y-145466885D01*
X86910333Y-145457333D01*
X86797662Y-145503051D01*
G37*
X86797662Y-145503051D02*
X86783333Y-145542000D01*
X86851910Y-145617114D01*
X86910333Y-145626667D01*
X87023005Y-145580949D01*
X87037333Y-145542000D01*
X86968757Y-145466885D01*
X86910333Y-145457333D01*
X86797662Y-145503051D01*
D11*
X78800000Y-175320000D02*
X76140000Y-175320000D01*
X78800000Y-157480000D02*
X78800000Y-175320000D01*
X76140000Y-157480000D02*
X76140000Y-175320000D01*
X78800000Y-157480000D02*
X76140000Y-157480000D01*
X78800000Y-156210000D02*
X78800000Y-154880000D01*
X78800000Y-154880000D02*
X77470000Y-154880000D01*
X101660000Y-154880000D02*
X100330000Y-154880000D01*
X101660000Y-156210000D02*
X101660000Y-154880000D01*
X101660000Y-157480000D02*
X99000000Y-157480000D01*
X99000000Y-157480000D02*
X99000000Y-175320000D01*
X101660000Y-157480000D02*
X101660000Y-175320000D01*
X101660000Y-175320000D02*
X99000000Y-175320000D01*
M02*
