G04 #@! TF.GenerationSoftware,KiCad,Pcbnew,(5.1.5)-3*
G04 #@! TF.CreationDate,2020-05-07T11:30:42+02:00*
G04 #@! TF.ProjectId,TPS26600_ePuse,54505332-3636-4303-905f-65507573652e,rev?*
G04 #@! TF.SameCoordinates,Original*
G04 #@! TF.FileFunction,Copper,L1,Top*
G04 #@! TF.FilePolarity,Positive*
%FSLAX46Y46*%
G04 Gerber Fmt 4.6, Leading zero omitted, Abs format (unit mm)*
G04 Created by KiCad (PCBNEW (5.1.5)-3) date 2020-05-07 11:30:42*
%MOMM*%
%LPD*%
G04 APERTURE LIST*
%ADD10R,2.500000X2.500000*%
%ADD11C,0.100000*%
%ADD12C,3.200000*%
%ADD13R,1.700000X1.700000*%
%ADD14O,1.700000X1.700000*%
%ADD15R,2.500000X1.800000*%
%ADD16C,0.800000*%
%ADD17C,0.381000*%
%ADD18C,0.457200*%
%ADD19C,0.254000*%
G04 APERTURE END LIST*
D10*
X88900000Y-161290000D03*
G04 #@! TA.AperFunction,SMDPad,CuDef*
D11*
G36*
X88230142Y-166941174D02*
G01*
X88253803Y-166944684D01*
X88277007Y-166950496D01*
X88299529Y-166958554D01*
X88321153Y-166968782D01*
X88341670Y-166981079D01*
X88360883Y-166995329D01*
X88378607Y-167011393D01*
X88394671Y-167029117D01*
X88408921Y-167048330D01*
X88421218Y-167068847D01*
X88431446Y-167090471D01*
X88439504Y-167112993D01*
X88445316Y-167136197D01*
X88448826Y-167159858D01*
X88450000Y-167183750D01*
X88450000Y-168096250D01*
X88448826Y-168120142D01*
X88445316Y-168143803D01*
X88439504Y-168167007D01*
X88431446Y-168189529D01*
X88421218Y-168211153D01*
X88408921Y-168231670D01*
X88394671Y-168250883D01*
X88378607Y-168268607D01*
X88360883Y-168284671D01*
X88341670Y-168298921D01*
X88321153Y-168311218D01*
X88299529Y-168321446D01*
X88277007Y-168329504D01*
X88253803Y-168335316D01*
X88230142Y-168338826D01*
X88206250Y-168340000D01*
X87718750Y-168340000D01*
X87694858Y-168338826D01*
X87671197Y-168335316D01*
X87647993Y-168329504D01*
X87625471Y-168321446D01*
X87603847Y-168311218D01*
X87583330Y-168298921D01*
X87564117Y-168284671D01*
X87546393Y-168268607D01*
X87530329Y-168250883D01*
X87516079Y-168231670D01*
X87503782Y-168211153D01*
X87493554Y-168189529D01*
X87485496Y-168167007D01*
X87479684Y-168143803D01*
X87476174Y-168120142D01*
X87475000Y-168096250D01*
X87475000Y-167183750D01*
X87476174Y-167159858D01*
X87479684Y-167136197D01*
X87485496Y-167112993D01*
X87493554Y-167090471D01*
X87503782Y-167068847D01*
X87516079Y-167048330D01*
X87530329Y-167029117D01*
X87546393Y-167011393D01*
X87564117Y-166995329D01*
X87583330Y-166981079D01*
X87603847Y-166968782D01*
X87625471Y-166958554D01*
X87647993Y-166950496D01*
X87671197Y-166944684D01*
X87694858Y-166941174D01*
X87718750Y-166940000D01*
X88206250Y-166940000D01*
X88230142Y-166941174D01*
G37*
G04 #@! TD.AperFunction*
G04 #@! TA.AperFunction,SMDPad,CuDef*
G36*
X90105142Y-166941174D02*
G01*
X90128803Y-166944684D01*
X90152007Y-166950496D01*
X90174529Y-166958554D01*
X90196153Y-166968782D01*
X90216670Y-166981079D01*
X90235883Y-166995329D01*
X90253607Y-167011393D01*
X90269671Y-167029117D01*
X90283921Y-167048330D01*
X90296218Y-167068847D01*
X90306446Y-167090471D01*
X90314504Y-167112993D01*
X90320316Y-167136197D01*
X90323826Y-167159858D01*
X90325000Y-167183750D01*
X90325000Y-168096250D01*
X90323826Y-168120142D01*
X90320316Y-168143803D01*
X90314504Y-168167007D01*
X90306446Y-168189529D01*
X90296218Y-168211153D01*
X90283921Y-168231670D01*
X90269671Y-168250883D01*
X90253607Y-168268607D01*
X90235883Y-168284671D01*
X90216670Y-168298921D01*
X90196153Y-168311218D01*
X90174529Y-168321446D01*
X90152007Y-168329504D01*
X90128803Y-168335316D01*
X90105142Y-168338826D01*
X90081250Y-168340000D01*
X89593750Y-168340000D01*
X89569858Y-168338826D01*
X89546197Y-168335316D01*
X89522993Y-168329504D01*
X89500471Y-168321446D01*
X89478847Y-168311218D01*
X89458330Y-168298921D01*
X89439117Y-168284671D01*
X89421393Y-168268607D01*
X89405329Y-168250883D01*
X89391079Y-168231670D01*
X89378782Y-168211153D01*
X89368554Y-168189529D01*
X89360496Y-168167007D01*
X89354684Y-168143803D01*
X89351174Y-168120142D01*
X89350000Y-168096250D01*
X89350000Y-167183750D01*
X89351174Y-167159858D01*
X89354684Y-167136197D01*
X89360496Y-167112993D01*
X89368554Y-167090471D01*
X89378782Y-167068847D01*
X89391079Y-167048330D01*
X89405329Y-167029117D01*
X89421393Y-167011393D01*
X89439117Y-166995329D01*
X89458330Y-166981079D01*
X89478847Y-166968782D01*
X89500471Y-166958554D01*
X89522993Y-166950496D01*
X89546197Y-166944684D01*
X89569858Y-166941174D01*
X89593750Y-166940000D01*
X90081250Y-166940000D01*
X90105142Y-166941174D01*
G37*
G04 #@! TD.AperFunction*
G04 #@! TA.AperFunction,SMDPad,CuDef*
G36*
X96455142Y-172656174D02*
G01*
X96478803Y-172659684D01*
X96502007Y-172665496D01*
X96524529Y-172673554D01*
X96546153Y-172683782D01*
X96566670Y-172696079D01*
X96585883Y-172710329D01*
X96603607Y-172726393D01*
X96619671Y-172744117D01*
X96633921Y-172763330D01*
X96646218Y-172783847D01*
X96656446Y-172805471D01*
X96664504Y-172827993D01*
X96670316Y-172851197D01*
X96673826Y-172874858D01*
X96675000Y-172898750D01*
X96675000Y-173811250D01*
X96673826Y-173835142D01*
X96670316Y-173858803D01*
X96664504Y-173882007D01*
X96656446Y-173904529D01*
X96646218Y-173926153D01*
X96633921Y-173946670D01*
X96619671Y-173965883D01*
X96603607Y-173983607D01*
X96585883Y-173999671D01*
X96566670Y-174013921D01*
X96546153Y-174026218D01*
X96524529Y-174036446D01*
X96502007Y-174044504D01*
X96478803Y-174050316D01*
X96455142Y-174053826D01*
X96431250Y-174055000D01*
X95943750Y-174055000D01*
X95919858Y-174053826D01*
X95896197Y-174050316D01*
X95872993Y-174044504D01*
X95850471Y-174036446D01*
X95828847Y-174026218D01*
X95808330Y-174013921D01*
X95789117Y-173999671D01*
X95771393Y-173983607D01*
X95755329Y-173965883D01*
X95741079Y-173946670D01*
X95728782Y-173926153D01*
X95718554Y-173904529D01*
X95710496Y-173882007D01*
X95704684Y-173858803D01*
X95701174Y-173835142D01*
X95700000Y-173811250D01*
X95700000Y-172898750D01*
X95701174Y-172874858D01*
X95704684Y-172851197D01*
X95710496Y-172827993D01*
X95718554Y-172805471D01*
X95728782Y-172783847D01*
X95741079Y-172763330D01*
X95755329Y-172744117D01*
X95771393Y-172726393D01*
X95789117Y-172710329D01*
X95808330Y-172696079D01*
X95828847Y-172683782D01*
X95850471Y-172673554D01*
X95872993Y-172665496D01*
X95896197Y-172659684D01*
X95919858Y-172656174D01*
X95943750Y-172655000D01*
X96431250Y-172655000D01*
X96455142Y-172656174D01*
G37*
G04 #@! TD.AperFunction*
G04 #@! TA.AperFunction,SMDPad,CuDef*
G36*
X94580142Y-172656174D02*
G01*
X94603803Y-172659684D01*
X94627007Y-172665496D01*
X94649529Y-172673554D01*
X94671153Y-172683782D01*
X94691670Y-172696079D01*
X94710883Y-172710329D01*
X94728607Y-172726393D01*
X94744671Y-172744117D01*
X94758921Y-172763330D01*
X94771218Y-172783847D01*
X94781446Y-172805471D01*
X94789504Y-172827993D01*
X94795316Y-172851197D01*
X94798826Y-172874858D01*
X94800000Y-172898750D01*
X94800000Y-173811250D01*
X94798826Y-173835142D01*
X94795316Y-173858803D01*
X94789504Y-173882007D01*
X94781446Y-173904529D01*
X94771218Y-173926153D01*
X94758921Y-173946670D01*
X94744671Y-173965883D01*
X94728607Y-173983607D01*
X94710883Y-173999671D01*
X94691670Y-174013921D01*
X94671153Y-174026218D01*
X94649529Y-174036446D01*
X94627007Y-174044504D01*
X94603803Y-174050316D01*
X94580142Y-174053826D01*
X94556250Y-174055000D01*
X94068750Y-174055000D01*
X94044858Y-174053826D01*
X94021197Y-174050316D01*
X93997993Y-174044504D01*
X93975471Y-174036446D01*
X93953847Y-174026218D01*
X93933330Y-174013921D01*
X93914117Y-173999671D01*
X93896393Y-173983607D01*
X93880329Y-173965883D01*
X93866079Y-173946670D01*
X93853782Y-173926153D01*
X93843554Y-173904529D01*
X93835496Y-173882007D01*
X93829684Y-173858803D01*
X93826174Y-173835142D01*
X93825000Y-173811250D01*
X93825000Y-172898750D01*
X93826174Y-172874858D01*
X93829684Y-172851197D01*
X93835496Y-172827993D01*
X93843554Y-172805471D01*
X93853782Y-172783847D01*
X93866079Y-172763330D01*
X93880329Y-172744117D01*
X93896393Y-172726393D01*
X93914117Y-172710329D01*
X93933330Y-172696079D01*
X93953847Y-172683782D01*
X93975471Y-172673554D01*
X93997993Y-172665496D01*
X94021197Y-172659684D01*
X94044858Y-172656174D01*
X94068750Y-172655000D01*
X94556250Y-172655000D01*
X94580142Y-172656174D01*
G37*
G04 #@! TD.AperFunction*
D12*
X91440000Y-140335000D03*
X96520000Y-140335000D03*
X86360000Y-140335000D03*
X81280000Y-140335000D03*
D13*
X77470000Y-156210000D03*
D14*
X77470000Y-158750000D03*
X77470000Y-161290000D03*
X77470000Y-163830000D03*
X77470000Y-166370000D03*
X77470000Y-168910000D03*
X77470000Y-171450000D03*
X77470000Y-173990000D03*
X100330000Y-173990000D03*
X100330000Y-171450000D03*
X100330000Y-168910000D03*
X100330000Y-166370000D03*
X100330000Y-163830000D03*
X100330000Y-161290000D03*
X100330000Y-158750000D03*
D13*
X100330000Y-156210000D03*
G04 #@! TA.AperFunction,SMDPad,CuDef*
D11*
G36*
X82220742Y-172656174D02*
G01*
X82244403Y-172659684D01*
X82267607Y-172665496D01*
X82290129Y-172673554D01*
X82311753Y-172683782D01*
X82332270Y-172696079D01*
X82351483Y-172710329D01*
X82369207Y-172726393D01*
X82385271Y-172744117D01*
X82399521Y-172763330D01*
X82411818Y-172783847D01*
X82422046Y-172805471D01*
X82430104Y-172827993D01*
X82435916Y-172851197D01*
X82439426Y-172874858D01*
X82440600Y-172898750D01*
X82440600Y-173811250D01*
X82439426Y-173835142D01*
X82435916Y-173858803D01*
X82430104Y-173882007D01*
X82422046Y-173904529D01*
X82411818Y-173926153D01*
X82399521Y-173946670D01*
X82385271Y-173965883D01*
X82369207Y-173983607D01*
X82351483Y-173999671D01*
X82332270Y-174013921D01*
X82311753Y-174026218D01*
X82290129Y-174036446D01*
X82267607Y-174044504D01*
X82244403Y-174050316D01*
X82220742Y-174053826D01*
X82196850Y-174055000D01*
X81709350Y-174055000D01*
X81685458Y-174053826D01*
X81661797Y-174050316D01*
X81638593Y-174044504D01*
X81616071Y-174036446D01*
X81594447Y-174026218D01*
X81573930Y-174013921D01*
X81554717Y-173999671D01*
X81536993Y-173983607D01*
X81520929Y-173965883D01*
X81506679Y-173946670D01*
X81494382Y-173926153D01*
X81484154Y-173904529D01*
X81476096Y-173882007D01*
X81470284Y-173858803D01*
X81466774Y-173835142D01*
X81465600Y-173811250D01*
X81465600Y-172898750D01*
X81466774Y-172874858D01*
X81470284Y-172851197D01*
X81476096Y-172827993D01*
X81484154Y-172805471D01*
X81494382Y-172783847D01*
X81506679Y-172763330D01*
X81520929Y-172744117D01*
X81536993Y-172726393D01*
X81554717Y-172710329D01*
X81573930Y-172696079D01*
X81594447Y-172683782D01*
X81616071Y-172673554D01*
X81638593Y-172665496D01*
X81661797Y-172659684D01*
X81685458Y-172656174D01*
X81709350Y-172655000D01*
X82196850Y-172655000D01*
X82220742Y-172656174D01*
G37*
G04 #@! TD.AperFunction*
G04 #@! TA.AperFunction,SMDPad,CuDef*
G36*
X85962642Y-172656174D02*
G01*
X85986303Y-172659684D01*
X86009507Y-172665496D01*
X86032029Y-172673554D01*
X86053653Y-172683782D01*
X86074170Y-172696079D01*
X86093383Y-172710329D01*
X86111107Y-172726393D01*
X86127171Y-172744117D01*
X86141421Y-172763330D01*
X86153718Y-172783847D01*
X86163946Y-172805471D01*
X86172004Y-172827993D01*
X86177816Y-172851197D01*
X86181326Y-172874858D01*
X86182500Y-172898750D01*
X86182500Y-173811250D01*
X86181326Y-173835142D01*
X86177816Y-173858803D01*
X86172004Y-173882007D01*
X86163946Y-173904529D01*
X86153718Y-173926153D01*
X86141421Y-173946670D01*
X86127171Y-173965883D01*
X86111107Y-173983607D01*
X86093383Y-173999671D01*
X86074170Y-174013921D01*
X86053653Y-174026218D01*
X86032029Y-174036446D01*
X86009507Y-174044504D01*
X85986303Y-174050316D01*
X85962642Y-174053826D01*
X85938750Y-174055000D01*
X85451250Y-174055000D01*
X85427358Y-174053826D01*
X85403697Y-174050316D01*
X85380493Y-174044504D01*
X85357971Y-174036446D01*
X85336347Y-174026218D01*
X85315830Y-174013921D01*
X85296617Y-173999671D01*
X85278893Y-173983607D01*
X85262829Y-173965883D01*
X85248579Y-173946670D01*
X85236282Y-173926153D01*
X85226054Y-173904529D01*
X85217996Y-173882007D01*
X85212184Y-173858803D01*
X85208674Y-173835142D01*
X85207500Y-173811250D01*
X85207500Y-172898750D01*
X85208674Y-172874858D01*
X85212184Y-172851197D01*
X85217996Y-172827993D01*
X85226054Y-172805471D01*
X85236282Y-172783847D01*
X85248579Y-172763330D01*
X85262829Y-172744117D01*
X85278893Y-172726393D01*
X85296617Y-172710329D01*
X85315830Y-172696079D01*
X85336347Y-172683782D01*
X85357971Y-172673554D01*
X85380493Y-172665496D01*
X85403697Y-172659684D01*
X85427358Y-172656174D01*
X85451250Y-172655000D01*
X85938750Y-172655000D01*
X85962642Y-172656174D01*
G37*
G04 #@! TD.AperFunction*
G04 #@! TA.AperFunction,SMDPad,CuDef*
G36*
X84087642Y-172656174D02*
G01*
X84111303Y-172659684D01*
X84134507Y-172665496D01*
X84157029Y-172673554D01*
X84178653Y-172683782D01*
X84199170Y-172696079D01*
X84218383Y-172710329D01*
X84236107Y-172726393D01*
X84252171Y-172744117D01*
X84266421Y-172763330D01*
X84278718Y-172783847D01*
X84288946Y-172805471D01*
X84297004Y-172827993D01*
X84302816Y-172851197D01*
X84306326Y-172874858D01*
X84307500Y-172898750D01*
X84307500Y-173811250D01*
X84306326Y-173835142D01*
X84302816Y-173858803D01*
X84297004Y-173882007D01*
X84288946Y-173904529D01*
X84278718Y-173926153D01*
X84266421Y-173946670D01*
X84252171Y-173965883D01*
X84236107Y-173983607D01*
X84218383Y-173999671D01*
X84199170Y-174013921D01*
X84178653Y-174026218D01*
X84157029Y-174036446D01*
X84134507Y-174044504D01*
X84111303Y-174050316D01*
X84087642Y-174053826D01*
X84063750Y-174055000D01*
X83576250Y-174055000D01*
X83552358Y-174053826D01*
X83528697Y-174050316D01*
X83505493Y-174044504D01*
X83482971Y-174036446D01*
X83461347Y-174026218D01*
X83440830Y-174013921D01*
X83421617Y-173999671D01*
X83403893Y-173983607D01*
X83387829Y-173965883D01*
X83373579Y-173946670D01*
X83361282Y-173926153D01*
X83351054Y-173904529D01*
X83342996Y-173882007D01*
X83337184Y-173858803D01*
X83333674Y-173835142D01*
X83332500Y-173811250D01*
X83332500Y-172898750D01*
X83333674Y-172874858D01*
X83337184Y-172851197D01*
X83342996Y-172827993D01*
X83351054Y-172805471D01*
X83361282Y-172783847D01*
X83373579Y-172763330D01*
X83387829Y-172744117D01*
X83403893Y-172726393D01*
X83421617Y-172710329D01*
X83440830Y-172696079D01*
X83461347Y-172683782D01*
X83482971Y-172673554D01*
X83505493Y-172665496D01*
X83528697Y-172659684D01*
X83552358Y-172656174D01*
X83576250Y-172655000D01*
X84063750Y-172655000D01*
X84087642Y-172656174D01*
G37*
G04 #@! TD.AperFunction*
G04 #@! TA.AperFunction,SMDPad,CuDef*
G36*
X89500142Y-172656174D02*
G01*
X89523803Y-172659684D01*
X89547007Y-172665496D01*
X89569529Y-172673554D01*
X89591153Y-172683782D01*
X89611670Y-172696079D01*
X89630883Y-172710329D01*
X89648607Y-172726393D01*
X89664671Y-172744117D01*
X89678921Y-172763330D01*
X89691218Y-172783847D01*
X89701446Y-172805471D01*
X89709504Y-172827993D01*
X89715316Y-172851197D01*
X89718826Y-172874858D01*
X89720000Y-172898750D01*
X89720000Y-173811250D01*
X89718826Y-173835142D01*
X89715316Y-173858803D01*
X89709504Y-173882007D01*
X89701446Y-173904529D01*
X89691218Y-173926153D01*
X89678921Y-173946670D01*
X89664671Y-173965883D01*
X89648607Y-173983607D01*
X89630883Y-173999671D01*
X89611670Y-174013921D01*
X89591153Y-174026218D01*
X89569529Y-174036446D01*
X89547007Y-174044504D01*
X89523803Y-174050316D01*
X89500142Y-174053826D01*
X89476250Y-174055000D01*
X88988750Y-174055000D01*
X88964858Y-174053826D01*
X88941197Y-174050316D01*
X88917993Y-174044504D01*
X88895471Y-174036446D01*
X88873847Y-174026218D01*
X88853330Y-174013921D01*
X88834117Y-173999671D01*
X88816393Y-173983607D01*
X88800329Y-173965883D01*
X88786079Y-173946670D01*
X88773782Y-173926153D01*
X88763554Y-173904529D01*
X88755496Y-173882007D01*
X88749684Y-173858803D01*
X88746174Y-173835142D01*
X88745000Y-173811250D01*
X88745000Y-172898750D01*
X88746174Y-172874858D01*
X88749684Y-172851197D01*
X88755496Y-172827993D01*
X88763554Y-172805471D01*
X88773782Y-172783847D01*
X88786079Y-172763330D01*
X88800329Y-172744117D01*
X88816393Y-172726393D01*
X88834117Y-172710329D01*
X88853330Y-172696079D01*
X88873847Y-172683782D01*
X88895471Y-172673554D01*
X88917993Y-172665496D01*
X88941197Y-172659684D01*
X88964858Y-172656174D01*
X88988750Y-172655000D01*
X89476250Y-172655000D01*
X89500142Y-172656174D01*
G37*
G04 #@! TD.AperFunction*
G04 #@! TA.AperFunction,SMDPad,CuDef*
G36*
X91375142Y-172656174D02*
G01*
X91398803Y-172659684D01*
X91422007Y-172665496D01*
X91444529Y-172673554D01*
X91466153Y-172683782D01*
X91486670Y-172696079D01*
X91505883Y-172710329D01*
X91523607Y-172726393D01*
X91539671Y-172744117D01*
X91553921Y-172763330D01*
X91566218Y-172783847D01*
X91576446Y-172805471D01*
X91584504Y-172827993D01*
X91590316Y-172851197D01*
X91593826Y-172874858D01*
X91595000Y-172898750D01*
X91595000Y-173811250D01*
X91593826Y-173835142D01*
X91590316Y-173858803D01*
X91584504Y-173882007D01*
X91576446Y-173904529D01*
X91566218Y-173926153D01*
X91553921Y-173946670D01*
X91539671Y-173965883D01*
X91523607Y-173983607D01*
X91505883Y-173999671D01*
X91486670Y-174013921D01*
X91466153Y-174026218D01*
X91444529Y-174036446D01*
X91422007Y-174044504D01*
X91398803Y-174050316D01*
X91375142Y-174053826D01*
X91351250Y-174055000D01*
X90863750Y-174055000D01*
X90839858Y-174053826D01*
X90816197Y-174050316D01*
X90792993Y-174044504D01*
X90770471Y-174036446D01*
X90748847Y-174026218D01*
X90728330Y-174013921D01*
X90709117Y-173999671D01*
X90691393Y-173983607D01*
X90675329Y-173965883D01*
X90661079Y-173946670D01*
X90648782Y-173926153D01*
X90638554Y-173904529D01*
X90630496Y-173882007D01*
X90624684Y-173858803D01*
X90621174Y-173835142D01*
X90620000Y-173811250D01*
X90620000Y-172898750D01*
X90621174Y-172874858D01*
X90624684Y-172851197D01*
X90630496Y-172827993D01*
X90638554Y-172805471D01*
X90648782Y-172783847D01*
X90661079Y-172763330D01*
X90675329Y-172744117D01*
X90691393Y-172726393D01*
X90709117Y-172710329D01*
X90728330Y-172696079D01*
X90748847Y-172683782D01*
X90770471Y-172673554D01*
X90792993Y-172665496D01*
X90816197Y-172659684D01*
X90839858Y-172656174D01*
X90863750Y-172655000D01*
X91351250Y-172655000D01*
X91375142Y-172656174D01*
G37*
G04 #@! TD.AperFunction*
G04 #@! TA.AperFunction,SMDPad,CuDef*
G36*
X83755142Y-156781174D02*
G01*
X83778803Y-156784684D01*
X83802007Y-156790496D01*
X83824529Y-156798554D01*
X83846153Y-156808782D01*
X83866670Y-156821079D01*
X83885883Y-156835329D01*
X83903607Y-156851393D01*
X83919671Y-156869117D01*
X83933921Y-156888330D01*
X83946218Y-156908847D01*
X83956446Y-156930471D01*
X83964504Y-156952993D01*
X83970316Y-156976197D01*
X83973826Y-156999858D01*
X83975000Y-157023750D01*
X83975000Y-157936250D01*
X83973826Y-157960142D01*
X83970316Y-157983803D01*
X83964504Y-158007007D01*
X83956446Y-158029529D01*
X83946218Y-158051153D01*
X83933921Y-158071670D01*
X83919671Y-158090883D01*
X83903607Y-158108607D01*
X83885883Y-158124671D01*
X83866670Y-158138921D01*
X83846153Y-158151218D01*
X83824529Y-158161446D01*
X83802007Y-158169504D01*
X83778803Y-158175316D01*
X83755142Y-158178826D01*
X83731250Y-158180000D01*
X83243750Y-158180000D01*
X83219858Y-158178826D01*
X83196197Y-158175316D01*
X83172993Y-158169504D01*
X83150471Y-158161446D01*
X83128847Y-158151218D01*
X83108330Y-158138921D01*
X83089117Y-158124671D01*
X83071393Y-158108607D01*
X83055329Y-158090883D01*
X83041079Y-158071670D01*
X83028782Y-158051153D01*
X83018554Y-158029529D01*
X83010496Y-158007007D01*
X83004684Y-157983803D01*
X83001174Y-157960142D01*
X83000000Y-157936250D01*
X83000000Y-157023750D01*
X83001174Y-156999858D01*
X83004684Y-156976197D01*
X83010496Y-156952993D01*
X83018554Y-156930471D01*
X83028782Y-156908847D01*
X83041079Y-156888330D01*
X83055329Y-156869117D01*
X83071393Y-156851393D01*
X83089117Y-156835329D01*
X83108330Y-156821079D01*
X83128847Y-156808782D01*
X83150471Y-156798554D01*
X83172993Y-156790496D01*
X83196197Y-156784684D01*
X83219858Y-156781174D01*
X83243750Y-156780000D01*
X83731250Y-156780000D01*
X83755142Y-156781174D01*
G37*
G04 #@! TD.AperFunction*
G04 #@! TA.AperFunction,SMDPad,CuDef*
G36*
X81880142Y-156781174D02*
G01*
X81903803Y-156784684D01*
X81927007Y-156790496D01*
X81949529Y-156798554D01*
X81971153Y-156808782D01*
X81991670Y-156821079D01*
X82010883Y-156835329D01*
X82028607Y-156851393D01*
X82044671Y-156869117D01*
X82058921Y-156888330D01*
X82071218Y-156908847D01*
X82081446Y-156930471D01*
X82089504Y-156952993D01*
X82095316Y-156976197D01*
X82098826Y-156999858D01*
X82100000Y-157023750D01*
X82100000Y-157936250D01*
X82098826Y-157960142D01*
X82095316Y-157983803D01*
X82089504Y-158007007D01*
X82081446Y-158029529D01*
X82071218Y-158051153D01*
X82058921Y-158071670D01*
X82044671Y-158090883D01*
X82028607Y-158108607D01*
X82010883Y-158124671D01*
X81991670Y-158138921D01*
X81971153Y-158151218D01*
X81949529Y-158161446D01*
X81927007Y-158169504D01*
X81903803Y-158175316D01*
X81880142Y-158178826D01*
X81856250Y-158180000D01*
X81368750Y-158180000D01*
X81344858Y-158178826D01*
X81321197Y-158175316D01*
X81297993Y-158169504D01*
X81275471Y-158161446D01*
X81253847Y-158151218D01*
X81233330Y-158138921D01*
X81214117Y-158124671D01*
X81196393Y-158108607D01*
X81180329Y-158090883D01*
X81166079Y-158071670D01*
X81153782Y-158051153D01*
X81143554Y-158029529D01*
X81135496Y-158007007D01*
X81129684Y-157983803D01*
X81126174Y-157960142D01*
X81125000Y-157936250D01*
X81125000Y-157023750D01*
X81126174Y-156999858D01*
X81129684Y-156976197D01*
X81135496Y-156952993D01*
X81143554Y-156930471D01*
X81153782Y-156908847D01*
X81166079Y-156888330D01*
X81180329Y-156869117D01*
X81196393Y-156851393D01*
X81214117Y-156835329D01*
X81233330Y-156821079D01*
X81253847Y-156808782D01*
X81275471Y-156798554D01*
X81297993Y-156790496D01*
X81321197Y-156784684D01*
X81344858Y-156781174D01*
X81368750Y-156780000D01*
X81856250Y-156780000D01*
X81880142Y-156781174D01*
G37*
G04 #@! TD.AperFunction*
G04 #@! TA.AperFunction,SMDPad,CuDef*
G36*
X81880142Y-161861174D02*
G01*
X81903803Y-161864684D01*
X81927007Y-161870496D01*
X81949529Y-161878554D01*
X81971153Y-161888782D01*
X81991670Y-161901079D01*
X82010883Y-161915329D01*
X82028607Y-161931393D01*
X82044671Y-161949117D01*
X82058921Y-161968330D01*
X82071218Y-161988847D01*
X82081446Y-162010471D01*
X82089504Y-162032993D01*
X82095316Y-162056197D01*
X82098826Y-162079858D01*
X82100000Y-162103750D01*
X82100000Y-163016250D01*
X82098826Y-163040142D01*
X82095316Y-163063803D01*
X82089504Y-163087007D01*
X82081446Y-163109529D01*
X82071218Y-163131153D01*
X82058921Y-163151670D01*
X82044671Y-163170883D01*
X82028607Y-163188607D01*
X82010883Y-163204671D01*
X81991670Y-163218921D01*
X81971153Y-163231218D01*
X81949529Y-163241446D01*
X81927007Y-163249504D01*
X81903803Y-163255316D01*
X81880142Y-163258826D01*
X81856250Y-163260000D01*
X81368750Y-163260000D01*
X81344858Y-163258826D01*
X81321197Y-163255316D01*
X81297993Y-163249504D01*
X81275471Y-163241446D01*
X81253847Y-163231218D01*
X81233330Y-163218921D01*
X81214117Y-163204671D01*
X81196393Y-163188607D01*
X81180329Y-163170883D01*
X81166079Y-163151670D01*
X81153782Y-163131153D01*
X81143554Y-163109529D01*
X81135496Y-163087007D01*
X81129684Y-163063803D01*
X81126174Y-163040142D01*
X81125000Y-163016250D01*
X81125000Y-162103750D01*
X81126174Y-162079858D01*
X81129684Y-162056197D01*
X81135496Y-162032993D01*
X81143554Y-162010471D01*
X81153782Y-161988847D01*
X81166079Y-161968330D01*
X81180329Y-161949117D01*
X81196393Y-161931393D01*
X81214117Y-161915329D01*
X81233330Y-161901079D01*
X81253847Y-161888782D01*
X81275471Y-161878554D01*
X81297993Y-161870496D01*
X81321197Y-161864684D01*
X81344858Y-161861174D01*
X81368750Y-161860000D01*
X81856250Y-161860000D01*
X81880142Y-161861174D01*
G37*
G04 #@! TD.AperFunction*
G04 #@! TA.AperFunction,SMDPad,CuDef*
G36*
X83755142Y-161861174D02*
G01*
X83778803Y-161864684D01*
X83802007Y-161870496D01*
X83824529Y-161878554D01*
X83846153Y-161888782D01*
X83866670Y-161901079D01*
X83885883Y-161915329D01*
X83903607Y-161931393D01*
X83919671Y-161949117D01*
X83933921Y-161968330D01*
X83946218Y-161988847D01*
X83956446Y-162010471D01*
X83964504Y-162032993D01*
X83970316Y-162056197D01*
X83973826Y-162079858D01*
X83975000Y-162103750D01*
X83975000Y-163016250D01*
X83973826Y-163040142D01*
X83970316Y-163063803D01*
X83964504Y-163087007D01*
X83956446Y-163109529D01*
X83946218Y-163131153D01*
X83933921Y-163151670D01*
X83919671Y-163170883D01*
X83903607Y-163188607D01*
X83885883Y-163204671D01*
X83866670Y-163218921D01*
X83846153Y-163231218D01*
X83824529Y-163241446D01*
X83802007Y-163249504D01*
X83778803Y-163255316D01*
X83755142Y-163258826D01*
X83731250Y-163260000D01*
X83243750Y-163260000D01*
X83219858Y-163258826D01*
X83196197Y-163255316D01*
X83172993Y-163249504D01*
X83150471Y-163241446D01*
X83128847Y-163231218D01*
X83108330Y-163218921D01*
X83089117Y-163204671D01*
X83071393Y-163188607D01*
X83055329Y-163170883D01*
X83041079Y-163151670D01*
X83028782Y-163131153D01*
X83018554Y-163109529D01*
X83010496Y-163087007D01*
X83004684Y-163063803D01*
X83001174Y-163040142D01*
X83000000Y-163016250D01*
X83000000Y-162103750D01*
X83001174Y-162079858D01*
X83004684Y-162056197D01*
X83010496Y-162032993D01*
X83018554Y-162010471D01*
X83028782Y-161988847D01*
X83041079Y-161968330D01*
X83055329Y-161949117D01*
X83071393Y-161931393D01*
X83089117Y-161915329D01*
X83108330Y-161901079D01*
X83128847Y-161888782D01*
X83150471Y-161878554D01*
X83172993Y-161870496D01*
X83196197Y-161864684D01*
X83219858Y-161861174D01*
X83243750Y-161860000D01*
X83731250Y-161860000D01*
X83755142Y-161861174D01*
G37*
G04 #@! TD.AperFunction*
G04 #@! TA.AperFunction,SMDPad,CuDef*
G36*
X83755142Y-166941174D02*
G01*
X83778803Y-166944684D01*
X83802007Y-166950496D01*
X83824529Y-166958554D01*
X83846153Y-166968782D01*
X83866670Y-166981079D01*
X83885883Y-166995329D01*
X83903607Y-167011393D01*
X83919671Y-167029117D01*
X83933921Y-167048330D01*
X83946218Y-167068847D01*
X83956446Y-167090471D01*
X83964504Y-167112993D01*
X83970316Y-167136197D01*
X83973826Y-167159858D01*
X83975000Y-167183750D01*
X83975000Y-168096250D01*
X83973826Y-168120142D01*
X83970316Y-168143803D01*
X83964504Y-168167007D01*
X83956446Y-168189529D01*
X83946218Y-168211153D01*
X83933921Y-168231670D01*
X83919671Y-168250883D01*
X83903607Y-168268607D01*
X83885883Y-168284671D01*
X83866670Y-168298921D01*
X83846153Y-168311218D01*
X83824529Y-168321446D01*
X83802007Y-168329504D01*
X83778803Y-168335316D01*
X83755142Y-168338826D01*
X83731250Y-168340000D01*
X83243750Y-168340000D01*
X83219858Y-168338826D01*
X83196197Y-168335316D01*
X83172993Y-168329504D01*
X83150471Y-168321446D01*
X83128847Y-168311218D01*
X83108330Y-168298921D01*
X83089117Y-168284671D01*
X83071393Y-168268607D01*
X83055329Y-168250883D01*
X83041079Y-168231670D01*
X83028782Y-168211153D01*
X83018554Y-168189529D01*
X83010496Y-168167007D01*
X83004684Y-168143803D01*
X83001174Y-168120142D01*
X83000000Y-168096250D01*
X83000000Y-167183750D01*
X83001174Y-167159858D01*
X83004684Y-167136197D01*
X83010496Y-167112993D01*
X83018554Y-167090471D01*
X83028782Y-167068847D01*
X83041079Y-167048330D01*
X83055329Y-167029117D01*
X83071393Y-167011393D01*
X83089117Y-166995329D01*
X83108330Y-166981079D01*
X83128847Y-166968782D01*
X83150471Y-166958554D01*
X83172993Y-166950496D01*
X83196197Y-166944684D01*
X83219858Y-166941174D01*
X83243750Y-166940000D01*
X83731250Y-166940000D01*
X83755142Y-166941174D01*
G37*
G04 #@! TD.AperFunction*
G04 #@! TA.AperFunction,SMDPad,CuDef*
G36*
X81880142Y-166941174D02*
G01*
X81903803Y-166944684D01*
X81927007Y-166950496D01*
X81949529Y-166958554D01*
X81971153Y-166968782D01*
X81991670Y-166981079D01*
X82010883Y-166995329D01*
X82028607Y-167011393D01*
X82044671Y-167029117D01*
X82058921Y-167048330D01*
X82071218Y-167068847D01*
X82081446Y-167090471D01*
X82089504Y-167112993D01*
X82095316Y-167136197D01*
X82098826Y-167159858D01*
X82100000Y-167183750D01*
X82100000Y-168096250D01*
X82098826Y-168120142D01*
X82095316Y-168143803D01*
X82089504Y-168167007D01*
X82081446Y-168189529D01*
X82071218Y-168211153D01*
X82058921Y-168231670D01*
X82044671Y-168250883D01*
X82028607Y-168268607D01*
X82010883Y-168284671D01*
X81991670Y-168298921D01*
X81971153Y-168311218D01*
X81949529Y-168321446D01*
X81927007Y-168329504D01*
X81903803Y-168335316D01*
X81880142Y-168338826D01*
X81856250Y-168340000D01*
X81368750Y-168340000D01*
X81344858Y-168338826D01*
X81321197Y-168335316D01*
X81297993Y-168329504D01*
X81275471Y-168321446D01*
X81253847Y-168311218D01*
X81233330Y-168298921D01*
X81214117Y-168284671D01*
X81196393Y-168268607D01*
X81180329Y-168250883D01*
X81166079Y-168231670D01*
X81153782Y-168211153D01*
X81143554Y-168189529D01*
X81135496Y-168167007D01*
X81129684Y-168143803D01*
X81126174Y-168120142D01*
X81125000Y-168096250D01*
X81125000Y-167183750D01*
X81126174Y-167159858D01*
X81129684Y-167136197D01*
X81135496Y-167112993D01*
X81143554Y-167090471D01*
X81153782Y-167068847D01*
X81166079Y-167048330D01*
X81180329Y-167029117D01*
X81196393Y-167011393D01*
X81214117Y-166995329D01*
X81233330Y-166981079D01*
X81253847Y-166968782D01*
X81275471Y-166958554D01*
X81297993Y-166950496D01*
X81321197Y-166944684D01*
X81344858Y-166941174D01*
X81368750Y-166940000D01*
X81856250Y-166940000D01*
X81880142Y-166941174D01*
G37*
G04 #@! TD.AperFunction*
G04 #@! TA.AperFunction,SMDPad,CuDef*
G36*
X94580142Y-156781174D02*
G01*
X94603803Y-156784684D01*
X94627007Y-156790496D01*
X94649529Y-156798554D01*
X94671153Y-156808782D01*
X94691670Y-156821079D01*
X94710883Y-156835329D01*
X94728607Y-156851393D01*
X94744671Y-156869117D01*
X94758921Y-156888330D01*
X94771218Y-156908847D01*
X94781446Y-156930471D01*
X94789504Y-156952993D01*
X94795316Y-156976197D01*
X94798826Y-156999858D01*
X94800000Y-157023750D01*
X94800000Y-157936250D01*
X94798826Y-157960142D01*
X94795316Y-157983803D01*
X94789504Y-158007007D01*
X94781446Y-158029529D01*
X94771218Y-158051153D01*
X94758921Y-158071670D01*
X94744671Y-158090883D01*
X94728607Y-158108607D01*
X94710883Y-158124671D01*
X94691670Y-158138921D01*
X94671153Y-158151218D01*
X94649529Y-158161446D01*
X94627007Y-158169504D01*
X94603803Y-158175316D01*
X94580142Y-158178826D01*
X94556250Y-158180000D01*
X94068750Y-158180000D01*
X94044858Y-158178826D01*
X94021197Y-158175316D01*
X93997993Y-158169504D01*
X93975471Y-158161446D01*
X93953847Y-158151218D01*
X93933330Y-158138921D01*
X93914117Y-158124671D01*
X93896393Y-158108607D01*
X93880329Y-158090883D01*
X93866079Y-158071670D01*
X93853782Y-158051153D01*
X93843554Y-158029529D01*
X93835496Y-158007007D01*
X93829684Y-157983803D01*
X93826174Y-157960142D01*
X93825000Y-157936250D01*
X93825000Y-157023750D01*
X93826174Y-156999858D01*
X93829684Y-156976197D01*
X93835496Y-156952993D01*
X93843554Y-156930471D01*
X93853782Y-156908847D01*
X93866079Y-156888330D01*
X93880329Y-156869117D01*
X93896393Y-156851393D01*
X93914117Y-156835329D01*
X93933330Y-156821079D01*
X93953847Y-156808782D01*
X93975471Y-156798554D01*
X93997993Y-156790496D01*
X94021197Y-156784684D01*
X94044858Y-156781174D01*
X94068750Y-156780000D01*
X94556250Y-156780000D01*
X94580142Y-156781174D01*
G37*
G04 #@! TD.AperFunction*
G04 #@! TA.AperFunction,SMDPad,CuDef*
G36*
X96455142Y-156781174D02*
G01*
X96478803Y-156784684D01*
X96502007Y-156790496D01*
X96524529Y-156798554D01*
X96546153Y-156808782D01*
X96566670Y-156821079D01*
X96585883Y-156835329D01*
X96603607Y-156851393D01*
X96619671Y-156869117D01*
X96633921Y-156888330D01*
X96646218Y-156908847D01*
X96656446Y-156930471D01*
X96664504Y-156952993D01*
X96670316Y-156976197D01*
X96673826Y-156999858D01*
X96675000Y-157023750D01*
X96675000Y-157936250D01*
X96673826Y-157960142D01*
X96670316Y-157983803D01*
X96664504Y-158007007D01*
X96656446Y-158029529D01*
X96646218Y-158051153D01*
X96633921Y-158071670D01*
X96619671Y-158090883D01*
X96603607Y-158108607D01*
X96585883Y-158124671D01*
X96566670Y-158138921D01*
X96546153Y-158151218D01*
X96524529Y-158161446D01*
X96502007Y-158169504D01*
X96478803Y-158175316D01*
X96455142Y-158178826D01*
X96431250Y-158180000D01*
X95943750Y-158180000D01*
X95919858Y-158178826D01*
X95896197Y-158175316D01*
X95872993Y-158169504D01*
X95850471Y-158161446D01*
X95828847Y-158151218D01*
X95808330Y-158138921D01*
X95789117Y-158124671D01*
X95771393Y-158108607D01*
X95755329Y-158090883D01*
X95741079Y-158071670D01*
X95728782Y-158051153D01*
X95718554Y-158029529D01*
X95710496Y-158007007D01*
X95704684Y-157983803D01*
X95701174Y-157960142D01*
X95700000Y-157936250D01*
X95700000Y-157023750D01*
X95701174Y-156999858D01*
X95704684Y-156976197D01*
X95710496Y-156952993D01*
X95718554Y-156930471D01*
X95728782Y-156908847D01*
X95741079Y-156888330D01*
X95755329Y-156869117D01*
X95771393Y-156851393D01*
X95789117Y-156835329D01*
X95808330Y-156821079D01*
X95828847Y-156808782D01*
X95850471Y-156798554D01*
X95872993Y-156790496D01*
X95896197Y-156784684D01*
X95919858Y-156781174D01*
X95943750Y-156780000D01*
X96431250Y-156780000D01*
X96455142Y-156781174D01*
G37*
G04 #@! TD.AperFunction*
G04 #@! TA.AperFunction,SMDPad,CuDef*
G36*
X94580142Y-166941174D02*
G01*
X94603803Y-166944684D01*
X94627007Y-166950496D01*
X94649529Y-166958554D01*
X94671153Y-166968782D01*
X94691670Y-166981079D01*
X94710883Y-166995329D01*
X94728607Y-167011393D01*
X94744671Y-167029117D01*
X94758921Y-167048330D01*
X94771218Y-167068847D01*
X94781446Y-167090471D01*
X94789504Y-167112993D01*
X94795316Y-167136197D01*
X94798826Y-167159858D01*
X94800000Y-167183750D01*
X94800000Y-168096250D01*
X94798826Y-168120142D01*
X94795316Y-168143803D01*
X94789504Y-168167007D01*
X94781446Y-168189529D01*
X94771218Y-168211153D01*
X94758921Y-168231670D01*
X94744671Y-168250883D01*
X94728607Y-168268607D01*
X94710883Y-168284671D01*
X94691670Y-168298921D01*
X94671153Y-168311218D01*
X94649529Y-168321446D01*
X94627007Y-168329504D01*
X94603803Y-168335316D01*
X94580142Y-168338826D01*
X94556250Y-168340000D01*
X94068750Y-168340000D01*
X94044858Y-168338826D01*
X94021197Y-168335316D01*
X93997993Y-168329504D01*
X93975471Y-168321446D01*
X93953847Y-168311218D01*
X93933330Y-168298921D01*
X93914117Y-168284671D01*
X93896393Y-168268607D01*
X93880329Y-168250883D01*
X93866079Y-168231670D01*
X93853782Y-168211153D01*
X93843554Y-168189529D01*
X93835496Y-168167007D01*
X93829684Y-168143803D01*
X93826174Y-168120142D01*
X93825000Y-168096250D01*
X93825000Y-167183750D01*
X93826174Y-167159858D01*
X93829684Y-167136197D01*
X93835496Y-167112993D01*
X93843554Y-167090471D01*
X93853782Y-167068847D01*
X93866079Y-167048330D01*
X93880329Y-167029117D01*
X93896393Y-167011393D01*
X93914117Y-166995329D01*
X93933330Y-166981079D01*
X93953847Y-166968782D01*
X93975471Y-166958554D01*
X93997993Y-166950496D01*
X94021197Y-166944684D01*
X94044858Y-166941174D01*
X94068750Y-166940000D01*
X94556250Y-166940000D01*
X94580142Y-166941174D01*
G37*
G04 #@! TD.AperFunction*
G04 #@! TA.AperFunction,SMDPad,CuDef*
G36*
X96455142Y-166941174D02*
G01*
X96478803Y-166944684D01*
X96502007Y-166950496D01*
X96524529Y-166958554D01*
X96546153Y-166968782D01*
X96566670Y-166981079D01*
X96585883Y-166995329D01*
X96603607Y-167011393D01*
X96619671Y-167029117D01*
X96633921Y-167048330D01*
X96646218Y-167068847D01*
X96656446Y-167090471D01*
X96664504Y-167112993D01*
X96670316Y-167136197D01*
X96673826Y-167159858D01*
X96675000Y-167183750D01*
X96675000Y-168096250D01*
X96673826Y-168120142D01*
X96670316Y-168143803D01*
X96664504Y-168167007D01*
X96656446Y-168189529D01*
X96646218Y-168211153D01*
X96633921Y-168231670D01*
X96619671Y-168250883D01*
X96603607Y-168268607D01*
X96585883Y-168284671D01*
X96566670Y-168298921D01*
X96546153Y-168311218D01*
X96524529Y-168321446D01*
X96502007Y-168329504D01*
X96478803Y-168335316D01*
X96455142Y-168338826D01*
X96431250Y-168340000D01*
X95943750Y-168340000D01*
X95919858Y-168338826D01*
X95896197Y-168335316D01*
X95872993Y-168329504D01*
X95850471Y-168321446D01*
X95828847Y-168311218D01*
X95808330Y-168298921D01*
X95789117Y-168284671D01*
X95771393Y-168268607D01*
X95755329Y-168250883D01*
X95741079Y-168231670D01*
X95728782Y-168211153D01*
X95718554Y-168189529D01*
X95710496Y-168167007D01*
X95704684Y-168143803D01*
X95701174Y-168120142D01*
X95700000Y-168096250D01*
X95700000Y-167183750D01*
X95701174Y-167159858D01*
X95704684Y-167136197D01*
X95710496Y-167112993D01*
X95718554Y-167090471D01*
X95728782Y-167068847D01*
X95741079Y-167048330D01*
X95755329Y-167029117D01*
X95771393Y-167011393D01*
X95789117Y-166995329D01*
X95808330Y-166981079D01*
X95828847Y-166968782D01*
X95850471Y-166958554D01*
X95872993Y-166950496D01*
X95896197Y-166944684D01*
X95919858Y-166941174D01*
X95943750Y-166940000D01*
X96431250Y-166940000D01*
X96455142Y-166941174D01*
G37*
G04 #@! TD.AperFunction*
G04 #@! TA.AperFunction,SMDPad,CuDef*
G36*
X96455142Y-161861174D02*
G01*
X96478803Y-161864684D01*
X96502007Y-161870496D01*
X96524529Y-161878554D01*
X96546153Y-161888782D01*
X96566670Y-161901079D01*
X96585883Y-161915329D01*
X96603607Y-161931393D01*
X96619671Y-161949117D01*
X96633921Y-161968330D01*
X96646218Y-161988847D01*
X96656446Y-162010471D01*
X96664504Y-162032993D01*
X96670316Y-162056197D01*
X96673826Y-162079858D01*
X96675000Y-162103750D01*
X96675000Y-163016250D01*
X96673826Y-163040142D01*
X96670316Y-163063803D01*
X96664504Y-163087007D01*
X96656446Y-163109529D01*
X96646218Y-163131153D01*
X96633921Y-163151670D01*
X96619671Y-163170883D01*
X96603607Y-163188607D01*
X96585883Y-163204671D01*
X96566670Y-163218921D01*
X96546153Y-163231218D01*
X96524529Y-163241446D01*
X96502007Y-163249504D01*
X96478803Y-163255316D01*
X96455142Y-163258826D01*
X96431250Y-163260000D01*
X95943750Y-163260000D01*
X95919858Y-163258826D01*
X95896197Y-163255316D01*
X95872993Y-163249504D01*
X95850471Y-163241446D01*
X95828847Y-163231218D01*
X95808330Y-163218921D01*
X95789117Y-163204671D01*
X95771393Y-163188607D01*
X95755329Y-163170883D01*
X95741079Y-163151670D01*
X95728782Y-163131153D01*
X95718554Y-163109529D01*
X95710496Y-163087007D01*
X95704684Y-163063803D01*
X95701174Y-163040142D01*
X95700000Y-163016250D01*
X95700000Y-162103750D01*
X95701174Y-162079858D01*
X95704684Y-162056197D01*
X95710496Y-162032993D01*
X95718554Y-162010471D01*
X95728782Y-161988847D01*
X95741079Y-161968330D01*
X95755329Y-161949117D01*
X95771393Y-161931393D01*
X95789117Y-161915329D01*
X95808330Y-161901079D01*
X95828847Y-161888782D01*
X95850471Y-161878554D01*
X95872993Y-161870496D01*
X95896197Y-161864684D01*
X95919858Y-161861174D01*
X95943750Y-161860000D01*
X96431250Y-161860000D01*
X96455142Y-161861174D01*
G37*
G04 #@! TD.AperFunction*
G04 #@! TA.AperFunction,SMDPad,CuDef*
G36*
X94580142Y-161861174D02*
G01*
X94603803Y-161864684D01*
X94627007Y-161870496D01*
X94649529Y-161878554D01*
X94671153Y-161888782D01*
X94691670Y-161901079D01*
X94710883Y-161915329D01*
X94728607Y-161931393D01*
X94744671Y-161949117D01*
X94758921Y-161968330D01*
X94771218Y-161988847D01*
X94781446Y-162010471D01*
X94789504Y-162032993D01*
X94795316Y-162056197D01*
X94798826Y-162079858D01*
X94800000Y-162103750D01*
X94800000Y-163016250D01*
X94798826Y-163040142D01*
X94795316Y-163063803D01*
X94789504Y-163087007D01*
X94781446Y-163109529D01*
X94771218Y-163131153D01*
X94758921Y-163151670D01*
X94744671Y-163170883D01*
X94728607Y-163188607D01*
X94710883Y-163204671D01*
X94691670Y-163218921D01*
X94671153Y-163231218D01*
X94649529Y-163241446D01*
X94627007Y-163249504D01*
X94603803Y-163255316D01*
X94580142Y-163258826D01*
X94556250Y-163260000D01*
X94068750Y-163260000D01*
X94044858Y-163258826D01*
X94021197Y-163255316D01*
X93997993Y-163249504D01*
X93975471Y-163241446D01*
X93953847Y-163231218D01*
X93933330Y-163218921D01*
X93914117Y-163204671D01*
X93896393Y-163188607D01*
X93880329Y-163170883D01*
X93866079Y-163151670D01*
X93853782Y-163131153D01*
X93843554Y-163109529D01*
X93835496Y-163087007D01*
X93829684Y-163063803D01*
X93826174Y-163040142D01*
X93825000Y-163016250D01*
X93825000Y-162103750D01*
X93826174Y-162079858D01*
X93829684Y-162056197D01*
X93835496Y-162032993D01*
X93843554Y-162010471D01*
X93853782Y-161988847D01*
X93866079Y-161968330D01*
X93880329Y-161949117D01*
X93896393Y-161931393D01*
X93914117Y-161915329D01*
X93933330Y-161901079D01*
X93953847Y-161888782D01*
X93975471Y-161878554D01*
X93997993Y-161870496D01*
X94021197Y-161864684D01*
X94044858Y-161861174D01*
X94068750Y-161860000D01*
X94556250Y-161860000D01*
X94580142Y-161861174D01*
G37*
G04 #@! TD.AperFunction*
G04 #@! TA.AperFunction,SMDPad,CuDef*
G36*
X90174505Y-159791204D02*
G01*
X90198773Y-159794804D01*
X90222572Y-159800765D01*
X90245671Y-159809030D01*
X90267850Y-159819520D01*
X90288893Y-159832132D01*
X90308599Y-159846747D01*
X90326777Y-159863223D01*
X90343253Y-159881401D01*
X90357868Y-159901107D01*
X90370480Y-159922150D01*
X90380970Y-159944329D01*
X90389235Y-159967428D01*
X90395196Y-159991227D01*
X90398796Y-160015495D01*
X90400000Y-160039999D01*
X90400000Y-162540001D01*
X90398796Y-162564505D01*
X90395196Y-162588773D01*
X90389235Y-162612572D01*
X90380970Y-162635671D01*
X90370480Y-162657850D01*
X90357868Y-162678893D01*
X90343253Y-162698599D01*
X90326777Y-162716777D01*
X90308599Y-162733253D01*
X90288893Y-162747868D01*
X90267850Y-162760480D01*
X90245671Y-162770970D01*
X90222572Y-162779235D01*
X90198773Y-162785196D01*
X90174505Y-162788796D01*
X90150001Y-162790000D01*
X87649999Y-162790000D01*
X87625495Y-162788796D01*
X87601227Y-162785196D01*
X87577428Y-162779235D01*
X87554329Y-162770970D01*
X87532150Y-162760480D01*
X87511107Y-162747868D01*
X87491401Y-162733253D01*
X87473223Y-162716777D01*
X87456747Y-162698599D01*
X87442132Y-162678893D01*
X87429520Y-162657850D01*
X87419030Y-162635671D01*
X87410765Y-162612572D01*
X87404804Y-162588773D01*
X87401204Y-162564505D01*
X87400000Y-162540001D01*
X87400000Y-160039999D01*
X87401204Y-160015495D01*
X87404804Y-159991227D01*
X87410765Y-159967428D01*
X87419030Y-159944329D01*
X87429520Y-159922150D01*
X87442132Y-159901107D01*
X87456747Y-159881401D01*
X87473223Y-159863223D01*
X87491401Y-159846747D01*
X87511107Y-159832132D01*
X87532150Y-159819520D01*
X87554329Y-159809030D01*
X87577428Y-159800765D01*
X87601227Y-159794804D01*
X87625495Y-159791204D01*
X87649999Y-159790000D01*
X90150001Y-159790000D01*
X90174505Y-159791204D01*
G37*
G04 #@! TD.AperFunction*
G04 #@! TA.AperFunction,SMDPad,CuDef*
G36*
X86709802Y-158815482D02*
G01*
X86719509Y-158816921D01*
X86729028Y-158819306D01*
X86738268Y-158822612D01*
X86747140Y-158826808D01*
X86755557Y-158831853D01*
X86763439Y-158837699D01*
X86770711Y-158844289D01*
X86777301Y-158851561D01*
X86783147Y-158859443D01*
X86788192Y-158867860D01*
X86792388Y-158876732D01*
X86795694Y-158885972D01*
X86798079Y-158895491D01*
X86799518Y-158905198D01*
X86800000Y-158915000D01*
X86800000Y-159115000D01*
X86799518Y-159124802D01*
X86798079Y-159134509D01*
X86795694Y-159144028D01*
X86792388Y-159153268D01*
X86788192Y-159162140D01*
X86783147Y-159170557D01*
X86777301Y-159178439D01*
X86770711Y-159185711D01*
X86763439Y-159192301D01*
X86755557Y-159198147D01*
X86747140Y-159203192D01*
X86738268Y-159207388D01*
X86729028Y-159210694D01*
X86719509Y-159213079D01*
X86709802Y-159214518D01*
X86700000Y-159215000D01*
X85350000Y-159215000D01*
X85340198Y-159214518D01*
X85330491Y-159213079D01*
X85320972Y-159210694D01*
X85311732Y-159207388D01*
X85302860Y-159203192D01*
X85294443Y-159198147D01*
X85286561Y-159192301D01*
X85279289Y-159185711D01*
X85272699Y-159178439D01*
X85266853Y-159170557D01*
X85261808Y-159162140D01*
X85257612Y-159153268D01*
X85254306Y-159144028D01*
X85251921Y-159134509D01*
X85250482Y-159124802D01*
X85250000Y-159115000D01*
X85250000Y-158915000D01*
X85250482Y-158905198D01*
X85251921Y-158895491D01*
X85254306Y-158885972D01*
X85257612Y-158876732D01*
X85261808Y-158867860D01*
X85266853Y-158859443D01*
X85272699Y-158851561D01*
X85279289Y-158844289D01*
X85286561Y-158837699D01*
X85294443Y-158831853D01*
X85302860Y-158826808D01*
X85311732Y-158822612D01*
X85320972Y-158819306D01*
X85330491Y-158816921D01*
X85340198Y-158815482D01*
X85350000Y-158815000D01*
X86700000Y-158815000D01*
X86709802Y-158815482D01*
G37*
G04 #@! TD.AperFunction*
G04 #@! TA.AperFunction,SMDPad,CuDef*
G36*
X86709802Y-159465482D02*
G01*
X86719509Y-159466921D01*
X86729028Y-159469306D01*
X86738268Y-159472612D01*
X86747140Y-159476808D01*
X86755557Y-159481853D01*
X86763439Y-159487699D01*
X86770711Y-159494289D01*
X86777301Y-159501561D01*
X86783147Y-159509443D01*
X86788192Y-159517860D01*
X86792388Y-159526732D01*
X86795694Y-159535972D01*
X86798079Y-159545491D01*
X86799518Y-159555198D01*
X86800000Y-159565000D01*
X86800000Y-159765000D01*
X86799518Y-159774802D01*
X86798079Y-159784509D01*
X86795694Y-159794028D01*
X86792388Y-159803268D01*
X86788192Y-159812140D01*
X86783147Y-159820557D01*
X86777301Y-159828439D01*
X86770711Y-159835711D01*
X86763439Y-159842301D01*
X86755557Y-159848147D01*
X86747140Y-159853192D01*
X86738268Y-159857388D01*
X86729028Y-159860694D01*
X86719509Y-159863079D01*
X86709802Y-159864518D01*
X86700000Y-159865000D01*
X85350000Y-159865000D01*
X85340198Y-159864518D01*
X85330491Y-159863079D01*
X85320972Y-159860694D01*
X85311732Y-159857388D01*
X85302860Y-159853192D01*
X85294443Y-159848147D01*
X85286561Y-159842301D01*
X85279289Y-159835711D01*
X85272699Y-159828439D01*
X85266853Y-159820557D01*
X85261808Y-159812140D01*
X85257612Y-159803268D01*
X85254306Y-159794028D01*
X85251921Y-159784509D01*
X85250482Y-159774802D01*
X85250000Y-159765000D01*
X85250000Y-159565000D01*
X85250482Y-159555198D01*
X85251921Y-159545491D01*
X85254306Y-159535972D01*
X85257612Y-159526732D01*
X85261808Y-159517860D01*
X85266853Y-159509443D01*
X85272699Y-159501561D01*
X85279289Y-159494289D01*
X85286561Y-159487699D01*
X85294443Y-159481853D01*
X85302860Y-159476808D01*
X85311732Y-159472612D01*
X85320972Y-159469306D01*
X85330491Y-159466921D01*
X85340198Y-159465482D01*
X85350000Y-159465000D01*
X86700000Y-159465000D01*
X86709802Y-159465482D01*
G37*
G04 #@! TD.AperFunction*
G04 #@! TA.AperFunction,SMDPad,CuDef*
G36*
X86709802Y-160115482D02*
G01*
X86719509Y-160116921D01*
X86729028Y-160119306D01*
X86738268Y-160122612D01*
X86747140Y-160126808D01*
X86755557Y-160131853D01*
X86763439Y-160137699D01*
X86770711Y-160144289D01*
X86777301Y-160151561D01*
X86783147Y-160159443D01*
X86788192Y-160167860D01*
X86792388Y-160176732D01*
X86795694Y-160185972D01*
X86798079Y-160195491D01*
X86799518Y-160205198D01*
X86800000Y-160215000D01*
X86800000Y-160415000D01*
X86799518Y-160424802D01*
X86798079Y-160434509D01*
X86795694Y-160444028D01*
X86792388Y-160453268D01*
X86788192Y-160462140D01*
X86783147Y-160470557D01*
X86777301Y-160478439D01*
X86770711Y-160485711D01*
X86763439Y-160492301D01*
X86755557Y-160498147D01*
X86747140Y-160503192D01*
X86738268Y-160507388D01*
X86729028Y-160510694D01*
X86719509Y-160513079D01*
X86709802Y-160514518D01*
X86700000Y-160515000D01*
X85350000Y-160515000D01*
X85340198Y-160514518D01*
X85330491Y-160513079D01*
X85320972Y-160510694D01*
X85311732Y-160507388D01*
X85302860Y-160503192D01*
X85294443Y-160498147D01*
X85286561Y-160492301D01*
X85279289Y-160485711D01*
X85272699Y-160478439D01*
X85266853Y-160470557D01*
X85261808Y-160462140D01*
X85257612Y-160453268D01*
X85254306Y-160444028D01*
X85251921Y-160434509D01*
X85250482Y-160424802D01*
X85250000Y-160415000D01*
X85250000Y-160215000D01*
X85250482Y-160205198D01*
X85251921Y-160195491D01*
X85254306Y-160185972D01*
X85257612Y-160176732D01*
X85261808Y-160167860D01*
X85266853Y-160159443D01*
X85272699Y-160151561D01*
X85279289Y-160144289D01*
X85286561Y-160137699D01*
X85294443Y-160131853D01*
X85302860Y-160126808D01*
X85311732Y-160122612D01*
X85320972Y-160119306D01*
X85330491Y-160116921D01*
X85340198Y-160115482D01*
X85350000Y-160115000D01*
X86700000Y-160115000D01*
X86709802Y-160115482D01*
G37*
G04 #@! TD.AperFunction*
G04 #@! TA.AperFunction,SMDPad,CuDef*
G36*
X86709802Y-160765482D02*
G01*
X86719509Y-160766921D01*
X86729028Y-160769306D01*
X86738268Y-160772612D01*
X86747140Y-160776808D01*
X86755557Y-160781853D01*
X86763439Y-160787699D01*
X86770711Y-160794289D01*
X86777301Y-160801561D01*
X86783147Y-160809443D01*
X86788192Y-160817860D01*
X86792388Y-160826732D01*
X86795694Y-160835972D01*
X86798079Y-160845491D01*
X86799518Y-160855198D01*
X86800000Y-160865000D01*
X86800000Y-161065000D01*
X86799518Y-161074802D01*
X86798079Y-161084509D01*
X86795694Y-161094028D01*
X86792388Y-161103268D01*
X86788192Y-161112140D01*
X86783147Y-161120557D01*
X86777301Y-161128439D01*
X86770711Y-161135711D01*
X86763439Y-161142301D01*
X86755557Y-161148147D01*
X86747140Y-161153192D01*
X86738268Y-161157388D01*
X86729028Y-161160694D01*
X86719509Y-161163079D01*
X86709802Y-161164518D01*
X86700000Y-161165000D01*
X85350000Y-161165000D01*
X85340198Y-161164518D01*
X85330491Y-161163079D01*
X85320972Y-161160694D01*
X85311732Y-161157388D01*
X85302860Y-161153192D01*
X85294443Y-161148147D01*
X85286561Y-161142301D01*
X85279289Y-161135711D01*
X85272699Y-161128439D01*
X85266853Y-161120557D01*
X85261808Y-161112140D01*
X85257612Y-161103268D01*
X85254306Y-161094028D01*
X85251921Y-161084509D01*
X85250482Y-161074802D01*
X85250000Y-161065000D01*
X85250000Y-160865000D01*
X85250482Y-160855198D01*
X85251921Y-160845491D01*
X85254306Y-160835972D01*
X85257612Y-160826732D01*
X85261808Y-160817860D01*
X85266853Y-160809443D01*
X85272699Y-160801561D01*
X85279289Y-160794289D01*
X85286561Y-160787699D01*
X85294443Y-160781853D01*
X85302860Y-160776808D01*
X85311732Y-160772612D01*
X85320972Y-160769306D01*
X85330491Y-160766921D01*
X85340198Y-160765482D01*
X85350000Y-160765000D01*
X86700000Y-160765000D01*
X86709802Y-160765482D01*
G37*
G04 #@! TD.AperFunction*
G04 #@! TA.AperFunction,SMDPad,CuDef*
G36*
X86709802Y-161415482D02*
G01*
X86719509Y-161416921D01*
X86729028Y-161419306D01*
X86738268Y-161422612D01*
X86747140Y-161426808D01*
X86755557Y-161431853D01*
X86763439Y-161437699D01*
X86770711Y-161444289D01*
X86777301Y-161451561D01*
X86783147Y-161459443D01*
X86788192Y-161467860D01*
X86792388Y-161476732D01*
X86795694Y-161485972D01*
X86798079Y-161495491D01*
X86799518Y-161505198D01*
X86800000Y-161515000D01*
X86800000Y-161715000D01*
X86799518Y-161724802D01*
X86798079Y-161734509D01*
X86795694Y-161744028D01*
X86792388Y-161753268D01*
X86788192Y-161762140D01*
X86783147Y-161770557D01*
X86777301Y-161778439D01*
X86770711Y-161785711D01*
X86763439Y-161792301D01*
X86755557Y-161798147D01*
X86747140Y-161803192D01*
X86738268Y-161807388D01*
X86729028Y-161810694D01*
X86719509Y-161813079D01*
X86709802Y-161814518D01*
X86700000Y-161815000D01*
X85350000Y-161815000D01*
X85340198Y-161814518D01*
X85330491Y-161813079D01*
X85320972Y-161810694D01*
X85311732Y-161807388D01*
X85302860Y-161803192D01*
X85294443Y-161798147D01*
X85286561Y-161792301D01*
X85279289Y-161785711D01*
X85272699Y-161778439D01*
X85266853Y-161770557D01*
X85261808Y-161762140D01*
X85257612Y-161753268D01*
X85254306Y-161744028D01*
X85251921Y-161734509D01*
X85250482Y-161724802D01*
X85250000Y-161715000D01*
X85250000Y-161515000D01*
X85250482Y-161505198D01*
X85251921Y-161495491D01*
X85254306Y-161485972D01*
X85257612Y-161476732D01*
X85261808Y-161467860D01*
X85266853Y-161459443D01*
X85272699Y-161451561D01*
X85279289Y-161444289D01*
X85286561Y-161437699D01*
X85294443Y-161431853D01*
X85302860Y-161426808D01*
X85311732Y-161422612D01*
X85320972Y-161419306D01*
X85330491Y-161416921D01*
X85340198Y-161415482D01*
X85350000Y-161415000D01*
X86700000Y-161415000D01*
X86709802Y-161415482D01*
G37*
G04 #@! TD.AperFunction*
G04 #@! TA.AperFunction,SMDPad,CuDef*
G36*
X86709802Y-162065482D02*
G01*
X86719509Y-162066921D01*
X86729028Y-162069306D01*
X86738268Y-162072612D01*
X86747140Y-162076808D01*
X86755557Y-162081853D01*
X86763439Y-162087699D01*
X86770711Y-162094289D01*
X86777301Y-162101561D01*
X86783147Y-162109443D01*
X86788192Y-162117860D01*
X86792388Y-162126732D01*
X86795694Y-162135972D01*
X86798079Y-162145491D01*
X86799518Y-162155198D01*
X86800000Y-162165000D01*
X86800000Y-162365000D01*
X86799518Y-162374802D01*
X86798079Y-162384509D01*
X86795694Y-162394028D01*
X86792388Y-162403268D01*
X86788192Y-162412140D01*
X86783147Y-162420557D01*
X86777301Y-162428439D01*
X86770711Y-162435711D01*
X86763439Y-162442301D01*
X86755557Y-162448147D01*
X86747140Y-162453192D01*
X86738268Y-162457388D01*
X86729028Y-162460694D01*
X86719509Y-162463079D01*
X86709802Y-162464518D01*
X86700000Y-162465000D01*
X85350000Y-162465000D01*
X85340198Y-162464518D01*
X85330491Y-162463079D01*
X85320972Y-162460694D01*
X85311732Y-162457388D01*
X85302860Y-162453192D01*
X85294443Y-162448147D01*
X85286561Y-162442301D01*
X85279289Y-162435711D01*
X85272699Y-162428439D01*
X85266853Y-162420557D01*
X85261808Y-162412140D01*
X85257612Y-162403268D01*
X85254306Y-162394028D01*
X85251921Y-162384509D01*
X85250482Y-162374802D01*
X85250000Y-162365000D01*
X85250000Y-162165000D01*
X85250482Y-162155198D01*
X85251921Y-162145491D01*
X85254306Y-162135972D01*
X85257612Y-162126732D01*
X85261808Y-162117860D01*
X85266853Y-162109443D01*
X85272699Y-162101561D01*
X85279289Y-162094289D01*
X85286561Y-162087699D01*
X85294443Y-162081853D01*
X85302860Y-162076808D01*
X85311732Y-162072612D01*
X85320972Y-162069306D01*
X85330491Y-162066921D01*
X85340198Y-162065482D01*
X85350000Y-162065000D01*
X86700000Y-162065000D01*
X86709802Y-162065482D01*
G37*
G04 #@! TD.AperFunction*
G04 #@! TA.AperFunction,SMDPad,CuDef*
G36*
X86709802Y-162715482D02*
G01*
X86719509Y-162716921D01*
X86729028Y-162719306D01*
X86738268Y-162722612D01*
X86747140Y-162726808D01*
X86755557Y-162731853D01*
X86763439Y-162737699D01*
X86770711Y-162744289D01*
X86777301Y-162751561D01*
X86783147Y-162759443D01*
X86788192Y-162767860D01*
X86792388Y-162776732D01*
X86795694Y-162785972D01*
X86798079Y-162795491D01*
X86799518Y-162805198D01*
X86800000Y-162815000D01*
X86800000Y-163015000D01*
X86799518Y-163024802D01*
X86798079Y-163034509D01*
X86795694Y-163044028D01*
X86792388Y-163053268D01*
X86788192Y-163062140D01*
X86783147Y-163070557D01*
X86777301Y-163078439D01*
X86770711Y-163085711D01*
X86763439Y-163092301D01*
X86755557Y-163098147D01*
X86747140Y-163103192D01*
X86738268Y-163107388D01*
X86729028Y-163110694D01*
X86719509Y-163113079D01*
X86709802Y-163114518D01*
X86700000Y-163115000D01*
X85350000Y-163115000D01*
X85340198Y-163114518D01*
X85330491Y-163113079D01*
X85320972Y-163110694D01*
X85311732Y-163107388D01*
X85302860Y-163103192D01*
X85294443Y-163098147D01*
X85286561Y-163092301D01*
X85279289Y-163085711D01*
X85272699Y-163078439D01*
X85266853Y-163070557D01*
X85261808Y-163062140D01*
X85257612Y-163053268D01*
X85254306Y-163044028D01*
X85251921Y-163034509D01*
X85250482Y-163024802D01*
X85250000Y-163015000D01*
X85250000Y-162815000D01*
X85250482Y-162805198D01*
X85251921Y-162795491D01*
X85254306Y-162785972D01*
X85257612Y-162776732D01*
X85261808Y-162767860D01*
X85266853Y-162759443D01*
X85272699Y-162751561D01*
X85279289Y-162744289D01*
X85286561Y-162737699D01*
X85294443Y-162731853D01*
X85302860Y-162726808D01*
X85311732Y-162722612D01*
X85320972Y-162719306D01*
X85330491Y-162716921D01*
X85340198Y-162715482D01*
X85350000Y-162715000D01*
X86700000Y-162715000D01*
X86709802Y-162715482D01*
G37*
G04 #@! TD.AperFunction*
G04 #@! TA.AperFunction,SMDPad,CuDef*
G36*
X86709802Y-163365482D02*
G01*
X86719509Y-163366921D01*
X86729028Y-163369306D01*
X86738268Y-163372612D01*
X86747140Y-163376808D01*
X86755557Y-163381853D01*
X86763439Y-163387699D01*
X86770711Y-163394289D01*
X86777301Y-163401561D01*
X86783147Y-163409443D01*
X86788192Y-163417860D01*
X86792388Y-163426732D01*
X86795694Y-163435972D01*
X86798079Y-163445491D01*
X86799518Y-163455198D01*
X86800000Y-163465000D01*
X86800000Y-163665000D01*
X86799518Y-163674802D01*
X86798079Y-163684509D01*
X86795694Y-163694028D01*
X86792388Y-163703268D01*
X86788192Y-163712140D01*
X86783147Y-163720557D01*
X86777301Y-163728439D01*
X86770711Y-163735711D01*
X86763439Y-163742301D01*
X86755557Y-163748147D01*
X86747140Y-163753192D01*
X86738268Y-163757388D01*
X86729028Y-163760694D01*
X86719509Y-163763079D01*
X86709802Y-163764518D01*
X86700000Y-163765000D01*
X85350000Y-163765000D01*
X85340198Y-163764518D01*
X85330491Y-163763079D01*
X85320972Y-163760694D01*
X85311732Y-163757388D01*
X85302860Y-163753192D01*
X85294443Y-163748147D01*
X85286561Y-163742301D01*
X85279289Y-163735711D01*
X85272699Y-163728439D01*
X85266853Y-163720557D01*
X85261808Y-163712140D01*
X85257612Y-163703268D01*
X85254306Y-163694028D01*
X85251921Y-163684509D01*
X85250482Y-163674802D01*
X85250000Y-163665000D01*
X85250000Y-163465000D01*
X85250482Y-163455198D01*
X85251921Y-163445491D01*
X85254306Y-163435972D01*
X85257612Y-163426732D01*
X85261808Y-163417860D01*
X85266853Y-163409443D01*
X85272699Y-163401561D01*
X85279289Y-163394289D01*
X85286561Y-163387699D01*
X85294443Y-163381853D01*
X85302860Y-163376808D01*
X85311732Y-163372612D01*
X85320972Y-163369306D01*
X85330491Y-163366921D01*
X85340198Y-163365482D01*
X85350000Y-163365000D01*
X86700000Y-163365000D01*
X86709802Y-163365482D01*
G37*
G04 #@! TD.AperFunction*
G04 #@! TA.AperFunction,SMDPad,CuDef*
G36*
X92459802Y-163365482D02*
G01*
X92469509Y-163366921D01*
X92479028Y-163369306D01*
X92488268Y-163372612D01*
X92497140Y-163376808D01*
X92505557Y-163381853D01*
X92513439Y-163387699D01*
X92520711Y-163394289D01*
X92527301Y-163401561D01*
X92533147Y-163409443D01*
X92538192Y-163417860D01*
X92542388Y-163426732D01*
X92545694Y-163435972D01*
X92548079Y-163445491D01*
X92549518Y-163455198D01*
X92550000Y-163465000D01*
X92550000Y-163665000D01*
X92549518Y-163674802D01*
X92548079Y-163684509D01*
X92545694Y-163694028D01*
X92542388Y-163703268D01*
X92538192Y-163712140D01*
X92533147Y-163720557D01*
X92527301Y-163728439D01*
X92520711Y-163735711D01*
X92513439Y-163742301D01*
X92505557Y-163748147D01*
X92497140Y-163753192D01*
X92488268Y-163757388D01*
X92479028Y-163760694D01*
X92469509Y-163763079D01*
X92459802Y-163764518D01*
X92450000Y-163765000D01*
X91100000Y-163765000D01*
X91090198Y-163764518D01*
X91080491Y-163763079D01*
X91070972Y-163760694D01*
X91061732Y-163757388D01*
X91052860Y-163753192D01*
X91044443Y-163748147D01*
X91036561Y-163742301D01*
X91029289Y-163735711D01*
X91022699Y-163728439D01*
X91016853Y-163720557D01*
X91011808Y-163712140D01*
X91007612Y-163703268D01*
X91004306Y-163694028D01*
X91001921Y-163684509D01*
X91000482Y-163674802D01*
X91000000Y-163665000D01*
X91000000Y-163465000D01*
X91000482Y-163455198D01*
X91001921Y-163445491D01*
X91004306Y-163435972D01*
X91007612Y-163426732D01*
X91011808Y-163417860D01*
X91016853Y-163409443D01*
X91022699Y-163401561D01*
X91029289Y-163394289D01*
X91036561Y-163387699D01*
X91044443Y-163381853D01*
X91052860Y-163376808D01*
X91061732Y-163372612D01*
X91070972Y-163369306D01*
X91080491Y-163366921D01*
X91090198Y-163365482D01*
X91100000Y-163365000D01*
X92450000Y-163365000D01*
X92459802Y-163365482D01*
G37*
G04 #@! TD.AperFunction*
G04 #@! TA.AperFunction,SMDPad,CuDef*
G36*
X92459802Y-162715482D02*
G01*
X92469509Y-162716921D01*
X92479028Y-162719306D01*
X92488268Y-162722612D01*
X92497140Y-162726808D01*
X92505557Y-162731853D01*
X92513439Y-162737699D01*
X92520711Y-162744289D01*
X92527301Y-162751561D01*
X92533147Y-162759443D01*
X92538192Y-162767860D01*
X92542388Y-162776732D01*
X92545694Y-162785972D01*
X92548079Y-162795491D01*
X92549518Y-162805198D01*
X92550000Y-162815000D01*
X92550000Y-163015000D01*
X92549518Y-163024802D01*
X92548079Y-163034509D01*
X92545694Y-163044028D01*
X92542388Y-163053268D01*
X92538192Y-163062140D01*
X92533147Y-163070557D01*
X92527301Y-163078439D01*
X92520711Y-163085711D01*
X92513439Y-163092301D01*
X92505557Y-163098147D01*
X92497140Y-163103192D01*
X92488268Y-163107388D01*
X92479028Y-163110694D01*
X92469509Y-163113079D01*
X92459802Y-163114518D01*
X92450000Y-163115000D01*
X91100000Y-163115000D01*
X91090198Y-163114518D01*
X91080491Y-163113079D01*
X91070972Y-163110694D01*
X91061732Y-163107388D01*
X91052860Y-163103192D01*
X91044443Y-163098147D01*
X91036561Y-163092301D01*
X91029289Y-163085711D01*
X91022699Y-163078439D01*
X91016853Y-163070557D01*
X91011808Y-163062140D01*
X91007612Y-163053268D01*
X91004306Y-163044028D01*
X91001921Y-163034509D01*
X91000482Y-163024802D01*
X91000000Y-163015000D01*
X91000000Y-162815000D01*
X91000482Y-162805198D01*
X91001921Y-162795491D01*
X91004306Y-162785972D01*
X91007612Y-162776732D01*
X91011808Y-162767860D01*
X91016853Y-162759443D01*
X91022699Y-162751561D01*
X91029289Y-162744289D01*
X91036561Y-162737699D01*
X91044443Y-162731853D01*
X91052860Y-162726808D01*
X91061732Y-162722612D01*
X91070972Y-162719306D01*
X91080491Y-162716921D01*
X91090198Y-162715482D01*
X91100000Y-162715000D01*
X92450000Y-162715000D01*
X92459802Y-162715482D01*
G37*
G04 #@! TD.AperFunction*
G04 #@! TA.AperFunction,SMDPad,CuDef*
G36*
X92459802Y-162065482D02*
G01*
X92469509Y-162066921D01*
X92479028Y-162069306D01*
X92488268Y-162072612D01*
X92497140Y-162076808D01*
X92505557Y-162081853D01*
X92513439Y-162087699D01*
X92520711Y-162094289D01*
X92527301Y-162101561D01*
X92533147Y-162109443D01*
X92538192Y-162117860D01*
X92542388Y-162126732D01*
X92545694Y-162135972D01*
X92548079Y-162145491D01*
X92549518Y-162155198D01*
X92550000Y-162165000D01*
X92550000Y-162365000D01*
X92549518Y-162374802D01*
X92548079Y-162384509D01*
X92545694Y-162394028D01*
X92542388Y-162403268D01*
X92538192Y-162412140D01*
X92533147Y-162420557D01*
X92527301Y-162428439D01*
X92520711Y-162435711D01*
X92513439Y-162442301D01*
X92505557Y-162448147D01*
X92497140Y-162453192D01*
X92488268Y-162457388D01*
X92479028Y-162460694D01*
X92469509Y-162463079D01*
X92459802Y-162464518D01*
X92450000Y-162465000D01*
X91100000Y-162465000D01*
X91090198Y-162464518D01*
X91080491Y-162463079D01*
X91070972Y-162460694D01*
X91061732Y-162457388D01*
X91052860Y-162453192D01*
X91044443Y-162448147D01*
X91036561Y-162442301D01*
X91029289Y-162435711D01*
X91022699Y-162428439D01*
X91016853Y-162420557D01*
X91011808Y-162412140D01*
X91007612Y-162403268D01*
X91004306Y-162394028D01*
X91001921Y-162384509D01*
X91000482Y-162374802D01*
X91000000Y-162365000D01*
X91000000Y-162165000D01*
X91000482Y-162155198D01*
X91001921Y-162145491D01*
X91004306Y-162135972D01*
X91007612Y-162126732D01*
X91011808Y-162117860D01*
X91016853Y-162109443D01*
X91022699Y-162101561D01*
X91029289Y-162094289D01*
X91036561Y-162087699D01*
X91044443Y-162081853D01*
X91052860Y-162076808D01*
X91061732Y-162072612D01*
X91070972Y-162069306D01*
X91080491Y-162066921D01*
X91090198Y-162065482D01*
X91100000Y-162065000D01*
X92450000Y-162065000D01*
X92459802Y-162065482D01*
G37*
G04 #@! TD.AperFunction*
G04 #@! TA.AperFunction,SMDPad,CuDef*
G36*
X92459802Y-161415482D02*
G01*
X92469509Y-161416921D01*
X92479028Y-161419306D01*
X92488268Y-161422612D01*
X92497140Y-161426808D01*
X92505557Y-161431853D01*
X92513439Y-161437699D01*
X92520711Y-161444289D01*
X92527301Y-161451561D01*
X92533147Y-161459443D01*
X92538192Y-161467860D01*
X92542388Y-161476732D01*
X92545694Y-161485972D01*
X92548079Y-161495491D01*
X92549518Y-161505198D01*
X92550000Y-161515000D01*
X92550000Y-161715000D01*
X92549518Y-161724802D01*
X92548079Y-161734509D01*
X92545694Y-161744028D01*
X92542388Y-161753268D01*
X92538192Y-161762140D01*
X92533147Y-161770557D01*
X92527301Y-161778439D01*
X92520711Y-161785711D01*
X92513439Y-161792301D01*
X92505557Y-161798147D01*
X92497140Y-161803192D01*
X92488268Y-161807388D01*
X92479028Y-161810694D01*
X92469509Y-161813079D01*
X92459802Y-161814518D01*
X92450000Y-161815000D01*
X91100000Y-161815000D01*
X91090198Y-161814518D01*
X91080491Y-161813079D01*
X91070972Y-161810694D01*
X91061732Y-161807388D01*
X91052860Y-161803192D01*
X91044443Y-161798147D01*
X91036561Y-161792301D01*
X91029289Y-161785711D01*
X91022699Y-161778439D01*
X91016853Y-161770557D01*
X91011808Y-161762140D01*
X91007612Y-161753268D01*
X91004306Y-161744028D01*
X91001921Y-161734509D01*
X91000482Y-161724802D01*
X91000000Y-161715000D01*
X91000000Y-161515000D01*
X91000482Y-161505198D01*
X91001921Y-161495491D01*
X91004306Y-161485972D01*
X91007612Y-161476732D01*
X91011808Y-161467860D01*
X91016853Y-161459443D01*
X91022699Y-161451561D01*
X91029289Y-161444289D01*
X91036561Y-161437699D01*
X91044443Y-161431853D01*
X91052860Y-161426808D01*
X91061732Y-161422612D01*
X91070972Y-161419306D01*
X91080491Y-161416921D01*
X91090198Y-161415482D01*
X91100000Y-161415000D01*
X92450000Y-161415000D01*
X92459802Y-161415482D01*
G37*
G04 #@! TD.AperFunction*
G04 #@! TA.AperFunction,SMDPad,CuDef*
G36*
X92459802Y-160765482D02*
G01*
X92469509Y-160766921D01*
X92479028Y-160769306D01*
X92488268Y-160772612D01*
X92497140Y-160776808D01*
X92505557Y-160781853D01*
X92513439Y-160787699D01*
X92520711Y-160794289D01*
X92527301Y-160801561D01*
X92533147Y-160809443D01*
X92538192Y-160817860D01*
X92542388Y-160826732D01*
X92545694Y-160835972D01*
X92548079Y-160845491D01*
X92549518Y-160855198D01*
X92550000Y-160865000D01*
X92550000Y-161065000D01*
X92549518Y-161074802D01*
X92548079Y-161084509D01*
X92545694Y-161094028D01*
X92542388Y-161103268D01*
X92538192Y-161112140D01*
X92533147Y-161120557D01*
X92527301Y-161128439D01*
X92520711Y-161135711D01*
X92513439Y-161142301D01*
X92505557Y-161148147D01*
X92497140Y-161153192D01*
X92488268Y-161157388D01*
X92479028Y-161160694D01*
X92469509Y-161163079D01*
X92459802Y-161164518D01*
X92450000Y-161165000D01*
X91100000Y-161165000D01*
X91090198Y-161164518D01*
X91080491Y-161163079D01*
X91070972Y-161160694D01*
X91061732Y-161157388D01*
X91052860Y-161153192D01*
X91044443Y-161148147D01*
X91036561Y-161142301D01*
X91029289Y-161135711D01*
X91022699Y-161128439D01*
X91016853Y-161120557D01*
X91011808Y-161112140D01*
X91007612Y-161103268D01*
X91004306Y-161094028D01*
X91001921Y-161084509D01*
X91000482Y-161074802D01*
X91000000Y-161065000D01*
X91000000Y-160865000D01*
X91000482Y-160855198D01*
X91001921Y-160845491D01*
X91004306Y-160835972D01*
X91007612Y-160826732D01*
X91011808Y-160817860D01*
X91016853Y-160809443D01*
X91022699Y-160801561D01*
X91029289Y-160794289D01*
X91036561Y-160787699D01*
X91044443Y-160781853D01*
X91052860Y-160776808D01*
X91061732Y-160772612D01*
X91070972Y-160769306D01*
X91080491Y-160766921D01*
X91090198Y-160765482D01*
X91100000Y-160765000D01*
X92450000Y-160765000D01*
X92459802Y-160765482D01*
G37*
G04 #@! TD.AperFunction*
G04 #@! TA.AperFunction,SMDPad,CuDef*
G36*
X92459802Y-160115482D02*
G01*
X92469509Y-160116921D01*
X92479028Y-160119306D01*
X92488268Y-160122612D01*
X92497140Y-160126808D01*
X92505557Y-160131853D01*
X92513439Y-160137699D01*
X92520711Y-160144289D01*
X92527301Y-160151561D01*
X92533147Y-160159443D01*
X92538192Y-160167860D01*
X92542388Y-160176732D01*
X92545694Y-160185972D01*
X92548079Y-160195491D01*
X92549518Y-160205198D01*
X92550000Y-160215000D01*
X92550000Y-160415000D01*
X92549518Y-160424802D01*
X92548079Y-160434509D01*
X92545694Y-160444028D01*
X92542388Y-160453268D01*
X92538192Y-160462140D01*
X92533147Y-160470557D01*
X92527301Y-160478439D01*
X92520711Y-160485711D01*
X92513439Y-160492301D01*
X92505557Y-160498147D01*
X92497140Y-160503192D01*
X92488268Y-160507388D01*
X92479028Y-160510694D01*
X92469509Y-160513079D01*
X92459802Y-160514518D01*
X92450000Y-160515000D01*
X91100000Y-160515000D01*
X91090198Y-160514518D01*
X91080491Y-160513079D01*
X91070972Y-160510694D01*
X91061732Y-160507388D01*
X91052860Y-160503192D01*
X91044443Y-160498147D01*
X91036561Y-160492301D01*
X91029289Y-160485711D01*
X91022699Y-160478439D01*
X91016853Y-160470557D01*
X91011808Y-160462140D01*
X91007612Y-160453268D01*
X91004306Y-160444028D01*
X91001921Y-160434509D01*
X91000482Y-160424802D01*
X91000000Y-160415000D01*
X91000000Y-160215000D01*
X91000482Y-160205198D01*
X91001921Y-160195491D01*
X91004306Y-160185972D01*
X91007612Y-160176732D01*
X91011808Y-160167860D01*
X91016853Y-160159443D01*
X91022699Y-160151561D01*
X91029289Y-160144289D01*
X91036561Y-160137699D01*
X91044443Y-160131853D01*
X91052860Y-160126808D01*
X91061732Y-160122612D01*
X91070972Y-160119306D01*
X91080491Y-160116921D01*
X91090198Y-160115482D01*
X91100000Y-160115000D01*
X92450000Y-160115000D01*
X92459802Y-160115482D01*
G37*
G04 #@! TD.AperFunction*
G04 #@! TA.AperFunction,SMDPad,CuDef*
G36*
X92459802Y-159465482D02*
G01*
X92469509Y-159466921D01*
X92479028Y-159469306D01*
X92488268Y-159472612D01*
X92497140Y-159476808D01*
X92505557Y-159481853D01*
X92513439Y-159487699D01*
X92520711Y-159494289D01*
X92527301Y-159501561D01*
X92533147Y-159509443D01*
X92538192Y-159517860D01*
X92542388Y-159526732D01*
X92545694Y-159535972D01*
X92548079Y-159545491D01*
X92549518Y-159555198D01*
X92550000Y-159565000D01*
X92550000Y-159765000D01*
X92549518Y-159774802D01*
X92548079Y-159784509D01*
X92545694Y-159794028D01*
X92542388Y-159803268D01*
X92538192Y-159812140D01*
X92533147Y-159820557D01*
X92527301Y-159828439D01*
X92520711Y-159835711D01*
X92513439Y-159842301D01*
X92505557Y-159848147D01*
X92497140Y-159853192D01*
X92488268Y-159857388D01*
X92479028Y-159860694D01*
X92469509Y-159863079D01*
X92459802Y-159864518D01*
X92450000Y-159865000D01*
X91100000Y-159865000D01*
X91090198Y-159864518D01*
X91080491Y-159863079D01*
X91070972Y-159860694D01*
X91061732Y-159857388D01*
X91052860Y-159853192D01*
X91044443Y-159848147D01*
X91036561Y-159842301D01*
X91029289Y-159835711D01*
X91022699Y-159828439D01*
X91016853Y-159820557D01*
X91011808Y-159812140D01*
X91007612Y-159803268D01*
X91004306Y-159794028D01*
X91001921Y-159784509D01*
X91000482Y-159774802D01*
X91000000Y-159765000D01*
X91000000Y-159565000D01*
X91000482Y-159555198D01*
X91001921Y-159545491D01*
X91004306Y-159535972D01*
X91007612Y-159526732D01*
X91011808Y-159517860D01*
X91016853Y-159509443D01*
X91022699Y-159501561D01*
X91029289Y-159494289D01*
X91036561Y-159487699D01*
X91044443Y-159481853D01*
X91052860Y-159476808D01*
X91061732Y-159472612D01*
X91070972Y-159469306D01*
X91080491Y-159466921D01*
X91090198Y-159465482D01*
X91100000Y-159465000D01*
X92450000Y-159465000D01*
X92459802Y-159465482D01*
G37*
G04 #@! TD.AperFunction*
G04 #@! TA.AperFunction,SMDPad,CuDef*
G36*
X92459802Y-158815482D02*
G01*
X92469509Y-158816921D01*
X92479028Y-158819306D01*
X92488268Y-158822612D01*
X92497140Y-158826808D01*
X92505557Y-158831853D01*
X92513439Y-158837699D01*
X92520711Y-158844289D01*
X92527301Y-158851561D01*
X92533147Y-158859443D01*
X92538192Y-158867860D01*
X92542388Y-158876732D01*
X92545694Y-158885972D01*
X92548079Y-158895491D01*
X92549518Y-158905198D01*
X92550000Y-158915000D01*
X92550000Y-159115000D01*
X92549518Y-159124802D01*
X92548079Y-159134509D01*
X92545694Y-159144028D01*
X92542388Y-159153268D01*
X92538192Y-159162140D01*
X92533147Y-159170557D01*
X92527301Y-159178439D01*
X92520711Y-159185711D01*
X92513439Y-159192301D01*
X92505557Y-159198147D01*
X92497140Y-159203192D01*
X92488268Y-159207388D01*
X92479028Y-159210694D01*
X92469509Y-159213079D01*
X92459802Y-159214518D01*
X92450000Y-159215000D01*
X91100000Y-159215000D01*
X91090198Y-159214518D01*
X91080491Y-159213079D01*
X91070972Y-159210694D01*
X91061732Y-159207388D01*
X91052860Y-159203192D01*
X91044443Y-159198147D01*
X91036561Y-159192301D01*
X91029289Y-159185711D01*
X91022699Y-159178439D01*
X91016853Y-159170557D01*
X91011808Y-159162140D01*
X91007612Y-159153268D01*
X91004306Y-159144028D01*
X91001921Y-159134509D01*
X91000482Y-159124802D01*
X91000000Y-159115000D01*
X91000000Y-158915000D01*
X91000482Y-158905198D01*
X91001921Y-158895491D01*
X91004306Y-158885972D01*
X91007612Y-158876732D01*
X91011808Y-158867860D01*
X91016853Y-158859443D01*
X91022699Y-158851561D01*
X91029289Y-158844289D01*
X91036561Y-158837699D01*
X91044443Y-158831853D01*
X91052860Y-158826808D01*
X91061732Y-158822612D01*
X91070972Y-158819306D01*
X91080491Y-158816921D01*
X91090198Y-158815482D01*
X91100000Y-158815000D01*
X92450000Y-158815000D01*
X92459802Y-158815482D01*
G37*
G04 #@! TD.AperFunction*
G04 #@! TA.AperFunction,SMDPad,CuDef*
G36*
X87899504Y-154701204D02*
G01*
X87923773Y-154704804D01*
X87947571Y-154710765D01*
X87970671Y-154719030D01*
X87992849Y-154729520D01*
X88013893Y-154742133D01*
X88033598Y-154756747D01*
X88051777Y-154773223D01*
X88068253Y-154791402D01*
X88082867Y-154811107D01*
X88095480Y-154832151D01*
X88105970Y-154854329D01*
X88114235Y-154877429D01*
X88120196Y-154901227D01*
X88123796Y-154925496D01*
X88125000Y-154950000D01*
X88125000Y-156200000D01*
X88123796Y-156224504D01*
X88120196Y-156248773D01*
X88114235Y-156272571D01*
X88105970Y-156295671D01*
X88095480Y-156317849D01*
X88082867Y-156338893D01*
X88068253Y-156358598D01*
X88051777Y-156376777D01*
X88033598Y-156393253D01*
X88013893Y-156407867D01*
X87992849Y-156420480D01*
X87970671Y-156430970D01*
X87947571Y-156439235D01*
X87923773Y-156445196D01*
X87899504Y-156448796D01*
X87875000Y-156450000D01*
X87125000Y-156450000D01*
X87100496Y-156448796D01*
X87076227Y-156445196D01*
X87052429Y-156439235D01*
X87029329Y-156430970D01*
X87007151Y-156420480D01*
X86986107Y-156407867D01*
X86966402Y-156393253D01*
X86948223Y-156376777D01*
X86931747Y-156358598D01*
X86917133Y-156338893D01*
X86904520Y-156317849D01*
X86894030Y-156295671D01*
X86885765Y-156272571D01*
X86879804Y-156248773D01*
X86876204Y-156224504D01*
X86875000Y-156200000D01*
X86875000Y-154950000D01*
X86876204Y-154925496D01*
X86879804Y-154901227D01*
X86885765Y-154877429D01*
X86894030Y-154854329D01*
X86904520Y-154832151D01*
X86917133Y-154811107D01*
X86931747Y-154791402D01*
X86948223Y-154773223D01*
X86966402Y-154756747D01*
X86986107Y-154742133D01*
X87007151Y-154729520D01*
X87029329Y-154719030D01*
X87052429Y-154710765D01*
X87076227Y-154704804D01*
X87100496Y-154701204D01*
X87125000Y-154700000D01*
X87875000Y-154700000D01*
X87899504Y-154701204D01*
G37*
G04 #@! TD.AperFunction*
G04 #@! TA.AperFunction,SMDPad,CuDef*
G36*
X90699504Y-154701204D02*
G01*
X90723773Y-154704804D01*
X90747571Y-154710765D01*
X90770671Y-154719030D01*
X90792849Y-154729520D01*
X90813893Y-154742133D01*
X90833598Y-154756747D01*
X90851777Y-154773223D01*
X90868253Y-154791402D01*
X90882867Y-154811107D01*
X90895480Y-154832151D01*
X90905970Y-154854329D01*
X90914235Y-154877429D01*
X90920196Y-154901227D01*
X90923796Y-154925496D01*
X90925000Y-154950000D01*
X90925000Y-156200000D01*
X90923796Y-156224504D01*
X90920196Y-156248773D01*
X90914235Y-156272571D01*
X90905970Y-156295671D01*
X90895480Y-156317849D01*
X90882867Y-156338893D01*
X90868253Y-156358598D01*
X90851777Y-156376777D01*
X90833598Y-156393253D01*
X90813893Y-156407867D01*
X90792849Y-156420480D01*
X90770671Y-156430970D01*
X90747571Y-156439235D01*
X90723773Y-156445196D01*
X90699504Y-156448796D01*
X90675000Y-156450000D01*
X89925000Y-156450000D01*
X89900496Y-156448796D01*
X89876227Y-156445196D01*
X89852429Y-156439235D01*
X89829329Y-156430970D01*
X89807151Y-156420480D01*
X89786107Y-156407867D01*
X89766402Y-156393253D01*
X89748223Y-156376777D01*
X89731747Y-156358598D01*
X89717133Y-156338893D01*
X89704520Y-156317849D01*
X89694030Y-156295671D01*
X89685765Y-156272571D01*
X89679804Y-156248773D01*
X89676204Y-156224504D01*
X89675000Y-156200000D01*
X89675000Y-154950000D01*
X89676204Y-154925496D01*
X89679804Y-154901227D01*
X89685765Y-154877429D01*
X89694030Y-154854329D01*
X89704520Y-154832151D01*
X89717133Y-154811107D01*
X89731747Y-154791402D01*
X89748223Y-154773223D01*
X89766402Y-154756747D01*
X89786107Y-154742133D01*
X89807151Y-154729520D01*
X89829329Y-154719030D01*
X89852429Y-154710765D01*
X89876227Y-154704804D01*
X89900496Y-154701204D01*
X89925000Y-154700000D01*
X90675000Y-154700000D01*
X90699504Y-154701204D01*
G37*
G04 #@! TD.AperFunction*
D15*
X98520000Y-151130000D03*
X94520000Y-151130000D03*
X79280000Y-151130000D03*
X83280000Y-151130000D03*
D16*
X90297000Y-155575000D03*
X83058000Y-151130000D03*
X98298000Y-151130000D03*
X99314000Y-151638000D03*
X99314000Y-150622000D03*
X84074000Y-151638000D03*
X84074000Y-150622000D03*
X88011000Y-167640000D03*
X96583500Y-159829500D03*
X96202500Y-162560000D03*
X96202500Y-173355000D03*
X96266000Y-167640000D03*
X89916000Y-167640000D03*
X83566000Y-167640000D03*
X94297500Y-157480000D03*
X89232500Y-173355000D03*
X83820000Y-173355000D03*
X94312500Y-167640000D03*
X84645500Y-165544500D03*
D17*
X93660520Y-161615000D02*
X95446020Y-159829500D01*
X91775000Y-161615000D02*
X93660520Y-161615000D01*
X95446020Y-159829500D02*
X96583500Y-159829500D01*
X96583500Y-159829500D02*
X96583500Y-159829500D01*
X96202500Y-163125685D02*
X96202500Y-162560000D01*
X91775000Y-163765000D02*
X92475000Y-164465000D01*
X96202500Y-163830000D02*
X96202500Y-163125685D01*
X91775000Y-163565000D02*
X91775000Y-163765000D01*
X92475000Y-164465000D02*
X95567500Y-164465000D01*
X95567500Y-164465000D02*
X96202500Y-163830000D01*
X83820000Y-173355000D02*
X83820000Y-173355000D01*
X83820000Y-172212000D02*
X84582000Y-171450000D01*
X84582000Y-171450000D02*
X88646000Y-171450000D01*
X89232500Y-172036500D02*
X89232500Y-173355000D01*
X88646000Y-171450000D02*
X89232500Y-172036500D01*
X89232500Y-173355000D02*
X89232500Y-173355000D01*
X83820000Y-173355000D02*
X83820000Y-172212000D01*
D18*
X86025000Y-159015000D02*
X86025000Y-159665000D01*
X91775000Y-159665000D02*
X91775000Y-159015000D01*
D17*
X90424000Y-164846000D02*
X93218000Y-167640000D01*
X90424000Y-163171820D02*
X90424000Y-164846000D01*
X93218000Y-167640000D02*
X94312500Y-167640000D01*
X91775000Y-162915000D02*
X90680820Y-162915000D01*
X90680820Y-162915000D02*
X90424000Y-163171820D01*
X94312500Y-167640000D02*
X94312500Y-167640000D01*
X86025000Y-162915000D02*
X86025000Y-162958500D01*
X85146822Y-162974490D02*
X84645500Y-163475812D01*
X86009010Y-162974490D02*
X85146822Y-162974490D01*
X86025000Y-162958500D02*
X86009010Y-162974490D01*
X84645500Y-163475812D02*
X84645500Y-165544500D01*
X84645500Y-165544500D02*
X84645500Y-165544500D01*
X80048100Y-171450000D02*
X77470000Y-171450000D01*
X81953100Y-173355000D02*
X80048100Y-171450000D01*
X98602800Y-171450000D02*
X100330000Y-171450000D01*
X85695000Y-173355000D02*
X87803200Y-175463200D01*
X96875600Y-175463200D02*
X98094800Y-174244000D01*
X98094800Y-174244000D02*
X98094800Y-171958000D01*
X87803200Y-175463200D02*
X96875600Y-175463200D01*
X98094800Y-171958000D02*
X98602800Y-171450000D01*
X93352500Y-160315000D02*
X96187500Y-157480000D01*
X91775000Y-160315000D02*
X93352500Y-160315000D01*
X100330000Y-158750000D02*
X98806000Y-158750000D01*
X97536000Y-157480000D02*
X96187500Y-157480000D01*
X98806000Y-158750000D02*
X97536000Y-157480000D01*
X86025000Y-160315000D02*
X82509000Y-160315000D01*
X81612500Y-161211500D02*
X81612500Y-162560000D01*
X82509000Y-160315000D02*
X81612500Y-161211500D01*
X83487500Y-159336500D02*
X83487500Y-157480000D01*
X82509000Y-160315000D02*
X83487500Y-159336500D01*
X84432500Y-161615000D02*
X83487500Y-162560000D01*
X86025000Y-161615000D02*
X84432500Y-161615000D01*
X81612500Y-167640000D02*
X81612500Y-166418500D01*
X83487500Y-164543500D02*
X83487500Y-162560000D01*
X81612500Y-166418500D02*
X83487500Y-164543500D01*
X94017500Y-162265000D02*
X94312500Y-162560000D01*
X91775000Y-162265000D02*
X94017500Y-162265000D01*
X87925000Y-162265000D02*
X88900000Y-161290000D01*
X86025000Y-162265000D02*
X87925000Y-162265000D01*
X88900000Y-162790000D02*
X88900000Y-161290000D01*
X86225000Y-163765000D02*
X87925000Y-163765000D01*
X87925000Y-163765000D02*
X88900000Y-162790000D01*
X86025000Y-163565000D02*
X86225000Y-163765000D01*
X91107500Y-173355000D02*
X94312500Y-173355000D01*
D19*
G36*
X88138000Y-138973072D02*
G01*
X88096038Y-138910271D01*
X87784729Y-138598962D01*
X87418669Y-138354369D01*
X87011925Y-138185890D01*
X86580128Y-138100000D01*
X86139872Y-138100000D01*
X85708075Y-138185890D01*
X85301331Y-138354369D01*
X84935271Y-138598962D01*
X84623962Y-138910271D01*
X84379369Y-139276331D01*
X84210890Y-139683075D01*
X84125000Y-140114872D01*
X84125000Y-140555128D01*
X84210890Y-140986925D01*
X84379369Y-141393669D01*
X84623962Y-141759729D01*
X84935271Y-142071038D01*
X85301331Y-142315631D01*
X85708075Y-142484110D01*
X86139872Y-142570000D01*
X86580128Y-142570000D01*
X87011925Y-142484110D01*
X87418669Y-142315631D01*
X87784729Y-142071038D01*
X88096038Y-141759729D01*
X88138000Y-141696928D01*
X88138000Y-154063208D01*
X88125000Y-154061928D01*
X87785750Y-154065000D01*
X87627000Y-154223750D01*
X87627000Y-155448000D01*
X87647000Y-155448000D01*
X87647000Y-155702000D01*
X87627000Y-155702000D01*
X87627000Y-156926250D01*
X87785750Y-157085000D01*
X88125000Y-157088072D01*
X88138000Y-157086792D01*
X88138000Y-159151928D01*
X87649999Y-159151928D01*
X87476745Y-159168992D01*
X87385056Y-159196806D01*
X87367757Y-159179507D01*
X87325331Y-159102835D01*
X87244582Y-159007307D01*
X87162604Y-158942000D01*
X87276250Y-158942000D01*
X87435000Y-158783250D01*
X87423937Y-158681439D01*
X87385892Y-158562281D01*
X87325331Y-158452835D01*
X87244582Y-158357307D01*
X87146748Y-158279368D01*
X87035589Y-158222013D01*
X86915376Y-158187446D01*
X86790729Y-158176995D01*
X86310750Y-158180000D01*
X86152000Y-158338750D01*
X86152000Y-158942000D01*
X86198750Y-158942000D01*
X86152000Y-158988750D01*
X86152000Y-159162000D01*
X85898000Y-159162000D01*
X85898000Y-158988750D01*
X85851250Y-158942000D01*
X85898000Y-158942000D01*
X85898000Y-158338750D01*
X85739250Y-158180000D01*
X85259271Y-158176995D01*
X85134624Y-158187446D01*
X85014411Y-158222013D01*
X84903252Y-158279368D01*
X84805418Y-158357307D01*
X84724669Y-158452835D01*
X84664108Y-158562281D01*
X84626063Y-158681439D01*
X84615000Y-158783250D01*
X84773750Y-158942000D01*
X84887396Y-158942000D01*
X84805418Y-159007307D01*
X84724669Y-159102835D01*
X84682243Y-159179507D01*
X84615000Y-159246750D01*
X84625133Y-159340000D01*
X84615000Y-159433250D01*
X84671250Y-159489500D01*
X84301925Y-159489500D01*
X84313000Y-159377053D01*
X84313000Y-159377051D01*
X84316994Y-159336500D01*
X84313000Y-159295950D01*
X84313000Y-158594090D01*
X84354792Y-158559792D01*
X84464458Y-158426164D01*
X84545947Y-158273709D01*
X84596128Y-158108285D01*
X84613072Y-157936250D01*
X84613072Y-157023750D01*
X84596128Y-156851715D01*
X84545947Y-156686291D01*
X84464458Y-156533836D01*
X84395656Y-156450000D01*
X86236928Y-156450000D01*
X86249188Y-156574482D01*
X86285498Y-156694180D01*
X86344463Y-156804494D01*
X86423815Y-156901185D01*
X86520506Y-156980537D01*
X86630820Y-157039502D01*
X86750518Y-157075812D01*
X86875000Y-157088072D01*
X87214250Y-157085000D01*
X87373000Y-156926250D01*
X87373000Y-155702000D01*
X86398750Y-155702000D01*
X86240000Y-155860750D01*
X86236928Y-156450000D01*
X84395656Y-156450000D01*
X84354792Y-156400208D01*
X84221164Y-156290542D01*
X84068709Y-156209053D01*
X83903285Y-156158872D01*
X83731250Y-156141928D01*
X83243750Y-156141928D01*
X83071715Y-156158872D01*
X82906291Y-156209053D01*
X82753836Y-156290542D01*
X82620208Y-156400208D01*
X82614992Y-156406564D01*
X82551185Y-156328815D01*
X82454494Y-156249463D01*
X82344180Y-156190498D01*
X82224482Y-156154188D01*
X82100000Y-156141928D01*
X81898250Y-156145000D01*
X81739500Y-156303750D01*
X81739500Y-157353000D01*
X81759500Y-157353000D01*
X81759500Y-157607000D01*
X81739500Y-157607000D01*
X81739500Y-158656250D01*
X81898250Y-158815000D01*
X82100000Y-158818072D01*
X82224482Y-158805812D01*
X82344180Y-158769502D01*
X82454494Y-158710537D01*
X82551185Y-158631185D01*
X82614992Y-158553436D01*
X82620208Y-158559792D01*
X82662000Y-158594090D01*
X82662000Y-158994567D01*
X81953966Y-159702602D01*
X81922459Y-159728459D01*
X81896608Y-159759959D01*
X81763567Y-159893000D01*
X78427107Y-159893000D01*
X78623475Y-159696632D01*
X78785990Y-159453411D01*
X78897932Y-159183158D01*
X78955000Y-158896260D01*
X78955000Y-158603740D01*
X78897932Y-158316842D01*
X78841251Y-158180000D01*
X80486928Y-158180000D01*
X80499188Y-158304482D01*
X80535498Y-158424180D01*
X80594463Y-158534494D01*
X80673815Y-158631185D01*
X80770506Y-158710537D01*
X80880820Y-158769502D01*
X81000518Y-158805812D01*
X81125000Y-158818072D01*
X81326750Y-158815000D01*
X81485500Y-158656250D01*
X81485500Y-157607000D01*
X80648750Y-157607000D01*
X80490000Y-157765750D01*
X80486928Y-158180000D01*
X78841251Y-158180000D01*
X78785990Y-158046589D01*
X78623475Y-157803368D01*
X78491620Y-157671513D01*
X78564180Y-157649502D01*
X78674494Y-157590537D01*
X78771185Y-157511185D01*
X78850537Y-157414494D01*
X78909502Y-157304180D01*
X78945812Y-157184482D01*
X78958072Y-157060000D01*
X78958072Y-156780000D01*
X80486928Y-156780000D01*
X80490000Y-157194250D01*
X80648750Y-157353000D01*
X81485500Y-157353000D01*
X81485500Y-156303750D01*
X81326750Y-156145000D01*
X81125000Y-156141928D01*
X81000518Y-156154188D01*
X80880820Y-156190498D01*
X80770506Y-156249463D01*
X80673815Y-156328815D01*
X80594463Y-156425506D01*
X80535498Y-156535820D01*
X80499188Y-156655518D01*
X80486928Y-156780000D01*
X78958072Y-156780000D01*
X78958072Y-155360000D01*
X78945812Y-155235518D01*
X78909502Y-155115820D01*
X78850537Y-155005506D01*
X78771185Y-154908815D01*
X78674494Y-154829463D01*
X78564180Y-154770498D01*
X78444482Y-154734188D01*
X78320000Y-154721928D01*
X76860000Y-154721928D01*
X76860000Y-154700000D01*
X86236928Y-154700000D01*
X86240000Y-155289250D01*
X86398750Y-155448000D01*
X87373000Y-155448000D01*
X87373000Y-154223750D01*
X87214250Y-154065000D01*
X86875000Y-154061928D01*
X86750518Y-154074188D01*
X86630820Y-154110498D01*
X86520506Y-154169463D01*
X86423815Y-154248815D01*
X86344463Y-154345506D01*
X86285498Y-154455820D01*
X86249188Y-154575518D01*
X86236928Y-154700000D01*
X76860000Y-154700000D01*
X76860000Y-152030000D01*
X77391928Y-152030000D01*
X77404188Y-152154482D01*
X77440498Y-152274180D01*
X77499463Y-152384494D01*
X77578815Y-152481185D01*
X77675506Y-152560537D01*
X77785820Y-152619502D01*
X77905518Y-152655812D01*
X78030000Y-152668072D01*
X78994250Y-152665000D01*
X79153000Y-152506250D01*
X79153000Y-151257000D01*
X79407000Y-151257000D01*
X79407000Y-152506250D01*
X79565750Y-152665000D01*
X80530000Y-152668072D01*
X80654482Y-152655812D01*
X80774180Y-152619502D01*
X80884494Y-152560537D01*
X80981185Y-152481185D01*
X81060537Y-152384494D01*
X81119502Y-152274180D01*
X81155812Y-152154482D01*
X81168072Y-152030000D01*
X81165000Y-151415750D01*
X81006250Y-151257000D01*
X79407000Y-151257000D01*
X79153000Y-151257000D01*
X77553750Y-151257000D01*
X77395000Y-151415750D01*
X77391928Y-152030000D01*
X76860000Y-152030000D01*
X76860000Y-150230000D01*
X77391928Y-150230000D01*
X77395000Y-150844250D01*
X77553750Y-151003000D01*
X79153000Y-151003000D01*
X79153000Y-149753750D01*
X79407000Y-149753750D01*
X79407000Y-151003000D01*
X81006250Y-151003000D01*
X81165000Y-150844250D01*
X81168072Y-150230000D01*
X81391928Y-150230000D01*
X81391928Y-152030000D01*
X81404188Y-152154482D01*
X81440498Y-152274180D01*
X81499463Y-152384494D01*
X81578815Y-152481185D01*
X81675506Y-152560537D01*
X81785820Y-152619502D01*
X81905518Y-152655812D01*
X82030000Y-152668072D01*
X83947286Y-152668072D01*
X83972061Y-152673000D01*
X84175939Y-152673000D01*
X84200714Y-152668072D01*
X84530000Y-152668072D01*
X84654482Y-152655812D01*
X84774180Y-152619502D01*
X84884494Y-152560537D01*
X84981185Y-152481185D01*
X85060537Y-152384494D01*
X85119502Y-152274180D01*
X85155812Y-152154482D01*
X85168072Y-152030000D01*
X85168072Y-150230000D01*
X85155812Y-150105518D01*
X85119502Y-149985820D01*
X85060537Y-149875506D01*
X84981185Y-149778815D01*
X84884494Y-149699463D01*
X84774180Y-149640498D01*
X84654482Y-149604188D01*
X84530000Y-149591928D01*
X84200714Y-149591928D01*
X84175939Y-149587000D01*
X83972061Y-149587000D01*
X83947286Y-149591928D01*
X82030000Y-149591928D01*
X81905518Y-149604188D01*
X81785820Y-149640498D01*
X81675506Y-149699463D01*
X81578815Y-149778815D01*
X81499463Y-149875506D01*
X81440498Y-149985820D01*
X81404188Y-150105518D01*
X81391928Y-150230000D01*
X81168072Y-150230000D01*
X81155812Y-150105518D01*
X81119502Y-149985820D01*
X81060537Y-149875506D01*
X80981185Y-149778815D01*
X80884494Y-149699463D01*
X80774180Y-149640498D01*
X80654482Y-149604188D01*
X80530000Y-149591928D01*
X79565750Y-149595000D01*
X79407000Y-149753750D01*
X79153000Y-149753750D01*
X78994250Y-149595000D01*
X78030000Y-149591928D01*
X77905518Y-149604188D01*
X77785820Y-149640498D01*
X77675506Y-149699463D01*
X77578815Y-149778815D01*
X77499463Y-149875506D01*
X77440498Y-149985820D01*
X77404188Y-150105518D01*
X77391928Y-150230000D01*
X76860000Y-150230000D01*
X76860000Y-141897845D01*
X79896761Y-141897845D01*
X80064802Y-142223643D01*
X80456607Y-142424426D01*
X80880055Y-142544914D01*
X81318873Y-142580476D01*
X81756197Y-142529746D01*
X82175221Y-142394674D01*
X82495198Y-142223643D01*
X82663239Y-141897845D01*
X81280000Y-140514605D01*
X79896761Y-141897845D01*
X76860000Y-141897845D01*
X76860000Y-140373873D01*
X79034524Y-140373873D01*
X79085254Y-140811197D01*
X79220326Y-141230221D01*
X79391357Y-141550198D01*
X79717155Y-141718239D01*
X81100395Y-140335000D01*
X81459605Y-140335000D01*
X82842845Y-141718239D01*
X83168643Y-141550198D01*
X83369426Y-141158393D01*
X83489914Y-140734945D01*
X83525476Y-140296127D01*
X83474746Y-139858803D01*
X83339674Y-139439779D01*
X83168643Y-139119802D01*
X82842845Y-138951761D01*
X81459605Y-140335000D01*
X81100395Y-140335000D01*
X79717155Y-138951761D01*
X79391357Y-139119802D01*
X79190574Y-139511607D01*
X79070086Y-139935055D01*
X79034524Y-140373873D01*
X76860000Y-140373873D01*
X76860000Y-138772155D01*
X79896761Y-138772155D01*
X81280000Y-140155395D01*
X82663239Y-138772155D01*
X82495198Y-138446357D01*
X82103393Y-138245574D01*
X81679945Y-138125086D01*
X81241127Y-138089524D01*
X80803803Y-138140254D01*
X80384779Y-138275326D01*
X80064802Y-138446357D01*
X79896761Y-138772155D01*
X76860000Y-138772155D01*
X76860000Y-135534000D01*
X88138000Y-135534000D01*
X88138000Y-138973072D01*
G37*
X88138000Y-138973072D02*
X88096038Y-138910271D01*
X87784729Y-138598962D01*
X87418669Y-138354369D01*
X87011925Y-138185890D01*
X86580128Y-138100000D01*
X86139872Y-138100000D01*
X85708075Y-138185890D01*
X85301331Y-138354369D01*
X84935271Y-138598962D01*
X84623962Y-138910271D01*
X84379369Y-139276331D01*
X84210890Y-139683075D01*
X84125000Y-140114872D01*
X84125000Y-140555128D01*
X84210890Y-140986925D01*
X84379369Y-141393669D01*
X84623962Y-141759729D01*
X84935271Y-142071038D01*
X85301331Y-142315631D01*
X85708075Y-142484110D01*
X86139872Y-142570000D01*
X86580128Y-142570000D01*
X87011925Y-142484110D01*
X87418669Y-142315631D01*
X87784729Y-142071038D01*
X88096038Y-141759729D01*
X88138000Y-141696928D01*
X88138000Y-154063208D01*
X88125000Y-154061928D01*
X87785750Y-154065000D01*
X87627000Y-154223750D01*
X87627000Y-155448000D01*
X87647000Y-155448000D01*
X87647000Y-155702000D01*
X87627000Y-155702000D01*
X87627000Y-156926250D01*
X87785750Y-157085000D01*
X88125000Y-157088072D01*
X88138000Y-157086792D01*
X88138000Y-159151928D01*
X87649999Y-159151928D01*
X87476745Y-159168992D01*
X87385056Y-159196806D01*
X87367757Y-159179507D01*
X87325331Y-159102835D01*
X87244582Y-159007307D01*
X87162604Y-158942000D01*
X87276250Y-158942000D01*
X87435000Y-158783250D01*
X87423937Y-158681439D01*
X87385892Y-158562281D01*
X87325331Y-158452835D01*
X87244582Y-158357307D01*
X87146748Y-158279368D01*
X87035589Y-158222013D01*
X86915376Y-158187446D01*
X86790729Y-158176995D01*
X86310750Y-158180000D01*
X86152000Y-158338750D01*
X86152000Y-158942000D01*
X86198750Y-158942000D01*
X86152000Y-158988750D01*
X86152000Y-159162000D01*
X85898000Y-159162000D01*
X85898000Y-158988750D01*
X85851250Y-158942000D01*
X85898000Y-158942000D01*
X85898000Y-158338750D01*
X85739250Y-158180000D01*
X85259271Y-158176995D01*
X85134624Y-158187446D01*
X85014411Y-158222013D01*
X84903252Y-158279368D01*
X84805418Y-158357307D01*
X84724669Y-158452835D01*
X84664108Y-158562281D01*
X84626063Y-158681439D01*
X84615000Y-158783250D01*
X84773750Y-158942000D01*
X84887396Y-158942000D01*
X84805418Y-159007307D01*
X84724669Y-159102835D01*
X84682243Y-159179507D01*
X84615000Y-159246750D01*
X84625133Y-159340000D01*
X84615000Y-159433250D01*
X84671250Y-159489500D01*
X84301925Y-159489500D01*
X84313000Y-159377053D01*
X84313000Y-159377051D01*
X84316994Y-159336500D01*
X84313000Y-159295950D01*
X84313000Y-158594090D01*
X84354792Y-158559792D01*
X84464458Y-158426164D01*
X84545947Y-158273709D01*
X84596128Y-158108285D01*
X84613072Y-157936250D01*
X84613072Y-157023750D01*
X84596128Y-156851715D01*
X84545947Y-156686291D01*
X84464458Y-156533836D01*
X84395656Y-156450000D01*
X86236928Y-156450000D01*
X86249188Y-156574482D01*
X86285498Y-156694180D01*
X86344463Y-156804494D01*
X86423815Y-156901185D01*
X86520506Y-156980537D01*
X86630820Y-157039502D01*
X86750518Y-157075812D01*
X86875000Y-157088072D01*
X87214250Y-157085000D01*
X87373000Y-156926250D01*
X87373000Y-155702000D01*
X86398750Y-155702000D01*
X86240000Y-155860750D01*
X86236928Y-156450000D01*
X84395656Y-156450000D01*
X84354792Y-156400208D01*
X84221164Y-156290542D01*
X84068709Y-156209053D01*
X83903285Y-156158872D01*
X83731250Y-156141928D01*
X83243750Y-156141928D01*
X83071715Y-156158872D01*
X82906291Y-156209053D01*
X82753836Y-156290542D01*
X82620208Y-156400208D01*
X82614992Y-156406564D01*
X82551185Y-156328815D01*
X82454494Y-156249463D01*
X82344180Y-156190498D01*
X82224482Y-156154188D01*
X82100000Y-156141928D01*
X81898250Y-156145000D01*
X81739500Y-156303750D01*
X81739500Y-157353000D01*
X81759500Y-157353000D01*
X81759500Y-157607000D01*
X81739500Y-157607000D01*
X81739500Y-158656250D01*
X81898250Y-158815000D01*
X82100000Y-158818072D01*
X82224482Y-158805812D01*
X82344180Y-158769502D01*
X82454494Y-158710537D01*
X82551185Y-158631185D01*
X82614992Y-158553436D01*
X82620208Y-158559792D01*
X82662000Y-158594090D01*
X82662000Y-158994567D01*
X81953966Y-159702602D01*
X81922459Y-159728459D01*
X81896608Y-159759959D01*
X81763567Y-159893000D01*
X78427107Y-159893000D01*
X78623475Y-159696632D01*
X78785990Y-159453411D01*
X78897932Y-159183158D01*
X78955000Y-158896260D01*
X78955000Y-158603740D01*
X78897932Y-158316842D01*
X78841251Y-158180000D01*
X80486928Y-158180000D01*
X80499188Y-158304482D01*
X80535498Y-158424180D01*
X80594463Y-158534494D01*
X80673815Y-158631185D01*
X80770506Y-158710537D01*
X80880820Y-158769502D01*
X81000518Y-158805812D01*
X81125000Y-158818072D01*
X81326750Y-158815000D01*
X81485500Y-158656250D01*
X81485500Y-157607000D01*
X80648750Y-157607000D01*
X80490000Y-157765750D01*
X80486928Y-158180000D01*
X78841251Y-158180000D01*
X78785990Y-158046589D01*
X78623475Y-157803368D01*
X78491620Y-157671513D01*
X78564180Y-157649502D01*
X78674494Y-157590537D01*
X78771185Y-157511185D01*
X78850537Y-157414494D01*
X78909502Y-157304180D01*
X78945812Y-157184482D01*
X78958072Y-157060000D01*
X78958072Y-156780000D01*
X80486928Y-156780000D01*
X80490000Y-157194250D01*
X80648750Y-157353000D01*
X81485500Y-157353000D01*
X81485500Y-156303750D01*
X81326750Y-156145000D01*
X81125000Y-156141928D01*
X81000518Y-156154188D01*
X80880820Y-156190498D01*
X80770506Y-156249463D01*
X80673815Y-156328815D01*
X80594463Y-156425506D01*
X80535498Y-156535820D01*
X80499188Y-156655518D01*
X80486928Y-156780000D01*
X78958072Y-156780000D01*
X78958072Y-155360000D01*
X78945812Y-155235518D01*
X78909502Y-155115820D01*
X78850537Y-155005506D01*
X78771185Y-154908815D01*
X78674494Y-154829463D01*
X78564180Y-154770498D01*
X78444482Y-154734188D01*
X78320000Y-154721928D01*
X76860000Y-154721928D01*
X76860000Y-154700000D01*
X86236928Y-154700000D01*
X86240000Y-155289250D01*
X86398750Y-155448000D01*
X87373000Y-155448000D01*
X87373000Y-154223750D01*
X87214250Y-154065000D01*
X86875000Y-154061928D01*
X86750518Y-154074188D01*
X86630820Y-154110498D01*
X86520506Y-154169463D01*
X86423815Y-154248815D01*
X86344463Y-154345506D01*
X86285498Y-154455820D01*
X86249188Y-154575518D01*
X86236928Y-154700000D01*
X76860000Y-154700000D01*
X76860000Y-152030000D01*
X77391928Y-152030000D01*
X77404188Y-152154482D01*
X77440498Y-152274180D01*
X77499463Y-152384494D01*
X77578815Y-152481185D01*
X77675506Y-152560537D01*
X77785820Y-152619502D01*
X77905518Y-152655812D01*
X78030000Y-152668072D01*
X78994250Y-152665000D01*
X79153000Y-152506250D01*
X79153000Y-151257000D01*
X79407000Y-151257000D01*
X79407000Y-152506250D01*
X79565750Y-152665000D01*
X80530000Y-152668072D01*
X80654482Y-152655812D01*
X80774180Y-152619502D01*
X80884494Y-152560537D01*
X80981185Y-152481185D01*
X81060537Y-152384494D01*
X81119502Y-152274180D01*
X81155812Y-152154482D01*
X81168072Y-152030000D01*
X81165000Y-151415750D01*
X81006250Y-151257000D01*
X79407000Y-151257000D01*
X79153000Y-151257000D01*
X77553750Y-151257000D01*
X77395000Y-151415750D01*
X77391928Y-152030000D01*
X76860000Y-152030000D01*
X76860000Y-150230000D01*
X77391928Y-150230000D01*
X77395000Y-150844250D01*
X77553750Y-151003000D01*
X79153000Y-151003000D01*
X79153000Y-149753750D01*
X79407000Y-149753750D01*
X79407000Y-151003000D01*
X81006250Y-151003000D01*
X81165000Y-150844250D01*
X81168072Y-150230000D01*
X81391928Y-150230000D01*
X81391928Y-152030000D01*
X81404188Y-152154482D01*
X81440498Y-152274180D01*
X81499463Y-152384494D01*
X81578815Y-152481185D01*
X81675506Y-152560537D01*
X81785820Y-152619502D01*
X81905518Y-152655812D01*
X82030000Y-152668072D01*
X83947286Y-152668072D01*
X83972061Y-152673000D01*
X84175939Y-152673000D01*
X84200714Y-152668072D01*
X84530000Y-152668072D01*
X84654482Y-152655812D01*
X84774180Y-152619502D01*
X84884494Y-152560537D01*
X84981185Y-152481185D01*
X85060537Y-152384494D01*
X85119502Y-152274180D01*
X85155812Y-152154482D01*
X85168072Y-152030000D01*
X85168072Y-150230000D01*
X85155812Y-150105518D01*
X85119502Y-149985820D01*
X85060537Y-149875506D01*
X84981185Y-149778815D01*
X84884494Y-149699463D01*
X84774180Y-149640498D01*
X84654482Y-149604188D01*
X84530000Y-149591928D01*
X84200714Y-149591928D01*
X84175939Y-149587000D01*
X83972061Y-149587000D01*
X83947286Y-149591928D01*
X82030000Y-149591928D01*
X81905518Y-149604188D01*
X81785820Y-149640498D01*
X81675506Y-149699463D01*
X81578815Y-149778815D01*
X81499463Y-149875506D01*
X81440498Y-149985820D01*
X81404188Y-150105518D01*
X81391928Y-150230000D01*
X81168072Y-150230000D01*
X81155812Y-150105518D01*
X81119502Y-149985820D01*
X81060537Y-149875506D01*
X80981185Y-149778815D01*
X80884494Y-149699463D01*
X80774180Y-149640498D01*
X80654482Y-149604188D01*
X80530000Y-149591928D01*
X79565750Y-149595000D01*
X79407000Y-149753750D01*
X79153000Y-149753750D01*
X78994250Y-149595000D01*
X78030000Y-149591928D01*
X77905518Y-149604188D01*
X77785820Y-149640498D01*
X77675506Y-149699463D01*
X77578815Y-149778815D01*
X77499463Y-149875506D01*
X77440498Y-149985820D01*
X77404188Y-150105518D01*
X77391928Y-150230000D01*
X76860000Y-150230000D01*
X76860000Y-141897845D01*
X79896761Y-141897845D01*
X80064802Y-142223643D01*
X80456607Y-142424426D01*
X80880055Y-142544914D01*
X81318873Y-142580476D01*
X81756197Y-142529746D01*
X82175221Y-142394674D01*
X82495198Y-142223643D01*
X82663239Y-141897845D01*
X81280000Y-140514605D01*
X79896761Y-141897845D01*
X76860000Y-141897845D01*
X76860000Y-140373873D01*
X79034524Y-140373873D01*
X79085254Y-140811197D01*
X79220326Y-141230221D01*
X79391357Y-141550198D01*
X79717155Y-141718239D01*
X81100395Y-140335000D01*
X81459605Y-140335000D01*
X82842845Y-141718239D01*
X83168643Y-141550198D01*
X83369426Y-141158393D01*
X83489914Y-140734945D01*
X83525476Y-140296127D01*
X83474746Y-139858803D01*
X83339674Y-139439779D01*
X83168643Y-139119802D01*
X82842845Y-138951761D01*
X81459605Y-140335000D01*
X81100395Y-140335000D01*
X79717155Y-138951761D01*
X79391357Y-139119802D01*
X79190574Y-139511607D01*
X79070086Y-139935055D01*
X79034524Y-140373873D01*
X76860000Y-140373873D01*
X76860000Y-138772155D01*
X79896761Y-138772155D01*
X81280000Y-140155395D01*
X82663239Y-138772155D01*
X82495198Y-138446357D01*
X82103393Y-138245574D01*
X81679945Y-138125086D01*
X81241127Y-138089524D01*
X80803803Y-138140254D01*
X80384779Y-138275326D01*
X80064802Y-138446357D01*
X79896761Y-138772155D01*
X76860000Y-138772155D01*
X76860000Y-135534000D01*
X88138000Y-135534000D01*
X88138000Y-138973072D01*
G36*
X100940000Y-154721928D02*
G01*
X99480000Y-154721928D01*
X99355518Y-154734188D01*
X99235820Y-154770498D01*
X99125506Y-154829463D01*
X99028815Y-154908815D01*
X98949463Y-155005506D01*
X98890498Y-155115820D01*
X98854188Y-155235518D01*
X98841928Y-155360000D01*
X98841928Y-157060000D01*
X98854188Y-157184482D01*
X98890498Y-157304180D01*
X98949463Y-157414494D01*
X99028815Y-157511185D01*
X99125506Y-157590537D01*
X99235820Y-157649502D01*
X99308380Y-157671513D01*
X99176525Y-157803368D01*
X99116554Y-157893121D01*
X98148398Y-156924966D01*
X98122541Y-156893459D01*
X97996842Y-156790301D01*
X97853434Y-156713647D01*
X97697826Y-156666444D01*
X97576553Y-156654500D01*
X97576550Y-156654500D01*
X97536000Y-156650506D01*
X97495450Y-156654500D01*
X97228954Y-156654500D01*
X97164458Y-156533836D01*
X97054792Y-156400208D01*
X96921164Y-156290542D01*
X96768709Y-156209053D01*
X96603285Y-156158872D01*
X96431250Y-156141928D01*
X95943750Y-156141928D01*
X95771715Y-156158872D01*
X95606291Y-156209053D01*
X95453836Y-156290542D01*
X95320208Y-156400208D01*
X95250000Y-156485756D01*
X95179792Y-156400208D01*
X95046164Y-156290542D01*
X94893709Y-156209053D01*
X94728285Y-156158872D01*
X94556250Y-156141928D01*
X94068750Y-156141928D01*
X93896715Y-156158872D01*
X93731291Y-156209053D01*
X93578836Y-156290542D01*
X93445208Y-156400208D01*
X93335542Y-156533836D01*
X93254053Y-156686291D01*
X93203872Y-156851715D01*
X93186928Y-157023750D01*
X93186928Y-157936250D01*
X93203872Y-158108285D01*
X93254053Y-158273709D01*
X93335542Y-158426164D01*
X93445208Y-158559792D01*
X93578836Y-158669458D01*
X93731291Y-158750947D01*
X93744971Y-158755097D01*
X93176671Y-159323396D01*
X93185000Y-159246750D01*
X93117757Y-159179507D01*
X93075331Y-159102835D01*
X92994582Y-159007307D01*
X92912604Y-158942000D01*
X93026250Y-158942000D01*
X93185000Y-158783250D01*
X93173937Y-158681439D01*
X93135892Y-158562281D01*
X93075331Y-158452835D01*
X92994582Y-158357307D01*
X92896748Y-158279368D01*
X92785589Y-158222013D01*
X92665376Y-158187446D01*
X92540729Y-158176995D01*
X92060750Y-158180000D01*
X91902000Y-158338750D01*
X91902000Y-158942000D01*
X91948750Y-158942000D01*
X91902000Y-158988750D01*
X91902000Y-159162000D01*
X91648000Y-159162000D01*
X91648000Y-158988750D01*
X91601250Y-158942000D01*
X91648000Y-158942000D01*
X91648000Y-158338750D01*
X91489250Y-158180000D01*
X91009271Y-158176995D01*
X90884624Y-158187446D01*
X90764411Y-158222013D01*
X90653252Y-158279368D01*
X90555418Y-158357307D01*
X90474669Y-158452835D01*
X90414108Y-158562281D01*
X90376063Y-158681439D01*
X90365000Y-158783250D01*
X90523750Y-158942000D01*
X90637396Y-158942000D01*
X90555418Y-159007307D01*
X90474669Y-159102835D01*
X90432243Y-159179507D01*
X90414944Y-159196806D01*
X90323255Y-159168992D01*
X90150001Y-159151928D01*
X89662000Y-159151928D01*
X89662000Y-157043784D01*
X89751746Y-157071008D01*
X89925000Y-157088072D01*
X90675000Y-157088072D01*
X90848254Y-157071008D01*
X91014850Y-157020472D01*
X91168386Y-156938405D01*
X91302962Y-156827962D01*
X91413405Y-156693386D01*
X91495472Y-156539850D01*
X91546008Y-156373254D01*
X91563072Y-156200000D01*
X91563072Y-154950000D01*
X91546008Y-154776746D01*
X91495472Y-154610150D01*
X91413405Y-154456614D01*
X91302962Y-154322038D01*
X91168386Y-154211595D01*
X91014850Y-154129528D01*
X90848254Y-154078992D01*
X90675000Y-154061928D01*
X89925000Y-154061928D01*
X89751746Y-154078992D01*
X89662000Y-154106216D01*
X89662000Y-152030000D01*
X92631928Y-152030000D01*
X92644188Y-152154482D01*
X92680498Y-152274180D01*
X92739463Y-152384494D01*
X92818815Y-152481185D01*
X92915506Y-152560537D01*
X93025820Y-152619502D01*
X93145518Y-152655812D01*
X93270000Y-152668072D01*
X94234250Y-152665000D01*
X94393000Y-152506250D01*
X94393000Y-151257000D01*
X94647000Y-151257000D01*
X94647000Y-152506250D01*
X94805750Y-152665000D01*
X95770000Y-152668072D01*
X95894482Y-152655812D01*
X96014180Y-152619502D01*
X96124494Y-152560537D01*
X96221185Y-152481185D01*
X96300537Y-152384494D01*
X96359502Y-152274180D01*
X96395812Y-152154482D01*
X96408072Y-152030000D01*
X96405000Y-151415750D01*
X96246250Y-151257000D01*
X94647000Y-151257000D01*
X94393000Y-151257000D01*
X92793750Y-151257000D01*
X92635000Y-151415750D01*
X92631928Y-152030000D01*
X89662000Y-152030000D01*
X89662000Y-150230000D01*
X92631928Y-150230000D01*
X92635000Y-150844250D01*
X92793750Y-151003000D01*
X94393000Y-151003000D01*
X94393000Y-149753750D01*
X94647000Y-149753750D01*
X94647000Y-151003000D01*
X96246250Y-151003000D01*
X96405000Y-150844250D01*
X96408072Y-150230000D01*
X96631928Y-150230000D01*
X96631928Y-152030000D01*
X96644188Y-152154482D01*
X96680498Y-152274180D01*
X96739463Y-152384494D01*
X96818815Y-152481185D01*
X96915506Y-152560537D01*
X97025820Y-152619502D01*
X97145518Y-152655812D01*
X97270000Y-152668072D01*
X99187286Y-152668072D01*
X99212061Y-152673000D01*
X99415939Y-152673000D01*
X99440714Y-152668072D01*
X99770000Y-152668072D01*
X99894482Y-152655812D01*
X100014180Y-152619502D01*
X100124494Y-152560537D01*
X100221185Y-152481185D01*
X100300537Y-152384494D01*
X100359502Y-152274180D01*
X100395812Y-152154482D01*
X100408072Y-152030000D01*
X100408072Y-150230000D01*
X100395812Y-150105518D01*
X100359502Y-149985820D01*
X100300537Y-149875506D01*
X100221185Y-149778815D01*
X100124494Y-149699463D01*
X100014180Y-149640498D01*
X99894482Y-149604188D01*
X99770000Y-149591928D01*
X99440714Y-149591928D01*
X99415939Y-149587000D01*
X99212061Y-149587000D01*
X99187286Y-149591928D01*
X97270000Y-149591928D01*
X97145518Y-149604188D01*
X97025820Y-149640498D01*
X96915506Y-149699463D01*
X96818815Y-149778815D01*
X96739463Y-149875506D01*
X96680498Y-149985820D01*
X96644188Y-150105518D01*
X96631928Y-150230000D01*
X96408072Y-150230000D01*
X96395812Y-150105518D01*
X96359502Y-149985820D01*
X96300537Y-149875506D01*
X96221185Y-149778815D01*
X96124494Y-149699463D01*
X96014180Y-149640498D01*
X95894482Y-149604188D01*
X95770000Y-149591928D01*
X94805750Y-149595000D01*
X94647000Y-149753750D01*
X94393000Y-149753750D01*
X94234250Y-149595000D01*
X93270000Y-149591928D01*
X93145518Y-149604188D01*
X93025820Y-149640498D01*
X92915506Y-149699463D01*
X92818815Y-149778815D01*
X92739463Y-149875506D01*
X92680498Y-149985820D01*
X92644188Y-150105518D01*
X92631928Y-150230000D01*
X89662000Y-150230000D01*
X89662000Y-141897845D01*
X90056761Y-141897845D01*
X90224802Y-142223643D01*
X90616607Y-142424426D01*
X91040055Y-142544914D01*
X91478873Y-142580476D01*
X91916197Y-142529746D01*
X92335221Y-142394674D01*
X92655198Y-142223643D01*
X92823239Y-141897845D01*
X91440000Y-140514605D01*
X90056761Y-141897845D01*
X89662000Y-141897845D01*
X89662000Y-141607266D01*
X89877155Y-141718239D01*
X91260395Y-140335000D01*
X91619605Y-140335000D01*
X93002845Y-141718239D01*
X93328643Y-141550198D01*
X93529426Y-141158393D01*
X93649914Y-140734945D01*
X93685476Y-140296127D01*
X93664451Y-140114872D01*
X94285000Y-140114872D01*
X94285000Y-140555128D01*
X94370890Y-140986925D01*
X94539369Y-141393669D01*
X94783962Y-141759729D01*
X95095271Y-142071038D01*
X95461331Y-142315631D01*
X95868075Y-142484110D01*
X96299872Y-142570000D01*
X96740128Y-142570000D01*
X97171925Y-142484110D01*
X97578669Y-142315631D01*
X97944729Y-142071038D01*
X98256038Y-141759729D01*
X98500631Y-141393669D01*
X98669110Y-140986925D01*
X98755000Y-140555128D01*
X98755000Y-140114872D01*
X98669110Y-139683075D01*
X98500631Y-139276331D01*
X98256038Y-138910271D01*
X97944729Y-138598962D01*
X97578669Y-138354369D01*
X97171925Y-138185890D01*
X96740128Y-138100000D01*
X96299872Y-138100000D01*
X95868075Y-138185890D01*
X95461331Y-138354369D01*
X95095271Y-138598962D01*
X94783962Y-138910271D01*
X94539369Y-139276331D01*
X94370890Y-139683075D01*
X94285000Y-140114872D01*
X93664451Y-140114872D01*
X93634746Y-139858803D01*
X93499674Y-139439779D01*
X93328643Y-139119802D01*
X93002845Y-138951761D01*
X91619605Y-140335000D01*
X91260395Y-140335000D01*
X89877155Y-138951761D01*
X89662000Y-139062734D01*
X89662000Y-138772155D01*
X90056761Y-138772155D01*
X91440000Y-140155395D01*
X92823239Y-138772155D01*
X92655198Y-138446357D01*
X92263393Y-138245574D01*
X91839945Y-138125086D01*
X91401127Y-138089524D01*
X90963803Y-138140254D01*
X90544779Y-138275326D01*
X90224802Y-138446357D01*
X90056761Y-138772155D01*
X89662000Y-138772155D01*
X89662000Y-135534000D01*
X100940000Y-135534000D01*
X100940000Y-154721928D01*
G37*
X100940000Y-154721928D02*
X99480000Y-154721928D01*
X99355518Y-154734188D01*
X99235820Y-154770498D01*
X99125506Y-154829463D01*
X99028815Y-154908815D01*
X98949463Y-155005506D01*
X98890498Y-155115820D01*
X98854188Y-155235518D01*
X98841928Y-155360000D01*
X98841928Y-157060000D01*
X98854188Y-157184482D01*
X98890498Y-157304180D01*
X98949463Y-157414494D01*
X99028815Y-157511185D01*
X99125506Y-157590537D01*
X99235820Y-157649502D01*
X99308380Y-157671513D01*
X99176525Y-157803368D01*
X99116554Y-157893121D01*
X98148398Y-156924966D01*
X98122541Y-156893459D01*
X97996842Y-156790301D01*
X97853434Y-156713647D01*
X97697826Y-156666444D01*
X97576553Y-156654500D01*
X97576550Y-156654500D01*
X97536000Y-156650506D01*
X97495450Y-156654500D01*
X97228954Y-156654500D01*
X97164458Y-156533836D01*
X97054792Y-156400208D01*
X96921164Y-156290542D01*
X96768709Y-156209053D01*
X96603285Y-156158872D01*
X96431250Y-156141928D01*
X95943750Y-156141928D01*
X95771715Y-156158872D01*
X95606291Y-156209053D01*
X95453836Y-156290542D01*
X95320208Y-156400208D01*
X95250000Y-156485756D01*
X95179792Y-156400208D01*
X95046164Y-156290542D01*
X94893709Y-156209053D01*
X94728285Y-156158872D01*
X94556250Y-156141928D01*
X94068750Y-156141928D01*
X93896715Y-156158872D01*
X93731291Y-156209053D01*
X93578836Y-156290542D01*
X93445208Y-156400208D01*
X93335542Y-156533836D01*
X93254053Y-156686291D01*
X93203872Y-156851715D01*
X93186928Y-157023750D01*
X93186928Y-157936250D01*
X93203872Y-158108285D01*
X93254053Y-158273709D01*
X93335542Y-158426164D01*
X93445208Y-158559792D01*
X93578836Y-158669458D01*
X93731291Y-158750947D01*
X93744971Y-158755097D01*
X93176671Y-159323396D01*
X93185000Y-159246750D01*
X93117757Y-159179507D01*
X93075331Y-159102835D01*
X92994582Y-159007307D01*
X92912604Y-158942000D01*
X93026250Y-158942000D01*
X93185000Y-158783250D01*
X93173937Y-158681439D01*
X93135892Y-158562281D01*
X93075331Y-158452835D01*
X92994582Y-158357307D01*
X92896748Y-158279368D01*
X92785589Y-158222013D01*
X92665376Y-158187446D01*
X92540729Y-158176995D01*
X92060750Y-158180000D01*
X91902000Y-158338750D01*
X91902000Y-158942000D01*
X91948750Y-158942000D01*
X91902000Y-158988750D01*
X91902000Y-159162000D01*
X91648000Y-159162000D01*
X91648000Y-158988750D01*
X91601250Y-158942000D01*
X91648000Y-158942000D01*
X91648000Y-158338750D01*
X91489250Y-158180000D01*
X91009271Y-158176995D01*
X90884624Y-158187446D01*
X90764411Y-158222013D01*
X90653252Y-158279368D01*
X90555418Y-158357307D01*
X90474669Y-158452835D01*
X90414108Y-158562281D01*
X90376063Y-158681439D01*
X90365000Y-158783250D01*
X90523750Y-158942000D01*
X90637396Y-158942000D01*
X90555418Y-159007307D01*
X90474669Y-159102835D01*
X90432243Y-159179507D01*
X90414944Y-159196806D01*
X90323255Y-159168992D01*
X90150001Y-159151928D01*
X89662000Y-159151928D01*
X89662000Y-157043784D01*
X89751746Y-157071008D01*
X89925000Y-157088072D01*
X90675000Y-157088072D01*
X90848254Y-157071008D01*
X91014850Y-157020472D01*
X91168386Y-156938405D01*
X91302962Y-156827962D01*
X91413405Y-156693386D01*
X91495472Y-156539850D01*
X91546008Y-156373254D01*
X91563072Y-156200000D01*
X91563072Y-154950000D01*
X91546008Y-154776746D01*
X91495472Y-154610150D01*
X91413405Y-154456614D01*
X91302962Y-154322038D01*
X91168386Y-154211595D01*
X91014850Y-154129528D01*
X90848254Y-154078992D01*
X90675000Y-154061928D01*
X89925000Y-154061928D01*
X89751746Y-154078992D01*
X89662000Y-154106216D01*
X89662000Y-152030000D01*
X92631928Y-152030000D01*
X92644188Y-152154482D01*
X92680498Y-152274180D01*
X92739463Y-152384494D01*
X92818815Y-152481185D01*
X92915506Y-152560537D01*
X93025820Y-152619502D01*
X93145518Y-152655812D01*
X93270000Y-152668072D01*
X94234250Y-152665000D01*
X94393000Y-152506250D01*
X94393000Y-151257000D01*
X94647000Y-151257000D01*
X94647000Y-152506250D01*
X94805750Y-152665000D01*
X95770000Y-152668072D01*
X95894482Y-152655812D01*
X96014180Y-152619502D01*
X96124494Y-152560537D01*
X96221185Y-152481185D01*
X96300537Y-152384494D01*
X96359502Y-152274180D01*
X96395812Y-152154482D01*
X96408072Y-152030000D01*
X96405000Y-151415750D01*
X96246250Y-151257000D01*
X94647000Y-151257000D01*
X94393000Y-151257000D01*
X92793750Y-151257000D01*
X92635000Y-151415750D01*
X92631928Y-152030000D01*
X89662000Y-152030000D01*
X89662000Y-150230000D01*
X92631928Y-150230000D01*
X92635000Y-150844250D01*
X92793750Y-151003000D01*
X94393000Y-151003000D01*
X94393000Y-149753750D01*
X94647000Y-149753750D01*
X94647000Y-151003000D01*
X96246250Y-151003000D01*
X96405000Y-150844250D01*
X96408072Y-150230000D01*
X96631928Y-150230000D01*
X96631928Y-152030000D01*
X96644188Y-152154482D01*
X96680498Y-152274180D01*
X96739463Y-152384494D01*
X96818815Y-152481185D01*
X96915506Y-152560537D01*
X97025820Y-152619502D01*
X97145518Y-152655812D01*
X97270000Y-152668072D01*
X99187286Y-152668072D01*
X99212061Y-152673000D01*
X99415939Y-152673000D01*
X99440714Y-152668072D01*
X99770000Y-152668072D01*
X99894482Y-152655812D01*
X100014180Y-152619502D01*
X100124494Y-152560537D01*
X100221185Y-152481185D01*
X100300537Y-152384494D01*
X100359502Y-152274180D01*
X100395812Y-152154482D01*
X100408072Y-152030000D01*
X100408072Y-150230000D01*
X100395812Y-150105518D01*
X100359502Y-149985820D01*
X100300537Y-149875506D01*
X100221185Y-149778815D01*
X100124494Y-149699463D01*
X100014180Y-149640498D01*
X99894482Y-149604188D01*
X99770000Y-149591928D01*
X99440714Y-149591928D01*
X99415939Y-149587000D01*
X99212061Y-149587000D01*
X99187286Y-149591928D01*
X97270000Y-149591928D01*
X97145518Y-149604188D01*
X97025820Y-149640498D01*
X96915506Y-149699463D01*
X96818815Y-149778815D01*
X96739463Y-149875506D01*
X96680498Y-149985820D01*
X96644188Y-150105518D01*
X96631928Y-150230000D01*
X96408072Y-150230000D01*
X96395812Y-150105518D01*
X96359502Y-149985820D01*
X96300537Y-149875506D01*
X96221185Y-149778815D01*
X96124494Y-149699463D01*
X96014180Y-149640498D01*
X95894482Y-149604188D01*
X95770000Y-149591928D01*
X94805750Y-149595000D01*
X94647000Y-149753750D01*
X94393000Y-149753750D01*
X94234250Y-149595000D01*
X93270000Y-149591928D01*
X93145518Y-149604188D01*
X93025820Y-149640498D01*
X92915506Y-149699463D01*
X92818815Y-149778815D01*
X92739463Y-149875506D01*
X92680498Y-149985820D01*
X92644188Y-150105518D01*
X92631928Y-150230000D01*
X89662000Y-150230000D01*
X89662000Y-141897845D01*
X90056761Y-141897845D01*
X90224802Y-142223643D01*
X90616607Y-142424426D01*
X91040055Y-142544914D01*
X91478873Y-142580476D01*
X91916197Y-142529746D01*
X92335221Y-142394674D01*
X92655198Y-142223643D01*
X92823239Y-141897845D01*
X91440000Y-140514605D01*
X90056761Y-141897845D01*
X89662000Y-141897845D01*
X89662000Y-141607266D01*
X89877155Y-141718239D01*
X91260395Y-140335000D01*
X91619605Y-140335000D01*
X93002845Y-141718239D01*
X93328643Y-141550198D01*
X93529426Y-141158393D01*
X93649914Y-140734945D01*
X93685476Y-140296127D01*
X93664451Y-140114872D01*
X94285000Y-140114872D01*
X94285000Y-140555128D01*
X94370890Y-140986925D01*
X94539369Y-141393669D01*
X94783962Y-141759729D01*
X95095271Y-142071038D01*
X95461331Y-142315631D01*
X95868075Y-142484110D01*
X96299872Y-142570000D01*
X96740128Y-142570000D01*
X97171925Y-142484110D01*
X97578669Y-142315631D01*
X97944729Y-142071038D01*
X98256038Y-141759729D01*
X98500631Y-141393669D01*
X98669110Y-140986925D01*
X98755000Y-140555128D01*
X98755000Y-140114872D01*
X98669110Y-139683075D01*
X98500631Y-139276331D01*
X98256038Y-138910271D01*
X97944729Y-138598962D01*
X97578669Y-138354369D01*
X97171925Y-138185890D01*
X96740128Y-138100000D01*
X96299872Y-138100000D01*
X95868075Y-138185890D01*
X95461331Y-138354369D01*
X95095271Y-138598962D01*
X94783962Y-138910271D01*
X94539369Y-139276331D01*
X94370890Y-139683075D01*
X94285000Y-140114872D01*
X93664451Y-140114872D01*
X93634746Y-139858803D01*
X93499674Y-139439779D01*
X93328643Y-139119802D01*
X93002845Y-138951761D01*
X91619605Y-140335000D01*
X91260395Y-140335000D01*
X89877155Y-138951761D01*
X89662000Y-139062734D01*
X89662000Y-138772155D01*
X90056761Y-138772155D01*
X91440000Y-140155395D01*
X92823239Y-138772155D01*
X92655198Y-138446357D01*
X92263393Y-138245574D01*
X91839945Y-138125086D01*
X91401127Y-138089524D01*
X90963803Y-138140254D01*
X90544779Y-138275326D01*
X90224802Y-138446357D01*
X90056761Y-138772155D01*
X89662000Y-138772155D01*
X89662000Y-135534000D01*
X100940000Y-135534000D01*
X100940000Y-154721928D01*
G36*
X80827528Y-173396861D02*
G01*
X80827528Y-173811250D01*
X80844472Y-173983285D01*
X80894653Y-174148709D01*
X80976142Y-174301164D01*
X81085808Y-174434792D01*
X81219436Y-174544458D01*
X81371891Y-174625947D01*
X81537315Y-174676128D01*
X81709350Y-174693072D01*
X82196850Y-174693072D01*
X82368885Y-174676128D01*
X82534309Y-174625947D01*
X82686764Y-174544458D01*
X82820392Y-174434792D01*
X82886550Y-174354178D01*
X82952708Y-174434792D01*
X83086336Y-174544458D01*
X83238791Y-174625947D01*
X83404215Y-174676128D01*
X83576250Y-174693072D01*
X84063750Y-174693072D01*
X84235785Y-174676128D01*
X84401209Y-174625947D01*
X84553664Y-174544458D01*
X84687292Y-174434792D01*
X84757500Y-174349244D01*
X84827708Y-174434792D01*
X84961336Y-174544458D01*
X85113791Y-174625947D01*
X85279215Y-174676128D01*
X85451250Y-174693072D01*
X85865640Y-174693072D01*
X87190806Y-176018239D01*
X87216659Y-176049741D01*
X87280796Y-176102377D01*
X87342357Y-176152899D01*
X87485766Y-176229553D01*
X87641374Y-176276756D01*
X87762647Y-176288700D01*
X87762649Y-176288700D01*
X87803199Y-176292694D01*
X87843750Y-176288700D01*
X96835050Y-176288700D01*
X96875600Y-176292694D01*
X96916150Y-176288700D01*
X96916153Y-176288700D01*
X97037426Y-176276756D01*
X97193034Y-176229553D01*
X97336442Y-176152899D01*
X97462141Y-176049741D01*
X97487998Y-176018234D01*
X98649840Y-174856392D01*
X98681341Y-174830541D01*
X98781435Y-174708576D01*
X98784499Y-174704843D01*
X98861153Y-174561434D01*
X98902662Y-174424593D01*
X99014010Y-174693411D01*
X99176525Y-174936632D01*
X99383368Y-175143475D01*
X99626589Y-175305990D01*
X99896842Y-175417932D01*
X100183740Y-175475000D01*
X100451619Y-175475000D01*
X98786620Y-177140000D01*
X76860000Y-177140000D01*
X76860000Y-175344682D01*
X77036842Y-175417932D01*
X77323740Y-175475000D01*
X77616260Y-175475000D01*
X77903158Y-175417932D01*
X78173411Y-175305990D01*
X78416632Y-175143475D01*
X78623475Y-174936632D01*
X78785990Y-174693411D01*
X78897932Y-174423158D01*
X78955000Y-174136260D01*
X78955000Y-173843740D01*
X78897932Y-173556842D01*
X78785990Y-173286589D01*
X78623475Y-173043368D01*
X78416632Y-172836525D01*
X78242240Y-172720000D01*
X78416632Y-172603475D01*
X78623475Y-172396632D01*
X78704413Y-172275500D01*
X79706168Y-172275500D01*
X80827528Y-173396861D01*
G37*
X80827528Y-173396861D02*
X80827528Y-173811250D01*
X80844472Y-173983285D01*
X80894653Y-174148709D01*
X80976142Y-174301164D01*
X81085808Y-174434792D01*
X81219436Y-174544458D01*
X81371891Y-174625947D01*
X81537315Y-174676128D01*
X81709350Y-174693072D01*
X82196850Y-174693072D01*
X82368885Y-174676128D01*
X82534309Y-174625947D01*
X82686764Y-174544458D01*
X82820392Y-174434792D01*
X82886550Y-174354178D01*
X82952708Y-174434792D01*
X83086336Y-174544458D01*
X83238791Y-174625947D01*
X83404215Y-174676128D01*
X83576250Y-174693072D01*
X84063750Y-174693072D01*
X84235785Y-174676128D01*
X84401209Y-174625947D01*
X84553664Y-174544458D01*
X84687292Y-174434792D01*
X84757500Y-174349244D01*
X84827708Y-174434792D01*
X84961336Y-174544458D01*
X85113791Y-174625947D01*
X85279215Y-174676128D01*
X85451250Y-174693072D01*
X85865640Y-174693072D01*
X87190806Y-176018239D01*
X87216659Y-176049741D01*
X87280796Y-176102377D01*
X87342357Y-176152899D01*
X87485766Y-176229553D01*
X87641374Y-176276756D01*
X87762647Y-176288700D01*
X87762649Y-176288700D01*
X87803199Y-176292694D01*
X87843750Y-176288700D01*
X96835050Y-176288700D01*
X96875600Y-176292694D01*
X96916150Y-176288700D01*
X96916153Y-176288700D01*
X97037426Y-176276756D01*
X97193034Y-176229553D01*
X97336442Y-176152899D01*
X97462141Y-176049741D01*
X97487998Y-176018234D01*
X98649840Y-174856392D01*
X98681341Y-174830541D01*
X98781435Y-174708576D01*
X98784499Y-174704843D01*
X98861153Y-174561434D01*
X98902662Y-174424593D01*
X99014010Y-174693411D01*
X99176525Y-174936632D01*
X99383368Y-175143475D01*
X99626589Y-175305990D01*
X99896842Y-175417932D01*
X100183740Y-175475000D01*
X100451619Y-175475000D01*
X98786620Y-177140000D01*
X76860000Y-177140000D01*
X76860000Y-175344682D01*
X77036842Y-175417932D01*
X77323740Y-175475000D01*
X77616260Y-175475000D01*
X77903158Y-175417932D01*
X78173411Y-175305990D01*
X78416632Y-175143475D01*
X78623475Y-174936632D01*
X78785990Y-174693411D01*
X78897932Y-174423158D01*
X78955000Y-174136260D01*
X78955000Y-173843740D01*
X78897932Y-173556842D01*
X78785990Y-173286589D01*
X78623475Y-173043368D01*
X78416632Y-172836525D01*
X78242240Y-172720000D01*
X78416632Y-172603475D01*
X78623475Y-172396632D01*
X78704413Y-172275500D01*
X79706168Y-172275500D01*
X80827528Y-173396861D01*
G36*
X95320208Y-174434792D02*
G01*
X95453836Y-174544458D01*
X95606291Y-174625947D01*
X95645035Y-174637700D01*
X94854965Y-174637700D01*
X94893709Y-174625947D01*
X95046164Y-174544458D01*
X95179792Y-174434792D01*
X95250000Y-174349244D01*
X95320208Y-174434792D01*
G37*
X95320208Y-174434792D02*
X95453836Y-174544458D01*
X95606291Y-174625947D01*
X95645035Y-174637700D01*
X94854965Y-174637700D01*
X94893709Y-174625947D01*
X95046164Y-174544458D01*
X95179792Y-174434792D01*
X95250000Y-174349244D01*
X95320208Y-174434792D01*
G36*
X93335542Y-174301164D02*
G01*
X93445208Y-174434792D01*
X93578836Y-174544458D01*
X93731291Y-174625947D01*
X93770035Y-174637700D01*
X91649965Y-174637700D01*
X91688709Y-174625947D01*
X91841164Y-174544458D01*
X91974792Y-174434792D01*
X92084458Y-174301164D01*
X92148954Y-174180500D01*
X93271046Y-174180500D01*
X93335542Y-174301164D01*
G37*
X93335542Y-174301164D02*
X93445208Y-174434792D01*
X93578836Y-174544458D01*
X93731291Y-174625947D01*
X93770035Y-174637700D01*
X91649965Y-174637700D01*
X91688709Y-174625947D01*
X91841164Y-174544458D01*
X91974792Y-174434792D01*
X92084458Y-174301164D01*
X92148954Y-174180500D01*
X93271046Y-174180500D01*
X93335542Y-174301164D01*
G36*
X88337517Y-172308949D02*
G01*
X88255542Y-172408836D01*
X88174053Y-172561291D01*
X88123872Y-172726715D01*
X88106928Y-172898750D01*
X88106928Y-173811250D01*
X88123872Y-173983285D01*
X88174053Y-174148709D01*
X88255542Y-174301164D01*
X88365208Y-174434792D01*
X88498836Y-174544458D01*
X88651291Y-174625947D01*
X88690035Y-174637700D01*
X88145133Y-174637700D01*
X86820572Y-173313140D01*
X86820572Y-172898750D01*
X86803628Y-172726715D01*
X86753447Y-172561291D01*
X86671958Y-172408836D01*
X86562532Y-172275500D01*
X88304068Y-172275500D01*
X88337517Y-172308949D01*
G37*
X88337517Y-172308949D02*
X88255542Y-172408836D01*
X88174053Y-172561291D01*
X88123872Y-172726715D01*
X88106928Y-172898750D01*
X88106928Y-173811250D01*
X88123872Y-173983285D01*
X88174053Y-174148709D01*
X88255542Y-174301164D01*
X88365208Y-174434792D01*
X88498836Y-174544458D01*
X88651291Y-174625947D01*
X88690035Y-174637700D01*
X88145133Y-174637700D01*
X86820572Y-173313140D01*
X86820572Y-172898750D01*
X86803628Y-172726715D01*
X86753447Y-172561291D01*
X86671958Y-172408836D01*
X86562532Y-172275500D01*
X88304068Y-172275500D01*
X88337517Y-172308949D01*
G36*
X90240208Y-174434792D02*
G01*
X90373836Y-174544458D01*
X90526291Y-174625947D01*
X90565035Y-174637700D01*
X89774965Y-174637700D01*
X89813709Y-174625947D01*
X89966164Y-174544458D01*
X90099792Y-174434792D01*
X90170000Y-174349244D01*
X90240208Y-174434792D01*
G37*
X90240208Y-174434792D02*
X90373836Y-174544458D01*
X90526291Y-174625947D01*
X90565035Y-174637700D01*
X89774965Y-174637700D01*
X89813709Y-174625947D01*
X89966164Y-174544458D01*
X90099792Y-174434792D01*
X90170000Y-174349244D01*
X90240208Y-174434792D01*
G36*
X99176525Y-172396632D02*
G01*
X99383368Y-172603475D01*
X99557760Y-172720000D01*
X99383368Y-172836525D01*
X99176525Y-173043368D01*
X99014010Y-173286589D01*
X98920300Y-173512826D01*
X98920300Y-172299932D01*
X98944732Y-172275500D01*
X99095587Y-172275500D01*
X99176525Y-172396632D01*
G37*
X99176525Y-172396632D02*
X99383368Y-172603475D01*
X99557760Y-172720000D01*
X99383368Y-172836525D01*
X99176525Y-173043368D01*
X99014010Y-173286589D01*
X98920300Y-173512826D01*
X98920300Y-172299932D01*
X98944732Y-172275500D01*
X99095587Y-172275500D01*
X99176525Y-172396632D01*
G36*
X80870425Y-160848647D02*
G01*
X80846147Y-160894067D01*
X80798944Y-161049675D01*
X80788761Y-161153072D01*
X80783006Y-161211500D01*
X80787000Y-161252051D01*
X80787000Y-161445910D01*
X80745208Y-161480208D01*
X80635542Y-161613836D01*
X80554053Y-161766291D01*
X80503872Y-161931715D01*
X80486928Y-162103750D01*
X80486928Y-163016250D01*
X80503872Y-163188285D01*
X80554053Y-163353709D01*
X80635542Y-163506164D01*
X80745208Y-163639792D01*
X80878836Y-163749458D01*
X81031291Y-163830947D01*
X81196715Y-163881128D01*
X81368750Y-163898072D01*
X81856250Y-163898072D01*
X82028285Y-163881128D01*
X82193709Y-163830947D01*
X82346164Y-163749458D01*
X82479792Y-163639792D01*
X82550000Y-163554244D01*
X82620208Y-163639792D01*
X82662000Y-163674090D01*
X82662000Y-164201567D01*
X81057461Y-165806107D01*
X81025960Y-165831959D01*
X81000109Y-165863459D01*
X80922801Y-165957658D01*
X80846147Y-166101067D01*
X80798945Y-166256674D01*
X80783006Y-166418500D01*
X80787001Y-166459060D01*
X80787001Y-166525909D01*
X80745208Y-166560208D01*
X80635542Y-166693836D01*
X80554053Y-166846291D01*
X80503872Y-167011715D01*
X80486928Y-167183750D01*
X80486928Y-168096250D01*
X80503872Y-168268285D01*
X80554053Y-168433709D01*
X80635542Y-168586164D01*
X80745208Y-168719792D01*
X80878836Y-168829458D01*
X81031291Y-168910947D01*
X81196715Y-168961128D01*
X81368750Y-168978072D01*
X81856250Y-168978072D01*
X82028285Y-168961128D01*
X82193709Y-168910947D01*
X82346164Y-168829458D01*
X82479792Y-168719792D01*
X82550000Y-168634244D01*
X82620208Y-168719792D01*
X82753836Y-168829458D01*
X82906291Y-168910947D01*
X83071715Y-168961128D01*
X83243750Y-168978072D01*
X83731250Y-168978072D01*
X83903285Y-168961128D01*
X84068709Y-168910947D01*
X84221164Y-168829458D01*
X84354792Y-168719792D01*
X84464458Y-168586164D01*
X84545947Y-168433709D01*
X84596128Y-168268285D01*
X84613072Y-168096250D01*
X84613072Y-167183750D01*
X86836928Y-167183750D01*
X86836928Y-168096250D01*
X86853872Y-168268285D01*
X86904053Y-168433709D01*
X86985542Y-168586164D01*
X87095208Y-168719792D01*
X87228836Y-168829458D01*
X87381291Y-168910947D01*
X87546715Y-168961128D01*
X87718750Y-168978072D01*
X88206250Y-168978072D01*
X88378285Y-168961128D01*
X88543709Y-168910947D01*
X88696164Y-168829458D01*
X88829792Y-168719792D01*
X88900000Y-168634244D01*
X88970208Y-168719792D01*
X89103836Y-168829458D01*
X89256291Y-168910947D01*
X89421715Y-168961128D01*
X89593750Y-168978072D01*
X90081250Y-168978072D01*
X90253285Y-168961128D01*
X90418709Y-168910947D01*
X90571164Y-168829458D01*
X90704792Y-168719792D01*
X90814458Y-168586164D01*
X90895947Y-168433709D01*
X90946128Y-168268285D01*
X90963072Y-168096250D01*
X90963072Y-167183750D01*
X90946128Y-167011715D01*
X90895947Y-166846291D01*
X90814458Y-166693836D01*
X90704792Y-166560208D01*
X90571164Y-166450542D01*
X90418709Y-166369053D01*
X90253285Y-166318872D01*
X90081250Y-166301928D01*
X89593750Y-166301928D01*
X89421715Y-166318872D01*
X89256291Y-166369053D01*
X89103836Y-166450542D01*
X88970208Y-166560208D01*
X88900000Y-166645756D01*
X88829792Y-166560208D01*
X88696164Y-166450542D01*
X88543709Y-166369053D01*
X88378285Y-166318872D01*
X88206250Y-166301928D01*
X87718750Y-166301928D01*
X87546715Y-166318872D01*
X87381291Y-166369053D01*
X87228836Y-166450542D01*
X87095208Y-166560208D01*
X86985542Y-166693836D01*
X86904053Y-166846291D01*
X86853872Y-167011715D01*
X86836928Y-167183750D01*
X84613072Y-167183750D01*
X84596128Y-167011715D01*
X84545947Y-166846291D01*
X84464458Y-166693836D01*
X84354792Y-166560208D01*
X84315805Y-166528212D01*
X84343602Y-166539726D01*
X84543561Y-166579500D01*
X84747439Y-166579500D01*
X84947398Y-166539726D01*
X85135756Y-166461705D01*
X85305274Y-166348437D01*
X85449437Y-166204274D01*
X85562705Y-166034756D01*
X85640726Y-165846398D01*
X85680500Y-165646439D01*
X85680500Y-165442561D01*
X85640726Y-165242602D01*
X85562705Y-165054244D01*
X85471000Y-164916997D01*
X85471000Y-164403072D01*
X85701250Y-164403072D01*
X85764158Y-164454699D01*
X85907566Y-164531353D01*
X86063174Y-164578556D01*
X86184447Y-164590500D01*
X86184449Y-164590500D01*
X86225000Y-164594494D01*
X86265550Y-164590500D01*
X87884450Y-164590500D01*
X87925000Y-164594494D01*
X87965550Y-164590500D01*
X87965553Y-164590500D01*
X88086826Y-164578556D01*
X88242434Y-164531353D01*
X88385842Y-164454699D01*
X88511541Y-164351541D01*
X88537398Y-164320034D01*
X89429361Y-163428072D01*
X89598500Y-163428072D01*
X89598501Y-164805440D01*
X89594506Y-164846000D01*
X89610445Y-165007826D01*
X89657647Y-165163433D01*
X89734301Y-165306842D01*
X89775511Y-165357056D01*
X89837460Y-165432541D01*
X89868961Y-165458393D01*
X92605611Y-168195045D01*
X92631459Y-168226541D01*
X92662955Y-168252389D01*
X92662958Y-168252392D01*
X92757157Y-168329699D01*
X92900566Y-168406353D01*
X93056174Y-168453556D01*
X93177447Y-168465500D01*
X93177449Y-168465500D01*
X93218000Y-168469494D01*
X93258550Y-168465500D01*
X93271046Y-168465500D01*
X93335542Y-168586164D01*
X93445208Y-168719792D01*
X93578836Y-168829458D01*
X93731291Y-168910947D01*
X93896715Y-168961128D01*
X94068750Y-168978072D01*
X94556250Y-168978072D01*
X94728285Y-168961128D01*
X94893709Y-168910947D01*
X95046164Y-168829458D01*
X95179792Y-168719792D01*
X95250000Y-168634244D01*
X95320208Y-168719792D01*
X95453836Y-168829458D01*
X95606291Y-168910947D01*
X95771715Y-168961128D01*
X95943750Y-168978072D01*
X96431250Y-168978072D01*
X96603285Y-168961128D01*
X96768709Y-168910947D01*
X96921164Y-168829458D01*
X97054792Y-168719792D01*
X97164458Y-168586164D01*
X97245947Y-168433709D01*
X97296128Y-168268285D01*
X97313072Y-168096250D01*
X97313072Y-167183750D01*
X97296128Y-167011715D01*
X97245947Y-166846291D01*
X97164458Y-166693836D01*
X97054792Y-166560208D01*
X96921164Y-166450542D01*
X96768709Y-166369053D01*
X96603285Y-166318872D01*
X96431250Y-166301928D01*
X95943750Y-166301928D01*
X95771715Y-166318872D01*
X95606291Y-166369053D01*
X95453836Y-166450542D01*
X95320208Y-166560208D01*
X95250000Y-166645756D01*
X95179792Y-166560208D01*
X95046164Y-166450542D01*
X94893709Y-166369053D01*
X94728285Y-166318872D01*
X94556250Y-166301928D01*
X94068750Y-166301928D01*
X93896715Y-166318872D01*
X93731291Y-166369053D01*
X93578836Y-166450542D01*
X93445208Y-166560208D01*
X93382298Y-166636864D01*
X91249500Y-164504068D01*
X91249500Y-164406932D01*
X91862606Y-165020039D01*
X91888459Y-165051541D01*
X91927594Y-165083658D01*
X92014156Y-165154698D01*
X92014158Y-165154699D01*
X92157566Y-165231353D01*
X92313174Y-165278556D01*
X92434447Y-165290500D01*
X92434459Y-165290500D01*
X92474999Y-165294493D01*
X92515539Y-165290500D01*
X95526950Y-165290500D01*
X95567500Y-165294494D01*
X95608050Y-165290500D01*
X95608053Y-165290500D01*
X95729326Y-165278556D01*
X95884934Y-165231353D01*
X96028342Y-165154699D01*
X96154041Y-165051541D01*
X96179897Y-165020035D01*
X96757545Y-164442388D01*
X96789041Y-164416541D01*
X96814889Y-164385045D01*
X96814892Y-164385042D01*
X96892199Y-164290843D01*
X96968853Y-164147434D01*
X96968853Y-164147433D01*
X97016056Y-163991826D01*
X97028000Y-163870553D01*
X97028000Y-163870551D01*
X97031994Y-163830000D01*
X97028000Y-163789450D01*
X97028000Y-163661780D01*
X97054792Y-163639792D01*
X97164458Y-163506164D01*
X97245947Y-163353709D01*
X97296128Y-163188285D01*
X97313072Y-163016250D01*
X97313072Y-162103750D01*
X97296128Y-161931715D01*
X97245947Y-161766291D01*
X97164458Y-161613836D01*
X97054792Y-161480208D01*
X96921164Y-161370542D01*
X96768709Y-161289053D01*
X96603285Y-161238872D01*
X96431250Y-161221928D01*
X95943750Y-161221928D01*
X95771715Y-161238872D01*
X95606291Y-161289053D01*
X95453836Y-161370542D01*
X95320208Y-161480208D01*
X95250000Y-161565756D01*
X95179792Y-161480208D01*
X95060580Y-161382373D01*
X95660953Y-160782000D01*
X96178453Y-160782000D01*
X96281602Y-160824726D01*
X96481561Y-160864500D01*
X96685439Y-160864500D01*
X96885398Y-160824726D01*
X96988547Y-160782000D01*
X98933068Y-160782000D01*
X98902068Y-160856842D01*
X98845000Y-161143740D01*
X98845000Y-161436260D01*
X98902068Y-161723158D01*
X99014010Y-161993411D01*
X99176525Y-162236632D01*
X99383368Y-162443475D01*
X99557760Y-162560000D01*
X99383368Y-162676525D01*
X99176525Y-162883368D01*
X99014010Y-163126589D01*
X98902068Y-163396842D01*
X98845000Y-163683740D01*
X98845000Y-163976260D01*
X98902068Y-164263158D01*
X99014010Y-164533411D01*
X99176525Y-164776632D01*
X99383368Y-164983475D01*
X99557760Y-165100000D01*
X99383368Y-165216525D01*
X99176525Y-165423368D01*
X99014010Y-165666589D01*
X98902068Y-165936842D01*
X98845000Y-166223740D01*
X98845000Y-166516260D01*
X98902068Y-166803158D01*
X99014010Y-167073411D01*
X99176525Y-167316632D01*
X99383368Y-167523475D01*
X99557760Y-167640000D01*
X99383368Y-167756525D01*
X99176525Y-167963368D01*
X99014010Y-168206589D01*
X98902068Y-168476842D01*
X98845000Y-168763740D01*
X98845000Y-169056260D01*
X98902068Y-169343158D01*
X99014010Y-169613411D01*
X99176525Y-169856632D01*
X99383368Y-170063475D01*
X99557760Y-170180000D01*
X99383368Y-170296525D01*
X99176525Y-170503368D01*
X99095587Y-170624500D01*
X98643339Y-170624500D01*
X98602799Y-170620507D01*
X98562259Y-170624500D01*
X98562247Y-170624500D01*
X98440974Y-170636444D01*
X98285366Y-170683647D01*
X98167611Y-170746589D01*
X98141956Y-170760302D01*
X98110111Y-170786437D01*
X98016259Y-170863459D01*
X97990402Y-170894966D01*
X97539761Y-171345607D01*
X97508260Y-171371459D01*
X97482409Y-171402959D01*
X97405101Y-171497158D01*
X97328447Y-171640567D01*
X97281245Y-171796174D01*
X97265306Y-171958000D01*
X97269301Y-171998560D01*
X97269301Y-172638278D01*
X97245947Y-172561291D01*
X97164458Y-172408836D01*
X97054792Y-172275208D01*
X96921164Y-172165542D01*
X96768709Y-172084053D01*
X96603285Y-172033872D01*
X96431250Y-172016928D01*
X95943750Y-172016928D01*
X95771715Y-172033872D01*
X95606291Y-172084053D01*
X95453836Y-172165542D01*
X95320208Y-172275208D01*
X95250000Y-172360756D01*
X95179792Y-172275208D01*
X95046164Y-172165542D01*
X94893709Y-172084053D01*
X94728285Y-172033872D01*
X94556250Y-172016928D01*
X94068750Y-172016928D01*
X93896715Y-172033872D01*
X93731291Y-172084053D01*
X93578836Y-172165542D01*
X93445208Y-172275208D01*
X93335542Y-172408836D01*
X93271046Y-172529500D01*
X92148954Y-172529500D01*
X92084458Y-172408836D01*
X91974792Y-172275208D01*
X91841164Y-172165542D01*
X91688709Y-172084053D01*
X91523285Y-172033872D01*
X91351250Y-172016928D01*
X90863750Y-172016928D01*
X90691715Y-172033872D01*
X90526291Y-172084053D01*
X90373836Y-172165542D01*
X90240208Y-172275208D01*
X90170000Y-172360756D01*
X90099792Y-172275208D01*
X90058000Y-172240910D01*
X90058000Y-172077050D01*
X90061994Y-172036499D01*
X90058000Y-171995947D01*
X90046056Y-171874674D01*
X89998853Y-171719066D01*
X89941532Y-171611827D01*
X89922199Y-171575657D01*
X89844891Y-171481458D01*
X89819041Y-171449959D01*
X89787540Y-171424107D01*
X89258398Y-170894966D01*
X89232541Y-170863459D01*
X89106842Y-170760301D01*
X88963434Y-170683647D01*
X88807826Y-170636444D01*
X88686553Y-170624500D01*
X88686550Y-170624500D01*
X88646000Y-170620506D01*
X88605450Y-170624500D01*
X84622550Y-170624500D01*
X84582000Y-170620506D01*
X84541449Y-170624500D01*
X84541447Y-170624500D01*
X84420174Y-170636444D01*
X84264566Y-170683647D01*
X84121157Y-170760301D01*
X84026958Y-170837608D01*
X84026957Y-170837609D01*
X83995459Y-170863459D01*
X83969611Y-170894956D01*
X83264961Y-171599607D01*
X83233460Y-171625459D01*
X83207609Y-171656959D01*
X83130301Y-171751158D01*
X83053647Y-171894567D01*
X83006445Y-172050174D01*
X82990506Y-172212000D01*
X82993439Y-172241781D01*
X82952708Y-172275208D01*
X82886550Y-172355822D01*
X82820392Y-172275208D01*
X82686764Y-172165542D01*
X82534309Y-172084053D01*
X82368885Y-172033872D01*
X82196850Y-172016928D01*
X81782461Y-172016928D01*
X80660498Y-170894966D01*
X80634641Y-170863459D01*
X80508942Y-170760301D01*
X80365534Y-170683647D01*
X80209926Y-170636444D01*
X80088653Y-170624500D01*
X80088650Y-170624500D01*
X80048100Y-170620506D01*
X80007550Y-170624500D01*
X78704413Y-170624500D01*
X78623475Y-170503368D01*
X78416632Y-170296525D01*
X78242240Y-170180000D01*
X78416632Y-170063475D01*
X78623475Y-169856632D01*
X78785990Y-169613411D01*
X78897932Y-169343158D01*
X78955000Y-169056260D01*
X78955000Y-168763740D01*
X78897932Y-168476842D01*
X78785990Y-168206589D01*
X78623475Y-167963368D01*
X78416632Y-167756525D01*
X78242240Y-167640000D01*
X78416632Y-167523475D01*
X78623475Y-167316632D01*
X78785990Y-167073411D01*
X78897932Y-166803158D01*
X78955000Y-166516260D01*
X78955000Y-166223740D01*
X78897932Y-165936842D01*
X78785990Y-165666589D01*
X78623475Y-165423368D01*
X78416632Y-165216525D01*
X78242240Y-165100000D01*
X78416632Y-164983475D01*
X78623475Y-164776632D01*
X78785990Y-164533411D01*
X78897932Y-164263158D01*
X78955000Y-163976260D01*
X78955000Y-163683740D01*
X78897932Y-163396842D01*
X78785990Y-163126589D01*
X78623475Y-162883368D01*
X78416632Y-162676525D01*
X78242240Y-162560000D01*
X78416632Y-162443475D01*
X78623475Y-162236632D01*
X78785990Y-161993411D01*
X78897932Y-161723158D01*
X78955000Y-161436260D01*
X78955000Y-161143740D01*
X78897932Y-160856842D01*
X78866932Y-160782000D01*
X80906048Y-160782000D01*
X80870425Y-160848647D01*
G37*
X80870425Y-160848647D02*
X80846147Y-160894067D01*
X80798944Y-161049675D01*
X80788761Y-161153072D01*
X80783006Y-161211500D01*
X80787000Y-161252051D01*
X80787000Y-161445910D01*
X80745208Y-161480208D01*
X80635542Y-161613836D01*
X80554053Y-161766291D01*
X80503872Y-161931715D01*
X80486928Y-162103750D01*
X80486928Y-163016250D01*
X80503872Y-163188285D01*
X80554053Y-163353709D01*
X80635542Y-163506164D01*
X80745208Y-163639792D01*
X80878836Y-163749458D01*
X81031291Y-163830947D01*
X81196715Y-163881128D01*
X81368750Y-163898072D01*
X81856250Y-163898072D01*
X82028285Y-163881128D01*
X82193709Y-163830947D01*
X82346164Y-163749458D01*
X82479792Y-163639792D01*
X82550000Y-163554244D01*
X82620208Y-163639792D01*
X82662000Y-163674090D01*
X82662000Y-164201567D01*
X81057461Y-165806107D01*
X81025960Y-165831959D01*
X81000109Y-165863459D01*
X80922801Y-165957658D01*
X80846147Y-166101067D01*
X80798945Y-166256674D01*
X80783006Y-166418500D01*
X80787001Y-166459060D01*
X80787001Y-166525909D01*
X80745208Y-166560208D01*
X80635542Y-166693836D01*
X80554053Y-166846291D01*
X80503872Y-167011715D01*
X80486928Y-167183750D01*
X80486928Y-168096250D01*
X80503872Y-168268285D01*
X80554053Y-168433709D01*
X80635542Y-168586164D01*
X80745208Y-168719792D01*
X80878836Y-168829458D01*
X81031291Y-168910947D01*
X81196715Y-168961128D01*
X81368750Y-168978072D01*
X81856250Y-168978072D01*
X82028285Y-168961128D01*
X82193709Y-168910947D01*
X82346164Y-168829458D01*
X82479792Y-168719792D01*
X82550000Y-168634244D01*
X82620208Y-168719792D01*
X82753836Y-168829458D01*
X82906291Y-168910947D01*
X83071715Y-168961128D01*
X83243750Y-168978072D01*
X83731250Y-168978072D01*
X83903285Y-168961128D01*
X84068709Y-168910947D01*
X84221164Y-168829458D01*
X84354792Y-168719792D01*
X84464458Y-168586164D01*
X84545947Y-168433709D01*
X84596128Y-168268285D01*
X84613072Y-168096250D01*
X84613072Y-167183750D01*
X86836928Y-167183750D01*
X86836928Y-168096250D01*
X86853872Y-168268285D01*
X86904053Y-168433709D01*
X86985542Y-168586164D01*
X87095208Y-168719792D01*
X87228836Y-168829458D01*
X87381291Y-168910947D01*
X87546715Y-168961128D01*
X87718750Y-168978072D01*
X88206250Y-168978072D01*
X88378285Y-168961128D01*
X88543709Y-168910947D01*
X88696164Y-168829458D01*
X88829792Y-168719792D01*
X88900000Y-168634244D01*
X88970208Y-168719792D01*
X89103836Y-168829458D01*
X89256291Y-168910947D01*
X89421715Y-168961128D01*
X89593750Y-168978072D01*
X90081250Y-168978072D01*
X90253285Y-168961128D01*
X90418709Y-168910947D01*
X90571164Y-168829458D01*
X90704792Y-168719792D01*
X90814458Y-168586164D01*
X90895947Y-168433709D01*
X90946128Y-168268285D01*
X90963072Y-168096250D01*
X90963072Y-167183750D01*
X90946128Y-167011715D01*
X90895947Y-166846291D01*
X90814458Y-166693836D01*
X90704792Y-166560208D01*
X90571164Y-166450542D01*
X90418709Y-166369053D01*
X90253285Y-166318872D01*
X90081250Y-166301928D01*
X89593750Y-166301928D01*
X89421715Y-166318872D01*
X89256291Y-166369053D01*
X89103836Y-166450542D01*
X88970208Y-166560208D01*
X88900000Y-166645756D01*
X88829792Y-166560208D01*
X88696164Y-166450542D01*
X88543709Y-166369053D01*
X88378285Y-166318872D01*
X88206250Y-166301928D01*
X87718750Y-166301928D01*
X87546715Y-166318872D01*
X87381291Y-166369053D01*
X87228836Y-166450542D01*
X87095208Y-166560208D01*
X86985542Y-166693836D01*
X86904053Y-166846291D01*
X86853872Y-167011715D01*
X86836928Y-167183750D01*
X84613072Y-167183750D01*
X84596128Y-167011715D01*
X84545947Y-166846291D01*
X84464458Y-166693836D01*
X84354792Y-166560208D01*
X84315805Y-166528212D01*
X84343602Y-166539726D01*
X84543561Y-166579500D01*
X84747439Y-166579500D01*
X84947398Y-166539726D01*
X85135756Y-166461705D01*
X85305274Y-166348437D01*
X85449437Y-166204274D01*
X85562705Y-166034756D01*
X85640726Y-165846398D01*
X85680500Y-165646439D01*
X85680500Y-165442561D01*
X85640726Y-165242602D01*
X85562705Y-165054244D01*
X85471000Y-164916997D01*
X85471000Y-164403072D01*
X85701250Y-164403072D01*
X85764158Y-164454699D01*
X85907566Y-164531353D01*
X86063174Y-164578556D01*
X86184447Y-164590500D01*
X86184449Y-164590500D01*
X86225000Y-164594494D01*
X86265550Y-164590500D01*
X87884450Y-164590500D01*
X87925000Y-164594494D01*
X87965550Y-164590500D01*
X87965553Y-164590500D01*
X88086826Y-164578556D01*
X88242434Y-164531353D01*
X88385842Y-164454699D01*
X88511541Y-164351541D01*
X88537398Y-164320034D01*
X89429361Y-163428072D01*
X89598500Y-163428072D01*
X89598501Y-164805440D01*
X89594506Y-164846000D01*
X89610445Y-165007826D01*
X89657647Y-165163433D01*
X89734301Y-165306842D01*
X89775511Y-165357056D01*
X89837460Y-165432541D01*
X89868961Y-165458393D01*
X92605611Y-168195045D01*
X92631459Y-168226541D01*
X92662955Y-168252389D01*
X92662958Y-168252392D01*
X92757157Y-168329699D01*
X92900566Y-168406353D01*
X93056174Y-168453556D01*
X93177447Y-168465500D01*
X93177449Y-168465500D01*
X93218000Y-168469494D01*
X93258550Y-168465500D01*
X93271046Y-168465500D01*
X93335542Y-168586164D01*
X93445208Y-168719792D01*
X93578836Y-168829458D01*
X93731291Y-168910947D01*
X93896715Y-168961128D01*
X94068750Y-168978072D01*
X94556250Y-168978072D01*
X94728285Y-168961128D01*
X94893709Y-168910947D01*
X95046164Y-168829458D01*
X95179792Y-168719792D01*
X95250000Y-168634244D01*
X95320208Y-168719792D01*
X95453836Y-168829458D01*
X95606291Y-168910947D01*
X95771715Y-168961128D01*
X95943750Y-168978072D01*
X96431250Y-168978072D01*
X96603285Y-168961128D01*
X96768709Y-168910947D01*
X96921164Y-168829458D01*
X97054792Y-168719792D01*
X97164458Y-168586164D01*
X97245947Y-168433709D01*
X97296128Y-168268285D01*
X97313072Y-168096250D01*
X97313072Y-167183750D01*
X97296128Y-167011715D01*
X97245947Y-166846291D01*
X97164458Y-166693836D01*
X97054792Y-166560208D01*
X96921164Y-166450542D01*
X96768709Y-166369053D01*
X96603285Y-166318872D01*
X96431250Y-166301928D01*
X95943750Y-166301928D01*
X95771715Y-166318872D01*
X95606291Y-166369053D01*
X95453836Y-166450542D01*
X95320208Y-166560208D01*
X95250000Y-166645756D01*
X95179792Y-166560208D01*
X95046164Y-166450542D01*
X94893709Y-166369053D01*
X94728285Y-166318872D01*
X94556250Y-166301928D01*
X94068750Y-166301928D01*
X93896715Y-166318872D01*
X93731291Y-166369053D01*
X93578836Y-166450542D01*
X93445208Y-166560208D01*
X93382298Y-166636864D01*
X91249500Y-164504068D01*
X91249500Y-164406932D01*
X91862606Y-165020039D01*
X91888459Y-165051541D01*
X91927594Y-165083658D01*
X92014156Y-165154698D01*
X92014158Y-165154699D01*
X92157566Y-165231353D01*
X92313174Y-165278556D01*
X92434447Y-165290500D01*
X92434459Y-165290500D01*
X92474999Y-165294493D01*
X92515539Y-165290500D01*
X95526950Y-165290500D01*
X95567500Y-165294494D01*
X95608050Y-165290500D01*
X95608053Y-165290500D01*
X95729326Y-165278556D01*
X95884934Y-165231353D01*
X96028342Y-165154699D01*
X96154041Y-165051541D01*
X96179897Y-165020035D01*
X96757545Y-164442388D01*
X96789041Y-164416541D01*
X96814889Y-164385045D01*
X96814892Y-164385042D01*
X96892199Y-164290843D01*
X96968853Y-164147434D01*
X96968853Y-164147433D01*
X97016056Y-163991826D01*
X97028000Y-163870553D01*
X97028000Y-163870551D01*
X97031994Y-163830000D01*
X97028000Y-163789450D01*
X97028000Y-163661780D01*
X97054792Y-163639792D01*
X97164458Y-163506164D01*
X97245947Y-163353709D01*
X97296128Y-163188285D01*
X97313072Y-163016250D01*
X97313072Y-162103750D01*
X97296128Y-161931715D01*
X97245947Y-161766291D01*
X97164458Y-161613836D01*
X97054792Y-161480208D01*
X96921164Y-161370542D01*
X96768709Y-161289053D01*
X96603285Y-161238872D01*
X96431250Y-161221928D01*
X95943750Y-161221928D01*
X95771715Y-161238872D01*
X95606291Y-161289053D01*
X95453836Y-161370542D01*
X95320208Y-161480208D01*
X95250000Y-161565756D01*
X95179792Y-161480208D01*
X95060580Y-161382373D01*
X95660953Y-160782000D01*
X96178453Y-160782000D01*
X96281602Y-160824726D01*
X96481561Y-160864500D01*
X96685439Y-160864500D01*
X96885398Y-160824726D01*
X96988547Y-160782000D01*
X98933068Y-160782000D01*
X98902068Y-160856842D01*
X98845000Y-161143740D01*
X98845000Y-161436260D01*
X98902068Y-161723158D01*
X99014010Y-161993411D01*
X99176525Y-162236632D01*
X99383368Y-162443475D01*
X99557760Y-162560000D01*
X99383368Y-162676525D01*
X99176525Y-162883368D01*
X99014010Y-163126589D01*
X98902068Y-163396842D01*
X98845000Y-163683740D01*
X98845000Y-163976260D01*
X98902068Y-164263158D01*
X99014010Y-164533411D01*
X99176525Y-164776632D01*
X99383368Y-164983475D01*
X99557760Y-165100000D01*
X99383368Y-165216525D01*
X99176525Y-165423368D01*
X99014010Y-165666589D01*
X98902068Y-165936842D01*
X98845000Y-166223740D01*
X98845000Y-166516260D01*
X98902068Y-166803158D01*
X99014010Y-167073411D01*
X99176525Y-167316632D01*
X99383368Y-167523475D01*
X99557760Y-167640000D01*
X99383368Y-167756525D01*
X99176525Y-167963368D01*
X99014010Y-168206589D01*
X98902068Y-168476842D01*
X98845000Y-168763740D01*
X98845000Y-169056260D01*
X98902068Y-169343158D01*
X99014010Y-169613411D01*
X99176525Y-169856632D01*
X99383368Y-170063475D01*
X99557760Y-170180000D01*
X99383368Y-170296525D01*
X99176525Y-170503368D01*
X99095587Y-170624500D01*
X98643339Y-170624500D01*
X98602799Y-170620507D01*
X98562259Y-170624500D01*
X98562247Y-170624500D01*
X98440974Y-170636444D01*
X98285366Y-170683647D01*
X98167611Y-170746589D01*
X98141956Y-170760302D01*
X98110111Y-170786437D01*
X98016259Y-170863459D01*
X97990402Y-170894966D01*
X97539761Y-171345607D01*
X97508260Y-171371459D01*
X97482409Y-171402959D01*
X97405101Y-171497158D01*
X97328447Y-171640567D01*
X97281245Y-171796174D01*
X97265306Y-171958000D01*
X97269301Y-171998560D01*
X97269301Y-172638278D01*
X97245947Y-172561291D01*
X97164458Y-172408836D01*
X97054792Y-172275208D01*
X96921164Y-172165542D01*
X96768709Y-172084053D01*
X96603285Y-172033872D01*
X96431250Y-172016928D01*
X95943750Y-172016928D01*
X95771715Y-172033872D01*
X95606291Y-172084053D01*
X95453836Y-172165542D01*
X95320208Y-172275208D01*
X95250000Y-172360756D01*
X95179792Y-172275208D01*
X95046164Y-172165542D01*
X94893709Y-172084053D01*
X94728285Y-172033872D01*
X94556250Y-172016928D01*
X94068750Y-172016928D01*
X93896715Y-172033872D01*
X93731291Y-172084053D01*
X93578836Y-172165542D01*
X93445208Y-172275208D01*
X93335542Y-172408836D01*
X93271046Y-172529500D01*
X92148954Y-172529500D01*
X92084458Y-172408836D01*
X91974792Y-172275208D01*
X91841164Y-172165542D01*
X91688709Y-172084053D01*
X91523285Y-172033872D01*
X91351250Y-172016928D01*
X90863750Y-172016928D01*
X90691715Y-172033872D01*
X90526291Y-172084053D01*
X90373836Y-172165542D01*
X90240208Y-172275208D01*
X90170000Y-172360756D01*
X90099792Y-172275208D01*
X90058000Y-172240910D01*
X90058000Y-172077050D01*
X90061994Y-172036499D01*
X90058000Y-171995947D01*
X90046056Y-171874674D01*
X89998853Y-171719066D01*
X89941532Y-171611827D01*
X89922199Y-171575657D01*
X89844891Y-171481458D01*
X89819041Y-171449959D01*
X89787540Y-171424107D01*
X89258398Y-170894966D01*
X89232541Y-170863459D01*
X89106842Y-170760301D01*
X88963434Y-170683647D01*
X88807826Y-170636444D01*
X88686553Y-170624500D01*
X88686550Y-170624500D01*
X88646000Y-170620506D01*
X88605450Y-170624500D01*
X84622550Y-170624500D01*
X84582000Y-170620506D01*
X84541449Y-170624500D01*
X84541447Y-170624500D01*
X84420174Y-170636444D01*
X84264566Y-170683647D01*
X84121157Y-170760301D01*
X84026958Y-170837608D01*
X84026957Y-170837609D01*
X83995459Y-170863459D01*
X83969611Y-170894956D01*
X83264961Y-171599607D01*
X83233460Y-171625459D01*
X83207609Y-171656959D01*
X83130301Y-171751158D01*
X83053647Y-171894567D01*
X83006445Y-172050174D01*
X82990506Y-172212000D01*
X82993439Y-172241781D01*
X82952708Y-172275208D01*
X82886550Y-172355822D01*
X82820392Y-172275208D01*
X82686764Y-172165542D01*
X82534309Y-172084053D01*
X82368885Y-172033872D01*
X82196850Y-172016928D01*
X81782461Y-172016928D01*
X80660498Y-170894966D01*
X80634641Y-170863459D01*
X80508942Y-170760301D01*
X80365534Y-170683647D01*
X80209926Y-170636444D01*
X80088653Y-170624500D01*
X80088650Y-170624500D01*
X80048100Y-170620506D01*
X80007550Y-170624500D01*
X78704413Y-170624500D01*
X78623475Y-170503368D01*
X78416632Y-170296525D01*
X78242240Y-170180000D01*
X78416632Y-170063475D01*
X78623475Y-169856632D01*
X78785990Y-169613411D01*
X78897932Y-169343158D01*
X78955000Y-169056260D01*
X78955000Y-168763740D01*
X78897932Y-168476842D01*
X78785990Y-168206589D01*
X78623475Y-167963368D01*
X78416632Y-167756525D01*
X78242240Y-167640000D01*
X78416632Y-167523475D01*
X78623475Y-167316632D01*
X78785990Y-167073411D01*
X78897932Y-166803158D01*
X78955000Y-166516260D01*
X78955000Y-166223740D01*
X78897932Y-165936842D01*
X78785990Y-165666589D01*
X78623475Y-165423368D01*
X78416632Y-165216525D01*
X78242240Y-165100000D01*
X78416632Y-164983475D01*
X78623475Y-164776632D01*
X78785990Y-164533411D01*
X78897932Y-164263158D01*
X78955000Y-163976260D01*
X78955000Y-163683740D01*
X78897932Y-163396842D01*
X78785990Y-163126589D01*
X78623475Y-162883368D01*
X78416632Y-162676525D01*
X78242240Y-162560000D01*
X78416632Y-162443475D01*
X78623475Y-162236632D01*
X78785990Y-161993411D01*
X78897932Y-161723158D01*
X78955000Y-161436260D01*
X78955000Y-161143740D01*
X78897932Y-160856842D01*
X78866932Y-160782000D01*
X80906048Y-160782000D01*
X80870425Y-160848647D01*
G36*
X83610500Y-165646439D02*
G01*
X83650274Y-165846398D01*
X83728295Y-166034756D01*
X83841563Y-166204274D01*
X83979185Y-166341896D01*
X83903285Y-166318872D01*
X83731250Y-166301928D01*
X83243750Y-166301928D01*
X83071715Y-166318872D01*
X82906291Y-166369053D01*
X82753836Y-166450542D01*
X82720679Y-166477754D01*
X83610500Y-165587933D01*
X83610500Y-165646439D01*
G37*
X83610500Y-165646439D02*
X83650274Y-165846398D01*
X83728295Y-166034756D01*
X83841563Y-166204274D01*
X83979185Y-166341896D01*
X83903285Y-166318872D01*
X83731250Y-166301928D01*
X83243750Y-166301928D01*
X83071715Y-166318872D01*
X82906291Y-166369053D01*
X82753836Y-166450542D01*
X82720679Y-166477754D01*
X83610500Y-165587933D01*
X83610500Y-165646439D01*
G36*
X95277417Y-163587651D02*
G01*
X95225567Y-163639500D01*
X95180032Y-163639500D01*
X95250000Y-163554244D01*
X95277417Y-163587651D01*
G37*
X95277417Y-163587651D02*
X95225567Y-163639500D01*
X95180032Y-163639500D01*
X95250000Y-163554244D01*
X95277417Y-163587651D01*
G36*
X93203872Y-163188285D02*
G01*
X93254053Y-163353709D01*
X93335542Y-163506164D01*
X93444968Y-163639500D01*
X93188072Y-163639500D01*
X93188072Y-163465000D01*
X93173890Y-163321009D01*
X93149316Y-163240000D01*
X93173890Y-163158991D01*
X93180636Y-163090500D01*
X93194241Y-163090500D01*
X93203872Y-163188285D01*
G37*
X93203872Y-163188285D02*
X93254053Y-163353709D01*
X93335542Y-163506164D01*
X93444968Y-163639500D01*
X93188072Y-163639500D01*
X93188072Y-163465000D01*
X93173890Y-163321009D01*
X93149316Y-163240000D01*
X93173890Y-163158991D01*
X93180636Y-163090500D01*
X93194241Y-163090500D01*
X93203872Y-163188285D01*
G36*
X83658138Y-161221928D02*
G01*
X83243750Y-161221928D01*
X83071715Y-161238872D01*
X82906291Y-161289053D01*
X82753836Y-161370542D01*
X82620208Y-161480208D01*
X82550000Y-161565756D01*
X82493960Y-161497472D01*
X82850933Y-161140500D01*
X83739566Y-161140500D01*
X83658138Y-161221928D01*
G37*
X83658138Y-161221928D02*
X83243750Y-161221928D01*
X83071715Y-161238872D01*
X82906291Y-161289053D01*
X82753836Y-161370542D01*
X82620208Y-161480208D01*
X82550000Y-161565756D01*
X82493960Y-161497472D01*
X82850933Y-161140500D01*
X83739566Y-161140500D01*
X83658138Y-161221928D01*
M02*
