G04 #@! TF.GenerationSoftware,KiCad,Pcbnew,(5.1.5)-3*
G04 #@! TF.CreationDate,2020-05-07T11:30:42+02:00*
G04 #@! TF.ProjectId,TPS26600_ePuse,54505332-3636-4303-905f-65507573652e,rev?*
G04 #@! TF.SameCoordinates,Original*
G04 #@! TF.FileFunction,Legend,Top*
G04 #@! TF.FilePolarity,Positive*
%FSLAX46Y46*%
G04 Gerber Fmt 4.6, Leading zero omitted, Abs format (unit mm)*
G04 Created by KiCad (PCBNEW (5.1.5)-3) date 2020-05-07 11:30:42*
%MOMM*%
%LPD*%
G04 APERTURE LIST*
%ADD10C,0.150000*%
%ADD11C,0.120000*%
%ADD12C,0.279400*%
%ADD13C,0.010000*%
G04 APERTURE END LIST*
D10*
X90146666Y-146756428D02*
X90908571Y-146756428D01*
X90527619Y-147137380D02*
X90527619Y-146375476D01*
X91575238Y-146137380D02*
X91765714Y-146137380D01*
X91860952Y-146185000D01*
X91956190Y-146280238D01*
X92003809Y-146470714D01*
X92003809Y-146804047D01*
X91956190Y-146994523D01*
X91860952Y-147089761D01*
X91765714Y-147137380D01*
X91575238Y-147137380D01*
X91480000Y-147089761D01*
X91384761Y-146994523D01*
X91337142Y-146804047D01*
X91337142Y-146470714D01*
X91384761Y-146280238D01*
X91480000Y-146185000D01*
X91575238Y-146137380D01*
X92432380Y-146137380D02*
X92432380Y-146946904D01*
X92480000Y-147042142D01*
X92527619Y-147089761D01*
X92622857Y-147137380D01*
X92813333Y-147137380D01*
X92908571Y-147089761D01*
X92956190Y-147042142D01*
X93003809Y-146946904D01*
X93003809Y-146137380D01*
X93337142Y-146137380D02*
X93908571Y-146137380D01*
X93622857Y-147137380D02*
X93622857Y-146137380D01*
X94241904Y-147137380D02*
X94241904Y-146137380D01*
X94622857Y-146137380D01*
X94718095Y-146185000D01*
X94765714Y-146232619D01*
X94813333Y-146327857D01*
X94813333Y-146470714D01*
X94765714Y-146565952D01*
X94718095Y-146613571D01*
X94622857Y-146661190D01*
X94241904Y-146661190D01*
X95241904Y-146137380D02*
X95241904Y-146946904D01*
X95289523Y-147042142D01*
X95337142Y-147089761D01*
X95432380Y-147137380D01*
X95622857Y-147137380D01*
X95718095Y-147089761D01*
X95765714Y-147042142D01*
X95813333Y-146946904D01*
X95813333Y-146137380D01*
X96146666Y-146137380D02*
X96718095Y-146137380D01*
X96432380Y-147137380D02*
X96432380Y-146137380D01*
X97051428Y-146756428D02*
X97813333Y-146756428D01*
X80653333Y-146756428D02*
X81415238Y-146756428D01*
X81034285Y-147137380D02*
X81034285Y-146375476D01*
X81891428Y-147137380D02*
X81891428Y-146137380D01*
X82367619Y-147137380D02*
X82367619Y-146137380D01*
X82939047Y-147137380D01*
X82939047Y-146137380D01*
X83415238Y-147137380D02*
X83415238Y-146137380D01*
X83796190Y-146137380D01*
X83891428Y-146185000D01*
X83939047Y-146232619D01*
X83986666Y-146327857D01*
X83986666Y-146470714D01*
X83939047Y-146565952D01*
X83891428Y-146613571D01*
X83796190Y-146661190D01*
X83415238Y-146661190D01*
X84415238Y-146137380D02*
X84415238Y-146946904D01*
X84462857Y-147042142D01*
X84510476Y-147089761D01*
X84605714Y-147137380D01*
X84796190Y-147137380D01*
X84891428Y-147089761D01*
X84939047Y-147042142D01*
X84986666Y-146946904D01*
X84986666Y-146137380D01*
X85320000Y-146137380D02*
X85891428Y-146137380D01*
X85605714Y-147137380D02*
X85605714Y-146137380D01*
X86224761Y-146756428D02*
X86986666Y-146756428D01*
X84944857Y-170397714D02*
X84582000Y-170397714D01*
X84545714Y-170760571D01*
X84582000Y-170724285D01*
X84654571Y-170688000D01*
X84836000Y-170688000D01*
X84908571Y-170724285D01*
X84944857Y-170760571D01*
X84981142Y-170833142D01*
X84981142Y-171014571D01*
X84944857Y-171087142D01*
X84908571Y-171123428D01*
X84836000Y-171159714D01*
X84654571Y-171159714D01*
X84582000Y-171123428D01*
X84545714Y-171087142D01*
X85198857Y-170397714D02*
X85452857Y-171159714D01*
X85706857Y-170397714D01*
X81606571Y-170397714D02*
X82078285Y-170397714D01*
X81824285Y-170688000D01*
X81933142Y-170688000D01*
X82005714Y-170724285D01*
X82042000Y-170760571D01*
X82078285Y-170833142D01*
X82078285Y-171014571D01*
X82042000Y-171087142D01*
X82005714Y-171123428D01*
X81933142Y-171159714D01*
X81715428Y-171159714D01*
X81642857Y-171123428D01*
X81606571Y-171087142D01*
X82296000Y-170397714D02*
X82550000Y-171159714D01*
X82804000Y-170397714D01*
X82985428Y-170397714D02*
X83457142Y-170397714D01*
X83203142Y-170688000D01*
X83312000Y-170688000D01*
X83384571Y-170724285D01*
X83420857Y-170760571D01*
X83457142Y-170833142D01*
X83457142Y-171014571D01*
X83420857Y-171087142D01*
X83384571Y-171123428D01*
X83312000Y-171159714D01*
X83094285Y-171159714D01*
X83021714Y-171123428D01*
X82985428Y-171087142D01*
D11*
X86106000Y-171704000D02*
X86106000Y-172212000D01*
X84074000Y-171704000D02*
X86106000Y-171704000D01*
X84074000Y-172212000D02*
X84074000Y-171704000D01*
X83566000Y-171704000D02*
X83566000Y-172212000D01*
X81534000Y-171704000D02*
X83566000Y-171704000D01*
X81534000Y-172212000D02*
X81534000Y-171704000D01*
D10*
X94234000Y-171794714D02*
X94234000Y-171032714D01*
X94524285Y-171032714D01*
X94596857Y-171069000D01*
X94633142Y-171105285D01*
X94669428Y-171177857D01*
X94669428Y-171286714D01*
X94633142Y-171359285D01*
X94596857Y-171395571D01*
X94524285Y-171431857D01*
X94234000Y-171431857D01*
X94923428Y-171032714D02*
X95104857Y-171794714D01*
X95250000Y-171250428D01*
X95395142Y-171794714D01*
X95576571Y-171032714D01*
X96302285Y-171794714D02*
X96048285Y-171431857D01*
X95866857Y-171794714D02*
X95866857Y-171032714D01*
X96157142Y-171032714D01*
X96229714Y-171069000D01*
X96266000Y-171105285D01*
X96302285Y-171177857D01*
X96302285Y-171286714D01*
X96266000Y-171359285D01*
X96229714Y-171395571D01*
X96157142Y-171431857D01*
X95866857Y-171431857D01*
X79719714Y-156645428D02*
X78957714Y-156645428D01*
X79719714Y-156282571D02*
X78957714Y-156282571D01*
X79502000Y-156028571D01*
X78957714Y-155774571D01*
X79719714Y-155774571D01*
X79683428Y-162287857D02*
X79719714Y-162179000D01*
X79719714Y-161997571D01*
X79683428Y-161925000D01*
X79647142Y-161888714D01*
X79574571Y-161852428D01*
X79502000Y-161852428D01*
X79429428Y-161888714D01*
X79393142Y-161925000D01*
X79356857Y-161997571D01*
X79320571Y-162142714D01*
X79284285Y-162215285D01*
X79248000Y-162251571D01*
X79175428Y-162287857D01*
X79102857Y-162287857D01*
X79030285Y-162251571D01*
X78994000Y-162215285D01*
X78957714Y-162142714D01*
X78957714Y-161961285D01*
X78994000Y-161852428D01*
X79719714Y-161525857D02*
X78957714Y-161525857D01*
X78957714Y-161344428D01*
X78994000Y-161235571D01*
X79066571Y-161163000D01*
X79139142Y-161126714D01*
X79284285Y-161090428D01*
X79393142Y-161090428D01*
X79538285Y-161126714D01*
X79610857Y-161163000D01*
X79683428Y-161235571D01*
X79719714Y-161344428D01*
X79719714Y-161525857D01*
X79719714Y-160763857D02*
X78957714Y-160763857D01*
X79719714Y-160328428D01*
X78957714Y-160328428D01*
X98370571Y-159239857D02*
X98370571Y-159493857D01*
X98769714Y-159493857D02*
X98007714Y-159493857D01*
X98007714Y-159131000D01*
X98769714Y-158477857D02*
X98769714Y-158840714D01*
X98007714Y-158840714D01*
X98007714Y-158332714D02*
X98007714Y-157897285D01*
X98769714Y-158115000D02*
X98007714Y-158115000D01*
X98007714Y-171595142D02*
X98007714Y-171958000D01*
X98370571Y-171994285D01*
X98334285Y-171958000D01*
X98298000Y-171885428D01*
X98298000Y-171704000D01*
X98334285Y-171631428D01*
X98370571Y-171595142D01*
X98443142Y-171558857D01*
X98624571Y-171558857D01*
X98697142Y-171595142D01*
X98733428Y-171631428D01*
X98769714Y-171704000D01*
X98769714Y-171885428D01*
X98733428Y-171958000D01*
X98697142Y-171994285D01*
X98007714Y-171341142D02*
X98769714Y-171087142D01*
X98007714Y-170833142D01*
X98044000Y-174570571D02*
X98007714Y-174643142D01*
X98007714Y-174752000D01*
X98044000Y-174860857D01*
X98116571Y-174933428D01*
X98189142Y-174969714D01*
X98334285Y-175006000D01*
X98443142Y-175006000D01*
X98588285Y-174969714D01*
X98660857Y-174933428D01*
X98733428Y-174860857D01*
X98769714Y-174752000D01*
X98769714Y-174679428D01*
X98733428Y-174570571D01*
X98697142Y-174534285D01*
X98443142Y-174534285D01*
X98443142Y-174679428D01*
X98769714Y-174207714D02*
X98007714Y-174207714D01*
X98769714Y-173772285D01*
X98007714Y-173772285D01*
X98769714Y-173409428D02*
X98007714Y-173409428D01*
X98007714Y-173228000D01*
X98044000Y-173119142D01*
X98116571Y-173046571D01*
X98189142Y-173010285D01*
X98334285Y-172974000D01*
X98443142Y-172974000D01*
X98588285Y-173010285D01*
X98660857Y-173046571D01*
X98733428Y-173119142D01*
X98769714Y-173228000D01*
X98769714Y-173409428D01*
X78994000Y-174570571D02*
X78957714Y-174643142D01*
X78957714Y-174752000D01*
X78994000Y-174860857D01*
X79066571Y-174933428D01*
X79139142Y-174969714D01*
X79284285Y-175006000D01*
X79393142Y-175006000D01*
X79538285Y-174969714D01*
X79610857Y-174933428D01*
X79683428Y-174860857D01*
X79719714Y-174752000D01*
X79719714Y-174679428D01*
X79683428Y-174570571D01*
X79647142Y-174534285D01*
X79393142Y-174534285D01*
X79393142Y-174679428D01*
X79719714Y-174207714D02*
X78957714Y-174207714D01*
X79719714Y-173772285D01*
X78957714Y-173772285D01*
X79719714Y-173409428D02*
X78957714Y-173409428D01*
X78957714Y-173228000D01*
X78994000Y-173119142D01*
X79066571Y-173046571D01*
X79139142Y-173010285D01*
X79284285Y-172974000D01*
X79393142Y-172974000D01*
X79538285Y-173010285D01*
X79610857Y-173046571D01*
X79683428Y-173119142D01*
X79719714Y-173228000D01*
X79719714Y-173409428D01*
X78957714Y-172393428D02*
X78957714Y-171921714D01*
X79248000Y-172175714D01*
X79248000Y-172066857D01*
X79284285Y-171994285D01*
X79320571Y-171958000D01*
X79393142Y-171921714D01*
X79574571Y-171921714D01*
X79647142Y-171958000D01*
X79683428Y-171994285D01*
X79719714Y-172066857D01*
X79719714Y-172284571D01*
X79683428Y-172357142D01*
X79647142Y-172393428D01*
X78957714Y-171704000D02*
X79719714Y-171450000D01*
X78957714Y-171196000D01*
X78957714Y-171014571D02*
X78957714Y-170542857D01*
X79248000Y-170796857D01*
X79248000Y-170688000D01*
X79284285Y-170615428D01*
X79320571Y-170579142D01*
X79393142Y-170542857D01*
X79574571Y-170542857D01*
X79647142Y-170579142D01*
X79683428Y-170615428D01*
X79719714Y-170688000D01*
X79719714Y-170905714D01*
X79683428Y-170978285D01*
X79647142Y-171014571D01*
X98769714Y-156808714D02*
X98007714Y-156808714D01*
X98769714Y-156373285D01*
X98007714Y-156373285D01*
X98697142Y-155575000D02*
X98733428Y-155611285D01*
X98769714Y-155720142D01*
X98769714Y-155792714D01*
X98733428Y-155901571D01*
X98660857Y-155974142D01*
X98588285Y-156010428D01*
X98443142Y-156046714D01*
X98334285Y-156046714D01*
X98189142Y-156010428D01*
X98116571Y-155974142D01*
X98044000Y-155901571D01*
X98007714Y-155792714D01*
X98007714Y-155720142D01*
X98044000Y-155611285D01*
X98080285Y-155575000D01*
X98769714Y-161888714D02*
X98007714Y-161888714D01*
X98769714Y-161453285D01*
X98007714Y-161453285D01*
X98697142Y-160655000D02*
X98733428Y-160691285D01*
X98769714Y-160800142D01*
X98769714Y-160872714D01*
X98733428Y-160981571D01*
X98660857Y-161054142D01*
X98588285Y-161090428D01*
X98443142Y-161126714D01*
X98334285Y-161126714D01*
X98189142Y-161090428D01*
X98116571Y-161054142D01*
X98044000Y-160981571D01*
X98007714Y-160872714D01*
X98007714Y-160800142D01*
X98044000Y-160691285D01*
X98080285Y-160655000D01*
X98769714Y-164428714D02*
X98007714Y-164428714D01*
X98769714Y-163993285D01*
X98007714Y-163993285D01*
X98697142Y-163195000D02*
X98733428Y-163231285D01*
X98769714Y-163340142D01*
X98769714Y-163412714D01*
X98733428Y-163521571D01*
X98660857Y-163594142D01*
X98588285Y-163630428D01*
X98443142Y-163666714D01*
X98334285Y-163666714D01*
X98189142Y-163630428D01*
X98116571Y-163594142D01*
X98044000Y-163521571D01*
X98007714Y-163412714D01*
X98007714Y-163340142D01*
X98044000Y-163231285D01*
X98080285Y-163195000D01*
X98769714Y-166968714D02*
X98007714Y-166968714D01*
X98769714Y-166533285D01*
X98007714Y-166533285D01*
X98697142Y-165735000D02*
X98733428Y-165771285D01*
X98769714Y-165880142D01*
X98769714Y-165952714D01*
X98733428Y-166061571D01*
X98660857Y-166134142D01*
X98588285Y-166170428D01*
X98443142Y-166206714D01*
X98334285Y-166206714D01*
X98189142Y-166170428D01*
X98116571Y-166134142D01*
X98044000Y-166061571D01*
X98007714Y-165952714D01*
X98007714Y-165880142D01*
X98044000Y-165771285D01*
X98080285Y-165735000D01*
X98769714Y-169508714D02*
X98007714Y-169508714D01*
X98769714Y-169073285D01*
X98007714Y-169073285D01*
X98697142Y-168275000D02*
X98733428Y-168311285D01*
X98769714Y-168420142D01*
X98769714Y-168492714D01*
X98733428Y-168601571D01*
X98660857Y-168674142D01*
X98588285Y-168710428D01*
X98443142Y-168746714D01*
X98334285Y-168746714D01*
X98189142Y-168710428D01*
X98116571Y-168674142D01*
X98044000Y-168601571D01*
X98007714Y-168492714D01*
X98007714Y-168420142D01*
X98044000Y-168311285D01*
X98080285Y-168275000D01*
X79719714Y-159348714D02*
X78957714Y-159348714D01*
X79719714Y-158913285D01*
X78957714Y-158913285D01*
X79647142Y-158115000D02*
X79683428Y-158151285D01*
X79719714Y-158260142D01*
X79719714Y-158332714D01*
X79683428Y-158441571D01*
X79610857Y-158514142D01*
X79538285Y-158550428D01*
X79393142Y-158586714D01*
X79284285Y-158586714D01*
X79139142Y-158550428D01*
X79066571Y-158514142D01*
X78994000Y-158441571D01*
X78957714Y-158332714D01*
X78957714Y-158260142D01*
X78994000Y-158151285D01*
X79030285Y-158115000D01*
X79719714Y-169508714D02*
X78957714Y-169508714D01*
X79719714Y-169073285D01*
X78957714Y-169073285D01*
X79647142Y-168275000D02*
X79683428Y-168311285D01*
X79719714Y-168420142D01*
X79719714Y-168492714D01*
X79683428Y-168601571D01*
X79610857Y-168674142D01*
X79538285Y-168710428D01*
X79393142Y-168746714D01*
X79284285Y-168746714D01*
X79139142Y-168710428D01*
X79066571Y-168674142D01*
X78994000Y-168601571D01*
X78957714Y-168492714D01*
X78957714Y-168420142D01*
X78994000Y-168311285D01*
X79030285Y-168275000D01*
X79719714Y-164428714D02*
X78957714Y-164428714D01*
X79719714Y-163993285D01*
X78957714Y-163993285D01*
X79647142Y-163195000D02*
X79683428Y-163231285D01*
X79719714Y-163340142D01*
X79719714Y-163412714D01*
X79683428Y-163521571D01*
X79610857Y-163594142D01*
X79538285Y-163630428D01*
X79393142Y-163666714D01*
X79284285Y-163666714D01*
X79139142Y-163630428D01*
X79066571Y-163594142D01*
X78994000Y-163521571D01*
X78957714Y-163412714D01*
X78957714Y-163340142D01*
X78994000Y-163231285D01*
X79030285Y-163195000D01*
X79719714Y-166968714D02*
X78957714Y-166968714D01*
X79719714Y-166533285D01*
X78957714Y-166533285D01*
X79647142Y-165735000D02*
X79683428Y-165771285D01*
X79719714Y-165880142D01*
X79719714Y-165952714D01*
X79683428Y-166061571D01*
X79610857Y-166134142D01*
X79538285Y-166170428D01*
X79393142Y-166206714D01*
X79284285Y-166206714D01*
X79139142Y-166170428D01*
X79066571Y-166134142D01*
X78994000Y-166061571D01*
X78957714Y-165952714D01*
X78957714Y-165880142D01*
X78994000Y-165771285D01*
X79030285Y-165735000D01*
D12*
X85852000Y-177146857D02*
X85706857Y-177219428D01*
X85416571Y-177219428D01*
X85271428Y-177146857D01*
X85198857Y-177001714D01*
X85198857Y-176421142D01*
X85271428Y-176276000D01*
X85416571Y-176203428D01*
X85706857Y-176203428D01*
X85852000Y-176276000D01*
X85924571Y-176421142D01*
X85924571Y-176566285D01*
X85198857Y-176711428D01*
X87085714Y-176421142D02*
X86577714Y-176421142D01*
X86577714Y-177219428D02*
X86577714Y-175695428D01*
X87303428Y-175695428D01*
X88537142Y-176203428D02*
X88537142Y-177219428D01*
X87884000Y-176203428D02*
X87884000Y-177001714D01*
X87956571Y-177146857D01*
X88101714Y-177219428D01*
X88319428Y-177219428D01*
X88464571Y-177146857D01*
X88537142Y-177074285D01*
X89190285Y-177146857D02*
X89335428Y-177219428D01*
X89625714Y-177219428D01*
X89770857Y-177146857D01*
X89843428Y-177001714D01*
X89843428Y-176929142D01*
X89770857Y-176784000D01*
X89625714Y-176711428D01*
X89408000Y-176711428D01*
X89262857Y-176638857D01*
X89190285Y-176493714D01*
X89190285Y-176421142D01*
X89262857Y-176276000D01*
X89408000Y-176203428D01*
X89625714Y-176203428D01*
X89770857Y-176276000D01*
X91077142Y-177146857D02*
X90932000Y-177219428D01*
X90641714Y-177219428D01*
X90496571Y-177146857D01*
X90424000Y-177001714D01*
X90424000Y-176421142D01*
X90496571Y-176276000D01*
X90641714Y-176203428D01*
X90932000Y-176203428D01*
X91077142Y-176276000D01*
X91149714Y-176421142D01*
X91149714Y-176566285D01*
X90424000Y-176711428D01*
X92601142Y-177219428D02*
X91730285Y-177219428D01*
X92165714Y-177219428D02*
X92165714Y-175695428D01*
X92020571Y-175913142D01*
X91875428Y-176058285D01*
X91730285Y-176130857D01*
D11*
X101600000Y-172720000D02*
X99060000Y-172720000D01*
X101600000Y-170180000D02*
X99060000Y-170180000D01*
X101600000Y-167640000D02*
X99060000Y-167640000D01*
X101600000Y-165100000D02*
X99060000Y-165100000D01*
X101600000Y-162560000D02*
X99060000Y-162560000D01*
X101600000Y-160020000D02*
X99060000Y-160020000D01*
X101600000Y-157480000D02*
X99060000Y-157480000D01*
X76200000Y-157480000D02*
X78740000Y-157480000D01*
X76200000Y-160020000D02*
X78740000Y-160020000D01*
X76200000Y-162560000D02*
X78740000Y-162560000D01*
X76200000Y-165100000D02*
X78740000Y-165100000D01*
X76200000Y-167640000D02*
X78740000Y-167640000D01*
X76200000Y-170180000D02*
X78740000Y-170180000D01*
X76200000Y-172720000D02*
X78740000Y-172720000D01*
D13*
G36*
X89204798Y-150183848D02*
G01*
X89248462Y-150228897D01*
X88936101Y-150542923D01*
X88623740Y-150856950D01*
X88660270Y-150925075D01*
X88680267Y-150968615D01*
X88693536Y-151009473D01*
X88696800Y-151031227D01*
X88699099Y-151057374D01*
X88710944Y-151064520D01*
X88731725Y-151060927D01*
X88767604Y-151047190D01*
X88801575Y-151027420D01*
X88825101Y-151011560D01*
X88834663Y-151010723D01*
X88836499Y-151024535D01*
X88836500Y-151025328D01*
X88828002Y-151062233D01*
X88806383Y-151106532D01*
X88777448Y-151148684D01*
X88747004Y-151179147D01*
X88740146Y-151183643D01*
X88672050Y-151208395D01*
X88594107Y-151211560D01*
X88515843Y-151194859D01*
X88463319Y-151172736D01*
X88407725Y-151142010D01*
X88378041Y-151121855D01*
X88342578Y-151091045D01*
X88304448Y-151051641D01*
X88268132Y-151009128D01*
X88238111Y-150968992D01*
X88218867Y-150936722D01*
X88214200Y-150921259D01*
X88222730Y-150907085D01*
X88245849Y-150879509D01*
X88279844Y-150842746D01*
X88313883Y-150808055D01*
X88413566Y-150708957D01*
X88458382Y-150727682D01*
X88490146Y-150743782D01*
X88510892Y-150759420D01*
X88512740Y-150761846D01*
X88524500Y-150757639D01*
X88553415Y-150734947D01*
X88599352Y-150693892D01*
X88662179Y-150634597D01*
X88741762Y-150557184D01*
X88837968Y-150461777D01*
X88841708Y-150458041D01*
X89161134Y-150138798D01*
X89204798Y-150183848D01*
G37*
X89204798Y-150183848D02*
X89248462Y-150228897D01*
X88936101Y-150542923D01*
X88623740Y-150856950D01*
X88660270Y-150925075D01*
X88680267Y-150968615D01*
X88693536Y-151009473D01*
X88696800Y-151031227D01*
X88699099Y-151057374D01*
X88710944Y-151064520D01*
X88731725Y-151060927D01*
X88767604Y-151047190D01*
X88801575Y-151027420D01*
X88825101Y-151011560D01*
X88834663Y-151010723D01*
X88836499Y-151024535D01*
X88836500Y-151025328D01*
X88828002Y-151062233D01*
X88806383Y-151106532D01*
X88777448Y-151148684D01*
X88747004Y-151179147D01*
X88740146Y-151183643D01*
X88672050Y-151208395D01*
X88594107Y-151211560D01*
X88515843Y-151194859D01*
X88463319Y-151172736D01*
X88407725Y-151142010D01*
X88378041Y-151121855D01*
X88342578Y-151091045D01*
X88304448Y-151051641D01*
X88268132Y-151009128D01*
X88238111Y-150968992D01*
X88218867Y-150936722D01*
X88214200Y-150921259D01*
X88222730Y-150907085D01*
X88245849Y-150879509D01*
X88279844Y-150842746D01*
X88313883Y-150808055D01*
X88413566Y-150708957D01*
X88458382Y-150727682D01*
X88490146Y-150743782D01*
X88510892Y-150759420D01*
X88512740Y-150761846D01*
X88524500Y-150757639D01*
X88553415Y-150734947D01*
X88599352Y-150693892D01*
X88662179Y-150634597D01*
X88741762Y-150557184D01*
X88837968Y-150461777D01*
X88841708Y-150458041D01*
X89161134Y-150138798D01*
X89204798Y-150183848D01*
G36*
X89801307Y-148644033D02*
G01*
X89892485Y-148677893D01*
X89992494Y-148729661D01*
X90099351Y-148798422D01*
X90211075Y-148883260D01*
X90233500Y-148901800D01*
X90341014Y-148998301D01*
X90439855Y-149099606D01*
X90528507Y-149203302D01*
X90605454Y-149306976D01*
X90669180Y-149408216D01*
X90718168Y-149504609D01*
X90750902Y-149593743D01*
X90765867Y-149673206D01*
X90761545Y-149740585D01*
X90761293Y-149741624D01*
X90750629Y-149758075D01*
X90724137Y-149789852D01*
X90684178Y-149834549D01*
X90633112Y-149889760D01*
X90573298Y-149953082D01*
X90507096Y-150022107D01*
X90436867Y-150094430D01*
X90364970Y-150167647D01*
X90293765Y-150239351D01*
X90225611Y-150307137D01*
X90162870Y-150368600D01*
X90107900Y-150421335D01*
X90063061Y-150462935D01*
X90030713Y-150490996D01*
X90015055Y-150502273D01*
X89979670Y-150514092D01*
X89935997Y-150520178D01*
X89927243Y-150520400D01*
X89915723Y-150520632D01*
X89904532Y-150522235D01*
X89892160Y-150526566D01*
X89877098Y-150534983D01*
X89857836Y-150548844D01*
X89832866Y-150569507D01*
X89800679Y-150598329D01*
X89759765Y-150636668D01*
X89708615Y-150685883D01*
X89645720Y-150747330D01*
X89569571Y-150822369D01*
X89478658Y-150912356D01*
X89371473Y-151018649D01*
X89352043Y-151037925D01*
X89241902Y-151147233D01*
X89148409Y-151240203D01*
X89070159Y-151318362D01*
X89005747Y-151383237D01*
X88953767Y-151436357D01*
X88912813Y-151479248D01*
X88881481Y-151513438D01*
X88858363Y-151540456D01*
X88842056Y-151561828D01*
X88831152Y-151579082D01*
X88824247Y-151593746D01*
X88819935Y-151607347D01*
X88817280Y-151619109D01*
X88803518Y-151667173D01*
X88784330Y-151712982D01*
X88776489Y-151727059D01*
X88760836Y-151746745D01*
X88729498Y-151781720D01*
X88684886Y-151829450D01*
X88629414Y-151887403D01*
X88565494Y-151953045D01*
X88495540Y-152023845D01*
X88457117Y-152062319D01*
X88165454Y-152353289D01*
X88097752Y-152357422D01*
X88047054Y-152356555D01*
X87997018Y-152349594D01*
X87978886Y-152344847D01*
X87876800Y-152302153D01*
X87767407Y-152239770D01*
X87654252Y-152160971D01*
X87540880Y-152069031D01*
X87430837Y-151967226D01*
X87327668Y-151858829D01*
X87234917Y-151747115D01*
X87156132Y-151635360D01*
X87096130Y-151529453D01*
X87070283Y-151468752D01*
X87325200Y-151468752D01*
X87332794Y-151492620D01*
X87352568Y-151527504D01*
X87376295Y-151560659D01*
X87396395Y-151586003D01*
X87414054Y-151605657D01*
X87431238Y-151618458D01*
X87449913Y-151623240D01*
X87472043Y-151618842D01*
X87499595Y-151604097D01*
X87534535Y-151577844D01*
X87578827Y-151538918D01*
X87634438Y-151486155D01*
X87703332Y-151418391D01*
X87787476Y-151334462D01*
X87829829Y-151292121D01*
X88163186Y-150958943D01*
X88184929Y-150990496D01*
X88234761Y-151052553D01*
X88301189Y-151120582D01*
X88378066Y-151189253D01*
X88459239Y-151253238D01*
X88538560Y-151307208D01*
X88574892Y-151328385D01*
X88637134Y-151362272D01*
X89119725Y-150877814D01*
X89602316Y-150393357D01*
X89489283Y-150308179D01*
X89448123Y-150275374D01*
X89399551Y-150233865D01*
X89347021Y-150186939D01*
X89293988Y-150137882D01*
X89243904Y-150089980D01*
X89200224Y-150046520D01*
X89166401Y-150010789D01*
X89145889Y-149986074D01*
X89141300Y-149977040D01*
X89149958Y-149966113D01*
X89174499Y-149939517D01*
X89212773Y-149899469D01*
X89262631Y-149848188D01*
X89321923Y-149787892D01*
X89388499Y-149720801D01*
X89425610Y-149683638D01*
X89709920Y-149399539D01*
X89758985Y-149454131D01*
X89831749Y-149526209D01*
X89915786Y-149594856D01*
X90005021Y-149656007D01*
X90093379Y-149705599D01*
X90174785Y-149739568D01*
X90194383Y-149745426D01*
X90230302Y-149753534D01*
X90252312Y-149752036D01*
X90270536Y-149739555D01*
X90275907Y-149734337D01*
X90292711Y-149714672D01*
X90296294Y-149704335D01*
X90187389Y-149621169D01*
X90079006Y-149526189D01*
X89974298Y-149423023D01*
X89876418Y-149315297D01*
X89788518Y-149206641D01*
X89713753Y-149100681D01*
X89655273Y-149001047D01*
X89622674Y-148929221D01*
X89594589Y-148855693D01*
X89558444Y-148890323D01*
X89534903Y-148918085D01*
X89524386Y-148948858D01*
X89522300Y-148985599D01*
X89527085Y-149032810D01*
X89539333Y-149087523D01*
X89549202Y-149118149D01*
X89576104Y-149190052D01*
X88450652Y-150315768D01*
X88267038Y-150499585D01*
X88101131Y-150666018D01*
X87952522Y-150815484D01*
X87820803Y-150948403D01*
X87705565Y-151065193D01*
X87606399Y-151166274D01*
X87522896Y-151252064D01*
X87454647Y-151322982D01*
X87401244Y-151379446D01*
X87362278Y-151421876D01*
X87337339Y-151450691D01*
X87326020Y-151466309D01*
X87325200Y-151468752D01*
X87070283Y-151468752D01*
X87054160Y-151430890D01*
X87031771Y-151346932D01*
X87029081Y-151278091D01*
X87033549Y-151254893D01*
X87042167Y-151237078D01*
X87061172Y-151210788D01*
X87091950Y-151174507D01*
X87135893Y-151126718D01*
X87194387Y-151065906D01*
X87268821Y-150990554D01*
X87347262Y-150912352D01*
X87431327Y-150829235D01*
X87499747Y-150762339D01*
X87554679Y-150709768D01*
X87598280Y-150669625D01*
X87632708Y-150640014D01*
X87660119Y-150619040D01*
X87682673Y-150604805D01*
X87702525Y-150595414D01*
X87711637Y-150592101D01*
X87752974Y-150579929D01*
X87787976Y-150572394D01*
X87800181Y-150571200D01*
X87815765Y-150562012D01*
X87848817Y-150534480D01*
X87899286Y-150488652D01*
X87967121Y-150424578D01*
X88052271Y-150342305D01*
X88154686Y-150241881D01*
X88274315Y-150123354D01*
X88350368Y-150047531D01*
X88874600Y-149523862D01*
X88874600Y-149469050D01*
X88878898Y-149425574D01*
X88889549Y-149386804D01*
X88892726Y-149379944D01*
X88907740Y-149359740D01*
X88938287Y-149325088D01*
X88981962Y-149278349D01*
X89036360Y-149221883D01*
X89099075Y-149158048D01*
X89167702Y-149089205D01*
X89239836Y-149017714D01*
X89313070Y-148945935D01*
X89385000Y-148876228D01*
X89453220Y-148810951D01*
X89515324Y-148752467D01*
X89568908Y-148703133D01*
X89611566Y-148665310D01*
X89640891Y-148641359D01*
X89653375Y-148633706D01*
X89720943Y-148628999D01*
X89801307Y-148644033D01*
G37*
X89801307Y-148644033D02*
X89892485Y-148677893D01*
X89992494Y-148729661D01*
X90099351Y-148798422D01*
X90211075Y-148883260D01*
X90233500Y-148901800D01*
X90341014Y-148998301D01*
X90439855Y-149099606D01*
X90528507Y-149203302D01*
X90605454Y-149306976D01*
X90669180Y-149408216D01*
X90718168Y-149504609D01*
X90750902Y-149593743D01*
X90765867Y-149673206D01*
X90761545Y-149740585D01*
X90761293Y-149741624D01*
X90750629Y-149758075D01*
X90724137Y-149789852D01*
X90684178Y-149834549D01*
X90633112Y-149889760D01*
X90573298Y-149953082D01*
X90507096Y-150022107D01*
X90436867Y-150094430D01*
X90364970Y-150167647D01*
X90293765Y-150239351D01*
X90225611Y-150307137D01*
X90162870Y-150368600D01*
X90107900Y-150421335D01*
X90063061Y-150462935D01*
X90030713Y-150490996D01*
X90015055Y-150502273D01*
X89979670Y-150514092D01*
X89935997Y-150520178D01*
X89927243Y-150520400D01*
X89915723Y-150520632D01*
X89904532Y-150522235D01*
X89892160Y-150526566D01*
X89877098Y-150534983D01*
X89857836Y-150548844D01*
X89832866Y-150569507D01*
X89800679Y-150598329D01*
X89759765Y-150636668D01*
X89708615Y-150685883D01*
X89645720Y-150747330D01*
X89569571Y-150822369D01*
X89478658Y-150912356D01*
X89371473Y-151018649D01*
X89352043Y-151037925D01*
X89241902Y-151147233D01*
X89148409Y-151240203D01*
X89070159Y-151318362D01*
X89005747Y-151383237D01*
X88953767Y-151436357D01*
X88912813Y-151479248D01*
X88881481Y-151513438D01*
X88858363Y-151540456D01*
X88842056Y-151561828D01*
X88831152Y-151579082D01*
X88824247Y-151593746D01*
X88819935Y-151607347D01*
X88817280Y-151619109D01*
X88803518Y-151667173D01*
X88784330Y-151712982D01*
X88776489Y-151727059D01*
X88760836Y-151746745D01*
X88729498Y-151781720D01*
X88684886Y-151829450D01*
X88629414Y-151887403D01*
X88565494Y-151953045D01*
X88495540Y-152023845D01*
X88457117Y-152062319D01*
X88165454Y-152353289D01*
X88097752Y-152357422D01*
X88047054Y-152356555D01*
X87997018Y-152349594D01*
X87978886Y-152344847D01*
X87876800Y-152302153D01*
X87767407Y-152239770D01*
X87654252Y-152160971D01*
X87540880Y-152069031D01*
X87430837Y-151967226D01*
X87327668Y-151858829D01*
X87234917Y-151747115D01*
X87156132Y-151635360D01*
X87096130Y-151529453D01*
X87070283Y-151468752D01*
X87325200Y-151468752D01*
X87332794Y-151492620D01*
X87352568Y-151527504D01*
X87376295Y-151560659D01*
X87396395Y-151586003D01*
X87414054Y-151605657D01*
X87431238Y-151618458D01*
X87449913Y-151623240D01*
X87472043Y-151618842D01*
X87499595Y-151604097D01*
X87534535Y-151577844D01*
X87578827Y-151538918D01*
X87634438Y-151486155D01*
X87703332Y-151418391D01*
X87787476Y-151334462D01*
X87829829Y-151292121D01*
X88163186Y-150958943D01*
X88184929Y-150990496D01*
X88234761Y-151052553D01*
X88301189Y-151120582D01*
X88378066Y-151189253D01*
X88459239Y-151253238D01*
X88538560Y-151307208D01*
X88574892Y-151328385D01*
X88637134Y-151362272D01*
X89119725Y-150877814D01*
X89602316Y-150393357D01*
X89489283Y-150308179D01*
X89448123Y-150275374D01*
X89399551Y-150233865D01*
X89347021Y-150186939D01*
X89293988Y-150137882D01*
X89243904Y-150089980D01*
X89200224Y-150046520D01*
X89166401Y-150010789D01*
X89145889Y-149986074D01*
X89141300Y-149977040D01*
X89149958Y-149966113D01*
X89174499Y-149939517D01*
X89212773Y-149899469D01*
X89262631Y-149848188D01*
X89321923Y-149787892D01*
X89388499Y-149720801D01*
X89425610Y-149683638D01*
X89709920Y-149399539D01*
X89758985Y-149454131D01*
X89831749Y-149526209D01*
X89915786Y-149594856D01*
X90005021Y-149656007D01*
X90093379Y-149705599D01*
X90174785Y-149739568D01*
X90194383Y-149745426D01*
X90230302Y-149753534D01*
X90252312Y-149752036D01*
X90270536Y-149739555D01*
X90275907Y-149734337D01*
X90292711Y-149714672D01*
X90296294Y-149704335D01*
X90187389Y-149621169D01*
X90079006Y-149526189D01*
X89974298Y-149423023D01*
X89876418Y-149315297D01*
X89788518Y-149206641D01*
X89713753Y-149100681D01*
X89655273Y-149001047D01*
X89622674Y-148929221D01*
X89594589Y-148855693D01*
X89558444Y-148890323D01*
X89534903Y-148918085D01*
X89524386Y-148948858D01*
X89522300Y-148985599D01*
X89527085Y-149032810D01*
X89539333Y-149087523D01*
X89549202Y-149118149D01*
X89576104Y-149190052D01*
X88450652Y-150315768D01*
X88267038Y-150499585D01*
X88101131Y-150666018D01*
X87952522Y-150815484D01*
X87820803Y-150948403D01*
X87705565Y-151065193D01*
X87606399Y-151166274D01*
X87522896Y-151252064D01*
X87454647Y-151322982D01*
X87401244Y-151379446D01*
X87362278Y-151421876D01*
X87337339Y-151450691D01*
X87326020Y-151466309D01*
X87325200Y-151468752D01*
X87070283Y-151468752D01*
X87054160Y-151430890D01*
X87031771Y-151346932D01*
X87029081Y-151278091D01*
X87033549Y-151254893D01*
X87042167Y-151237078D01*
X87061172Y-151210788D01*
X87091950Y-151174507D01*
X87135893Y-151126718D01*
X87194387Y-151065906D01*
X87268821Y-150990554D01*
X87347262Y-150912352D01*
X87431327Y-150829235D01*
X87499747Y-150762339D01*
X87554679Y-150709768D01*
X87598280Y-150669625D01*
X87632708Y-150640014D01*
X87660119Y-150619040D01*
X87682673Y-150604805D01*
X87702525Y-150595414D01*
X87711637Y-150592101D01*
X87752974Y-150579929D01*
X87787976Y-150572394D01*
X87800181Y-150571200D01*
X87815765Y-150562012D01*
X87848817Y-150534480D01*
X87899286Y-150488652D01*
X87967121Y-150424578D01*
X88052271Y-150342305D01*
X88154686Y-150241881D01*
X88274315Y-150123354D01*
X88350368Y-150047531D01*
X88874600Y-149523862D01*
X88874600Y-149469050D01*
X88878898Y-149425574D01*
X88889549Y-149386804D01*
X88892726Y-149379944D01*
X88907740Y-149359740D01*
X88938287Y-149325088D01*
X88981962Y-149278349D01*
X89036360Y-149221883D01*
X89099075Y-149158048D01*
X89167702Y-149089205D01*
X89239836Y-149017714D01*
X89313070Y-148945935D01*
X89385000Y-148876228D01*
X89453220Y-148810951D01*
X89515324Y-148752467D01*
X89568908Y-148703133D01*
X89611566Y-148665310D01*
X89640891Y-148641359D01*
X89653375Y-148633706D01*
X89720943Y-148628999D01*
X89801307Y-148644033D01*
D11*
X88641422Y-166930000D02*
X89158578Y-166930000D01*
X88641422Y-168350000D02*
X89158578Y-168350000D01*
X94250000Y-174315000D02*
X96935000Y-174315000D01*
X96935000Y-174315000D02*
X96935000Y-172395000D01*
X96935000Y-172395000D02*
X94250000Y-172395000D01*
X90805000Y-137033000D02*
X92075000Y-137033000D01*
X78613000Y-143510000D02*
X99187000Y-143510000D01*
X99187000Y-135382000D02*
X99187000Y-145415000D01*
X78613000Y-135382000D02*
X99187000Y-135382000D01*
X86360000Y-135382000D02*
X86360000Y-137033000D01*
X97155000Y-137033000D02*
X95885000Y-137033000D01*
X96520000Y-137033000D02*
X96520000Y-135382000D01*
X99187000Y-145415000D02*
X78613000Y-145415000D01*
X91440000Y-135382000D02*
X91440000Y-137033000D01*
X85725000Y-137033000D02*
X86995000Y-137033000D01*
X78613000Y-145415000D02*
X78613000Y-135382000D01*
X81280000Y-135382000D02*
X81280000Y-137033000D01*
X80645000Y-137033000D02*
X81915000Y-137033000D01*
X83149178Y-174065000D02*
X82632022Y-174065000D01*
X83149178Y-172645000D02*
X82632022Y-172645000D01*
X85016078Y-174065000D02*
X84498922Y-174065000D01*
X85016078Y-172645000D02*
X84498922Y-172645000D01*
X89911422Y-172645000D02*
X90428578Y-172645000D01*
X89911422Y-174065000D02*
X90428578Y-174065000D01*
X82291422Y-158190000D02*
X82808578Y-158190000D01*
X82291422Y-156770000D02*
X82808578Y-156770000D01*
X82291422Y-161850000D02*
X82808578Y-161850000D01*
X82291422Y-163270000D02*
X82808578Y-163270000D01*
X82291422Y-168350000D02*
X82808578Y-168350000D01*
X82291422Y-166930000D02*
X82808578Y-166930000D01*
X94991422Y-156770000D02*
X95508578Y-156770000D01*
X94991422Y-158190000D02*
X95508578Y-158190000D01*
X94991422Y-166930000D02*
X95508578Y-166930000D01*
X94991422Y-168350000D02*
X95508578Y-168350000D01*
X94991422Y-163270000D02*
X95508578Y-163270000D01*
X94991422Y-161850000D02*
X95508578Y-161850000D01*
X88900000Y-164025000D02*
X91100000Y-164025000D01*
X88900000Y-164025000D02*
X86700000Y-164025000D01*
X88900000Y-158555000D02*
X91100000Y-158555000D01*
X88900000Y-158555000D02*
X85250000Y-158555000D01*
X88297936Y-154665000D02*
X89502064Y-154665000D01*
X88297936Y-156485000D02*
X89502064Y-156485000D01*
X93120000Y-149480000D02*
X98520000Y-149480000D01*
X93120000Y-152780000D02*
X98520000Y-152780000D01*
X93120000Y-149480000D02*
X93120000Y-152780000D01*
X77880000Y-149480000D02*
X77880000Y-152780000D01*
X77880000Y-152780000D02*
X83280000Y-152780000D01*
X77880000Y-149480000D02*
X83280000Y-149480000D01*
D10*
X88773000Y-166007142D02*
X88736714Y-166043428D01*
X88627857Y-166079714D01*
X88555285Y-166079714D01*
X88446428Y-166043428D01*
X88373857Y-165970857D01*
X88337571Y-165898285D01*
X88301285Y-165753142D01*
X88301285Y-165644285D01*
X88337571Y-165499142D01*
X88373857Y-165426571D01*
X88446428Y-165354000D01*
X88555285Y-165317714D01*
X88627857Y-165317714D01*
X88736714Y-165354000D01*
X88773000Y-165390285D01*
X89498714Y-166079714D02*
X89063285Y-166079714D01*
X89281000Y-166079714D02*
X89281000Y-165317714D01*
X89208428Y-165426571D01*
X89135857Y-165499142D01*
X89063285Y-165535428D01*
X90043000Y-171794714D02*
X89789000Y-171431857D01*
X89607571Y-171794714D02*
X89607571Y-171032714D01*
X89897857Y-171032714D01*
X89970428Y-171069000D01*
X90006714Y-171105285D01*
X90043000Y-171177857D01*
X90043000Y-171286714D01*
X90006714Y-171359285D01*
X89970428Y-171395571D01*
X89897857Y-171431857D01*
X89607571Y-171431857D01*
X90768714Y-171794714D02*
X90333285Y-171794714D01*
X90551000Y-171794714D02*
X90551000Y-171032714D01*
X90478428Y-171141571D01*
X90405857Y-171214142D01*
X90333285Y-171250428D01*
X82423000Y-155919714D02*
X82169000Y-155556857D01*
X81987571Y-155919714D02*
X81987571Y-155157714D01*
X82277857Y-155157714D01*
X82350428Y-155194000D01*
X82386714Y-155230285D01*
X82423000Y-155302857D01*
X82423000Y-155411714D01*
X82386714Y-155484285D01*
X82350428Y-155520571D01*
X82277857Y-155556857D01*
X81987571Y-155556857D01*
X82713285Y-155230285D02*
X82749571Y-155194000D01*
X82822142Y-155157714D01*
X83003571Y-155157714D01*
X83076142Y-155194000D01*
X83112428Y-155230285D01*
X83148714Y-155302857D01*
X83148714Y-155375428D01*
X83112428Y-155484285D01*
X82677000Y-155919714D01*
X83148714Y-155919714D01*
X82423000Y-160999714D02*
X82169000Y-160636857D01*
X81987571Y-160999714D02*
X81987571Y-160237714D01*
X82277857Y-160237714D01*
X82350428Y-160274000D01*
X82386714Y-160310285D01*
X82423000Y-160382857D01*
X82423000Y-160491714D01*
X82386714Y-160564285D01*
X82350428Y-160600571D01*
X82277857Y-160636857D01*
X81987571Y-160636857D01*
X82677000Y-160237714D02*
X83148714Y-160237714D01*
X82894714Y-160528000D01*
X83003571Y-160528000D01*
X83076142Y-160564285D01*
X83112428Y-160600571D01*
X83148714Y-160673142D01*
X83148714Y-160854571D01*
X83112428Y-160927142D01*
X83076142Y-160963428D01*
X83003571Y-160999714D01*
X82785857Y-160999714D01*
X82713285Y-160963428D01*
X82677000Y-160927142D01*
X82423000Y-166079714D02*
X82169000Y-165716857D01*
X81987571Y-166079714D02*
X81987571Y-165317714D01*
X82277857Y-165317714D01*
X82350428Y-165354000D01*
X82386714Y-165390285D01*
X82423000Y-165462857D01*
X82423000Y-165571714D01*
X82386714Y-165644285D01*
X82350428Y-165680571D01*
X82277857Y-165716857D01*
X81987571Y-165716857D01*
X83076142Y-165571714D02*
X83076142Y-166079714D01*
X82894714Y-165281428D02*
X82713285Y-165825714D01*
X83185000Y-165825714D01*
X95123000Y-155919714D02*
X94869000Y-155556857D01*
X94687571Y-155919714D02*
X94687571Y-155157714D01*
X94977857Y-155157714D01*
X95050428Y-155194000D01*
X95086714Y-155230285D01*
X95123000Y-155302857D01*
X95123000Y-155411714D01*
X95086714Y-155484285D01*
X95050428Y-155520571D01*
X94977857Y-155556857D01*
X94687571Y-155556857D01*
X95812428Y-155157714D02*
X95449571Y-155157714D01*
X95413285Y-155520571D01*
X95449571Y-155484285D01*
X95522142Y-155448000D01*
X95703571Y-155448000D01*
X95776142Y-155484285D01*
X95812428Y-155520571D01*
X95848714Y-155593142D01*
X95848714Y-155774571D01*
X95812428Y-155847142D01*
X95776142Y-155883428D01*
X95703571Y-155919714D01*
X95522142Y-155919714D01*
X95449571Y-155883428D01*
X95413285Y-155847142D01*
X95123000Y-166079714D02*
X94869000Y-165716857D01*
X94687571Y-166079714D02*
X94687571Y-165317714D01*
X94977857Y-165317714D01*
X95050428Y-165354000D01*
X95086714Y-165390285D01*
X95123000Y-165462857D01*
X95123000Y-165571714D01*
X95086714Y-165644285D01*
X95050428Y-165680571D01*
X94977857Y-165716857D01*
X94687571Y-165716857D01*
X95776142Y-165317714D02*
X95631000Y-165317714D01*
X95558428Y-165354000D01*
X95522142Y-165390285D01*
X95449571Y-165499142D01*
X95413285Y-165644285D01*
X95413285Y-165934571D01*
X95449571Y-166007142D01*
X95485857Y-166043428D01*
X95558428Y-166079714D01*
X95703571Y-166079714D01*
X95776142Y-166043428D01*
X95812428Y-166007142D01*
X95848714Y-165934571D01*
X95848714Y-165753142D01*
X95812428Y-165680571D01*
X95776142Y-165644285D01*
X95703571Y-165608000D01*
X95558428Y-165608000D01*
X95485857Y-165644285D01*
X95449571Y-165680571D01*
X95413285Y-165753142D01*
X95123000Y-160999714D02*
X94869000Y-160636857D01*
X94687571Y-160999714D02*
X94687571Y-160237714D01*
X94977857Y-160237714D01*
X95050428Y-160274000D01*
X95086714Y-160310285D01*
X95123000Y-160382857D01*
X95123000Y-160491714D01*
X95086714Y-160564285D01*
X95050428Y-160600571D01*
X94977857Y-160636857D01*
X94687571Y-160636857D01*
X95377000Y-160237714D02*
X95885000Y-160237714D01*
X95558428Y-160999714D01*
X88319428Y-157422714D02*
X88319428Y-158039571D01*
X88355714Y-158112142D01*
X88392000Y-158148428D01*
X88464571Y-158184714D01*
X88609714Y-158184714D01*
X88682285Y-158148428D01*
X88718571Y-158112142D01*
X88754857Y-158039571D01*
X88754857Y-157422714D01*
X89516857Y-158184714D02*
X89081428Y-158184714D01*
X89299142Y-158184714D02*
X89299142Y-157422714D01*
X89226571Y-157531571D01*
X89154000Y-157604142D01*
X89081428Y-157640428D01*
X88773000Y-153942142D02*
X88736714Y-153978428D01*
X88627857Y-154014714D01*
X88555285Y-154014714D01*
X88446428Y-153978428D01*
X88373857Y-153905857D01*
X88337571Y-153833285D01*
X88301285Y-153688142D01*
X88301285Y-153579285D01*
X88337571Y-153434142D01*
X88373857Y-153361571D01*
X88446428Y-153289000D01*
X88555285Y-153252714D01*
X88627857Y-153252714D01*
X88736714Y-153289000D01*
X88773000Y-153325285D01*
X89063285Y-153325285D02*
X89099571Y-153289000D01*
X89172142Y-153252714D01*
X89353571Y-153252714D01*
X89426142Y-153289000D01*
X89462428Y-153325285D01*
X89498714Y-153397857D01*
X89498714Y-153470428D01*
X89462428Y-153579285D01*
X89027000Y-154014714D01*
X89498714Y-154014714D01*
X95939428Y-148898428D02*
X96048285Y-148934714D01*
X96229714Y-148934714D01*
X96302285Y-148898428D01*
X96338571Y-148862142D01*
X96374857Y-148789571D01*
X96374857Y-148717000D01*
X96338571Y-148644428D01*
X96302285Y-148608142D01*
X96229714Y-148571857D01*
X96084571Y-148535571D01*
X96012000Y-148499285D01*
X95975714Y-148463000D01*
X95939428Y-148390428D01*
X95939428Y-148317857D01*
X95975714Y-148245285D01*
X96012000Y-148209000D01*
X96084571Y-148172714D01*
X96266000Y-148172714D01*
X96374857Y-148209000D01*
X97100571Y-148934714D02*
X96665142Y-148934714D01*
X96882857Y-148934714D02*
X96882857Y-148172714D01*
X96810285Y-148281571D01*
X96737714Y-148354142D01*
X96665142Y-148390428D01*
X80663142Y-148172714D02*
X81171142Y-148172714D01*
X80663142Y-148934714D01*
X81171142Y-148934714D01*
X81860571Y-148934714D02*
X81425142Y-148934714D01*
X81642857Y-148934714D02*
X81642857Y-148172714D01*
X81570285Y-148281571D01*
X81497714Y-148354142D01*
X81425142Y-148390428D01*
M02*
