G04 #@! TF.GenerationSoftware,KiCad,Pcbnew,(5.1.5)-3*
G04 #@! TF.CreationDate,2020-05-07T11:30:42+02:00*
G04 #@! TF.ProjectId,TPS26600_ePuse,54505332-3636-4303-905f-65507573652e,rev?*
G04 #@! TF.SameCoordinates,Original*
G04 #@! TF.FileFunction,Paste,Top*
G04 #@! TF.FilePolarity,Positive*
%FSLAX46Y46*%
G04 Gerber Fmt 4.6, Leading zero omitted, Abs format (unit mm)*
G04 Created by KiCad (PCBNEW (5.1.5)-3) date 2020-05-07 11:30:42*
%MOMM*%
%LPD*%
G04 APERTURE LIST*
%ADD10C,0.100000*%
%ADD11R,2.500000X1.800000*%
G04 APERTURE END LIST*
D10*
G36*
X88230142Y-166941174D02*
G01*
X88253803Y-166944684D01*
X88277007Y-166950496D01*
X88299529Y-166958554D01*
X88321153Y-166968782D01*
X88341670Y-166981079D01*
X88360883Y-166995329D01*
X88378607Y-167011393D01*
X88394671Y-167029117D01*
X88408921Y-167048330D01*
X88421218Y-167068847D01*
X88431446Y-167090471D01*
X88439504Y-167112993D01*
X88445316Y-167136197D01*
X88448826Y-167159858D01*
X88450000Y-167183750D01*
X88450000Y-168096250D01*
X88448826Y-168120142D01*
X88445316Y-168143803D01*
X88439504Y-168167007D01*
X88431446Y-168189529D01*
X88421218Y-168211153D01*
X88408921Y-168231670D01*
X88394671Y-168250883D01*
X88378607Y-168268607D01*
X88360883Y-168284671D01*
X88341670Y-168298921D01*
X88321153Y-168311218D01*
X88299529Y-168321446D01*
X88277007Y-168329504D01*
X88253803Y-168335316D01*
X88230142Y-168338826D01*
X88206250Y-168340000D01*
X87718750Y-168340000D01*
X87694858Y-168338826D01*
X87671197Y-168335316D01*
X87647993Y-168329504D01*
X87625471Y-168321446D01*
X87603847Y-168311218D01*
X87583330Y-168298921D01*
X87564117Y-168284671D01*
X87546393Y-168268607D01*
X87530329Y-168250883D01*
X87516079Y-168231670D01*
X87503782Y-168211153D01*
X87493554Y-168189529D01*
X87485496Y-168167007D01*
X87479684Y-168143803D01*
X87476174Y-168120142D01*
X87475000Y-168096250D01*
X87475000Y-167183750D01*
X87476174Y-167159858D01*
X87479684Y-167136197D01*
X87485496Y-167112993D01*
X87493554Y-167090471D01*
X87503782Y-167068847D01*
X87516079Y-167048330D01*
X87530329Y-167029117D01*
X87546393Y-167011393D01*
X87564117Y-166995329D01*
X87583330Y-166981079D01*
X87603847Y-166968782D01*
X87625471Y-166958554D01*
X87647993Y-166950496D01*
X87671197Y-166944684D01*
X87694858Y-166941174D01*
X87718750Y-166940000D01*
X88206250Y-166940000D01*
X88230142Y-166941174D01*
G37*
G36*
X90105142Y-166941174D02*
G01*
X90128803Y-166944684D01*
X90152007Y-166950496D01*
X90174529Y-166958554D01*
X90196153Y-166968782D01*
X90216670Y-166981079D01*
X90235883Y-166995329D01*
X90253607Y-167011393D01*
X90269671Y-167029117D01*
X90283921Y-167048330D01*
X90296218Y-167068847D01*
X90306446Y-167090471D01*
X90314504Y-167112993D01*
X90320316Y-167136197D01*
X90323826Y-167159858D01*
X90325000Y-167183750D01*
X90325000Y-168096250D01*
X90323826Y-168120142D01*
X90320316Y-168143803D01*
X90314504Y-168167007D01*
X90306446Y-168189529D01*
X90296218Y-168211153D01*
X90283921Y-168231670D01*
X90269671Y-168250883D01*
X90253607Y-168268607D01*
X90235883Y-168284671D01*
X90216670Y-168298921D01*
X90196153Y-168311218D01*
X90174529Y-168321446D01*
X90152007Y-168329504D01*
X90128803Y-168335316D01*
X90105142Y-168338826D01*
X90081250Y-168340000D01*
X89593750Y-168340000D01*
X89569858Y-168338826D01*
X89546197Y-168335316D01*
X89522993Y-168329504D01*
X89500471Y-168321446D01*
X89478847Y-168311218D01*
X89458330Y-168298921D01*
X89439117Y-168284671D01*
X89421393Y-168268607D01*
X89405329Y-168250883D01*
X89391079Y-168231670D01*
X89378782Y-168211153D01*
X89368554Y-168189529D01*
X89360496Y-168167007D01*
X89354684Y-168143803D01*
X89351174Y-168120142D01*
X89350000Y-168096250D01*
X89350000Y-167183750D01*
X89351174Y-167159858D01*
X89354684Y-167136197D01*
X89360496Y-167112993D01*
X89368554Y-167090471D01*
X89378782Y-167068847D01*
X89391079Y-167048330D01*
X89405329Y-167029117D01*
X89421393Y-167011393D01*
X89439117Y-166995329D01*
X89458330Y-166981079D01*
X89478847Y-166968782D01*
X89500471Y-166958554D01*
X89522993Y-166950496D01*
X89546197Y-166944684D01*
X89569858Y-166941174D01*
X89593750Y-166940000D01*
X90081250Y-166940000D01*
X90105142Y-166941174D01*
G37*
G36*
X96455142Y-172656174D02*
G01*
X96478803Y-172659684D01*
X96502007Y-172665496D01*
X96524529Y-172673554D01*
X96546153Y-172683782D01*
X96566670Y-172696079D01*
X96585883Y-172710329D01*
X96603607Y-172726393D01*
X96619671Y-172744117D01*
X96633921Y-172763330D01*
X96646218Y-172783847D01*
X96656446Y-172805471D01*
X96664504Y-172827993D01*
X96670316Y-172851197D01*
X96673826Y-172874858D01*
X96675000Y-172898750D01*
X96675000Y-173811250D01*
X96673826Y-173835142D01*
X96670316Y-173858803D01*
X96664504Y-173882007D01*
X96656446Y-173904529D01*
X96646218Y-173926153D01*
X96633921Y-173946670D01*
X96619671Y-173965883D01*
X96603607Y-173983607D01*
X96585883Y-173999671D01*
X96566670Y-174013921D01*
X96546153Y-174026218D01*
X96524529Y-174036446D01*
X96502007Y-174044504D01*
X96478803Y-174050316D01*
X96455142Y-174053826D01*
X96431250Y-174055000D01*
X95943750Y-174055000D01*
X95919858Y-174053826D01*
X95896197Y-174050316D01*
X95872993Y-174044504D01*
X95850471Y-174036446D01*
X95828847Y-174026218D01*
X95808330Y-174013921D01*
X95789117Y-173999671D01*
X95771393Y-173983607D01*
X95755329Y-173965883D01*
X95741079Y-173946670D01*
X95728782Y-173926153D01*
X95718554Y-173904529D01*
X95710496Y-173882007D01*
X95704684Y-173858803D01*
X95701174Y-173835142D01*
X95700000Y-173811250D01*
X95700000Y-172898750D01*
X95701174Y-172874858D01*
X95704684Y-172851197D01*
X95710496Y-172827993D01*
X95718554Y-172805471D01*
X95728782Y-172783847D01*
X95741079Y-172763330D01*
X95755329Y-172744117D01*
X95771393Y-172726393D01*
X95789117Y-172710329D01*
X95808330Y-172696079D01*
X95828847Y-172683782D01*
X95850471Y-172673554D01*
X95872993Y-172665496D01*
X95896197Y-172659684D01*
X95919858Y-172656174D01*
X95943750Y-172655000D01*
X96431250Y-172655000D01*
X96455142Y-172656174D01*
G37*
G36*
X94580142Y-172656174D02*
G01*
X94603803Y-172659684D01*
X94627007Y-172665496D01*
X94649529Y-172673554D01*
X94671153Y-172683782D01*
X94691670Y-172696079D01*
X94710883Y-172710329D01*
X94728607Y-172726393D01*
X94744671Y-172744117D01*
X94758921Y-172763330D01*
X94771218Y-172783847D01*
X94781446Y-172805471D01*
X94789504Y-172827993D01*
X94795316Y-172851197D01*
X94798826Y-172874858D01*
X94800000Y-172898750D01*
X94800000Y-173811250D01*
X94798826Y-173835142D01*
X94795316Y-173858803D01*
X94789504Y-173882007D01*
X94781446Y-173904529D01*
X94771218Y-173926153D01*
X94758921Y-173946670D01*
X94744671Y-173965883D01*
X94728607Y-173983607D01*
X94710883Y-173999671D01*
X94691670Y-174013921D01*
X94671153Y-174026218D01*
X94649529Y-174036446D01*
X94627007Y-174044504D01*
X94603803Y-174050316D01*
X94580142Y-174053826D01*
X94556250Y-174055000D01*
X94068750Y-174055000D01*
X94044858Y-174053826D01*
X94021197Y-174050316D01*
X93997993Y-174044504D01*
X93975471Y-174036446D01*
X93953847Y-174026218D01*
X93933330Y-174013921D01*
X93914117Y-173999671D01*
X93896393Y-173983607D01*
X93880329Y-173965883D01*
X93866079Y-173946670D01*
X93853782Y-173926153D01*
X93843554Y-173904529D01*
X93835496Y-173882007D01*
X93829684Y-173858803D01*
X93826174Y-173835142D01*
X93825000Y-173811250D01*
X93825000Y-172898750D01*
X93826174Y-172874858D01*
X93829684Y-172851197D01*
X93835496Y-172827993D01*
X93843554Y-172805471D01*
X93853782Y-172783847D01*
X93866079Y-172763330D01*
X93880329Y-172744117D01*
X93896393Y-172726393D01*
X93914117Y-172710329D01*
X93933330Y-172696079D01*
X93953847Y-172683782D01*
X93975471Y-172673554D01*
X93997993Y-172665496D01*
X94021197Y-172659684D01*
X94044858Y-172656174D01*
X94068750Y-172655000D01*
X94556250Y-172655000D01*
X94580142Y-172656174D01*
G37*
G36*
X82220742Y-172656174D02*
G01*
X82244403Y-172659684D01*
X82267607Y-172665496D01*
X82290129Y-172673554D01*
X82311753Y-172683782D01*
X82332270Y-172696079D01*
X82351483Y-172710329D01*
X82369207Y-172726393D01*
X82385271Y-172744117D01*
X82399521Y-172763330D01*
X82411818Y-172783847D01*
X82422046Y-172805471D01*
X82430104Y-172827993D01*
X82435916Y-172851197D01*
X82439426Y-172874858D01*
X82440600Y-172898750D01*
X82440600Y-173811250D01*
X82439426Y-173835142D01*
X82435916Y-173858803D01*
X82430104Y-173882007D01*
X82422046Y-173904529D01*
X82411818Y-173926153D01*
X82399521Y-173946670D01*
X82385271Y-173965883D01*
X82369207Y-173983607D01*
X82351483Y-173999671D01*
X82332270Y-174013921D01*
X82311753Y-174026218D01*
X82290129Y-174036446D01*
X82267607Y-174044504D01*
X82244403Y-174050316D01*
X82220742Y-174053826D01*
X82196850Y-174055000D01*
X81709350Y-174055000D01*
X81685458Y-174053826D01*
X81661797Y-174050316D01*
X81638593Y-174044504D01*
X81616071Y-174036446D01*
X81594447Y-174026218D01*
X81573930Y-174013921D01*
X81554717Y-173999671D01*
X81536993Y-173983607D01*
X81520929Y-173965883D01*
X81506679Y-173946670D01*
X81494382Y-173926153D01*
X81484154Y-173904529D01*
X81476096Y-173882007D01*
X81470284Y-173858803D01*
X81466774Y-173835142D01*
X81465600Y-173811250D01*
X81465600Y-172898750D01*
X81466774Y-172874858D01*
X81470284Y-172851197D01*
X81476096Y-172827993D01*
X81484154Y-172805471D01*
X81494382Y-172783847D01*
X81506679Y-172763330D01*
X81520929Y-172744117D01*
X81536993Y-172726393D01*
X81554717Y-172710329D01*
X81573930Y-172696079D01*
X81594447Y-172683782D01*
X81616071Y-172673554D01*
X81638593Y-172665496D01*
X81661797Y-172659684D01*
X81685458Y-172656174D01*
X81709350Y-172655000D01*
X82196850Y-172655000D01*
X82220742Y-172656174D01*
G37*
G36*
X85962642Y-172656174D02*
G01*
X85986303Y-172659684D01*
X86009507Y-172665496D01*
X86032029Y-172673554D01*
X86053653Y-172683782D01*
X86074170Y-172696079D01*
X86093383Y-172710329D01*
X86111107Y-172726393D01*
X86127171Y-172744117D01*
X86141421Y-172763330D01*
X86153718Y-172783847D01*
X86163946Y-172805471D01*
X86172004Y-172827993D01*
X86177816Y-172851197D01*
X86181326Y-172874858D01*
X86182500Y-172898750D01*
X86182500Y-173811250D01*
X86181326Y-173835142D01*
X86177816Y-173858803D01*
X86172004Y-173882007D01*
X86163946Y-173904529D01*
X86153718Y-173926153D01*
X86141421Y-173946670D01*
X86127171Y-173965883D01*
X86111107Y-173983607D01*
X86093383Y-173999671D01*
X86074170Y-174013921D01*
X86053653Y-174026218D01*
X86032029Y-174036446D01*
X86009507Y-174044504D01*
X85986303Y-174050316D01*
X85962642Y-174053826D01*
X85938750Y-174055000D01*
X85451250Y-174055000D01*
X85427358Y-174053826D01*
X85403697Y-174050316D01*
X85380493Y-174044504D01*
X85357971Y-174036446D01*
X85336347Y-174026218D01*
X85315830Y-174013921D01*
X85296617Y-173999671D01*
X85278893Y-173983607D01*
X85262829Y-173965883D01*
X85248579Y-173946670D01*
X85236282Y-173926153D01*
X85226054Y-173904529D01*
X85217996Y-173882007D01*
X85212184Y-173858803D01*
X85208674Y-173835142D01*
X85207500Y-173811250D01*
X85207500Y-172898750D01*
X85208674Y-172874858D01*
X85212184Y-172851197D01*
X85217996Y-172827993D01*
X85226054Y-172805471D01*
X85236282Y-172783847D01*
X85248579Y-172763330D01*
X85262829Y-172744117D01*
X85278893Y-172726393D01*
X85296617Y-172710329D01*
X85315830Y-172696079D01*
X85336347Y-172683782D01*
X85357971Y-172673554D01*
X85380493Y-172665496D01*
X85403697Y-172659684D01*
X85427358Y-172656174D01*
X85451250Y-172655000D01*
X85938750Y-172655000D01*
X85962642Y-172656174D01*
G37*
G36*
X84087642Y-172656174D02*
G01*
X84111303Y-172659684D01*
X84134507Y-172665496D01*
X84157029Y-172673554D01*
X84178653Y-172683782D01*
X84199170Y-172696079D01*
X84218383Y-172710329D01*
X84236107Y-172726393D01*
X84252171Y-172744117D01*
X84266421Y-172763330D01*
X84278718Y-172783847D01*
X84288946Y-172805471D01*
X84297004Y-172827993D01*
X84302816Y-172851197D01*
X84306326Y-172874858D01*
X84307500Y-172898750D01*
X84307500Y-173811250D01*
X84306326Y-173835142D01*
X84302816Y-173858803D01*
X84297004Y-173882007D01*
X84288946Y-173904529D01*
X84278718Y-173926153D01*
X84266421Y-173946670D01*
X84252171Y-173965883D01*
X84236107Y-173983607D01*
X84218383Y-173999671D01*
X84199170Y-174013921D01*
X84178653Y-174026218D01*
X84157029Y-174036446D01*
X84134507Y-174044504D01*
X84111303Y-174050316D01*
X84087642Y-174053826D01*
X84063750Y-174055000D01*
X83576250Y-174055000D01*
X83552358Y-174053826D01*
X83528697Y-174050316D01*
X83505493Y-174044504D01*
X83482971Y-174036446D01*
X83461347Y-174026218D01*
X83440830Y-174013921D01*
X83421617Y-173999671D01*
X83403893Y-173983607D01*
X83387829Y-173965883D01*
X83373579Y-173946670D01*
X83361282Y-173926153D01*
X83351054Y-173904529D01*
X83342996Y-173882007D01*
X83337184Y-173858803D01*
X83333674Y-173835142D01*
X83332500Y-173811250D01*
X83332500Y-172898750D01*
X83333674Y-172874858D01*
X83337184Y-172851197D01*
X83342996Y-172827993D01*
X83351054Y-172805471D01*
X83361282Y-172783847D01*
X83373579Y-172763330D01*
X83387829Y-172744117D01*
X83403893Y-172726393D01*
X83421617Y-172710329D01*
X83440830Y-172696079D01*
X83461347Y-172683782D01*
X83482971Y-172673554D01*
X83505493Y-172665496D01*
X83528697Y-172659684D01*
X83552358Y-172656174D01*
X83576250Y-172655000D01*
X84063750Y-172655000D01*
X84087642Y-172656174D01*
G37*
G36*
X89500142Y-172656174D02*
G01*
X89523803Y-172659684D01*
X89547007Y-172665496D01*
X89569529Y-172673554D01*
X89591153Y-172683782D01*
X89611670Y-172696079D01*
X89630883Y-172710329D01*
X89648607Y-172726393D01*
X89664671Y-172744117D01*
X89678921Y-172763330D01*
X89691218Y-172783847D01*
X89701446Y-172805471D01*
X89709504Y-172827993D01*
X89715316Y-172851197D01*
X89718826Y-172874858D01*
X89720000Y-172898750D01*
X89720000Y-173811250D01*
X89718826Y-173835142D01*
X89715316Y-173858803D01*
X89709504Y-173882007D01*
X89701446Y-173904529D01*
X89691218Y-173926153D01*
X89678921Y-173946670D01*
X89664671Y-173965883D01*
X89648607Y-173983607D01*
X89630883Y-173999671D01*
X89611670Y-174013921D01*
X89591153Y-174026218D01*
X89569529Y-174036446D01*
X89547007Y-174044504D01*
X89523803Y-174050316D01*
X89500142Y-174053826D01*
X89476250Y-174055000D01*
X88988750Y-174055000D01*
X88964858Y-174053826D01*
X88941197Y-174050316D01*
X88917993Y-174044504D01*
X88895471Y-174036446D01*
X88873847Y-174026218D01*
X88853330Y-174013921D01*
X88834117Y-173999671D01*
X88816393Y-173983607D01*
X88800329Y-173965883D01*
X88786079Y-173946670D01*
X88773782Y-173926153D01*
X88763554Y-173904529D01*
X88755496Y-173882007D01*
X88749684Y-173858803D01*
X88746174Y-173835142D01*
X88745000Y-173811250D01*
X88745000Y-172898750D01*
X88746174Y-172874858D01*
X88749684Y-172851197D01*
X88755496Y-172827993D01*
X88763554Y-172805471D01*
X88773782Y-172783847D01*
X88786079Y-172763330D01*
X88800329Y-172744117D01*
X88816393Y-172726393D01*
X88834117Y-172710329D01*
X88853330Y-172696079D01*
X88873847Y-172683782D01*
X88895471Y-172673554D01*
X88917993Y-172665496D01*
X88941197Y-172659684D01*
X88964858Y-172656174D01*
X88988750Y-172655000D01*
X89476250Y-172655000D01*
X89500142Y-172656174D01*
G37*
G36*
X91375142Y-172656174D02*
G01*
X91398803Y-172659684D01*
X91422007Y-172665496D01*
X91444529Y-172673554D01*
X91466153Y-172683782D01*
X91486670Y-172696079D01*
X91505883Y-172710329D01*
X91523607Y-172726393D01*
X91539671Y-172744117D01*
X91553921Y-172763330D01*
X91566218Y-172783847D01*
X91576446Y-172805471D01*
X91584504Y-172827993D01*
X91590316Y-172851197D01*
X91593826Y-172874858D01*
X91595000Y-172898750D01*
X91595000Y-173811250D01*
X91593826Y-173835142D01*
X91590316Y-173858803D01*
X91584504Y-173882007D01*
X91576446Y-173904529D01*
X91566218Y-173926153D01*
X91553921Y-173946670D01*
X91539671Y-173965883D01*
X91523607Y-173983607D01*
X91505883Y-173999671D01*
X91486670Y-174013921D01*
X91466153Y-174026218D01*
X91444529Y-174036446D01*
X91422007Y-174044504D01*
X91398803Y-174050316D01*
X91375142Y-174053826D01*
X91351250Y-174055000D01*
X90863750Y-174055000D01*
X90839858Y-174053826D01*
X90816197Y-174050316D01*
X90792993Y-174044504D01*
X90770471Y-174036446D01*
X90748847Y-174026218D01*
X90728330Y-174013921D01*
X90709117Y-173999671D01*
X90691393Y-173983607D01*
X90675329Y-173965883D01*
X90661079Y-173946670D01*
X90648782Y-173926153D01*
X90638554Y-173904529D01*
X90630496Y-173882007D01*
X90624684Y-173858803D01*
X90621174Y-173835142D01*
X90620000Y-173811250D01*
X90620000Y-172898750D01*
X90621174Y-172874858D01*
X90624684Y-172851197D01*
X90630496Y-172827993D01*
X90638554Y-172805471D01*
X90648782Y-172783847D01*
X90661079Y-172763330D01*
X90675329Y-172744117D01*
X90691393Y-172726393D01*
X90709117Y-172710329D01*
X90728330Y-172696079D01*
X90748847Y-172683782D01*
X90770471Y-172673554D01*
X90792993Y-172665496D01*
X90816197Y-172659684D01*
X90839858Y-172656174D01*
X90863750Y-172655000D01*
X91351250Y-172655000D01*
X91375142Y-172656174D01*
G37*
G36*
X83755142Y-156781174D02*
G01*
X83778803Y-156784684D01*
X83802007Y-156790496D01*
X83824529Y-156798554D01*
X83846153Y-156808782D01*
X83866670Y-156821079D01*
X83885883Y-156835329D01*
X83903607Y-156851393D01*
X83919671Y-156869117D01*
X83933921Y-156888330D01*
X83946218Y-156908847D01*
X83956446Y-156930471D01*
X83964504Y-156952993D01*
X83970316Y-156976197D01*
X83973826Y-156999858D01*
X83975000Y-157023750D01*
X83975000Y-157936250D01*
X83973826Y-157960142D01*
X83970316Y-157983803D01*
X83964504Y-158007007D01*
X83956446Y-158029529D01*
X83946218Y-158051153D01*
X83933921Y-158071670D01*
X83919671Y-158090883D01*
X83903607Y-158108607D01*
X83885883Y-158124671D01*
X83866670Y-158138921D01*
X83846153Y-158151218D01*
X83824529Y-158161446D01*
X83802007Y-158169504D01*
X83778803Y-158175316D01*
X83755142Y-158178826D01*
X83731250Y-158180000D01*
X83243750Y-158180000D01*
X83219858Y-158178826D01*
X83196197Y-158175316D01*
X83172993Y-158169504D01*
X83150471Y-158161446D01*
X83128847Y-158151218D01*
X83108330Y-158138921D01*
X83089117Y-158124671D01*
X83071393Y-158108607D01*
X83055329Y-158090883D01*
X83041079Y-158071670D01*
X83028782Y-158051153D01*
X83018554Y-158029529D01*
X83010496Y-158007007D01*
X83004684Y-157983803D01*
X83001174Y-157960142D01*
X83000000Y-157936250D01*
X83000000Y-157023750D01*
X83001174Y-156999858D01*
X83004684Y-156976197D01*
X83010496Y-156952993D01*
X83018554Y-156930471D01*
X83028782Y-156908847D01*
X83041079Y-156888330D01*
X83055329Y-156869117D01*
X83071393Y-156851393D01*
X83089117Y-156835329D01*
X83108330Y-156821079D01*
X83128847Y-156808782D01*
X83150471Y-156798554D01*
X83172993Y-156790496D01*
X83196197Y-156784684D01*
X83219858Y-156781174D01*
X83243750Y-156780000D01*
X83731250Y-156780000D01*
X83755142Y-156781174D01*
G37*
G36*
X81880142Y-156781174D02*
G01*
X81903803Y-156784684D01*
X81927007Y-156790496D01*
X81949529Y-156798554D01*
X81971153Y-156808782D01*
X81991670Y-156821079D01*
X82010883Y-156835329D01*
X82028607Y-156851393D01*
X82044671Y-156869117D01*
X82058921Y-156888330D01*
X82071218Y-156908847D01*
X82081446Y-156930471D01*
X82089504Y-156952993D01*
X82095316Y-156976197D01*
X82098826Y-156999858D01*
X82100000Y-157023750D01*
X82100000Y-157936250D01*
X82098826Y-157960142D01*
X82095316Y-157983803D01*
X82089504Y-158007007D01*
X82081446Y-158029529D01*
X82071218Y-158051153D01*
X82058921Y-158071670D01*
X82044671Y-158090883D01*
X82028607Y-158108607D01*
X82010883Y-158124671D01*
X81991670Y-158138921D01*
X81971153Y-158151218D01*
X81949529Y-158161446D01*
X81927007Y-158169504D01*
X81903803Y-158175316D01*
X81880142Y-158178826D01*
X81856250Y-158180000D01*
X81368750Y-158180000D01*
X81344858Y-158178826D01*
X81321197Y-158175316D01*
X81297993Y-158169504D01*
X81275471Y-158161446D01*
X81253847Y-158151218D01*
X81233330Y-158138921D01*
X81214117Y-158124671D01*
X81196393Y-158108607D01*
X81180329Y-158090883D01*
X81166079Y-158071670D01*
X81153782Y-158051153D01*
X81143554Y-158029529D01*
X81135496Y-158007007D01*
X81129684Y-157983803D01*
X81126174Y-157960142D01*
X81125000Y-157936250D01*
X81125000Y-157023750D01*
X81126174Y-156999858D01*
X81129684Y-156976197D01*
X81135496Y-156952993D01*
X81143554Y-156930471D01*
X81153782Y-156908847D01*
X81166079Y-156888330D01*
X81180329Y-156869117D01*
X81196393Y-156851393D01*
X81214117Y-156835329D01*
X81233330Y-156821079D01*
X81253847Y-156808782D01*
X81275471Y-156798554D01*
X81297993Y-156790496D01*
X81321197Y-156784684D01*
X81344858Y-156781174D01*
X81368750Y-156780000D01*
X81856250Y-156780000D01*
X81880142Y-156781174D01*
G37*
G36*
X81880142Y-161861174D02*
G01*
X81903803Y-161864684D01*
X81927007Y-161870496D01*
X81949529Y-161878554D01*
X81971153Y-161888782D01*
X81991670Y-161901079D01*
X82010883Y-161915329D01*
X82028607Y-161931393D01*
X82044671Y-161949117D01*
X82058921Y-161968330D01*
X82071218Y-161988847D01*
X82081446Y-162010471D01*
X82089504Y-162032993D01*
X82095316Y-162056197D01*
X82098826Y-162079858D01*
X82100000Y-162103750D01*
X82100000Y-163016250D01*
X82098826Y-163040142D01*
X82095316Y-163063803D01*
X82089504Y-163087007D01*
X82081446Y-163109529D01*
X82071218Y-163131153D01*
X82058921Y-163151670D01*
X82044671Y-163170883D01*
X82028607Y-163188607D01*
X82010883Y-163204671D01*
X81991670Y-163218921D01*
X81971153Y-163231218D01*
X81949529Y-163241446D01*
X81927007Y-163249504D01*
X81903803Y-163255316D01*
X81880142Y-163258826D01*
X81856250Y-163260000D01*
X81368750Y-163260000D01*
X81344858Y-163258826D01*
X81321197Y-163255316D01*
X81297993Y-163249504D01*
X81275471Y-163241446D01*
X81253847Y-163231218D01*
X81233330Y-163218921D01*
X81214117Y-163204671D01*
X81196393Y-163188607D01*
X81180329Y-163170883D01*
X81166079Y-163151670D01*
X81153782Y-163131153D01*
X81143554Y-163109529D01*
X81135496Y-163087007D01*
X81129684Y-163063803D01*
X81126174Y-163040142D01*
X81125000Y-163016250D01*
X81125000Y-162103750D01*
X81126174Y-162079858D01*
X81129684Y-162056197D01*
X81135496Y-162032993D01*
X81143554Y-162010471D01*
X81153782Y-161988847D01*
X81166079Y-161968330D01*
X81180329Y-161949117D01*
X81196393Y-161931393D01*
X81214117Y-161915329D01*
X81233330Y-161901079D01*
X81253847Y-161888782D01*
X81275471Y-161878554D01*
X81297993Y-161870496D01*
X81321197Y-161864684D01*
X81344858Y-161861174D01*
X81368750Y-161860000D01*
X81856250Y-161860000D01*
X81880142Y-161861174D01*
G37*
G36*
X83755142Y-161861174D02*
G01*
X83778803Y-161864684D01*
X83802007Y-161870496D01*
X83824529Y-161878554D01*
X83846153Y-161888782D01*
X83866670Y-161901079D01*
X83885883Y-161915329D01*
X83903607Y-161931393D01*
X83919671Y-161949117D01*
X83933921Y-161968330D01*
X83946218Y-161988847D01*
X83956446Y-162010471D01*
X83964504Y-162032993D01*
X83970316Y-162056197D01*
X83973826Y-162079858D01*
X83975000Y-162103750D01*
X83975000Y-163016250D01*
X83973826Y-163040142D01*
X83970316Y-163063803D01*
X83964504Y-163087007D01*
X83956446Y-163109529D01*
X83946218Y-163131153D01*
X83933921Y-163151670D01*
X83919671Y-163170883D01*
X83903607Y-163188607D01*
X83885883Y-163204671D01*
X83866670Y-163218921D01*
X83846153Y-163231218D01*
X83824529Y-163241446D01*
X83802007Y-163249504D01*
X83778803Y-163255316D01*
X83755142Y-163258826D01*
X83731250Y-163260000D01*
X83243750Y-163260000D01*
X83219858Y-163258826D01*
X83196197Y-163255316D01*
X83172993Y-163249504D01*
X83150471Y-163241446D01*
X83128847Y-163231218D01*
X83108330Y-163218921D01*
X83089117Y-163204671D01*
X83071393Y-163188607D01*
X83055329Y-163170883D01*
X83041079Y-163151670D01*
X83028782Y-163131153D01*
X83018554Y-163109529D01*
X83010496Y-163087007D01*
X83004684Y-163063803D01*
X83001174Y-163040142D01*
X83000000Y-163016250D01*
X83000000Y-162103750D01*
X83001174Y-162079858D01*
X83004684Y-162056197D01*
X83010496Y-162032993D01*
X83018554Y-162010471D01*
X83028782Y-161988847D01*
X83041079Y-161968330D01*
X83055329Y-161949117D01*
X83071393Y-161931393D01*
X83089117Y-161915329D01*
X83108330Y-161901079D01*
X83128847Y-161888782D01*
X83150471Y-161878554D01*
X83172993Y-161870496D01*
X83196197Y-161864684D01*
X83219858Y-161861174D01*
X83243750Y-161860000D01*
X83731250Y-161860000D01*
X83755142Y-161861174D01*
G37*
G36*
X83755142Y-166941174D02*
G01*
X83778803Y-166944684D01*
X83802007Y-166950496D01*
X83824529Y-166958554D01*
X83846153Y-166968782D01*
X83866670Y-166981079D01*
X83885883Y-166995329D01*
X83903607Y-167011393D01*
X83919671Y-167029117D01*
X83933921Y-167048330D01*
X83946218Y-167068847D01*
X83956446Y-167090471D01*
X83964504Y-167112993D01*
X83970316Y-167136197D01*
X83973826Y-167159858D01*
X83975000Y-167183750D01*
X83975000Y-168096250D01*
X83973826Y-168120142D01*
X83970316Y-168143803D01*
X83964504Y-168167007D01*
X83956446Y-168189529D01*
X83946218Y-168211153D01*
X83933921Y-168231670D01*
X83919671Y-168250883D01*
X83903607Y-168268607D01*
X83885883Y-168284671D01*
X83866670Y-168298921D01*
X83846153Y-168311218D01*
X83824529Y-168321446D01*
X83802007Y-168329504D01*
X83778803Y-168335316D01*
X83755142Y-168338826D01*
X83731250Y-168340000D01*
X83243750Y-168340000D01*
X83219858Y-168338826D01*
X83196197Y-168335316D01*
X83172993Y-168329504D01*
X83150471Y-168321446D01*
X83128847Y-168311218D01*
X83108330Y-168298921D01*
X83089117Y-168284671D01*
X83071393Y-168268607D01*
X83055329Y-168250883D01*
X83041079Y-168231670D01*
X83028782Y-168211153D01*
X83018554Y-168189529D01*
X83010496Y-168167007D01*
X83004684Y-168143803D01*
X83001174Y-168120142D01*
X83000000Y-168096250D01*
X83000000Y-167183750D01*
X83001174Y-167159858D01*
X83004684Y-167136197D01*
X83010496Y-167112993D01*
X83018554Y-167090471D01*
X83028782Y-167068847D01*
X83041079Y-167048330D01*
X83055329Y-167029117D01*
X83071393Y-167011393D01*
X83089117Y-166995329D01*
X83108330Y-166981079D01*
X83128847Y-166968782D01*
X83150471Y-166958554D01*
X83172993Y-166950496D01*
X83196197Y-166944684D01*
X83219858Y-166941174D01*
X83243750Y-166940000D01*
X83731250Y-166940000D01*
X83755142Y-166941174D01*
G37*
G36*
X81880142Y-166941174D02*
G01*
X81903803Y-166944684D01*
X81927007Y-166950496D01*
X81949529Y-166958554D01*
X81971153Y-166968782D01*
X81991670Y-166981079D01*
X82010883Y-166995329D01*
X82028607Y-167011393D01*
X82044671Y-167029117D01*
X82058921Y-167048330D01*
X82071218Y-167068847D01*
X82081446Y-167090471D01*
X82089504Y-167112993D01*
X82095316Y-167136197D01*
X82098826Y-167159858D01*
X82100000Y-167183750D01*
X82100000Y-168096250D01*
X82098826Y-168120142D01*
X82095316Y-168143803D01*
X82089504Y-168167007D01*
X82081446Y-168189529D01*
X82071218Y-168211153D01*
X82058921Y-168231670D01*
X82044671Y-168250883D01*
X82028607Y-168268607D01*
X82010883Y-168284671D01*
X81991670Y-168298921D01*
X81971153Y-168311218D01*
X81949529Y-168321446D01*
X81927007Y-168329504D01*
X81903803Y-168335316D01*
X81880142Y-168338826D01*
X81856250Y-168340000D01*
X81368750Y-168340000D01*
X81344858Y-168338826D01*
X81321197Y-168335316D01*
X81297993Y-168329504D01*
X81275471Y-168321446D01*
X81253847Y-168311218D01*
X81233330Y-168298921D01*
X81214117Y-168284671D01*
X81196393Y-168268607D01*
X81180329Y-168250883D01*
X81166079Y-168231670D01*
X81153782Y-168211153D01*
X81143554Y-168189529D01*
X81135496Y-168167007D01*
X81129684Y-168143803D01*
X81126174Y-168120142D01*
X81125000Y-168096250D01*
X81125000Y-167183750D01*
X81126174Y-167159858D01*
X81129684Y-167136197D01*
X81135496Y-167112993D01*
X81143554Y-167090471D01*
X81153782Y-167068847D01*
X81166079Y-167048330D01*
X81180329Y-167029117D01*
X81196393Y-167011393D01*
X81214117Y-166995329D01*
X81233330Y-166981079D01*
X81253847Y-166968782D01*
X81275471Y-166958554D01*
X81297993Y-166950496D01*
X81321197Y-166944684D01*
X81344858Y-166941174D01*
X81368750Y-166940000D01*
X81856250Y-166940000D01*
X81880142Y-166941174D01*
G37*
G36*
X94580142Y-156781174D02*
G01*
X94603803Y-156784684D01*
X94627007Y-156790496D01*
X94649529Y-156798554D01*
X94671153Y-156808782D01*
X94691670Y-156821079D01*
X94710883Y-156835329D01*
X94728607Y-156851393D01*
X94744671Y-156869117D01*
X94758921Y-156888330D01*
X94771218Y-156908847D01*
X94781446Y-156930471D01*
X94789504Y-156952993D01*
X94795316Y-156976197D01*
X94798826Y-156999858D01*
X94800000Y-157023750D01*
X94800000Y-157936250D01*
X94798826Y-157960142D01*
X94795316Y-157983803D01*
X94789504Y-158007007D01*
X94781446Y-158029529D01*
X94771218Y-158051153D01*
X94758921Y-158071670D01*
X94744671Y-158090883D01*
X94728607Y-158108607D01*
X94710883Y-158124671D01*
X94691670Y-158138921D01*
X94671153Y-158151218D01*
X94649529Y-158161446D01*
X94627007Y-158169504D01*
X94603803Y-158175316D01*
X94580142Y-158178826D01*
X94556250Y-158180000D01*
X94068750Y-158180000D01*
X94044858Y-158178826D01*
X94021197Y-158175316D01*
X93997993Y-158169504D01*
X93975471Y-158161446D01*
X93953847Y-158151218D01*
X93933330Y-158138921D01*
X93914117Y-158124671D01*
X93896393Y-158108607D01*
X93880329Y-158090883D01*
X93866079Y-158071670D01*
X93853782Y-158051153D01*
X93843554Y-158029529D01*
X93835496Y-158007007D01*
X93829684Y-157983803D01*
X93826174Y-157960142D01*
X93825000Y-157936250D01*
X93825000Y-157023750D01*
X93826174Y-156999858D01*
X93829684Y-156976197D01*
X93835496Y-156952993D01*
X93843554Y-156930471D01*
X93853782Y-156908847D01*
X93866079Y-156888330D01*
X93880329Y-156869117D01*
X93896393Y-156851393D01*
X93914117Y-156835329D01*
X93933330Y-156821079D01*
X93953847Y-156808782D01*
X93975471Y-156798554D01*
X93997993Y-156790496D01*
X94021197Y-156784684D01*
X94044858Y-156781174D01*
X94068750Y-156780000D01*
X94556250Y-156780000D01*
X94580142Y-156781174D01*
G37*
G36*
X96455142Y-156781174D02*
G01*
X96478803Y-156784684D01*
X96502007Y-156790496D01*
X96524529Y-156798554D01*
X96546153Y-156808782D01*
X96566670Y-156821079D01*
X96585883Y-156835329D01*
X96603607Y-156851393D01*
X96619671Y-156869117D01*
X96633921Y-156888330D01*
X96646218Y-156908847D01*
X96656446Y-156930471D01*
X96664504Y-156952993D01*
X96670316Y-156976197D01*
X96673826Y-156999858D01*
X96675000Y-157023750D01*
X96675000Y-157936250D01*
X96673826Y-157960142D01*
X96670316Y-157983803D01*
X96664504Y-158007007D01*
X96656446Y-158029529D01*
X96646218Y-158051153D01*
X96633921Y-158071670D01*
X96619671Y-158090883D01*
X96603607Y-158108607D01*
X96585883Y-158124671D01*
X96566670Y-158138921D01*
X96546153Y-158151218D01*
X96524529Y-158161446D01*
X96502007Y-158169504D01*
X96478803Y-158175316D01*
X96455142Y-158178826D01*
X96431250Y-158180000D01*
X95943750Y-158180000D01*
X95919858Y-158178826D01*
X95896197Y-158175316D01*
X95872993Y-158169504D01*
X95850471Y-158161446D01*
X95828847Y-158151218D01*
X95808330Y-158138921D01*
X95789117Y-158124671D01*
X95771393Y-158108607D01*
X95755329Y-158090883D01*
X95741079Y-158071670D01*
X95728782Y-158051153D01*
X95718554Y-158029529D01*
X95710496Y-158007007D01*
X95704684Y-157983803D01*
X95701174Y-157960142D01*
X95700000Y-157936250D01*
X95700000Y-157023750D01*
X95701174Y-156999858D01*
X95704684Y-156976197D01*
X95710496Y-156952993D01*
X95718554Y-156930471D01*
X95728782Y-156908847D01*
X95741079Y-156888330D01*
X95755329Y-156869117D01*
X95771393Y-156851393D01*
X95789117Y-156835329D01*
X95808330Y-156821079D01*
X95828847Y-156808782D01*
X95850471Y-156798554D01*
X95872993Y-156790496D01*
X95896197Y-156784684D01*
X95919858Y-156781174D01*
X95943750Y-156780000D01*
X96431250Y-156780000D01*
X96455142Y-156781174D01*
G37*
G36*
X94580142Y-166941174D02*
G01*
X94603803Y-166944684D01*
X94627007Y-166950496D01*
X94649529Y-166958554D01*
X94671153Y-166968782D01*
X94691670Y-166981079D01*
X94710883Y-166995329D01*
X94728607Y-167011393D01*
X94744671Y-167029117D01*
X94758921Y-167048330D01*
X94771218Y-167068847D01*
X94781446Y-167090471D01*
X94789504Y-167112993D01*
X94795316Y-167136197D01*
X94798826Y-167159858D01*
X94800000Y-167183750D01*
X94800000Y-168096250D01*
X94798826Y-168120142D01*
X94795316Y-168143803D01*
X94789504Y-168167007D01*
X94781446Y-168189529D01*
X94771218Y-168211153D01*
X94758921Y-168231670D01*
X94744671Y-168250883D01*
X94728607Y-168268607D01*
X94710883Y-168284671D01*
X94691670Y-168298921D01*
X94671153Y-168311218D01*
X94649529Y-168321446D01*
X94627007Y-168329504D01*
X94603803Y-168335316D01*
X94580142Y-168338826D01*
X94556250Y-168340000D01*
X94068750Y-168340000D01*
X94044858Y-168338826D01*
X94021197Y-168335316D01*
X93997993Y-168329504D01*
X93975471Y-168321446D01*
X93953847Y-168311218D01*
X93933330Y-168298921D01*
X93914117Y-168284671D01*
X93896393Y-168268607D01*
X93880329Y-168250883D01*
X93866079Y-168231670D01*
X93853782Y-168211153D01*
X93843554Y-168189529D01*
X93835496Y-168167007D01*
X93829684Y-168143803D01*
X93826174Y-168120142D01*
X93825000Y-168096250D01*
X93825000Y-167183750D01*
X93826174Y-167159858D01*
X93829684Y-167136197D01*
X93835496Y-167112993D01*
X93843554Y-167090471D01*
X93853782Y-167068847D01*
X93866079Y-167048330D01*
X93880329Y-167029117D01*
X93896393Y-167011393D01*
X93914117Y-166995329D01*
X93933330Y-166981079D01*
X93953847Y-166968782D01*
X93975471Y-166958554D01*
X93997993Y-166950496D01*
X94021197Y-166944684D01*
X94044858Y-166941174D01*
X94068750Y-166940000D01*
X94556250Y-166940000D01*
X94580142Y-166941174D01*
G37*
G36*
X96455142Y-166941174D02*
G01*
X96478803Y-166944684D01*
X96502007Y-166950496D01*
X96524529Y-166958554D01*
X96546153Y-166968782D01*
X96566670Y-166981079D01*
X96585883Y-166995329D01*
X96603607Y-167011393D01*
X96619671Y-167029117D01*
X96633921Y-167048330D01*
X96646218Y-167068847D01*
X96656446Y-167090471D01*
X96664504Y-167112993D01*
X96670316Y-167136197D01*
X96673826Y-167159858D01*
X96675000Y-167183750D01*
X96675000Y-168096250D01*
X96673826Y-168120142D01*
X96670316Y-168143803D01*
X96664504Y-168167007D01*
X96656446Y-168189529D01*
X96646218Y-168211153D01*
X96633921Y-168231670D01*
X96619671Y-168250883D01*
X96603607Y-168268607D01*
X96585883Y-168284671D01*
X96566670Y-168298921D01*
X96546153Y-168311218D01*
X96524529Y-168321446D01*
X96502007Y-168329504D01*
X96478803Y-168335316D01*
X96455142Y-168338826D01*
X96431250Y-168340000D01*
X95943750Y-168340000D01*
X95919858Y-168338826D01*
X95896197Y-168335316D01*
X95872993Y-168329504D01*
X95850471Y-168321446D01*
X95828847Y-168311218D01*
X95808330Y-168298921D01*
X95789117Y-168284671D01*
X95771393Y-168268607D01*
X95755329Y-168250883D01*
X95741079Y-168231670D01*
X95728782Y-168211153D01*
X95718554Y-168189529D01*
X95710496Y-168167007D01*
X95704684Y-168143803D01*
X95701174Y-168120142D01*
X95700000Y-168096250D01*
X95700000Y-167183750D01*
X95701174Y-167159858D01*
X95704684Y-167136197D01*
X95710496Y-167112993D01*
X95718554Y-167090471D01*
X95728782Y-167068847D01*
X95741079Y-167048330D01*
X95755329Y-167029117D01*
X95771393Y-167011393D01*
X95789117Y-166995329D01*
X95808330Y-166981079D01*
X95828847Y-166968782D01*
X95850471Y-166958554D01*
X95872993Y-166950496D01*
X95896197Y-166944684D01*
X95919858Y-166941174D01*
X95943750Y-166940000D01*
X96431250Y-166940000D01*
X96455142Y-166941174D01*
G37*
G36*
X96455142Y-161861174D02*
G01*
X96478803Y-161864684D01*
X96502007Y-161870496D01*
X96524529Y-161878554D01*
X96546153Y-161888782D01*
X96566670Y-161901079D01*
X96585883Y-161915329D01*
X96603607Y-161931393D01*
X96619671Y-161949117D01*
X96633921Y-161968330D01*
X96646218Y-161988847D01*
X96656446Y-162010471D01*
X96664504Y-162032993D01*
X96670316Y-162056197D01*
X96673826Y-162079858D01*
X96675000Y-162103750D01*
X96675000Y-163016250D01*
X96673826Y-163040142D01*
X96670316Y-163063803D01*
X96664504Y-163087007D01*
X96656446Y-163109529D01*
X96646218Y-163131153D01*
X96633921Y-163151670D01*
X96619671Y-163170883D01*
X96603607Y-163188607D01*
X96585883Y-163204671D01*
X96566670Y-163218921D01*
X96546153Y-163231218D01*
X96524529Y-163241446D01*
X96502007Y-163249504D01*
X96478803Y-163255316D01*
X96455142Y-163258826D01*
X96431250Y-163260000D01*
X95943750Y-163260000D01*
X95919858Y-163258826D01*
X95896197Y-163255316D01*
X95872993Y-163249504D01*
X95850471Y-163241446D01*
X95828847Y-163231218D01*
X95808330Y-163218921D01*
X95789117Y-163204671D01*
X95771393Y-163188607D01*
X95755329Y-163170883D01*
X95741079Y-163151670D01*
X95728782Y-163131153D01*
X95718554Y-163109529D01*
X95710496Y-163087007D01*
X95704684Y-163063803D01*
X95701174Y-163040142D01*
X95700000Y-163016250D01*
X95700000Y-162103750D01*
X95701174Y-162079858D01*
X95704684Y-162056197D01*
X95710496Y-162032993D01*
X95718554Y-162010471D01*
X95728782Y-161988847D01*
X95741079Y-161968330D01*
X95755329Y-161949117D01*
X95771393Y-161931393D01*
X95789117Y-161915329D01*
X95808330Y-161901079D01*
X95828847Y-161888782D01*
X95850471Y-161878554D01*
X95872993Y-161870496D01*
X95896197Y-161864684D01*
X95919858Y-161861174D01*
X95943750Y-161860000D01*
X96431250Y-161860000D01*
X96455142Y-161861174D01*
G37*
G36*
X94580142Y-161861174D02*
G01*
X94603803Y-161864684D01*
X94627007Y-161870496D01*
X94649529Y-161878554D01*
X94671153Y-161888782D01*
X94691670Y-161901079D01*
X94710883Y-161915329D01*
X94728607Y-161931393D01*
X94744671Y-161949117D01*
X94758921Y-161968330D01*
X94771218Y-161988847D01*
X94781446Y-162010471D01*
X94789504Y-162032993D01*
X94795316Y-162056197D01*
X94798826Y-162079858D01*
X94800000Y-162103750D01*
X94800000Y-163016250D01*
X94798826Y-163040142D01*
X94795316Y-163063803D01*
X94789504Y-163087007D01*
X94781446Y-163109529D01*
X94771218Y-163131153D01*
X94758921Y-163151670D01*
X94744671Y-163170883D01*
X94728607Y-163188607D01*
X94710883Y-163204671D01*
X94691670Y-163218921D01*
X94671153Y-163231218D01*
X94649529Y-163241446D01*
X94627007Y-163249504D01*
X94603803Y-163255316D01*
X94580142Y-163258826D01*
X94556250Y-163260000D01*
X94068750Y-163260000D01*
X94044858Y-163258826D01*
X94021197Y-163255316D01*
X93997993Y-163249504D01*
X93975471Y-163241446D01*
X93953847Y-163231218D01*
X93933330Y-163218921D01*
X93914117Y-163204671D01*
X93896393Y-163188607D01*
X93880329Y-163170883D01*
X93866079Y-163151670D01*
X93853782Y-163131153D01*
X93843554Y-163109529D01*
X93835496Y-163087007D01*
X93829684Y-163063803D01*
X93826174Y-163040142D01*
X93825000Y-163016250D01*
X93825000Y-162103750D01*
X93826174Y-162079858D01*
X93829684Y-162056197D01*
X93835496Y-162032993D01*
X93843554Y-162010471D01*
X93853782Y-161988847D01*
X93866079Y-161968330D01*
X93880329Y-161949117D01*
X93896393Y-161931393D01*
X93914117Y-161915329D01*
X93933330Y-161901079D01*
X93953847Y-161888782D01*
X93975471Y-161878554D01*
X93997993Y-161870496D01*
X94021197Y-161864684D01*
X94044858Y-161861174D01*
X94068750Y-161860000D01*
X94556250Y-161860000D01*
X94580142Y-161861174D01*
G37*
G36*
X88529504Y-159936204D02*
G01*
X88553773Y-159939804D01*
X88577571Y-159945765D01*
X88600671Y-159954030D01*
X88622849Y-159964520D01*
X88643893Y-159977133D01*
X88663598Y-159991747D01*
X88681777Y-160008223D01*
X88698253Y-160026402D01*
X88712867Y-160046107D01*
X88725480Y-160067151D01*
X88735970Y-160089329D01*
X88744235Y-160112429D01*
X88750196Y-160136227D01*
X88753796Y-160160496D01*
X88755000Y-160185000D01*
X88755000Y-160895000D01*
X88753796Y-160919504D01*
X88750196Y-160943773D01*
X88744235Y-160967571D01*
X88735970Y-160990671D01*
X88725480Y-161012849D01*
X88712867Y-161033893D01*
X88698253Y-161053598D01*
X88681777Y-161071777D01*
X88663598Y-161088253D01*
X88643893Y-161102867D01*
X88622849Y-161115480D01*
X88600671Y-161125970D01*
X88577571Y-161134235D01*
X88553773Y-161140196D01*
X88529504Y-161143796D01*
X88505000Y-161145000D01*
X87795000Y-161145000D01*
X87770496Y-161143796D01*
X87746227Y-161140196D01*
X87722429Y-161134235D01*
X87699329Y-161125970D01*
X87677151Y-161115480D01*
X87656107Y-161102867D01*
X87636402Y-161088253D01*
X87618223Y-161071777D01*
X87601747Y-161053598D01*
X87587133Y-161033893D01*
X87574520Y-161012849D01*
X87564030Y-160990671D01*
X87555765Y-160967571D01*
X87549804Y-160943773D01*
X87546204Y-160919504D01*
X87545000Y-160895000D01*
X87545000Y-160185000D01*
X87546204Y-160160496D01*
X87549804Y-160136227D01*
X87555765Y-160112429D01*
X87564030Y-160089329D01*
X87574520Y-160067151D01*
X87587133Y-160046107D01*
X87601747Y-160026402D01*
X87618223Y-160008223D01*
X87636402Y-159991747D01*
X87656107Y-159977133D01*
X87677151Y-159964520D01*
X87699329Y-159954030D01*
X87722429Y-159945765D01*
X87746227Y-159939804D01*
X87770496Y-159936204D01*
X87795000Y-159935000D01*
X88505000Y-159935000D01*
X88529504Y-159936204D01*
G37*
G36*
X88529504Y-161436204D02*
G01*
X88553773Y-161439804D01*
X88577571Y-161445765D01*
X88600671Y-161454030D01*
X88622849Y-161464520D01*
X88643893Y-161477133D01*
X88663598Y-161491747D01*
X88681777Y-161508223D01*
X88698253Y-161526402D01*
X88712867Y-161546107D01*
X88725480Y-161567151D01*
X88735970Y-161589329D01*
X88744235Y-161612429D01*
X88750196Y-161636227D01*
X88753796Y-161660496D01*
X88755000Y-161685000D01*
X88755000Y-162395000D01*
X88753796Y-162419504D01*
X88750196Y-162443773D01*
X88744235Y-162467571D01*
X88735970Y-162490671D01*
X88725480Y-162512849D01*
X88712867Y-162533893D01*
X88698253Y-162553598D01*
X88681777Y-162571777D01*
X88663598Y-162588253D01*
X88643893Y-162602867D01*
X88622849Y-162615480D01*
X88600671Y-162625970D01*
X88577571Y-162634235D01*
X88553773Y-162640196D01*
X88529504Y-162643796D01*
X88505000Y-162645000D01*
X87795000Y-162645000D01*
X87770496Y-162643796D01*
X87746227Y-162640196D01*
X87722429Y-162634235D01*
X87699329Y-162625970D01*
X87677151Y-162615480D01*
X87656107Y-162602867D01*
X87636402Y-162588253D01*
X87618223Y-162571777D01*
X87601747Y-162553598D01*
X87587133Y-162533893D01*
X87574520Y-162512849D01*
X87564030Y-162490671D01*
X87555765Y-162467571D01*
X87549804Y-162443773D01*
X87546204Y-162419504D01*
X87545000Y-162395000D01*
X87545000Y-161685000D01*
X87546204Y-161660496D01*
X87549804Y-161636227D01*
X87555765Y-161612429D01*
X87564030Y-161589329D01*
X87574520Y-161567151D01*
X87587133Y-161546107D01*
X87601747Y-161526402D01*
X87618223Y-161508223D01*
X87636402Y-161491747D01*
X87656107Y-161477133D01*
X87677151Y-161464520D01*
X87699329Y-161454030D01*
X87722429Y-161445765D01*
X87746227Y-161439804D01*
X87770496Y-161436204D01*
X87795000Y-161435000D01*
X88505000Y-161435000D01*
X88529504Y-161436204D01*
G37*
G36*
X90029504Y-159936204D02*
G01*
X90053773Y-159939804D01*
X90077571Y-159945765D01*
X90100671Y-159954030D01*
X90122849Y-159964520D01*
X90143893Y-159977133D01*
X90163598Y-159991747D01*
X90181777Y-160008223D01*
X90198253Y-160026402D01*
X90212867Y-160046107D01*
X90225480Y-160067151D01*
X90235970Y-160089329D01*
X90244235Y-160112429D01*
X90250196Y-160136227D01*
X90253796Y-160160496D01*
X90255000Y-160185000D01*
X90255000Y-160895000D01*
X90253796Y-160919504D01*
X90250196Y-160943773D01*
X90244235Y-160967571D01*
X90235970Y-160990671D01*
X90225480Y-161012849D01*
X90212867Y-161033893D01*
X90198253Y-161053598D01*
X90181777Y-161071777D01*
X90163598Y-161088253D01*
X90143893Y-161102867D01*
X90122849Y-161115480D01*
X90100671Y-161125970D01*
X90077571Y-161134235D01*
X90053773Y-161140196D01*
X90029504Y-161143796D01*
X90005000Y-161145000D01*
X89295000Y-161145000D01*
X89270496Y-161143796D01*
X89246227Y-161140196D01*
X89222429Y-161134235D01*
X89199329Y-161125970D01*
X89177151Y-161115480D01*
X89156107Y-161102867D01*
X89136402Y-161088253D01*
X89118223Y-161071777D01*
X89101747Y-161053598D01*
X89087133Y-161033893D01*
X89074520Y-161012849D01*
X89064030Y-160990671D01*
X89055765Y-160967571D01*
X89049804Y-160943773D01*
X89046204Y-160919504D01*
X89045000Y-160895000D01*
X89045000Y-160185000D01*
X89046204Y-160160496D01*
X89049804Y-160136227D01*
X89055765Y-160112429D01*
X89064030Y-160089329D01*
X89074520Y-160067151D01*
X89087133Y-160046107D01*
X89101747Y-160026402D01*
X89118223Y-160008223D01*
X89136402Y-159991747D01*
X89156107Y-159977133D01*
X89177151Y-159964520D01*
X89199329Y-159954030D01*
X89222429Y-159945765D01*
X89246227Y-159939804D01*
X89270496Y-159936204D01*
X89295000Y-159935000D01*
X90005000Y-159935000D01*
X90029504Y-159936204D01*
G37*
G36*
X90029504Y-161436204D02*
G01*
X90053773Y-161439804D01*
X90077571Y-161445765D01*
X90100671Y-161454030D01*
X90122849Y-161464520D01*
X90143893Y-161477133D01*
X90163598Y-161491747D01*
X90181777Y-161508223D01*
X90198253Y-161526402D01*
X90212867Y-161546107D01*
X90225480Y-161567151D01*
X90235970Y-161589329D01*
X90244235Y-161612429D01*
X90250196Y-161636227D01*
X90253796Y-161660496D01*
X90255000Y-161685000D01*
X90255000Y-162395000D01*
X90253796Y-162419504D01*
X90250196Y-162443773D01*
X90244235Y-162467571D01*
X90235970Y-162490671D01*
X90225480Y-162512849D01*
X90212867Y-162533893D01*
X90198253Y-162553598D01*
X90181777Y-162571777D01*
X90163598Y-162588253D01*
X90143893Y-162602867D01*
X90122849Y-162615480D01*
X90100671Y-162625970D01*
X90077571Y-162634235D01*
X90053773Y-162640196D01*
X90029504Y-162643796D01*
X90005000Y-162645000D01*
X89295000Y-162645000D01*
X89270496Y-162643796D01*
X89246227Y-162640196D01*
X89222429Y-162634235D01*
X89199329Y-162625970D01*
X89177151Y-162615480D01*
X89156107Y-162602867D01*
X89136402Y-162588253D01*
X89118223Y-162571777D01*
X89101747Y-162553598D01*
X89087133Y-162533893D01*
X89074520Y-162512849D01*
X89064030Y-162490671D01*
X89055765Y-162467571D01*
X89049804Y-162443773D01*
X89046204Y-162419504D01*
X89045000Y-162395000D01*
X89045000Y-161685000D01*
X89046204Y-161660496D01*
X89049804Y-161636227D01*
X89055765Y-161612429D01*
X89064030Y-161589329D01*
X89074520Y-161567151D01*
X89087133Y-161546107D01*
X89101747Y-161526402D01*
X89118223Y-161508223D01*
X89136402Y-161491747D01*
X89156107Y-161477133D01*
X89177151Y-161464520D01*
X89199329Y-161454030D01*
X89222429Y-161445765D01*
X89246227Y-161439804D01*
X89270496Y-161436204D01*
X89295000Y-161435000D01*
X90005000Y-161435000D01*
X90029504Y-161436204D01*
G37*
G36*
X86709802Y-158815482D02*
G01*
X86719509Y-158816921D01*
X86729028Y-158819306D01*
X86738268Y-158822612D01*
X86747140Y-158826808D01*
X86755557Y-158831853D01*
X86763439Y-158837699D01*
X86770711Y-158844289D01*
X86777301Y-158851561D01*
X86783147Y-158859443D01*
X86788192Y-158867860D01*
X86792388Y-158876732D01*
X86795694Y-158885972D01*
X86798079Y-158895491D01*
X86799518Y-158905198D01*
X86800000Y-158915000D01*
X86800000Y-159115000D01*
X86799518Y-159124802D01*
X86798079Y-159134509D01*
X86795694Y-159144028D01*
X86792388Y-159153268D01*
X86788192Y-159162140D01*
X86783147Y-159170557D01*
X86777301Y-159178439D01*
X86770711Y-159185711D01*
X86763439Y-159192301D01*
X86755557Y-159198147D01*
X86747140Y-159203192D01*
X86738268Y-159207388D01*
X86729028Y-159210694D01*
X86719509Y-159213079D01*
X86709802Y-159214518D01*
X86700000Y-159215000D01*
X85350000Y-159215000D01*
X85340198Y-159214518D01*
X85330491Y-159213079D01*
X85320972Y-159210694D01*
X85311732Y-159207388D01*
X85302860Y-159203192D01*
X85294443Y-159198147D01*
X85286561Y-159192301D01*
X85279289Y-159185711D01*
X85272699Y-159178439D01*
X85266853Y-159170557D01*
X85261808Y-159162140D01*
X85257612Y-159153268D01*
X85254306Y-159144028D01*
X85251921Y-159134509D01*
X85250482Y-159124802D01*
X85250000Y-159115000D01*
X85250000Y-158915000D01*
X85250482Y-158905198D01*
X85251921Y-158895491D01*
X85254306Y-158885972D01*
X85257612Y-158876732D01*
X85261808Y-158867860D01*
X85266853Y-158859443D01*
X85272699Y-158851561D01*
X85279289Y-158844289D01*
X85286561Y-158837699D01*
X85294443Y-158831853D01*
X85302860Y-158826808D01*
X85311732Y-158822612D01*
X85320972Y-158819306D01*
X85330491Y-158816921D01*
X85340198Y-158815482D01*
X85350000Y-158815000D01*
X86700000Y-158815000D01*
X86709802Y-158815482D01*
G37*
G36*
X86709802Y-159465482D02*
G01*
X86719509Y-159466921D01*
X86729028Y-159469306D01*
X86738268Y-159472612D01*
X86747140Y-159476808D01*
X86755557Y-159481853D01*
X86763439Y-159487699D01*
X86770711Y-159494289D01*
X86777301Y-159501561D01*
X86783147Y-159509443D01*
X86788192Y-159517860D01*
X86792388Y-159526732D01*
X86795694Y-159535972D01*
X86798079Y-159545491D01*
X86799518Y-159555198D01*
X86800000Y-159565000D01*
X86800000Y-159765000D01*
X86799518Y-159774802D01*
X86798079Y-159784509D01*
X86795694Y-159794028D01*
X86792388Y-159803268D01*
X86788192Y-159812140D01*
X86783147Y-159820557D01*
X86777301Y-159828439D01*
X86770711Y-159835711D01*
X86763439Y-159842301D01*
X86755557Y-159848147D01*
X86747140Y-159853192D01*
X86738268Y-159857388D01*
X86729028Y-159860694D01*
X86719509Y-159863079D01*
X86709802Y-159864518D01*
X86700000Y-159865000D01*
X85350000Y-159865000D01*
X85340198Y-159864518D01*
X85330491Y-159863079D01*
X85320972Y-159860694D01*
X85311732Y-159857388D01*
X85302860Y-159853192D01*
X85294443Y-159848147D01*
X85286561Y-159842301D01*
X85279289Y-159835711D01*
X85272699Y-159828439D01*
X85266853Y-159820557D01*
X85261808Y-159812140D01*
X85257612Y-159803268D01*
X85254306Y-159794028D01*
X85251921Y-159784509D01*
X85250482Y-159774802D01*
X85250000Y-159765000D01*
X85250000Y-159565000D01*
X85250482Y-159555198D01*
X85251921Y-159545491D01*
X85254306Y-159535972D01*
X85257612Y-159526732D01*
X85261808Y-159517860D01*
X85266853Y-159509443D01*
X85272699Y-159501561D01*
X85279289Y-159494289D01*
X85286561Y-159487699D01*
X85294443Y-159481853D01*
X85302860Y-159476808D01*
X85311732Y-159472612D01*
X85320972Y-159469306D01*
X85330491Y-159466921D01*
X85340198Y-159465482D01*
X85350000Y-159465000D01*
X86700000Y-159465000D01*
X86709802Y-159465482D01*
G37*
G36*
X86709802Y-160115482D02*
G01*
X86719509Y-160116921D01*
X86729028Y-160119306D01*
X86738268Y-160122612D01*
X86747140Y-160126808D01*
X86755557Y-160131853D01*
X86763439Y-160137699D01*
X86770711Y-160144289D01*
X86777301Y-160151561D01*
X86783147Y-160159443D01*
X86788192Y-160167860D01*
X86792388Y-160176732D01*
X86795694Y-160185972D01*
X86798079Y-160195491D01*
X86799518Y-160205198D01*
X86800000Y-160215000D01*
X86800000Y-160415000D01*
X86799518Y-160424802D01*
X86798079Y-160434509D01*
X86795694Y-160444028D01*
X86792388Y-160453268D01*
X86788192Y-160462140D01*
X86783147Y-160470557D01*
X86777301Y-160478439D01*
X86770711Y-160485711D01*
X86763439Y-160492301D01*
X86755557Y-160498147D01*
X86747140Y-160503192D01*
X86738268Y-160507388D01*
X86729028Y-160510694D01*
X86719509Y-160513079D01*
X86709802Y-160514518D01*
X86700000Y-160515000D01*
X85350000Y-160515000D01*
X85340198Y-160514518D01*
X85330491Y-160513079D01*
X85320972Y-160510694D01*
X85311732Y-160507388D01*
X85302860Y-160503192D01*
X85294443Y-160498147D01*
X85286561Y-160492301D01*
X85279289Y-160485711D01*
X85272699Y-160478439D01*
X85266853Y-160470557D01*
X85261808Y-160462140D01*
X85257612Y-160453268D01*
X85254306Y-160444028D01*
X85251921Y-160434509D01*
X85250482Y-160424802D01*
X85250000Y-160415000D01*
X85250000Y-160215000D01*
X85250482Y-160205198D01*
X85251921Y-160195491D01*
X85254306Y-160185972D01*
X85257612Y-160176732D01*
X85261808Y-160167860D01*
X85266853Y-160159443D01*
X85272699Y-160151561D01*
X85279289Y-160144289D01*
X85286561Y-160137699D01*
X85294443Y-160131853D01*
X85302860Y-160126808D01*
X85311732Y-160122612D01*
X85320972Y-160119306D01*
X85330491Y-160116921D01*
X85340198Y-160115482D01*
X85350000Y-160115000D01*
X86700000Y-160115000D01*
X86709802Y-160115482D01*
G37*
G36*
X86709802Y-160765482D02*
G01*
X86719509Y-160766921D01*
X86729028Y-160769306D01*
X86738268Y-160772612D01*
X86747140Y-160776808D01*
X86755557Y-160781853D01*
X86763439Y-160787699D01*
X86770711Y-160794289D01*
X86777301Y-160801561D01*
X86783147Y-160809443D01*
X86788192Y-160817860D01*
X86792388Y-160826732D01*
X86795694Y-160835972D01*
X86798079Y-160845491D01*
X86799518Y-160855198D01*
X86800000Y-160865000D01*
X86800000Y-161065000D01*
X86799518Y-161074802D01*
X86798079Y-161084509D01*
X86795694Y-161094028D01*
X86792388Y-161103268D01*
X86788192Y-161112140D01*
X86783147Y-161120557D01*
X86777301Y-161128439D01*
X86770711Y-161135711D01*
X86763439Y-161142301D01*
X86755557Y-161148147D01*
X86747140Y-161153192D01*
X86738268Y-161157388D01*
X86729028Y-161160694D01*
X86719509Y-161163079D01*
X86709802Y-161164518D01*
X86700000Y-161165000D01*
X85350000Y-161165000D01*
X85340198Y-161164518D01*
X85330491Y-161163079D01*
X85320972Y-161160694D01*
X85311732Y-161157388D01*
X85302860Y-161153192D01*
X85294443Y-161148147D01*
X85286561Y-161142301D01*
X85279289Y-161135711D01*
X85272699Y-161128439D01*
X85266853Y-161120557D01*
X85261808Y-161112140D01*
X85257612Y-161103268D01*
X85254306Y-161094028D01*
X85251921Y-161084509D01*
X85250482Y-161074802D01*
X85250000Y-161065000D01*
X85250000Y-160865000D01*
X85250482Y-160855198D01*
X85251921Y-160845491D01*
X85254306Y-160835972D01*
X85257612Y-160826732D01*
X85261808Y-160817860D01*
X85266853Y-160809443D01*
X85272699Y-160801561D01*
X85279289Y-160794289D01*
X85286561Y-160787699D01*
X85294443Y-160781853D01*
X85302860Y-160776808D01*
X85311732Y-160772612D01*
X85320972Y-160769306D01*
X85330491Y-160766921D01*
X85340198Y-160765482D01*
X85350000Y-160765000D01*
X86700000Y-160765000D01*
X86709802Y-160765482D01*
G37*
G36*
X86709802Y-161415482D02*
G01*
X86719509Y-161416921D01*
X86729028Y-161419306D01*
X86738268Y-161422612D01*
X86747140Y-161426808D01*
X86755557Y-161431853D01*
X86763439Y-161437699D01*
X86770711Y-161444289D01*
X86777301Y-161451561D01*
X86783147Y-161459443D01*
X86788192Y-161467860D01*
X86792388Y-161476732D01*
X86795694Y-161485972D01*
X86798079Y-161495491D01*
X86799518Y-161505198D01*
X86800000Y-161515000D01*
X86800000Y-161715000D01*
X86799518Y-161724802D01*
X86798079Y-161734509D01*
X86795694Y-161744028D01*
X86792388Y-161753268D01*
X86788192Y-161762140D01*
X86783147Y-161770557D01*
X86777301Y-161778439D01*
X86770711Y-161785711D01*
X86763439Y-161792301D01*
X86755557Y-161798147D01*
X86747140Y-161803192D01*
X86738268Y-161807388D01*
X86729028Y-161810694D01*
X86719509Y-161813079D01*
X86709802Y-161814518D01*
X86700000Y-161815000D01*
X85350000Y-161815000D01*
X85340198Y-161814518D01*
X85330491Y-161813079D01*
X85320972Y-161810694D01*
X85311732Y-161807388D01*
X85302860Y-161803192D01*
X85294443Y-161798147D01*
X85286561Y-161792301D01*
X85279289Y-161785711D01*
X85272699Y-161778439D01*
X85266853Y-161770557D01*
X85261808Y-161762140D01*
X85257612Y-161753268D01*
X85254306Y-161744028D01*
X85251921Y-161734509D01*
X85250482Y-161724802D01*
X85250000Y-161715000D01*
X85250000Y-161515000D01*
X85250482Y-161505198D01*
X85251921Y-161495491D01*
X85254306Y-161485972D01*
X85257612Y-161476732D01*
X85261808Y-161467860D01*
X85266853Y-161459443D01*
X85272699Y-161451561D01*
X85279289Y-161444289D01*
X85286561Y-161437699D01*
X85294443Y-161431853D01*
X85302860Y-161426808D01*
X85311732Y-161422612D01*
X85320972Y-161419306D01*
X85330491Y-161416921D01*
X85340198Y-161415482D01*
X85350000Y-161415000D01*
X86700000Y-161415000D01*
X86709802Y-161415482D01*
G37*
G36*
X86709802Y-162065482D02*
G01*
X86719509Y-162066921D01*
X86729028Y-162069306D01*
X86738268Y-162072612D01*
X86747140Y-162076808D01*
X86755557Y-162081853D01*
X86763439Y-162087699D01*
X86770711Y-162094289D01*
X86777301Y-162101561D01*
X86783147Y-162109443D01*
X86788192Y-162117860D01*
X86792388Y-162126732D01*
X86795694Y-162135972D01*
X86798079Y-162145491D01*
X86799518Y-162155198D01*
X86800000Y-162165000D01*
X86800000Y-162365000D01*
X86799518Y-162374802D01*
X86798079Y-162384509D01*
X86795694Y-162394028D01*
X86792388Y-162403268D01*
X86788192Y-162412140D01*
X86783147Y-162420557D01*
X86777301Y-162428439D01*
X86770711Y-162435711D01*
X86763439Y-162442301D01*
X86755557Y-162448147D01*
X86747140Y-162453192D01*
X86738268Y-162457388D01*
X86729028Y-162460694D01*
X86719509Y-162463079D01*
X86709802Y-162464518D01*
X86700000Y-162465000D01*
X85350000Y-162465000D01*
X85340198Y-162464518D01*
X85330491Y-162463079D01*
X85320972Y-162460694D01*
X85311732Y-162457388D01*
X85302860Y-162453192D01*
X85294443Y-162448147D01*
X85286561Y-162442301D01*
X85279289Y-162435711D01*
X85272699Y-162428439D01*
X85266853Y-162420557D01*
X85261808Y-162412140D01*
X85257612Y-162403268D01*
X85254306Y-162394028D01*
X85251921Y-162384509D01*
X85250482Y-162374802D01*
X85250000Y-162365000D01*
X85250000Y-162165000D01*
X85250482Y-162155198D01*
X85251921Y-162145491D01*
X85254306Y-162135972D01*
X85257612Y-162126732D01*
X85261808Y-162117860D01*
X85266853Y-162109443D01*
X85272699Y-162101561D01*
X85279289Y-162094289D01*
X85286561Y-162087699D01*
X85294443Y-162081853D01*
X85302860Y-162076808D01*
X85311732Y-162072612D01*
X85320972Y-162069306D01*
X85330491Y-162066921D01*
X85340198Y-162065482D01*
X85350000Y-162065000D01*
X86700000Y-162065000D01*
X86709802Y-162065482D01*
G37*
G36*
X86709802Y-162715482D02*
G01*
X86719509Y-162716921D01*
X86729028Y-162719306D01*
X86738268Y-162722612D01*
X86747140Y-162726808D01*
X86755557Y-162731853D01*
X86763439Y-162737699D01*
X86770711Y-162744289D01*
X86777301Y-162751561D01*
X86783147Y-162759443D01*
X86788192Y-162767860D01*
X86792388Y-162776732D01*
X86795694Y-162785972D01*
X86798079Y-162795491D01*
X86799518Y-162805198D01*
X86800000Y-162815000D01*
X86800000Y-163015000D01*
X86799518Y-163024802D01*
X86798079Y-163034509D01*
X86795694Y-163044028D01*
X86792388Y-163053268D01*
X86788192Y-163062140D01*
X86783147Y-163070557D01*
X86777301Y-163078439D01*
X86770711Y-163085711D01*
X86763439Y-163092301D01*
X86755557Y-163098147D01*
X86747140Y-163103192D01*
X86738268Y-163107388D01*
X86729028Y-163110694D01*
X86719509Y-163113079D01*
X86709802Y-163114518D01*
X86700000Y-163115000D01*
X85350000Y-163115000D01*
X85340198Y-163114518D01*
X85330491Y-163113079D01*
X85320972Y-163110694D01*
X85311732Y-163107388D01*
X85302860Y-163103192D01*
X85294443Y-163098147D01*
X85286561Y-163092301D01*
X85279289Y-163085711D01*
X85272699Y-163078439D01*
X85266853Y-163070557D01*
X85261808Y-163062140D01*
X85257612Y-163053268D01*
X85254306Y-163044028D01*
X85251921Y-163034509D01*
X85250482Y-163024802D01*
X85250000Y-163015000D01*
X85250000Y-162815000D01*
X85250482Y-162805198D01*
X85251921Y-162795491D01*
X85254306Y-162785972D01*
X85257612Y-162776732D01*
X85261808Y-162767860D01*
X85266853Y-162759443D01*
X85272699Y-162751561D01*
X85279289Y-162744289D01*
X85286561Y-162737699D01*
X85294443Y-162731853D01*
X85302860Y-162726808D01*
X85311732Y-162722612D01*
X85320972Y-162719306D01*
X85330491Y-162716921D01*
X85340198Y-162715482D01*
X85350000Y-162715000D01*
X86700000Y-162715000D01*
X86709802Y-162715482D01*
G37*
G36*
X86709802Y-163365482D02*
G01*
X86719509Y-163366921D01*
X86729028Y-163369306D01*
X86738268Y-163372612D01*
X86747140Y-163376808D01*
X86755557Y-163381853D01*
X86763439Y-163387699D01*
X86770711Y-163394289D01*
X86777301Y-163401561D01*
X86783147Y-163409443D01*
X86788192Y-163417860D01*
X86792388Y-163426732D01*
X86795694Y-163435972D01*
X86798079Y-163445491D01*
X86799518Y-163455198D01*
X86800000Y-163465000D01*
X86800000Y-163665000D01*
X86799518Y-163674802D01*
X86798079Y-163684509D01*
X86795694Y-163694028D01*
X86792388Y-163703268D01*
X86788192Y-163712140D01*
X86783147Y-163720557D01*
X86777301Y-163728439D01*
X86770711Y-163735711D01*
X86763439Y-163742301D01*
X86755557Y-163748147D01*
X86747140Y-163753192D01*
X86738268Y-163757388D01*
X86729028Y-163760694D01*
X86719509Y-163763079D01*
X86709802Y-163764518D01*
X86700000Y-163765000D01*
X85350000Y-163765000D01*
X85340198Y-163764518D01*
X85330491Y-163763079D01*
X85320972Y-163760694D01*
X85311732Y-163757388D01*
X85302860Y-163753192D01*
X85294443Y-163748147D01*
X85286561Y-163742301D01*
X85279289Y-163735711D01*
X85272699Y-163728439D01*
X85266853Y-163720557D01*
X85261808Y-163712140D01*
X85257612Y-163703268D01*
X85254306Y-163694028D01*
X85251921Y-163684509D01*
X85250482Y-163674802D01*
X85250000Y-163665000D01*
X85250000Y-163465000D01*
X85250482Y-163455198D01*
X85251921Y-163445491D01*
X85254306Y-163435972D01*
X85257612Y-163426732D01*
X85261808Y-163417860D01*
X85266853Y-163409443D01*
X85272699Y-163401561D01*
X85279289Y-163394289D01*
X85286561Y-163387699D01*
X85294443Y-163381853D01*
X85302860Y-163376808D01*
X85311732Y-163372612D01*
X85320972Y-163369306D01*
X85330491Y-163366921D01*
X85340198Y-163365482D01*
X85350000Y-163365000D01*
X86700000Y-163365000D01*
X86709802Y-163365482D01*
G37*
G36*
X92459802Y-163365482D02*
G01*
X92469509Y-163366921D01*
X92479028Y-163369306D01*
X92488268Y-163372612D01*
X92497140Y-163376808D01*
X92505557Y-163381853D01*
X92513439Y-163387699D01*
X92520711Y-163394289D01*
X92527301Y-163401561D01*
X92533147Y-163409443D01*
X92538192Y-163417860D01*
X92542388Y-163426732D01*
X92545694Y-163435972D01*
X92548079Y-163445491D01*
X92549518Y-163455198D01*
X92550000Y-163465000D01*
X92550000Y-163665000D01*
X92549518Y-163674802D01*
X92548079Y-163684509D01*
X92545694Y-163694028D01*
X92542388Y-163703268D01*
X92538192Y-163712140D01*
X92533147Y-163720557D01*
X92527301Y-163728439D01*
X92520711Y-163735711D01*
X92513439Y-163742301D01*
X92505557Y-163748147D01*
X92497140Y-163753192D01*
X92488268Y-163757388D01*
X92479028Y-163760694D01*
X92469509Y-163763079D01*
X92459802Y-163764518D01*
X92450000Y-163765000D01*
X91100000Y-163765000D01*
X91090198Y-163764518D01*
X91080491Y-163763079D01*
X91070972Y-163760694D01*
X91061732Y-163757388D01*
X91052860Y-163753192D01*
X91044443Y-163748147D01*
X91036561Y-163742301D01*
X91029289Y-163735711D01*
X91022699Y-163728439D01*
X91016853Y-163720557D01*
X91011808Y-163712140D01*
X91007612Y-163703268D01*
X91004306Y-163694028D01*
X91001921Y-163684509D01*
X91000482Y-163674802D01*
X91000000Y-163665000D01*
X91000000Y-163465000D01*
X91000482Y-163455198D01*
X91001921Y-163445491D01*
X91004306Y-163435972D01*
X91007612Y-163426732D01*
X91011808Y-163417860D01*
X91016853Y-163409443D01*
X91022699Y-163401561D01*
X91029289Y-163394289D01*
X91036561Y-163387699D01*
X91044443Y-163381853D01*
X91052860Y-163376808D01*
X91061732Y-163372612D01*
X91070972Y-163369306D01*
X91080491Y-163366921D01*
X91090198Y-163365482D01*
X91100000Y-163365000D01*
X92450000Y-163365000D01*
X92459802Y-163365482D01*
G37*
G36*
X92459802Y-162715482D02*
G01*
X92469509Y-162716921D01*
X92479028Y-162719306D01*
X92488268Y-162722612D01*
X92497140Y-162726808D01*
X92505557Y-162731853D01*
X92513439Y-162737699D01*
X92520711Y-162744289D01*
X92527301Y-162751561D01*
X92533147Y-162759443D01*
X92538192Y-162767860D01*
X92542388Y-162776732D01*
X92545694Y-162785972D01*
X92548079Y-162795491D01*
X92549518Y-162805198D01*
X92550000Y-162815000D01*
X92550000Y-163015000D01*
X92549518Y-163024802D01*
X92548079Y-163034509D01*
X92545694Y-163044028D01*
X92542388Y-163053268D01*
X92538192Y-163062140D01*
X92533147Y-163070557D01*
X92527301Y-163078439D01*
X92520711Y-163085711D01*
X92513439Y-163092301D01*
X92505557Y-163098147D01*
X92497140Y-163103192D01*
X92488268Y-163107388D01*
X92479028Y-163110694D01*
X92469509Y-163113079D01*
X92459802Y-163114518D01*
X92450000Y-163115000D01*
X91100000Y-163115000D01*
X91090198Y-163114518D01*
X91080491Y-163113079D01*
X91070972Y-163110694D01*
X91061732Y-163107388D01*
X91052860Y-163103192D01*
X91044443Y-163098147D01*
X91036561Y-163092301D01*
X91029289Y-163085711D01*
X91022699Y-163078439D01*
X91016853Y-163070557D01*
X91011808Y-163062140D01*
X91007612Y-163053268D01*
X91004306Y-163044028D01*
X91001921Y-163034509D01*
X91000482Y-163024802D01*
X91000000Y-163015000D01*
X91000000Y-162815000D01*
X91000482Y-162805198D01*
X91001921Y-162795491D01*
X91004306Y-162785972D01*
X91007612Y-162776732D01*
X91011808Y-162767860D01*
X91016853Y-162759443D01*
X91022699Y-162751561D01*
X91029289Y-162744289D01*
X91036561Y-162737699D01*
X91044443Y-162731853D01*
X91052860Y-162726808D01*
X91061732Y-162722612D01*
X91070972Y-162719306D01*
X91080491Y-162716921D01*
X91090198Y-162715482D01*
X91100000Y-162715000D01*
X92450000Y-162715000D01*
X92459802Y-162715482D01*
G37*
G36*
X92459802Y-162065482D02*
G01*
X92469509Y-162066921D01*
X92479028Y-162069306D01*
X92488268Y-162072612D01*
X92497140Y-162076808D01*
X92505557Y-162081853D01*
X92513439Y-162087699D01*
X92520711Y-162094289D01*
X92527301Y-162101561D01*
X92533147Y-162109443D01*
X92538192Y-162117860D01*
X92542388Y-162126732D01*
X92545694Y-162135972D01*
X92548079Y-162145491D01*
X92549518Y-162155198D01*
X92550000Y-162165000D01*
X92550000Y-162365000D01*
X92549518Y-162374802D01*
X92548079Y-162384509D01*
X92545694Y-162394028D01*
X92542388Y-162403268D01*
X92538192Y-162412140D01*
X92533147Y-162420557D01*
X92527301Y-162428439D01*
X92520711Y-162435711D01*
X92513439Y-162442301D01*
X92505557Y-162448147D01*
X92497140Y-162453192D01*
X92488268Y-162457388D01*
X92479028Y-162460694D01*
X92469509Y-162463079D01*
X92459802Y-162464518D01*
X92450000Y-162465000D01*
X91100000Y-162465000D01*
X91090198Y-162464518D01*
X91080491Y-162463079D01*
X91070972Y-162460694D01*
X91061732Y-162457388D01*
X91052860Y-162453192D01*
X91044443Y-162448147D01*
X91036561Y-162442301D01*
X91029289Y-162435711D01*
X91022699Y-162428439D01*
X91016853Y-162420557D01*
X91011808Y-162412140D01*
X91007612Y-162403268D01*
X91004306Y-162394028D01*
X91001921Y-162384509D01*
X91000482Y-162374802D01*
X91000000Y-162365000D01*
X91000000Y-162165000D01*
X91000482Y-162155198D01*
X91001921Y-162145491D01*
X91004306Y-162135972D01*
X91007612Y-162126732D01*
X91011808Y-162117860D01*
X91016853Y-162109443D01*
X91022699Y-162101561D01*
X91029289Y-162094289D01*
X91036561Y-162087699D01*
X91044443Y-162081853D01*
X91052860Y-162076808D01*
X91061732Y-162072612D01*
X91070972Y-162069306D01*
X91080491Y-162066921D01*
X91090198Y-162065482D01*
X91100000Y-162065000D01*
X92450000Y-162065000D01*
X92459802Y-162065482D01*
G37*
G36*
X92459802Y-161415482D02*
G01*
X92469509Y-161416921D01*
X92479028Y-161419306D01*
X92488268Y-161422612D01*
X92497140Y-161426808D01*
X92505557Y-161431853D01*
X92513439Y-161437699D01*
X92520711Y-161444289D01*
X92527301Y-161451561D01*
X92533147Y-161459443D01*
X92538192Y-161467860D01*
X92542388Y-161476732D01*
X92545694Y-161485972D01*
X92548079Y-161495491D01*
X92549518Y-161505198D01*
X92550000Y-161515000D01*
X92550000Y-161715000D01*
X92549518Y-161724802D01*
X92548079Y-161734509D01*
X92545694Y-161744028D01*
X92542388Y-161753268D01*
X92538192Y-161762140D01*
X92533147Y-161770557D01*
X92527301Y-161778439D01*
X92520711Y-161785711D01*
X92513439Y-161792301D01*
X92505557Y-161798147D01*
X92497140Y-161803192D01*
X92488268Y-161807388D01*
X92479028Y-161810694D01*
X92469509Y-161813079D01*
X92459802Y-161814518D01*
X92450000Y-161815000D01*
X91100000Y-161815000D01*
X91090198Y-161814518D01*
X91080491Y-161813079D01*
X91070972Y-161810694D01*
X91061732Y-161807388D01*
X91052860Y-161803192D01*
X91044443Y-161798147D01*
X91036561Y-161792301D01*
X91029289Y-161785711D01*
X91022699Y-161778439D01*
X91016853Y-161770557D01*
X91011808Y-161762140D01*
X91007612Y-161753268D01*
X91004306Y-161744028D01*
X91001921Y-161734509D01*
X91000482Y-161724802D01*
X91000000Y-161715000D01*
X91000000Y-161515000D01*
X91000482Y-161505198D01*
X91001921Y-161495491D01*
X91004306Y-161485972D01*
X91007612Y-161476732D01*
X91011808Y-161467860D01*
X91016853Y-161459443D01*
X91022699Y-161451561D01*
X91029289Y-161444289D01*
X91036561Y-161437699D01*
X91044443Y-161431853D01*
X91052860Y-161426808D01*
X91061732Y-161422612D01*
X91070972Y-161419306D01*
X91080491Y-161416921D01*
X91090198Y-161415482D01*
X91100000Y-161415000D01*
X92450000Y-161415000D01*
X92459802Y-161415482D01*
G37*
G36*
X92459802Y-160765482D02*
G01*
X92469509Y-160766921D01*
X92479028Y-160769306D01*
X92488268Y-160772612D01*
X92497140Y-160776808D01*
X92505557Y-160781853D01*
X92513439Y-160787699D01*
X92520711Y-160794289D01*
X92527301Y-160801561D01*
X92533147Y-160809443D01*
X92538192Y-160817860D01*
X92542388Y-160826732D01*
X92545694Y-160835972D01*
X92548079Y-160845491D01*
X92549518Y-160855198D01*
X92550000Y-160865000D01*
X92550000Y-161065000D01*
X92549518Y-161074802D01*
X92548079Y-161084509D01*
X92545694Y-161094028D01*
X92542388Y-161103268D01*
X92538192Y-161112140D01*
X92533147Y-161120557D01*
X92527301Y-161128439D01*
X92520711Y-161135711D01*
X92513439Y-161142301D01*
X92505557Y-161148147D01*
X92497140Y-161153192D01*
X92488268Y-161157388D01*
X92479028Y-161160694D01*
X92469509Y-161163079D01*
X92459802Y-161164518D01*
X92450000Y-161165000D01*
X91100000Y-161165000D01*
X91090198Y-161164518D01*
X91080491Y-161163079D01*
X91070972Y-161160694D01*
X91061732Y-161157388D01*
X91052860Y-161153192D01*
X91044443Y-161148147D01*
X91036561Y-161142301D01*
X91029289Y-161135711D01*
X91022699Y-161128439D01*
X91016853Y-161120557D01*
X91011808Y-161112140D01*
X91007612Y-161103268D01*
X91004306Y-161094028D01*
X91001921Y-161084509D01*
X91000482Y-161074802D01*
X91000000Y-161065000D01*
X91000000Y-160865000D01*
X91000482Y-160855198D01*
X91001921Y-160845491D01*
X91004306Y-160835972D01*
X91007612Y-160826732D01*
X91011808Y-160817860D01*
X91016853Y-160809443D01*
X91022699Y-160801561D01*
X91029289Y-160794289D01*
X91036561Y-160787699D01*
X91044443Y-160781853D01*
X91052860Y-160776808D01*
X91061732Y-160772612D01*
X91070972Y-160769306D01*
X91080491Y-160766921D01*
X91090198Y-160765482D01*
X91100000Y-160765000D01*
X92450000Y-160765000D01*
X92459802Y-160765482D01*
G37*
G36*
X92459802Y-160115482D02*
G01*
X92469509Y-160116921D01*
X92479028Y-160119306D01*
X92488268Y-160122612D01*
X92497140Y-160126808D01*
X92505557Y-160131853D01*
X92513439Y-160137699D01*
X92520711Y-160144289D01*
X92527301Y-160151561D01*
X92533147Y-160159443D01*
X92538192Y-160167860D01*
X92542388Y-160176732D01*
X92545694Y-160185972D01*
X92548079Y-160195491D01*
X92549518Y-160205198D01*
X92550000Y-160215000D01*
X92550000Y-160415000D01*
X92549518Y-160424802D01*
X92548079Y-160434509D01*
X92545694Y-160444028D01*
X92542388Y-160453268D01*
X92538192Y-160462140D01*
X92533147Y-160470557D01*
X92527301Y-160478439D01*
X92520711Y-160485711D01*
X92513439Y-160492301D01*
X92505557Y-160498147D01*
X92497140Y-160503192D01*
X92488268Y-160507388D01*
X92479028Y-160510694D01*
X92469509Y-160513079D01*
X92459802Y-160514518D01*
X92450000Y-160515000D01*
X91100000Y-160515000D01*
X91090198Y-160514518D01*
X91080491Y-160513079D01*
X91070972Y-160510694D01*
X91061732Y-160507388D01*
X91052860Y-160503192D01*
X91044443Y-160498147D01*
X91036561Y-160492301D01*
X91029289Y-160485711D01*
X91022699Y-160478439D01*
X91016853Y-160470557D01*
X91011808Y-160462140D01*
X91007612Y-160453268D01*
X91004306Y-160444028D01*
X91001921Y-160434509D01*
X91000482Y-160424802D01*
X91000000Y-160415000D01*
X91000000Y-160215000D01*
X91000482Y-160205198D01*
X91001921Y-160195491D01*
X91004306Y-160185972D01*
X91007612Y-160176732D01*
X91011808Y-160167860D01*
X91016853Y-160159443D01*
X91022699Y-160151561D01*
X91029289Y-160144289D01*
X91036561Y-160137699D01*
X91044443Y-160131853D01*
X91052860Y-160126808D01*
X91061732Y-160122612D01*
X91070972Y-160119306D01*
X91080491Y-160116921D01*
X91090198Y-160115482D01*
X91100000Y-160115000D01*
X92450000Y-160115000D01*
X92459802Y-160115482D01*
G37*
G36*
X92459802Y-159465482D02*
G01*
X92469509Y-159466921D01*
X92479028Y-159469306D01*
X92488268Y-159472612D01*
X92497140Y-159476808D01*
X92505557Y-159481853D01*
X92513439Y-159487699D01*
X92520711Y-159494289D01*
X92527301Y-159501561D01*
X92533147Y-159509443D01*
X92538192Y-159517860D01*
X92542388Y-159526732D01*
X92545694Y-159535972D01*
X92548079Y-159545491D01*
X92549518Y-159555198D01*
X92550000Y-159565000D01*
X92550000Y-159765000D01*
X92549518Y-159774802D01*
X92548079Y-159784509D01*
X92545694Y-159794028D01*
X92542388Y-159803268D01*
X92538192Y-159812140D01*
X92533147Y-159820557D01*
X92527301Y-159828439D01*
X92520711Y-159835711D01*
X92513439Y-159842301D01*
X92505557Y-159848147D01*
X92497140Y-159853192D01*
X92488268Y-159857388D01*
X92479028Y-159860694D01*
X92469509Y-159863079D01*
X92459802Y-159864518D01*
X92450000Y-159865000D01*
X91100000Y-159865000D01*
X91090198Y-159864518D01*
X91080491Y-159863079D01*
X91070972Y-159860694D01*
X91061732Y-159857388D01*
X91052860Y-159853192D01*
X91044443Y-159848147D01*
X91036561Y-159842301D01*
X91029289Y-159835711D01*
X91022699Y-159828439D01*
X91016853Y-159820557D01*
X91011808Y-159812140D01*
X91007612Y-159803268D01*
X91004306Y-159794028D01*
X91001921Y-159784509D01*
X91000482Y-159774802D01*
X91000000Y-159765000D01*
X91000000Y-159565000D01*
X91000482Y-159555198D01*
X91001921Y-159545491D01*
X91004306Y-159535972D01*
X91007612Y-159526732D01*
X91011808Y-159517860D01*
X91016853Y-159509443D01*
X91022699Y-159501561D01*
X91029289Y-159494289D01*
X91036561Y-159487699D01*
X91044443Y-159481853D01*
X91052860Y-159476808D01*
X91061732Y-159472612D01*
X91070972Y-159469306D01*
X91080491Y-159466921D01*
X91090198Y-159465482D01*
X91100000Y-159465000D01*
X92450000Y-159465000D01*
X92459802Y-159465482D01*
G37*
G36*
X92459802Y-158815482D02*
G01*
X92469509Y-158816921D01*
X92479028Y-158819306D01*
X92488268Y-158822612D01*
X92497140Y-158826808D01*
X92505557Y-158831853D01*
X92513439Y-158837699D01*
X92520711Y-158844289D01*
X92527301Y-158851561D01*
X92533147Y-158859443D01*
X92538192Y-158867860D01*
X92542388Y-158876732D01*
X92545694Y-158885972D01*
X92548079Y-158895491D01*
X92549518Y-158905198D01*
X92550000Y-158915000D01*
X92550000Y-159115000D01*
X92549518Y-159124802D01*
X92548079Y-159134509D01*
X92545694Y-159144028D01*
X92542388Y-159153268D01*
X92538192Y-159162140D01*
X92533147Y-159170557D01*
X92527301Y-159178439D01*
X92520711Y-159185711D01*
X92513439Y-159192301D01*
X92505557Y-159198147D01*
X92497140Y-159203192D01*
X92488268Y-159207388D01*
X92479028Y-159210694D01*
X92469509Y-159213079D01*
X92459802Y-159214518D01*
X92450000Y-159215000D01*
X91100000Y-159215000D01*
X91090198Y-159214518D01*
X91080491Y-159213079D01*
X91070972Y-159210694D01*
X91061732Y-159207388D01*
X91052860Y-159203192D01*
X91044443Y-159198147D01*
X91036561Y-159192301D01*
X91029289Y-159185711D01*
X91022699Y-159178439D01*
X91016853Y-159170557D01*
X91011808Y-159162140D01*
X91007612Y-159153268D01*
X91004306Y-159144028D01*
X91001921Y-159134509D01*
X91000482Y-159124802D01*
X91000000Y-159115000D01*
X91000000Y-158915000D01*
X91000482Y-158905198D01*
X91001921Y-158895491D01*
X91004306Y-158885972D01*
X91007612Y-158876732D01*
X91011808Y-158867860D01*
X91016853Y-158859443D01*
X91022699Y-158851561D01*
X91029289Y-158844289D01*
X91036561Y-158837699D01*
X91044443Y-158831853D01*
X91052860Y-158826808D01*
X91061732Y-158822612D01*
X91070972Y-158819306D01*
X91080491Y-158816921D01*
X91090198Y-158815482D01*
X91100000Y-158815000D01*
X92450000Y-158815000D01*
X92459802Y-158815482D01*
G37*
G36*
X87899504Y-154701204D02*
G01*
X87923773Y-154704804D01*
X87947571Y-154710765D01*
X87970671Y-154719030D01*
X87992849Y-154729520D01*
X88013893Y-154742133D01*
X88033598Y-154756747D01*
X88051777Y-154773223D01*
X88068253Y-154791402D01*
X88082867Y-154811107D01*
X88095480Y-154832151D01*
X88105970Y-154854329D01*
X88114235Y-154877429D01*
X88120196Y-154901227D01*
X88123796Y-154925496D01*
X88125000Y-154950000D01*
X88125000Y-156200000D01*
X88123796Y-156224504D01*
X88120196Y-156248773D01*
X88114235Y-156272571D01*
X88105970Y-156295671D01*
X88095480Y-156317849D01*
X88082867Y-156338893D01*
X88068253Y-156358598D01*
X88051777Y-156376777D01*
X88033598Y-156393253D01*
X88013893Y-156407867D01*
X87992849Y-156420480D01*
X87970671Y-156430970D01*
X87947571Y-156439235D01*
X87923773Y-156445196D01*
X87899504Y-156448796D01*
X87875000Y-156450000D01*
X87125000Y-156450000D01*
X87100496Y-156448796D01*
X87076227Y-156445196D01*
X87052429Y-156439235D01*
X87029329Y-156430970D01*
X87007151Y-156420480D01*
X86986107Y-156407867D01*
X86966402Y-156393253D01*
X86948223Y-156376777D01*
X86931747Y-156358598D01*
X86917133Y-156338893D01*
X86904520Y-156317849D01*
X86894030Y-156295671D01*
X86885765Y-156272571D01*
X86879804Y-156248773D01*
X86876204Y-156224504D01*
X86875000Y-156200000D01*
X86875000Y-154950000D01*
X86876204Y-154925496D01*
X86879804Y-154901227D01*
X86885765Y-154877429D01*
X86894030Y-154854329D01*
X86904520Y-154832151D01*
X86917133Y-154811107D01*
X86931747Y-154791402D01*
X86948223Y-154773223D01*
X86966402Y-154756747D01*
X86986107Y-154742133D01*
X87007151Y-154729520D01*
X87029329Y-154719030D01*
X87052429Y-154710765D01*
X87076227Y-154704804D01*
X87100496Y-154701204D01*
X87125000Y-154700000D01*
X87875000Y-154700000D01*
X87899504Y-154701204D01*
G37*
G36*
X90699504Y-154701204D02*
G01*
X90723773Y-154704804D01*
X90747571Y-154710765D01*
X90770671Y-154719030D01*
X90792849Y-154729520D01*
X90813893Y-154742133D01*
X90833598Y-154756747D01*
X90851777Y-154773223D01*
X90868253Y-154791402D01*
X90882867Y-154811107D01*
X90895480Y-154832151D01*
X90905970Y-154854329D01*
X90914235Y-154877429D01*
X90920196Y-154901227D01*
X90923796Y-154925496D01*
X90925000Y-154950000D01*
X90925000Y-156200000D01*
X90923796Y-156224504D01*
X90920196Y-156248773D01*
X90914235Y-156272571D01*
X90905970Y-156295671D01*
X90895480Y-156317849D01*
X90882867Y-156338893D01*
X90868253Y-156358598D01*
X90851777Y-156376777D01*
X90833598Y-156393253D01*
X90813893Y-156407867D01*
X90792849Y-156420480D01*
X90770671Y-156430970D01*
X90747571Y-156439235D01*
X90723773Y-156445196D01*
X90699504Y-156448796D01*
X90675000Y-156450000D01*
X89925000Y-156450000D01*
X89900496Y-156448796D01*
X89876227Y-156445196D01*
X89852429Y-156439235D01*
X89829329Y-156430970D01*
X89807151Y-156420480D01*
X89786107Y-156407867D01*
X89766402Y-156393253D01*
X89748223Y-156376777D01*
X89731747Y-156358598D01*
X89717133Y-156338893D01*
X89704520Y-156317849D01*
X89694030Y-156295671D01*
X89685765Y-156272571D01*
X89679804Y-156248773D01*
X89676204Y-156224504D01*
X89675000Y-156200000D01*
X89675000Y-154950000D01*
X89676204Y-154925496D01*
X89679804Y-154901227D01*
X89685765Y-154877429D01*
X89694030Y-154854329D01*
X89704520Y-154832151D01*
X89717133Y-154811107D01*
X89731747Y-154791402D01*
X89748223Y-154773223D01*
X89766402Y-154756747D01*
X89786107Y-154742133D01*
X89807151Y-154729520D01*
X89829329Y-154719030D01*
X89852429Y-154710765D01*
X89876227Y-154704804D01*
X89900496Y-154701204D01*
X89925000Y-154700000D01*
X90675000Y-154700000D01*
X90699504Y-154701204D01*
G37*
D11*
X98520000Y-151130000D03*
X94520000Y-151130000D03*
X79280000Y-151130000D03*
X83280000Y-151130000D03*
M02*
