M48
; DRILL file {KiCad (5.1.5)-3} date 7.5.2020. 11:30:41
; FORMAT={-:-/ absolute / inch / decimal}
; #@! TF.CreationDate,2020-05-07T11:30:41+02:00
; #@! TF.GenerationSoftware,Kicad,Pcbnew,(5.1.5)-3
; #@! TF.FileFunction,Plated,1,2,PTH
FMAT,2
INCH
T1C0.0157
T2C0.0394
T3C0.0591
%
G90
G05
T1
X3.27Y-5.95
X3.29Y-6.6
X3.3Y-6.825
X3.31Y-5.93
X3.31Y-5.97
X3.3325Y-6.5175
X3.465Y-6.6
X3.5131Y-6.825
X3.54Y-6.6
X3.555Y-6.125
X3.7125Y-6.2
X3.7131Y-6.6
X3.7875Y-6.4
X3.7875Y-6.825
X3.79Y-6.6
X3.8025Y-6.2925
X3.87Y-5.95
X3.91Y-5.93
X3.91Y-5.97
T2
X3.05Y-6.15
X3.05Y-6.25
X3.05Y-6.35
X3.05Y-6.45
X3.05Y-6.55
X3.05Y-6.65
X3.05Y-6.75
X3.05Y-6.85
X3.95Y-6.15
X3.95Y-6.25
X3.95Y-6.35
X3.95Y-6.45
X3.95Y-6.55
X3.95Y-6.65
X3.95Y-6.75
X3.95Y-6.85
T3
X3.5Y-6.35
X3.2Y-5.525
X3.4Y-5.525
X3.6Y-5.525
X3.8Y-5.525
T0
M30
